<svg width="1388" height="2359" viewBox="0 0 1388 2359" fill="none" xmlns="http://www.w3.org/2000/svg">
<path d="M2 172.818C2 77.374 79.374 0 174.818 0H347.636V172.818C347.636 268.262 270.262 345.636 174.818 345.636C79.374 345.636 2 268.262 2 172.818Z" fill="#24CB71"/>
<path d="M347.636 518.454C347.636 423.01 425.01 345.636 520.454 345.636H693.272V518.454C693.272 613.898 615.898 691.272 520.454 691.272C425.01 691.272 347.636 613.898 347.636 518.454Z" fill="#874FFF"/>
<path d="M174.818 691.272C270.263 691.272 347.636 613.898 347.636 518.454C347.636 423.009 270.263 345.636 174.818 345.636C79.3732 345.636 2 423.009 2 518.454C2 613.898 79.3732 691.272 174.818 691.272Z" fill="#FF3737"/>
<path d="M522.182 345.636C617.627 345.636 695 268.263 695 172.818C695 77.3732 617.627 0 522.182 0C426.737 0 349.364 77.3732 349.364 172.818C349.364 268.263 426.737 345.636 522.182 345.636Z" fill="#FF7237"/>
<path d="M695 968.818C695 873.374 772.374 796 867.818 796H1040.64V968.818C1040.64 1064.26 963.262 1141.64 867.818 1141.64C772.374 1141.64 695 1064.26 695 968.818Z" fill="#24CB71"/>
<path d="M1040.64 1314.45C1040.64 1219.01 1118.01 1141.64 1213.45 1141.64H1386.27V1314.45C1386.27 1409.9 1308.9 1487.27 1213.45 1487.27C1118.01 1487.27 1040.64 1409.9 1040.64 1314.45Z" fill="#874FFF"/>
<path d="M867.818 1487.27C963.263 1487.27 1040.64 1409.9 1040.64 1314.45C1040.64 1219.01 963.263 1141.64 867.818 1141.64C772.373 1141.64 695 1219.01 695 1314.45C695 1409.9 772.373 1487.27 867.818 1487.27Z" fill="#FF3737"/>
<path d="M1215.18 1141.64C1310.63 1141.64 1388 1064.26 1388 968.818C1388 873.373 1310.63 796 1215.18 796C1119.74 796 1042.36 873.373 1042.36 968.818C1042.36 1064.26 1119.74 1141.64 1215.18 1141.64Z" fill="#FF7237"/>
<path d="M0 1839.82C0 1744.37 77.374 1667 172.818 1667H345.636V1839.82C345.636 1935.26 268.262 2012.64 172.818 2012.64C77.374 2012.64 0 1935.26 0 1839.82Z" fill="#24CB71"/>
<path d="M345.636 2185.45C345.636 2090.01 423.01 2012.64 518.454 2012.64H691.272V2185.45C691.272 2280.9 613.898 2358.27 518.454 2358.27C423.01 2358.27 345.636 2280.9 345.636 2185.45Z" fill="#874FFF"/>
<path d="M172.818 2358.27C268.263 2358.27 345.636 2280.9 345.636 2185.45C345.636 2090.01 268.263 2012.64 172.818 2012.64C77.3732 2012.64 0 2090.01 0 2185.45C0 2280.9 77.3732 2358.27 172.818 2358.27Z" fill="#FF3737"/>
<path d="M520.182 2012.64C615.627 2012.64 693 1935.26 693 1839.82C693 1744.37 615.627 1667 520.182 1667C424.737 1667 347.364 1744.37 347.364 1839.82C347.364 1935.26 424.737 2012.64 520.182 2012.64Z" fill="#FF7237"/>
</svg>
