<svg width="193" height="193" viewBox="0 0 193 193" fill="none" xmlns="http://www.w3.org/2000/svg">
<circle cx="96.5" cy="96.5" r="96.5" fill="#FFEB03"/>
<path d="M59.0525 120.152C55.0418 120.152 51.5645 119.427 48.6205 117.976C45.6765 116.483 43.3938 114.349 41.7725 111.576C40.1938 108.76 39.4045 105.368 39.4045 101.4C39.4045 97.8587 40.0018 94.5307 41.1965 91.416C42.4338 88.3013 44.1618 85.5707 46.3805 83.224C48.6418 80.8347 51.2872 78.9787 54.3165 77.656C57.3885 76.2907 60.7592 75.608 64.4285 75.608C66.6045 75.608 68.6525 75.8427 70.5725 76.312C72.5352 76.7813 74.5192 77.5707 76.5245 78.68L74.9885 88.536H74.3485L72.1725 81.752C71.6178 79.9173 70.7432 78.6587 69.5485 77.976C68.3965 77.2507 66.8605 76.888 64.9405 76.888C61.6552 76.888 58.7752 77.9333 56.3005 80.024C53.8685 82.072 51.9698 84.952 50.6045 88.664C49.2392 92.3333 48.5565 96.6 48.5565 101.464C48.5565 106.797 49.5805 111.043 51.6285 114.2C53.7192 117.315 56.6845 118.872 60.5245 118.872C62.1885 118.872 63.5325 118.552 64.5565 117.912C65.6232 117.272 66.5618 116.291 67.3725 114.968L72.1085 107.288H72.7485L71.2125 117.016C69.5485 117.955 67.7565 118.701 65.8365 119.256C63.9592 119.853 61.6978 120.152 59.0525 120.152ZM87.1875 83.672C85.9928 83.672 84.9475 83.288 84.0515 82.52C83.1982 81.7093 82.7715 80.6427 82.7715 79.32C82.7715 77.8267 83.2835 76.6107 84.3075 75.672C85.3742 74.6907 86.5688 74.2 87.8915 74.2C89.1715 74.2 90.2168 74.6053 91.0275 75.416C91.8382 76.2267 92.2435 77.272 92.2435 78.552C92.2435 80.0027 91.7315 81.2187 90.7075 82.2C89.6835 83.1813 88.5102 83.672 87.1875 83.672ZM81.2355 119.96C79.9128 119.96 78.8248 119.619 77.9715 118.936C77.1182 118.253 76.6915 117.251 76.6915 115.928C76.6915 115.16 76.7768 114.243 76.9475 113.176C77.1182 112.109 77.3102 111.043 77.5235 109.976L80.5315 95.576C80.9155 93.8267 80.2968 92.5893 78.6755 91.864L77.6515 91.352L77.7155 90.648L89.7475 87.192L90.3875 87.768L85.3955 110.936C85.2248 111.704 85.0968 112.365 85.0115 112.92C84.9262 113.432 84.8835 113.944 84.8835 114.456C84.8835 115.395 85.3102 115.864 86.1635 115.864C86.8035 115.864 87.4435 115.672 88.0835 115.288C88.7235 114.861 89.5342 114.179 90.5155 113.24L91.0915 113.816C90.0248 115.395 88.6595 116.824 86.9955 118.104C85.3742 119.341 83.4542 119.96 81.2355 119.96ZM101.484 119.576L100.844 119.064C100.46 114.371 100.055 110.019 99.6285 106.008C99.2018 101.955 98.7752 97.9867 98.3485 94.104C98.2632 93.1227 98.0712 92.504 97.7725 92.248C97.4738 91.9493 97.1325 91.8 96.7485 91.8C95.9805 91.8 94.9138 92.6107 93.5485 94.232L92.7805 93.464C94.2738 91.416 95.7032 89.88 97.0685 88.856C98.4765 87.7893 99.9058 87.256 101.356 87.256C104.343 87.256 106.028 89.24 106.412 93.208C106.668 96.2373 106.924 99.5013 107.181 103C107.479 106.499 107.756 110.232 108.012 114.2C109.634 112.237 111.148 110.36 112.556 108.568C114.007 106.733 115.373 104.835 116.653 102.872C117.378 101.763 117.783 100.696 117.868 99.672C117.954 98.6053 117.762 97.4747 117.292 96.28L116.205 93.272C115.65 91.608 115.735 90.1573 116.461 88.92C117.228 87.6827 118.338 87.064 119.788 87.064C121.282 87.064 122.327 87.512 122.924 88.408C123.564 89.304 123.884 90.3707 123.884 91.608C123.884 92.4613 123.65 93.5067 123.181 94.744C122.754 95.9813 121.922 97.6453 120.684 99.736C119.02 102.509 116.887 105.603 114.285 109.016C111.682 112.429 108.738 115.8 105.452 119.128L101.484 119.576ZM134.747 83.672C133.552 83.672 132.507 83.288 131.611 82.52C130.757 81.7093 130.331 80.6427 130.331 79.32C130.331 77.8267 130.843 76.6107 131.867 75.672C132.933 74.6907 134.128 74.2 135.451 74.2C136.731 74.2 137.776 74.6053 138.587 75.416C139.397 76.2267 139.803 77.272 139.803 78.552C139.803 80.0027 139.291 81.2187 138.267 82.2C137.243 83.1813 136.069 83.672 134.747 83.672ZM128.795 119.96C127.472 119.96 126.384 119.619 125.531 118.936C124.677 118.253 124.251 117.251 124.251 115.928C124.251 115.16 124.336 114.243 124.507 113.176C124.677 112.109 124.869 111.043 125.083 109.976L128.091 95.576C128.475 93.8267 127.856 92.5893 126.235 91.864L125.211 91.352L125.275 90.648L137.307 87.192L137.947 87.768L132.955 110.936C132.784 111.704 132.656 112.365 132.571 112.92C132.485 113.432 132.443 113.944 132.443 114.456C132.443 115.395 132.869 115.864 133.723 115.864C134.363 115.864 135.003 115.672 135.643 115.288C136.283 114.861 137.093 114.179 138.075 113.24L138.651 113.816C137.584 115.395 136.219 116.824 134.555 118.104C132.933 119.341 131.013 119.96 128.795 119.96ZM146.58 119.832C145.129 119.832 143.935 119.384 142.996 118.488C142.1 117.549 141.652 116.44 141.652 115.16C141.652 113.539 142.228 112.173 143.38 111.064C144.575 109.955 145.94 109.4 147.476 109.4C148.927 109.4 150.1 109.869 150.996 110.808C151.935 111.747 152.404 112.877 152.404 114.2C152.404 115.779 151.807 117.123 150.612 118.232C149.46 119.299 148.116 119.832 146.58 119.832Z" fill="black"/>
</svg>
