<svg width="284" height="284" viewBox="0 0 284 284" fill="none" xmlns="http://www.w3.org/2000/svg">
<path d="M0 70.8229C0 31.7088 31.7088 0 70.8229 0H141.646V70.8229C141.646 109.937 109.937 141.646 70.8229 141.646C31.7088 141.646 0 109.937 0 70.8229Z" fill="#24CB71"/>
<path d="M141.646 212.469C141.646 173.355 173.355 141.646 212.469 141.646H283.292V212.469C283.292 251.583 251.583 283.292 212.469 283.292C173.355 283.292 141.646 251.583 141.646 212.469Z" fill="#874FFF"/>
<path d="M70.8229 283.292C109.937 283.292 141.646 251.583 141.646 212.469C141.646 173.354 109.937 141.646 70.8229 141.646C31.7085 141.646 0 173.354 0 212.469C0 251.583 31.7085 283.292 70.8229 283.292Z" fill="#FF3737"/>
<path d="M213.177 141.646C252.292 141.646 284 109.937 284 70.8229C284 31.7085 252.292 0 213.177 0C174.063 0 142.354 31.7085 142.354 70.8229C142.354 109.937 174.063 141.646 213.177 141.646Z" fill="#FF7237"/>
</svg>
