<svg width="1083" height="2269" viewBox="0 0 1083 2269" fill="none" xmlns="http://www.w3.org/2000/svg">
<g filter="url(#filter0_i_2413_1150)">
<rect x="3.71484" y="1.99512" width="1075.61" height="2265.01" rx="154.991" fill="black"/>
</g>
<rect x="9.57207" y="7.85235" width="1063.9" height="2253.29" rx="149.134" stroke="#CDB285" stroke-width="11.7145"/>
<g filter="url(#filter1_i_2413_1150)">
<rect x="0.775391" width="1081.49" height="2269" rx="154.991" fill="black" fill-opacity="0.01"/>
</g>
<rect x="1.6765" y="0.901112" width="1079.69" height="2267.2" rx="154.09" stroke="#5F4627" stroke-width="1.80222"/>
<g filter="url(#filter2_i_2413_1150)">
<rect x="3.71484" y="1.99512" width="1075.61" height="2265.01" rx="154.991" fill="black" fill-opacity="0.01"/>
</g>
<rect x="5.51707" y="3.79734" width="1072.01" height="2261.4" rx="153.189" stroke="url(#paint0_linear_2413_1150)" stroke-width="3.60445"/>
<mask id="mask0_2413_1150" style="mask-type:alpha" maskUnits="userSpaceOnUse" x="41" y="42" width="1003" height="2186">
<rect x="41.8315" y="42.0186" width="1002.05" height="2185.88" rx="112.647" fill="white"/>
</mask>
<g mask="url(#mask0_2413_1150)">
<rect width="1002" height="2185" transform="translate(42 42)" fill="white"/>
<path d="M352.654 1070.84H329.074L325.294 1082H309.184L332.044 1018.82H349.864L372.724 1082H356.434L352.654 1070.84ZM348.694 1058.96L340.864 1035.83L333.124 1058.96H348.694ZM403.352 1018.82C410.012 1018.82 415.832 1020.14 420.812 1022.78C425.792 1025.42 429.632 1029.14 432.332 1033.94C435.092 1038.68 436.472 1044.17 436.472 1050.41C436.472 1056.59 435.092 1062.08 432.332 1066.88C429.632 1071.68 425.762 1075.4 420.722 1078.04C415.742 1080.68 409.952 1082 403.352 1082H379.682V1018.82H403.352ZM402.362 1068.68C408.182 1068.68 412.712 1067.09 415.952 1063.91C419.192 1060.73 420.812 1056.23 420.812 1050.41C420.812 1044.59 419.192 1040.06 415.952 1036.82C412.712 1033.58 408.182 1031.96 402.362 1031.96H395.072V1068.68H402.362ZM468.742 1018.82C475.402 1018.82 481.222 1020.14 486.202 1022.78C491.182 1025.42 495.022 1029.14 497.722 1033.94C500.482 1038.68 501.862 1044.17 501.862 1050.41C501.862 1056.59 500.482 1062.08 497.722 1066.88C495.022 1071.68 491.152 1075.4 486.112 1078.04C481.132 1080.68 475.342 1082 468.742 1082H445.072V1018.82H468.742ZM467.752 1068.68C473.572 1068.68 478.102 1067.09 481.342 1063.91C484.582 1060.73 486.202 1056.23 486.202 1050.41C486.202 1044.59 484.582 1040.06 481.342 1036.82C478.102 1033.58 473.572 1031.96 467.752 1031.96H460.462V1068.68H467.752ZM583.715 1018.82L561.845 1061.12V1082H546.455V1061.12L524.585 1018.82H542.045L554.285 1045.28L566.435 1018.82H583.715ZM619.796 1082.63C613.856 1082.63 608.396 1081.25 603.416 1078.49C598.496 1075.73 594.566 1071.89 591.626 1066.97C588.746 1061.99 587.306 1056.41 587.306 1050.23C587.306 1044.05 588.746 1038.5 591.626 1033.58C594.566 1028.66 598.496 1024.82 603.416 1022.06C608.396 1019.3 613.856 1017.92 619.796 1017.92C625.736 1017.92 631.166 1019.3 636.086 1022.06C641.066 1024.82 644.966 1028.66 647.786 1033.58C650.666 1038.5 652.106 1044.05 652.106 1050.23C652.106 1056.41 650.666 1061.99 647.786 1066.97C644.906 1071.89 641.006 1075.73 636.086 1078.49C631.166 1081.25 625.736 1082.63 619.796 1082.63ZM619.796 1068.59C624.836 1068.59 628.856 1066.91 631.856 1063.55C634.916 1060.19 636.446 1055.75 636.446 1050.23C636.446 1044.65 634.916 1040.21 631.856 1036.91C628.856 1033.55 624.836 1031.87 619.796 1031.87C614.696 1031.87 610.616 1033.52 607.556 1036.82C604.556 1040.12 603.056 1044.59 603.056 1050.23C603.056 1055.81 604.556 1060.28 607.556 1063.64C610.616 1066.94 614.696 1068.59 619.796 1068.59ZM675.788 1018.82V1056.62C675.788 1060.4 676.718 1063.31 678.578 1065.35C680.438 1067.39 683.168 1068.41 686.768 1068.41C690.368 1068.41 693.128 1067.39 695.048 1065.35C696.968 1063.31 697.928 1060.4 697.928 1056.62V1018.82H713.318V1056.53C713.318 1062.17 712.118 1066.94 709.718 1070.84C707.318 1074.74 704.078 1077.68 699.998 1079.66C695.978 1081.64 691.478 1082.63 686.498 1082.63C681.518 1082.63 677.048 1081.67 673.088 1079.75C669.188 1077.77 666.098 1074.83 663.818 1070.93C661.538 1066.97 660.398 1062.17 660.398 1056.53V1018.82H675.788ZM756.345 1082L743.205 1058.15H739.515V1082H724.125V1018.82H749.955C754.935 1018.82 759.165 1019.69 762.645 1021.43C766.185 1023.17 768.825 1025.57 770.565 1028.63C772.305 1031.63 773.175 1034.99 773.175 1038.71C773.175 1042.91 771.975 1046.66 769.575 1049.96C767.235 1053.26 763.755 1055.6 759.135 1056.98L773.715 1082H756.345ZM739.515 1047.26H749.055C751.875 1047.26 753.975 1046.57 755.355 1045.19C756.795 1043.81 757.515 1041.86 757.515 1039.34C757.515 1036.94 756.795 1035.05 755.355 1033.67C753.975 1032.29 751.875 1031.6 749.055 1031.6H739.515V1047.26ZM276.594 1249.63C271.974 1249.63 267.834 1248.88 264.174 1247.38C260.514 1245.88 257.574 1243.66 255.354 1240.72C253.194 1237.78 252.054 1234.24 251.934 1230.1H268.314C268.554 1232.44 269.364 1234.24 270.744 1235.5C272.124 1236.7 273.924 1237.3 276.144 1237.3C278.424 1237.3 280.224 1236.79 281.544 1235.77C282.864 1234.69 283.524 1233.22 283.524 1231.36C283.524 1229.8 282.984 1228.51 281.904 1227.49C280.884 1226.47 279.594 1225.63 278.034 1224.97C276.534 1224.31 274.374 1223.56 271.554 1222.72C267.474 1221.46 264.144 1220.2 261.564 1218.94C258.984 1217.68 256.764 1215.82 254.904 1213.36C253.044 1210.9 252.114 1207.69 252.114 1203.73C252.114 1197.85 254.244 1193.26 258.504 1189.96C262.764 1186.6 268.314 1184.92 275.154 1184.92C282.114 1184.92 287.724 1186.6 291.984 1189.96C296.244 1193.26 298.524 1197.88 298.824 1203.82H282.174C282.054 1201.78 281.304 1200.19 279.924 1199.05C278.544 1197.85 276.774 1197.25 274.614 1197.25C272.754 1197.25 271.254 1197.76 270.114 1198.78C268.974 1199.74 268.404 1201.15 268.404 1203.01C268.404 1205.05 269.364 1206.64 271.284 1207.78C273.204 1208.92 276.204 1210.15 280.284 1211.47C284.364 1212.85 287.664 1214.17 290.184 1215.43C292.764 1216.69 294.984 1218.52 296.844 1220.92C298.704 1223.32 299.634 1226.41 299.634 1230.19C299.634 1233.79 298.704 1237.06 296.844 1240C295.044 1242.94 292.404 1245.28 288.924 1247.02C285.444 1248.76 281.334 1249.63 276.594 1249.63ZM306.495 1217.32C306.495 1211.08 307.845 1205.53 310.545 1200.67C313.245 1195.75 316.995 1191.94 321.795 1189.24C326.655 1186.48 332.145 1185.1 338.265 1185.1C345.765 1185.1 352.185 1187.08 357.525 1191.04C362.865 1195 366.435 1200.4 368.235 1207.24H351.315C350.055 1204.6 348.255 1202.59 345.915 1201.21C343.635 1199.83 341.025 1199.14 338.085 1199.14C333.345 1199.14 329.505 1200.79 326.565 1204.09C323.625 1207.39 322.155 1211.8 322.155 1217.32C322.155 1222.84 323.625 1227.25 326.565 1230.55C329.505 1233.85 333.345 1235.5 338.085 1235.5C341.025 1235.5 343.635 1234.81 345.915 1233.43C348.255 1232.05 350.055 1230.04 351.315 1227.4H368.235C366.435 1234.24 362.865 1239.64 357.525 1243.6C352.185 1247.5 345.765 1249.45 338.265 1249.45C332.145 1249.45 326.655 1248.1 321.795 1245.4C316.995 1242.64 313.245 1238.83 310.545 1233.97C307.845 1229.11 306.495 1223.56 306.495 1217.32ZM409.88 1249L396.74 1225.15H393.05V1249H377.66V1185.82H403.49C408.47 1185.82 412.7 1186.69 416.18 1188.43C419.72 1190.17 422.36 1192.57 424.1 1195.63C425.84 1198.63 426.71 1201.99 426.71 1205.71C426.71 1209.91 425.51 1213.66 423.11 1216.96C420.77 1220.26 417.29 1222.6 412.67 1223.98L427.25 1249H409.88ZM393.05 1214.26H402.59C405.41 1214.26 407.51 1213.57 408.89 1212.19C410.33 1210.81 411.05 1208.86 411.05 1206.34C411.05 1203.94 410.33 1202.05 408.89 1200.67C407.51 1199.29 405.41 1198.6 402.59 1198.6H393.05V1214.26ZM451.761 1198.15V1210.93H472.371V1222.81H451.761V1236.67H475.071V1249H436.371V1185.82H475.071V1198.15H451.761ZM500.452 1198.15V1210.93H521.062V1222.81H500.452V1236.67H523.762V1249H485.062V1185.82H523.762V1198.15H500.452ZM590.274 1249H574.884L549.144 1210.03V1249H533.754V1185.82H549.144L574.884 1224.97V1185.82H590.274V1249ZM675.222 1185.82V1249H659.832V1222.99H635.892V1249H620.502V1185.82H635.892V1210.57H659.832V1185.82H675.222ZM701.722 1198.15V1210.93H722.332V1222.81H701.722V1236.67H725.032V1249H686.332V1185.82H725.032V1198.15H701.722ZM767.243 1249L754.103 1225.15H750.413V1249H735.023V1185.82H760.853C765.833 1185.82 770.063 1186.69 773.543 1188.43C777.083 1190.17 779.723 1192.57 781.463 1195.63C783.203 1198.63 784.073 1201.99 784.073 1205.71C784.073 1209.91 782.873 1213.66 780.473 1216.96C778.133 1220.26 774.653 1222.6 770.033 1223.98L784.613 1249H767.243ZM750.413 1214.26H759.953C762.773 1214.26 764.873 1213.57 766.253 1212.19C767.693 1210.81 768.413 1208.86 768.413 1206.34C768.413 1203.94 767.693 1202.05 766.253 1200.67C764.873 1199.29 762.773 1198.6 759.953 1198.6H750.413V1214.26ZM809.124 1198.15V1210.93H829.734V1222.81H809.124V1236.67H832.434V1249H793.734V1185.82H832.434V1198.15H809.124Z" fill="white"/>
</g>
<defs>
<filter id="filter0_i_2413_1150" x="3.71484" y="1.99512" width="1075.61" height="2265.01" filterUnits="userSpaceOnUse" color-interpolation-filters="sRGB">
<feFlood flood-opacity="0" result="BackgroundImageFix"/>
<feBlend mode="normal" in="SourceGraphic" in2="BackgroundImageFix" result="shape"/>
<feColorMatrix in="SourceAlpha" type="matrix" values="0 0 0 0 0 0 0 0 0 0 0 0 0 0 0 0 0 0 127 0" result="hardAlpha"/>
<feMorphology radius="12.6156" operator="erode" in="SourceAlpha" result="effect1_innerShadow_2413_1150"/>
<feOffset/>
<feGaussianBlur stdDeviation="0.450556"/>
<feComposite in2="hardAlpha" operator="arithmetic" k2="-1" k3="1"/>
<feColorMatrix type="matrix" values="0 0 0 0 0.294118 0 0 0 0 0.258824 0 0 0 0 0.223529 0 0 0 1 0"/>
<feBlend mode="normal" in2="shape" result="effect1_innerShadow_2413_1150"/>
</filter>
<filter id="filter1_i_2413_1150" x="0.775391" y="0" width="1081.49" height="2269" filterUnits="userSpaceOnUse" color-interpolation-filters="sRGB">
<feFlood flood-opacity="0" result="BackgroundImageFix"/>
<feBlend mode="normal" in="SourceGraphic" in2="BackgroundImageFix" result="shape"/>
<feColorMatrix in="SourceAlpha" type="matrix" values="0 0 0 0 0 0 0 0 0 0 0 0 0 0 0 0 0 0 127 0" result="hardAlpha"/>
<feMorphology radius="4.50556" operator="erode" in="SourceAlpha" result="effect1_innerShadow_2413_1150"/>
<feOffset/>
<feGaussianBlur stdDeviation="0.450556"/>
<feComposite in2="hardAlpha" operator="arithmetic" k2="-1" k3="1"/>
<feColorMatrix type="matrix" values="0 0 0 0 0.541176 0 0 0 0 0.443137 0 0 0 0 0.32549 0 0 0 1 0"/>
<feBlend mode="normal" in2="shape" result="effect1_innerShadow_2413_1150"/>
</filter>
<filter id="filter2_i_2413_1150" x="3.71484" y="1.99512" width="1075.61" height="2265.01" filterUnits="userSpaceOnUse" color-interpolation-filters="sRGB">
<feFlood flood-opacity="0" result="BackgroundImageFix"/>
<feBlend mode="normal" in="SourceGraphic" in2="BackgroundImageFix" result="shape"/>
<feColorMatrix in="SourceAlpha" type="matrix" values="0 0 0 0 0 0 0 0 0 0 0 0 0 0 0 0 0 0 127 0" result="hardAlpha"/>
<feMorphology radius="4.50556" operator="erode" in="SourceAlpha" result="effect1_innerShadow_2413_1150"/>
<feOffset/>
<feGaussianBlur stdDeviation="0.450556"/>
<feComposite in2="hardAlpha" operator="arithmetic" k2="-1" k3="1"/>
<feColorMatrix type="matrix" values="0 0 0 0 0.0705882 0 0 0 0 0.141176 0 0 0 0 0.184314 0 0 0 1 0"/>
<feBlend mode="normal" in2="shape" result="effect1_innerShadow_2413_1150"/>
</filter>
<linearGradient id="paint0_linear_2413_1150" x1="541.52" y1="1.99512" x2="541.52" y2="2267" gradientUnits="userSpaceOnUse">
<stop stop-color="#FFF4E3"/>
<stop offset="1" stop-color="#F9E7DB"/>
</linearGradient>
</defs>
</svg>
