<svg width="1229" height="778" viewBox="0 0 1229 778" fill="none" xmlns="http://www.w3.org/2000/svg">
<rect x="75.2822" y="612.403" width="10.2797" height="29.0772" fill="#CCE3FF"/>
<rect x="128.628" y="612.403" width="10.2797" height="29.0772" fill="#CCE3FF"/>
<rect x="277.384" y="612.403" width="10.2797" height="29.0772" fill="#CCE3FF"/>
<rect x="332.283" y="612.403" width="10.2797" height="29.0772" fill="#CCE3FF"/>
<path fill-rule="evenodd" clip-rule="evenodd" d="M108.766 206.592C108.766 201.825 112.629 197.961 117.395 197.961H195.042V215.21H117.395C112.629 215.21 108.766 211.346 108.766 206.579V206.592Z" fill="#DCEEFF"/>
<path fill-rule="evenodd" clip-rule="evenodd" d="M161 206.593C161 203.832 163.238 201.593 165.998 201.593H194.829C194.943 201.593 195.036 201.686 195.036 201.8V211.385C195.036 211.499 194.943 211.592 194.829 211.592H165.991C163.234 211.588 161 209.351 161 206.593Z" fill="#CCE3FF"/>
<path fill-rule="evenodd" clip-rule="evenodd" d="M97.9131 232.486V215.224H182.678C187.444 215.224 191.308 219.088 191.308 223.855C191.308 228.622 187.444 232.486 182.678 232.486H97.9131Z" fill="#DCEEFF"/>
<path fill-rule="evenodd" clip-rule="evenodd" d="M97.9268 228.806V218.911H132.77C135.504 218.911 137.72 221.128 137.72 223.862C137.72 226.596 135.504 228.813 132.77 228.813H97.9268V228.806Z" fill="#CCE3FF"/>
<rect x="231.467" y="162.228" width="86.47" height="72.6758" transform="rotate(-180 231.467 162.228)" fill="#DCEEFF" stroke="#DCEEFF" stroke-width="4.75"/>
<rect x="226.386" y="162.331" width="86.47" height="72.6758" transform="rotate(-180 226.386 162.331)" fill="white" stroke="#DCEEFF" stroke-width="4.75"/>
<rect x="154.642" y="104.474" width="55.7826" height="42.839" fill="#DCEEFF"/>
<path fill-rule="evenodd" clip-rule="evenodd" d="M263.646 216.135L272.213 132.632H299L307.602 216.135C308.03 220.312 306.668 224.475 303.855 227.592C301.042 230.708 297.04 232.487 292.842 232.486H278.406C274.208 232.487 270.206 230.708 267.393 227.592C264.579 224.475 263.218 220.312 263.646 216.135Z" fill="#DCEEFF"/>
<rect x="75.2822" y="249.804" width="202.095" height="362.599" fill="#DCEEFF"/>
<rect x="88.5166" y="540.39" width="175.632" height="53.7628" fill="#CCE3FF"/>
<rect x="88.5166" y="471.981" width="175.632" height="53.7628" fill="#CCE3FF"/>
<rect x="88.5166" y="403.573" width="175.632" height="53.7628" fill="#CCE3FF"/>
<rect x="88.5166" y="335.165" width="175.632" height="53.7628" fill="#CCE3FF"/>
<rect x="88.5166" y="266.756" width="175.632" height="53.7628" fill="#CCE3FF"/>
<rect x="277.384" y="249.804" width="65.1787" height="362.599" fill="#CCE3FF"/>
<rect x="65.21" y="232.486" width="220.597" height="17.3179" fill="#CCE3FF"/>
<rect x="285.807" y="232.486" width="67.6641" height="17.3179" fill="#B6D4FF"/>
<path fill-rule="evenodd" clip-rule="evenodd" d="M143.817 266.756H208.83V269.166C208.83 271.016 208.095 272.79 206.787 274.098C205.48 275.406 203.706 276.14 201.857 276.14H150.769C146.918 276.14 143.796 273.018 143.796 269.166V266.756H143.817Z" fill="#B6D4FF"/>
<path fill-rule="evenodd" clip-rule="evenodd" d="M143.817 335.165H208.83V337.574C208.83 339.424 208.095 341.198 206.787 342.506C205.48 343.814 203.706 344.549 201.857 344.549H150.769C146.918 344.549 143.796 341.426 143.796 337.574V335.165H143.817Z" fill="#B6D4FF"/>
<path fill-rule="evenodd" clip-rule="evenodd" d="M143.817 403.573H208.83V406.018C208.83 407.867 208.095 409.641 206.787 410.949C205.48 412.257 203.706 412.992 201.857 412.992H150.769C146.918 412.992 143.796 409.869 143.796 406.018V403.608L143.817 403.573Z" fill="#B6D4FF"/>
<path fill-rule="evenodd" clip-rule="evenodd" d="M143.817 471.982H208.83V474.378C208.83 476.227 208.095 478.001 206.787 479.309C205.48 480.617 203.706 481.352 201.857 481.352H150.769C146.918 481.352 143.796 478.229 143.796 474.378V471.968L143.817 471.982Z" fill="#B6D4FF"/>
<path fill-rule="evenodd" clip-rule="evenodd" d="M143.817 540.39H208.83V542.8C208.83 544.65 208.095 546.424 206.787 547.731C205.48 549.039 203.706 549.774 201.857 549.774H150.769C146.918 549.774 143.796 546.652 143.796 542.8V540.39H143.817Z" fill="#B6D4FF"/>
<rect x="664.79" y="643.979" width="10.4385" height="513.474" transform="rotate(180 664.79 643.979)" fill="#B6D4FF"/>
<path fill-rule="evenodd" clip-rule="evenodd" d="M664.452 109.77C663.283 49.219 613.872 0.744141 553.322 0.744141C492.771 0.744141 443.36 49.219 442.191 109.77H664.452Z" fill="#B6D4FF"/>
<rect x="432.995" y="130.505" width="223.434" height="513.474" fill="#DCEEFF"/>
<rect x="453.217" y="150.903" width="182.992" height="493.077" fill="#CCE3FF"/>
<path fill-rule="evenodd" clip-rule="evenodd" d="M656.167 109.079C654.998 48.5286 605.587 0.0537109 545.037 0.0537109C484.486 0.0537109 435.075 48.5286 433.906 109.079H656.167Z" fill="#DCEEFF"/>
<path fill-rule="evenodd" clip-rule="evenodd" d="M656.167 109.77C654.998 49.219 605.587 0.744141 545.037 0.744141C484.486 0.744141 435.075 49.219 433.906 109.77H656.167Z" fill="#DCEEFF"/>
<path fill-rule="evenodd" clip-rule="evenodd" d="M622.87 89.2891H457.994C466.534 49.6264 500.218 20.0244 540.432 20.0244C580.647 20.0244 614.331 49.6264 622.87 89.2891Z" fill="#B6D4FF"/>
<path fill-rule="evenodd" clip-rule="evenodd" d="M631.39 89.2891H466.514C475.054 49.6264 508.717 20.0244 548.952 20.0244C589.187 20.0244 622.85 49.6264 631.39 89.2891Z" fill="white"/>
<path fill-rule="evenodd" clip-rule="evenodd" d="M544.712 266.694C548.407 266.694 551.402 263.698 551.402 260.003C551.402 256.308 548.407 253.312 544.712 253.312C541.018 253.312 538.022 256.308 538.022 260.003C538.022 263.698 541.018 266.694 544.712 266.694Z" fill="white"/>
<path fill-rule="evenodd" clip-rule="evenodd" d="M617.527 375.055C621.927 375.055 625.494 371.487 625.494 367.087C625.494 362.686 621.927 359.118 617.527 359.118C613.127 359.118 609.56 362.686 609.56 367.087C609.56 371.487 613.127 375.055 617.527 375.055Z" fill="#DCEEFF"/>
<path fill-rule="evenodd" clip-rule="evenodd" d="M617.527 403.366C621.927 403.366 625.494 399.798 625.494 395.398C625.494 390.997 621.927 387.429 617.527 387.429C613.127 387.429 609.56 390.997 609.56 395.398C609.56 399.798 613.127 403.366 617.527 403.366Z" fill="#DCEEFF"/>
<path d="M620.184 367.087H586.618" stroke="#DCEEFF" stroke-width="8.55"/>
<path d="M766.987 498.718V643.8" stroke="#B6D4FF" stroke-width="12.35"/>
<path d="M1160.56 498.718V643.8" stroke="#B6D4FF" stroke-width="12.35"/>
<path fill-rule="evenodd" clip-rule="evenodd" d="M808.976 601.155L856.736 581.51H879.498V601.155H808.976Z" fill="#CCE3FF"/>
<path fill-rule="evenodd" clip-rule="evenodd" d="M851.089 601.155L898.849 581.51H921.611V601.155H851.089Z" fill="#DCEEFF"/>
<path fill-rule="evenodd" clip-rule="evenodd" d="M948.046 601.154L1002.39 578.803H1028.3V601.154H948.046Z" fill="#CCE3FF"/>
<path fill-rule="evenodd" clip-rule="evenodd" d="M995.972 601.154L1050.32 578.803H1076.22V601.154H995.972Z" fill="#DCEEFF"/>
<path fill-rule="evenodd" clip-rule="evenodd" d="M719.227 545.224L766.987 525.579H789.749V545.224H719.227Z" fill="#CCE3FF"/>
<path fill-rule="evenodd" clip-rule="evenodd" d="M761.34 545.224L809.1 525.579H831.862V545.224H761.34Z" fill="#DCEEFF"/>
<path fill-rule="evenodd" clip-rule="evenodd" d="M854.948 545.223L910.717 522.285H937.297V545.223H854.948Z" fill="#CCE3FF"/>
<path fill-rule="evenodd" clip-rule="evenodd" d="M904.124 545.223L959.893 522.285H986.472V545.223H904.124Z" fill="#DCEEFF"/>
<rect x="695.015" y="545.03" width="387.634" height="8.92824" fill="#CCE3FF"/>
<rect x="1082.65" y="545.03" width="80.1254" height="8.92824" fill="#B6D4FF"/>
<rect x="695.015" y="600.699" width="387.634" height="8.92824" fill="#CCE3FF"/>
<rect x="1082.65" y="600.699" width="80.1254" height="8.92824" fill="#B6D4FF"/>
<rect x="675.608" y="485.84" width="417.141" height="12.8779" fill="#DCEEFF"/>
<rect x="1092.75" y="485.84" width="84.5369" height="12.8779" fill="#B6D4FF"/>
<path d="M1086.53 498.718V643.8" stroke="#CCE3FF" stroke-width="12.35"/>
<path d="M696.306 498.718V643.8" stroke="#CCE3FF" stroke-width="12.35"/>
<path fill-rule="evenodd" clip-rule="evenodd" d="M719.227 485.84L766.987 466.195H789.749V485.84H719.227Z" fill="#CCE3FF"/>
<path fill-rule="evenodd" clip-rule="evenodd" d="M761.34 485.84L809.1 466.195H831.862V485.84H761.34Z" fill="#DCEEFF"/>
<path fill-rule="evenodd" clip-rule="evenodd" d="M925.691 485.84L972.382 460.671H1001.55V485.84H925.691Z" fill="#CCE3FF"/>
<path fill-rule="evenodd" clip-rule="evenodd" d="M979.645 485.84L1026.34 460.671H1055.51V485.84H979.645Z" fill="#DCEEFF"/>
<path d="M884.393 123.676V383.672" stroke="#B6D4FF" stroke-width="17.1"/>
<path d="M1016.09 123.676V383.672" stroke="#B6D4FF" stroke-width="17.1"/>
<path d="M762.879 123.676V383.672" stroke="#B6D4FF" stroke-width="17.1"/>
<rect x="1131.62" y="117.345" width="12.5235" height="272.66" fill="#B6D4FF"/>
<path fill-rule="evenodd" clip-rule="evenodd" d="M751.909 117.345H1137.14V390.005H751.909V117.345ZM1125.4 378.266V129.083H763.646V378.266H1125.4Z" fill="#DCEEFF"/>
<rect x="740.635" y="390.004" width="375.256" height="12.5603" fill="#CCE3FF"/>
<rect x="1115.89" y="390.004" width="31.4468" height="12.5603" fill="#B6D4FF"/>
<path d="M878.669 120.832V386.518" stroke="#DCEEFF" stroke-width="15.2"/>
<path d="M1010.37 120.832V386.518" stroke="#DCEEFF" stroke-width="15.2"/>
<path d="M758.434 253.671H1126.72" stroke="#DCEEFF" stroke-width="15.2"/>
<rect x="720.932" y="82.4531" width="449.478" height="13.9827" fill="#DCEEFF"/>
<rect x="1166.65" y="82.4531" width="10.6318" height="13.9827" fill="#B6D4FF"/>
<rect x="1166.52" y="173.586" width="6.60693" height="8.97658" fill="#B6D4FF"/>
<rect x="732.461" y="96.4292" width="429.195" height="77.1502" fill="#DCEEFF"/>
<rect x="725.488" y="173.586" width="442.505" height="8.97658" fill="#CCE3FF"/>
<rect x="732.461" y="96.4292" width="429.195" height="11.7317" fill="#B6D4FF"/>
<path fill-rule="evenodd" clip-rule="evenodd" d="M1040.44 296.199C1041.82 305.473 1037.17 313.386 1037.17 313.386C1037.17 313.386 1030.33 306.26 1028.97 296.986C1027.61 287.713 1032.24 279.8 1032.24 279.8C1032.24 279.8 1039.08 286.933 1040.44 296.199Z" fill="#CCE3FF"/>
<path fill-rule="evenodd" clip-rule="evenodd" d="M1038.45 302.262C1042.07 307.157 1044.12 313.038 1044.32 319.124C1044.32 319.124 1034.22 314.111 1028.13 305.763C1024.51 300.869 1022.46 294.988 1022.25 288.901C1022.25 288.901 1032.36 293.914 1038.45 302.262Z" fill="#CCE3FF"/>
<path fill-rule="evenodd" clip-rule="evenodd" d="M1046.1 297.207C1044.48 306.467 1037.44 313.503 1037.44 313.503C1037.44 313.503 1033.03 305.535 1034.65 296.241C1036.26 286.946 1043.3 279.952 1043.3 279.952C1043.3 279.952 1047.69 287.955 1046.1 297.207Z" fill="#CCE3FF"/>
<path fill-rule="evenodd" clip-rule="evenodd" d="M1051.18 303.912C1046.07 312.564 1036.59 318.109 1036.59 318.109C1036.07 312.134 1037.43 306.145 1040.47 300.977C1045.58 292.332 1055.05 286.788 1055.05 286.788C1055.58 292.761 1054.22 298.747 1051.18 303.912Z" fill="#CCE3FF"/>
<path fill-rule="evenodd" clip-rule="evenodd" d="M1038.72 364.698C1065.17 364.698 1086.62 349.84 1086.62 331.512C1086.62 313.184 1065.17 298.326 1038.72 298.326C1012.27 298.326 990.821 313.184 990.821 331.512C990.821 349.84 1012.27 364.698 1038.72 364.698Z" fill="#D2E9FC"/>
<rect x="996.338" y="357.599" width="84.7579" height="33.0752" rx="16.5376" fill="#CCE3FF"/>
<path d="M1011.35 308.097L1002.52 301.212" stroke="#B6D4FF" stroke-width="8.55"/>
<path d="M998.768 343.699L990.821 349.175" stroke="#B6D4FF" stroke-width="8.55"/>
<path d="M1021.86 340.716L1035.57 342.954" stroke="#B6D4FF" stroke-width="8.55"/>
<path d="M1056.93 306.971L1065.2 296.745" stroke="#B6D4FF" stroke-width="8.55"/>
<path d="M1072.04 318.109L1081.1 312.309" stroke="#B6D4FF" stroke-width="8.55"/>
<path d="M1073.81 348.049L1082.42 353.601" stroke="#B6D4FF" stroke-width="8.55"/>
<path d="M1025.84 320.402L1021.74 310.873" stroke="#B6D4FF" stroke-width="8.55"/>
<path d="M1065.03 330.787L1055.19 335.475" stroke="#B6D4FF" stroke-width="8.55"/>
<path d="M1017.42 325.339L1008.04 319.104" stroke="#B6D4FF" stroke-width="8.55"/>
<path fill-rule="evenodd" clip-rule="evenodd" d="M1219.12 643.98H10H1219.12Z" fill="#ECF6FF"/>
<path d="M1219.12 643.98H10" stroke="#DCEEFF" stroke-width="19" stroke-linecap="round"/>
<path fill-rule="evenodd" clip-rule="evenodd" d="M527.771 277.929L472.72 233.868L417.662 277.929V344.673H527.771V277.929Z" fill="#405FD3"/>
<rect x="376.543" y="143.252" width="96.6945" height="70.7147" fill="#FFC000"/>
<path d="M387.168 155.951H463.027" stroke="white" stroke-width="5.7"/>
<path d="M387.168 167.192H463.027" stroke="white" stroke-width="5.7"/>
<path d="M387.168 178.427H463.027" stroke="white" stroke-width="5.7"/>
<path d="M387.168 189.661H463.027" stroke="white" stroke-width="5.7"/>
<rect x="400.852" y="189.661" width="73.125" height="24.3127" fill="#FFC000"/>
<path fill-rule="evenodd" clip-rule="evenodd" d="M424.918 189.661H498.789C504.831 189.661 510.626 192.062 514.898 196.335C519.171 200.609 521.571 206.404 521.571 212.448V320.326H424.918V189.661Z" fill="#FFC000"/>
<path fill-rule="evenodd" clip-rule="evenodd" d="M399.374 189.661H402.28C414.901 189.661 425.132 199.894 425.132 212.517V213.967H376.543V212.517C376.543 199.902 386.761 189.673 399.374 189.661Z" fill="#CF3E83"/>
<path d="M435.964 211.122H511.83" stroke="white" stroke-width="5.7"/>
<path d="M435.964 223.434H511.83" stroke="white" stroke-width="5.7"/>
<path d="M435.964 235.745H511.83" stroke="white" stroke-width="5.7"/>
<path d="M435.964 248.057H511.83" stroke="white" stroke-width="5.7"/>
<path d="M435.964 260.369H511.83" stroke="white" stroke-width="5.7"/>
<path d="M435.964 272.681H511.83" stroke="white" stroke-width="5.7"/>
<path d="M435.964 284.993H511.83" stroke="white" stroke-width="5.7"/>
<path d="M435.964 297.305H511.83" stroke="white" stroke-width="5.7"/>
<path fill-rule="evenodd" clip-rule="evenodd" d="M608.745 417.148V452.827H587.344C582.897 452.825 578.633 454.591 575.489 457.735C572.345 460.88 570.579 465.145 570.581 469.592C570.581 478.848 563.08 486.351 553.826 486.351C544.572 486.351 537.07 478.848 537.07 469.592V417.148H608.745Z" fill="#6CA1FF"/>
<path d="M545.645 428.252H600.143" stroke="white" stroke-width="5.7"/>
<path d="M545.645 439.486H600.143" stroke="white" stroke-width="5.7"/>
<path d="M545.645 450.721H600.143" stroke="white" stroke-width="5.7"/>
<path d="M545.645 461.955H600.143" stroke="white" stroke-width="5.7"/>
<path fill-rule="evenodd" clip-rule="evenodd" d="M675.782 474.06V573.997H625.605C619.895 573.999 614.418 571.731 610.379 567.693C606.341 563.656 604.072 558.178 604.072 552.467V469.606C604.074 465.16 602.309 460.896 599.167 457.752C596.024 454.607 591.761 452.841 587.316 452.841H654.546C666.266 452.841 675.77 462.338 675.782 474.06Z" fill="#6CA1FF"/>
<path fill-rule="evenodd" clip-rule="evenodd" d="M604.071 469.593V486.351H553.798C563.052 486.351 570.553 478.848 570.553 469.593C570.43 463.523 573.597 457.861 578.833 454.79C584.069 451.719 590.556 451.719 595.792 454.79C601.027 457.861 604.194 463.523 604.071 469.593Z" fill="#405FD3"/>
<rect x="644.907" y="351.35" width="105.11" height="63.0225" fill="#6CA1FF"/>
<path d="M708.905 381.836L744.253 405.368" stroke="white" stroke-width="3.8"/>
<path d="M744.253 358.304L697.459 389.452L650.679 358.304" stroke="white" stroke-width="3.8"/>
<rect x="780.415" y="369.117" width="105.11" height="63.0225" fill="#CF3E83"/>
<path d="M786.187 423.142L821.527 399.603" stroke="white" stroke-width="3.8"/>
<path d="M844.413 399.603L879.761 423.142" stroke="white" stroke-width="3.8"/>
<path d="M879.761 376.07L832.974 407.219L786.187 376.07" stroke="white" stroke-width="3.8"/>
<rect x="579.971" y="223.158" width="254.591" height="86.5411" rx="16.3115" fill="#6CA1FF"/>
<path d="M598.921 244.488H735.581" stroke="white" stroke-width="14.25"/>
<path d="M598.921 264.202H804.82" stroke="white" stroke-width="5.7"/>
<path d="M598.921 277.335H816.936" stroke="white" stroke-width="5.7"/>
<path d="M598.921 290.468H743.369" stroke="white" stroke-width="5.7"/>
<path fill-rule="evenodd" clip-rule="evenodd" d="M527.771 344.673H417.662V277.929L472.72 314.65L527.771 277.929V344.673Z" fill="#6CA1FF"/>
<path fill-rule="evenodd" clip-rule="evenodd" d="M424.104 335.351L472.72 306.571L521.33 335.351" fill="#6CA1FF"/>
<path d="M424.104 335.351L472.72 306.571L521.33 335.351" stroke="white" stroke-width="4.75"/>
<path fill-rule="evenodd" clip-rule="evenodd" d="M387.9 342.042C391.011 342.042 393.534 339.519 393.534 336.407C393.534 333.296 391.011 330.773 387.9 330.773C384.789 330.773 382.267 333.296 382.267 336.407C382.267 339.519 384.789 342.042 387.9 342.042Z" fill="#405FD3"/>
<path fill-rule="evenodd" clip-rule="evenodd" d="M358.076 342.042C361.187 342.042 363.709 339.519 363.709 336.407C363.709 333.296 361.187 330.773 358.076 330.773C354.965 330.773 352.442 333.296 352.442 336.407C352.442 339.519 354.965 342.042 358.076 342.042Z" fill="#405FD3"/>
<path fill-rule="evenodd" clip-rule="evenodd" d="M358.076 312.212C361.187 312.212 363.709 309.69 363.709 306.578C363.709 303.466 361.187 300.943 358.076 300.943C354.965 300.943 352.442 303.466 352.442 306.578C352.442 309.69 354.965 312.212 358.076 312.212Z" fill="#405FD3"/>
<path fill-rule="evenodd" clip-rule="evenodd" d="M387.9 312.212C391.011 312.212 393.534 309.69 393.534 306.578C393.534 303.466 391.011 300.943 387.9 300.943C384.789 300.943 382.267 303.466 382.267 306.578C382.267 309.69 384.789 312.212 387.9 312.212Z" fill="#405FD3"/>
<path fill-rule="evenodd" clip-rule="evenodd" d="M503.125 530.951C506.236 530.951 508.758 528.428 508.758 525.316C508.758 522.204 506.236 519.682 503.125 519.682C500.013 519.682 497.491 522.204 497.491 525.316C497.491 528.428 500.013 530.951 503.125 530.951Z" fill="#405FD3"/>
<path fill-rule="evenodd" clip-rule="evenodd" d="M473.3 530.951C476.411 530.951 478.933 528.428 478.933 525.316C478.933 522.204 476.411 519.682 473.3 519.682C470.188 519.682 467.666 522.204 467.666 525.316C467.666 528.428 470.188 530.951 473.3 530.951Z" fill="#405FD3"/>
<path fill-rule="evenodd" clip-rule="evenodd" d="M473.3 501.121C476.411 501.121 478.933 498.598 478.933 495.487C478.933 492.375 476.411 489.852 473.3 489.852C470.188 489.852 467.666 492.375 467.666 495.487C467.666 498.598 470.188 501.121 473.3 501.121Z" fill="#405FD3"/>
<path fill-rule="evenodd" clip-rule="evenodd" d="M503.125 501.121C506.236 501.121 508.758 498.598 508.758 495.487C508.758 492.375 506.236 489.852 503.125 489.852C500.013 489.852 497.491 492.375 497.491 495.487C497.491 498.598 500.013 501.121 503.125 501.121Z" fill="#405FD3"/>
<path fill-rule="evenodd" clip-rule="evenodd" d="M443.475 530.951C446.587 530.951 449.109 528.428 449.109 525.316C449.109 522.204 446.587 519.682 443.475 519.682C440.364 519.682 437.842 522.204 437.842 525.316C437.842 528.428 440.364 530.951 443.475 530.951Z" fill="#405FD3"/>
<path fill-rule="evenodd" clip-rule="evenodd" d="M443.475 501.121C446.587 501.121 449.109 498.598 449.109 495.487C449.109 492.375 446.587 489.852 443.475 489.852C440.364 489.852 437.842 492.375 437.842 495.487C437.842 498.598 440.364 501.121 443.475 501.121Z" fill="#405FD3"/>
<rect x="274.685" y="366.535" width="232.699" height="86.5411" rx="16.3115" fill="#FFC000"/>
<rect x="556.546" y="161.627" width="169.612" height="29.3879" rx="14.694" fill="#6CA1FF"/>
<path d="M291.999 387.857H416.909" stroke="white" stroke-width="14.25"/>
<path d="M589.249 176.328H678.487" stroke="white" stroke-width="12.35"/>
<path d="M291.999 407.571H480.189" stroke="white" stroke-width="5.7"/>
<path d="M291.999 420.712H491.27" stroke="white" stroke-width="5.7"/>
<path d="M291.999 433.845H424.027" stroke="white" stroke-width="5.7"/>
<path fill-rule="evenodd" clip-rule="evenodd" d="M797.585 501.128C797.585 513.193 790.318 524.071 779.173 528.688C768.027 533.304 755.199 530.751 746.669 522.218C738.14 513.686 735.59 500.854 740.209 489.708C744.827 478.561 755.704 471.295 767.768 471.298C775.683 471.28 783.279 474.417 788.875 480.015C794.471 485.613 797.605 493.211 797.585 501.128Z" fill="#405FD3"/>
<path fill-rule="evenodd" clip-rule="evenodd" d="M767.767 507.943C774.089 507.943 779.213 502.817 779.213 496.494C779.213 490.172 774.089 485.046 767.767 485.046C761.445 485.046 756.32 490.172 756.32 496.494C756.32 502.817 761.445 507.943 767.767 507.943Z" fill="#FFC000"/>
<path fill-rule="evenodd" clip-rule="evenodd" d="M788.797 522.257C777.159 533.867 758.322 533.867 746.684 522.257C750.096 513.611 758.446 507.929 767.74 507.929C777.034 507.929 785.384 513.611 788.797 522.257Z" fill="#FFC000"/>
<rect x="795.838" y="351.35" width="105.11" height="63.0225" fill="#FFC000"/>
<path d="M801.603 405.368L836.95 381.836" stroke="white" stroke-width="3.8"/>
<path d="M859.829 381.836L895.183 405.368" stroke="white" stroke-width="3.8"/>
<path d="M895.183 358.304L848.39 389.452L801.603 358.304" stroke="white" stroke-width="3.8"/>
<path fill-rule="evenodd" clip-rule="evenodd" d="M572.942 184.572C577.495 184.572 581.185 180.881 581.185 176.328C581.185 171.774 577.495 168.083 572.942 168.083C568.39 168.083 564.699 171.774 564.699 176.328C564.699 180.881 568.39 184.572 572.942 184.572Z" fill="white"/>
<path fill-rule="evenodd" clip-rule="evenodd" d="M591.244 777.02C771.897 777.02 918.346 775.829 918.346 774.361C918.346 772.893 771.897 771.703 591.244 771.703C410.591 771.703 264.143 772.893 264.143 774.361C264.143 775.829 410.591 777.02 591.244 777.02Z" fill="#AFB3C6"/>
<path d="M650.679 405.368L686.019 381.836" stroke="#515256" stroke-width="2.85" stroke-linecap="round"/>
<path fill-rule="evenodd" clip-rule="evenodd" d="M683.424 470.773L671.687 466.32L680.897 403.518L662.754 368.102L687.131 353.222C687.131 353.222 700.345 387.388 701.008 398.657C702.161 418.399 683.424 470.773 683.424 470.773Z" fill="#E576C6"/>
<path fill-rule="evenodd" clip-rule="evenodd" d="M694.525 360.216L661.856 372.376L650.955 333.784L676.603 325.166L694.525 360.216Z" fill="#FF9100"/>
<path d="M510.429 328.46L514.164 362.785" stroke="#1D294F" stroke-width="7.6" stroke-linecap="round"/>
<path d="M509.489 320.782L510.697 330.905" stroke="#1D294F" stroke-width="4.75" stroke-linecap="round"/>
<path fill-rule="evenodd" clip-rule="evenodd" d="M508.517 319.187C517.764 318.673 524.75 309.064 524.12 297.725C523.49 286.385 515.483 277.61 506.236 278.123C496.989 278.637 490.003 288.246 490.633 299.585C491.263 310.925 499.27 319.701 508.517 319.187Z" fill="#FFC000"/>
<path d="M493.79 289.377H509.42" stroke="white" stroke-width="14.25"/>
<path d="M494.226 309.616H509.421" stroke="white" stroke-width="14.25"/>
<path fill-rule="evenodd" clip-rule="evenodd" d="M508.517 319.187C517.764 318.673 524.75 309.064 524.12 297.725C523.49 286.385 515.483 277.61 506.236 278.123C496.989 278.637 490.003 288.246 490.633 299.585C491.263 310.925 499.27 319.701 508.517 319.187Z" stroke="#1D294F" stroke-width="7.6" stroke-linecap="round"/>
<path fill-rule="evenodd" clip-rule="evenodd" d="M643.989 774.361H715.195L712.647 732.413L692.136 739.318L694.401 754.192C694.401 754.192 660.683 762.229 643.989 774.361Z" fill="#0D0B6D"/>
<path fill-rule="evenodd" clip-rule="evenodd" d="M713.11 735.651L713.938 753.653L694.401 754.185L692.481 741.831L713.11 735.651Z" fill="#CF3E83"/>
<path fill-rule="evenodd" clip-rule="evenodd" d="M595.594 774.361H662.733L660.186 732.413L639.668 739.318L641.939 754.192C641.939 754.192 612.287 762.229 595.594 774.361Z" fill="#0D0B6D"/>
<path fill-rule="evenodd" clip-rule="evenodd" d="M660.648 735.651L661.477 753.653L641.939 754.185L640.013 741.831L660.648 735.651Z" fill="#CF3E83"/>
<path fill-rule="evenodd" clip-rule="evenodd" d="M718.868 743.813L685.93 741.286L667.497 588.07L651.715 417.204L690.252 414.097C690.252 414.097 705.868 429.288 708.844 469.289C711.322 502.613 712.385 584.154 712.385 584.154L718.868 743.813Z" fill="#2B2A38"/>
<path fill-rule="evenodd" clip-rule="evenodd" d="M608.607 372.473C608.607 372.473 575.511 408.172 559.915 403.546C539.507 397.517 511.94 352.282 511.94 352.282L525.251 345.778L562.711 378.08L597.23 346.503L608.607 372.473Z" fill="#E576C6"/>
<path fill-rule="evenodd" clip-rule="evenodd" d="M667.144 741.88L634.399 744.566L614.82 578.734C614.82 578.734 611.299 522.61 616.305 463.468C619.066 431.173 624.941 419.455 624.941 419.455L669.685 415.512L662.443 579.853L667.144 741.88Z" fill="#2B2A38"/>
<path fill-rule="evenodd" clip-rule="evenodd" d="M571.154 361.404L587.723 397.925L607.744 379.005C607.744 379.005 608.587 384.301 613.385 392.884C618.012 401.386 621.887 410.277 624.962 419.455L690.259 414.076C690.259 414.076 685.302 394.051 684.452 379.551C683.493 363.241 685.882 321.099 667.359 314.774C651.342 309.305 646.972 314.912 624.679 319.262C603.685 323.371 571.154 361.404 571.154 361.404Z" fill="#FFC000"/>
<path fill-rule="evenodd" clip-rule="evenodd" d="M629.389 737.791L671.922 736.669L672.242 748.804L629.709 749.926L629.389 737.791Z" fill="#2B2A38"/>
<path fill-rule="evenodd" clip-rule="evenodd" d="M681.536 736.52L724.069 735.399L724.389 747.534L681.856 748.655L681.536 736.52Z" fill="#2B2A38"/>
<path fill-rule="evenodd" clip-rule="evenodd" d="M675.346 269.926C675.553 291.194 657.051 308.594 634.02 308.781C612.618 308.96 594.799 294.19 592.252 275.015C592.057 273.559 591.954 272.092 591.941 270.623C591.831 259.416 596.912 249.287 605.121 242.188C612.971 235.483 622.951 231.79 633.274 231.769C656.298 231.582 675.146 248.665 675.346 269.926Z" fill="#240040"/>
<path fill-rule="evenodd" clip-rule="evenodd" d="M658.936 246.524C671.702 246.524 682.05 236.174 682.05 223.406C682.05 210.638 671.702 200.288 658.936 200.288C646.171 200.288 635.822 210.638 635.822 223.406C635.822 236.174 646.171 246.524 658.936 246.524Z" fill="#240040"/>
<path fill-rule="evenodd" clip-rule="evenodd" d="M597.775 285.876L590.36 300.75L598.051 301.199L597.775 285.876Z" fill="#405FD3"/>
<path fill-rule="evenodd" clip-rule="evenodd" d="M623.865 318.696C623.865 318.696 604.313 316.901 600.185 311.39C588.572 295.868 603.823 254.244 603.823 254.244L648.898 281.319C648.898 281.319 656.133 318.793 656.009 318.827L627.109 326.982L623.865 318.696Z" fill="#E576C6"/>
<path fill-rule="evenodd" clip-rule="evenodd" d="M601.852 287.031C602.22 285.23 601.416 283.545 600.057 283.266C598.697 282.988 597.296 284.223 596.928 286.023C596.559 287.824 597.363 289.51 598.723 289.788C600.083 290.066 601.483 288.832 601.852 287.031Z" fill="#0D0B6D"/>
<path fill-rule="evenodd" clip-rule="evenodd" d="M651.949 285.034C644.065 294.853 629.933 297.995 617.665 293.527C616.684 293.18 615.723 292.779 614.786 292.326C613.238 291.603 611.754 290.753 610.347 289.785C596.891 280.566 593.688 263.497 603.208 251.648C604.114 250.523 605.112 249.474 606.191 248.513C616.263 239.502 632.653 238.556 644.852 246.89C658.183 256.019 661.421 272.853 652.253 284.689C652.135 284.806 652.039 284.917 651.949 285.034Z" fill="#240040"/>
<path fill-rule="evenodd" clip-rule="evenodd" d="M661.511 354.968L617.975 357.924L611.941 270.727L675.159 266.425L679.737 332.617C680.544 344.245 672.377 354.23 661.511 354.968Z" fill="#240040"/>
<path fill-rule="evenodd" clip-rule="evenodd" d="M672.46 466.782L667.904 591.467L664.859 551.742L672.46 466.782Z" fill="#101016"/>
<path fill-rule="evenodd" clip-rule="evenodd" d="M611.12 293.879C611.12 293.879 607.537 286.242 613.55 284.482C618.031 283.17 620.606 286.746 621.386 289.025C624.023 296.703 615.373 300.522 614.13 307.013" fill="#E576C6"/>
<path d="M597.733 306.675C597.733 306.675 599.874 306.592 601.254 303.277" stroke="#1C295E" stroke-width="2.85"/>
<path fill-rule="evenodd" clip-rule="evenodd" d="M527.771 348.229L525.762 344.245C525.762 344.245 522.31 337.16 520.239 334.461C516.891 330.069 512.645 333.245 512.645 333.245C512.645 333.245 504.547 328.833 502.531 329.751C496.967 332.292 497.94 352.828 503.221 354.768C507.308 356.267 509.842 358.172 515.117 359.526C517.353 360.099 520.246 359.008 521.924 359.112" fill="#E576C6"/>
<path fill-rule="evenodd" clip-rule="evenodd" d="M585.597 393.25L574.033 367.736L580.357 396.951L585.597 393.25Z" fill="#BC3579"/>
</svg>
