<svg width="1240" height="728" viewBox="0 0 1240 728" fill="none" xmlns="http://www.w3.org/2000/svg">
<path fill-rule="evenodd" clip-rule="evenodd" d="M331.545 520.949H475.376V377.072H331.545V520.949Z" fill="#E5F5FF"/>
<path fill-rule="evenodd" clip-rule="evenodd" d="M394.38 590.089H252.31V310.618L394.38 218.374V590.089Z" fill="#F1FAFF"/>
<path fill-rule="evenodd" clip-rule="evenodd" d="M432.312 562.887H459.685V175.303H432.312V562.887Z" fill="#E5F5FF"/>
<path fill-rule="evenodd" clip-rule="evenodd" d="M459.685 562.887H535.195V175.303H459.685V562.887Z" fill="#F1FAFF"/>
<path fill-rule="evenodd" clip-rule="evenodd" d="M899.116 577.036H934.172V243.903H899.116V577.036Z" fill="#E5F5FF"/>
<path fill-rule="evenodd" clip-rule="evenodd" d="M934.172 577.036H1030.88V243.903H934.172V577.036Z" fill="#F1FAFF"/>
<path fill-rule="evenodd" clip-rule="evenodd" d="M1056.32 565.899H1141.99V357.95H1056.32V565.899Z" fill="#F1FAFF"/>
<path fill-rule="evenodd" clip-rule="evenodd" d="M183.838 546.897H221.927V329.519H183.838V546.897Z" fill="#F1FAFF"/>
<path fill-rule="evenodd" clip-rule="evenodd" d="M133.975 562.996H183.838V345.619H133.975V562.996Z" fill="#E5F5FF"/>
<path fill-rule="evenodd" clip-rule="evenodd" d="M574.775 607.513H650.286V234.28H574.775V607.513Z" fill="#F1FAFF"/>
<path fill-rule="evenodd" clip-rule="evenodd" d="M575.903 607.513H602.842V234.28H575.903V607.513Z" fill="#E5F5FF"/>
<path fill-rule="evenodd" clip-rule="evenodd" d="M626.078 234.28H653.017V201.375H626.078V234.28Z" fill="#E5F5FF"/>
<path fill-rule="evenodd" clip-rule="evenodd" d="M667.11 578.184H777.894V291.199H667.11V578.184Z" fill="#F1FAFF"/>
<path fill-rule="evenodd" clip-rule="evenodd" d="M650.286 574.608H683.935V201.375H650.286V574.608Z" fill="#F1FAFF"/>
<path fill-rule="evenodd" clip-rule="evenodd" d="M683.935 606.353H710.872V291.198H683.935V606.353Z" fill="#E5F5FF"/>
<path fill-rule="evenodd" clip-rule="evenodd" d="M794.677 554.459H837.327V102.073H794.677V554.459Z" fill="#F1FAFF"/>
<path fill-rule="evenodd" clip-rule="evenodd" d="M761.07 597.128H800.225V144.741H761.07V597.128Z" fill="#F1FAFF"/>
<path fill-rule="evenodd" clip-rule="evenodd" d="M828.956 588.596H868.111V136.21H828.956V588.596Z" fill="#F1FAFF"/>
<path fill-rule="evenodd" clip-rule="evenodd" d="M810.059 483.528H820.538V137.949H810.059V483.528Z" fill="#E5F5FF"/>
<path fill-rule="evenodd" clip-rule="evenodd" d="M776.823 508.296H787.302V162.717H776.823V508.296Z" fill="#E5F5FF"/>
<path fill-rule="evenodd" clip-rule="evenodd" d="M843.293 508.296H853.772V162.717H843.293V508.296Z" fill="#E5F5FF"/>
<path fill-rule="evenodd" clip-rule="evenodd" d="M28.3809 607.514C28.3809 607.514 113.985 453.531 215.06 456.977C316.134 460.423 314.32 514.941 384.943 514.845C455.566 514.75 536.273 437.023 653.656 434.439C771.039 431.854 814.712 523.365 936.311 518.308C1060.45 513.146 1165.25 524.657 1219.5 606.414" fill="#E5F5FF"/>
<path fill-rule="evenodd" clip-rule="evenodd" d="M619.784 604.145L166.757 604.924C132.529 575.587 80.3303 493.328 103.957 470.558C119.498 455.579 180.092 508.982 192.667 494.516C205.243 480.059 121.133 392.946 151.972 375.228C189.436 353.704 311.315 514.468 326.664 501.539C342.803 487.945 287.445 414.188 311.159 398.319C339.296 379.488 400.764 516.57 424.561 501.826C437.03 494.096 407.422 447.738 425.416 439.689C456.733 425.664 508.992 561.69 531.21 549.571C541.717 543.829 529.898 524.176 545.652 519.285C564.905 513.318 603.689 576.238 619.784 604.145Z" fill="#D6EEFF"/>
<path fill-rule="evenodd" clip-rule="evenodd" d="M417.909 24.3096H507.359V33.6882C507.359 42.5901 500.145 49.8057 491.246 49.8057H434.022C425.123 49.8057 417.909 42.5901 417.909 33.6882V24.3096Z" fill="#E5F5FF"/>
<path d="M278.025 505.104V147.652C278.025 78.3731 334.169 22.2114 403.426 22.2114" stroke="#CFECFF" stroke-width="12.6"/>
<path fill-rule="evenodd" clip-rule="evenodd" d="M297.74 606.414H258.311L262.474 463.803H293.577L297.74 606.414Z" fill="#BCE4FF"/>
<path fill-rule="evenodd" clip-rule="evenodd" d="M524.467 35.9489H400.801V16.8172C400.801 7.91531 408.015 0.699707 416.914 0.699707H508.354C517.253 0.699707 524.467 7.91531 524.467 16.8172V35.9489Z" fill="#BCE4FF"/>
<path fill-rule="evenodd" clip-rule="evenodd" d="M950.614 607.513H1029.18V470.558H950.614V607.513Z" fill="#AAD5FF"/>
<path fill-rule="evenodd" clip-rule="evenodd" d="M525.698 490.734H1048.57V470.558H525.698V490.734Z" fill="#CFECFF"/>
<path fill-rule="evenodd" clip-rule="evenodd" d="M953.901 398.319H512.225L504.695 357.95H946.371L953.901 398.319Z" fill="#CFECFF"/>
<path fill-rule="evenodd" clip-rule="evenodd" d="M964.404 454.626H522.728L515.198 414.25H956.875L964.404 454.626Z" fill="#CFECFF"/>
<path fill-rule="evenodd" clip-rule="evenodd" d="M512.224 398.319H490.916L482.932 357.95H504.695L512.224 398.319Z" fill="#AAD5FF"/>
<path fill-rule="evenodd" clip-rule="evenodd" d="M522.728 454.626H502.05L494.065 414.25H515.199L522.728 454.626Z" fill="#AAD5FF"/>
<path fill-rule="evenodd" clip-rule="evenodd" d="M920.887 357.95L941.893 470.558H916.544L895.538 357.95H920.887Z" fill="#C3E4FF"/>
<path fill-rule="evenodd" clip-rule="evenodd" d="M555.532 357.95L576.538 470.558H551.189L530.184 357.95H555.532Z" fill="#C3E4FF"/>
<path fill-rule="evenodd" clip-rule="evenodd" d="M604.261 607.513H623.653V470.558H604.261V607.513Z" fill="#C3E4FF"/>
<path fill-rule="evenodd" clip-rule="evenodd" d="M623.652 490.775H643.044V470.558H623.652V490.775Z" fill="#C3E4FF"/>
<path fill-rule="evenodd" clip-rule="evenodd" d="M1009.79 490.775H1029.18V470.558H1009.79V490.775Z" fill="#C3E4FF"/>
<path fill-rule="evenodd" clip-rule="evenodd" d="M1029.18 607.513H1048.57V470.558H1029.18V607.513Z" fill="#C3E4FF"/>
<path fill-rule="evenodd" clip-rule="evenodd" d="M525.699 607.513H604.261V470.558H525.699V607.513Z" fill="#AAD5FF"/>
<path d="M1232.57 606.373H6.99707" stroke="#D6EEFF" stroke-width="14" stroke-linecap="round"/>
<path fill-rule="evenodd" clip-rule="evenodd" d="M1021.99 725.252C1021.99 726.65 965.92 727.783 896.752 727.783C827.584 727.783 771.513 726.65 771.513 725.252C771.513 723.855 827.584 722.722 896.752 722.722C965.92 722.722 1021.99 723.855 1021.99 725.252Z" fill="#AFB4C8"/>
<path fill-rule="evenodd" clip-rule="evenodd" d="M1031.82 359.185L1036.32 356.909C1036.32 356.909 1039.54 355.515 1043.18 354.418C1046.83 353.321 1051.97 353.921 1057 348.729C1062.02 343.539 1060.42 351.416 1058.09 354.021C1056.15 356.192 1050.79 357.825 1049.52 360.007C1050.66 360.888 1051.82 361.298 1051.82 361.298L1074.41 366.939C1075.16 367.109 1075.67 367.81 1075.6 368.577L1075.53 369.444C1075.44 370.357 1074.6 371.004 1073.7 370.833C1068.85 369.92 1054.46 366.825 1054.44 367.086L1054.17 367.614L1076.98 375.859C1077.73 376.102 1078.17 376.862 1078.02 377.629L1077.78 378.825C1077.61 379.695 1076.74 380.241 1075.89 380.021C1070.63 378.696 1053.17 372.733 1053.14 373.003L1052.9 373.652L1071.69 382.391C1072.48 382.649 1072.92 383.481 1072.7 384.271L1072.43 385.214C1072.2 386.04 1071.34 386.521 1070.52 386.287L1052 378.368L1051.55 379.021L1064.85 387.108C1065.56 387.435 1065.91 388.242 1065.67 388.989L1065.52 389.44C1065.26 390.235 1064.41 390.682 1063.6 390.44C1060.83 389.614 1055.13 385.788 1049.13 383.441C1044.47 381.62 1040.7 381.376 1035.08 378.445C1032.7 377.21 1029.9 374.915 1028.34 373.664" fill="#FF77CA"/>
<path fill-rule="evenodd" clip-rule="evenodd" d="M851.488 684.765L851.291 703.911C851.291 703.911 870.111 706.713 876.632 724.56H826.164L829.822 703.057L831.982 684.401L851.488 684.765Z" fill="#0B096F"/>
<path fill-rule="evenodd" clip-rule="evenodd" d="M832.371 679.724L829.822 703.057L851.291 703.911L851.398 685.465L832.371 679.724Z" fill="#EF3C86"/>
<path fill-rule="evenodd" clip-rule="evenodd" d="M743.849 240.586C738.587 244.547 740.63 248.316 737.349 249.767C734.942 250.834 729.105 250.277 725.061 249.43C724.984 249.419 724.914 249.401 724.844 249.384H724.83C724.795 249.378 724.76 249.372 724.725 249.361C724.487 249.308 724.256 249.256 724.032 249.204C723.99 249.198 723.941 249.181 723.899 249.169C722.955 248.937 722.156 248.699 721.618 248.468C716.432 246.264 708.798 236.074 709.819 233.923C709.826 233.905 709.84 233.888 709.847 233.87C711.037 231.76 722.955 231.047 725.11 228.994C727.279 226.923 721.758 222.533 721.002 219.483C720.247 216.426 722.772 209.368 724.627 215.603C726.481 221.837 731.337 223.403 734.025 225.752C736.719 228.1 738.875 230.519 738.875 230.519L743.849 240.586Z" fill="#FF77CA"/>
<path fill-rule="evenodd" clip-rule="evenodd" d="M941.456 688.51L939.45 703.551C939.45 703.551 976.787 711.956 990.824 724.457L917.385 724.56L923.826 681.482L941.456 688.51Z" fill="#0B096F"/>
<path fill-rule="evenodd" clip-rule="evenodd" d="M923.421 684.753L920.546 702.955L939.45 703.551L941.146 691.065L923.421 684.753Z" fill="#EF3C86"/>
<path fill-rule="evenodd" clip-rule="evenodd" d="M730.513 246.655L737.678 234.324L800.459 259.574L841.705 242.888L851.868 273.09C851.868 273.09 812.992 284.47 801.135 283.079C780.383 280.643 730.513 246.655 730.513 246.655Z" fill="#FF77CA"/>
<path fill-rule="evenodd" clip-rule="evenodd" d="M860.942 167.817C860.898 197.66 885.047 221.89 914.882 221.934C944.716 221.979 968.937 197.821 968.982 167.978C969.026 138.134 944.877 113.904 915.043 113.86C885.209 113.815 860.987 137.973 860.942 167.817Z" fill="#25003F"/>
<path fill-rule="evenodd" clip-rule="evenodd" d="M743.247 241.966L634.803 198.219C636.242 194.148 641.567 190.225 645.59 190.928C655.433 192.651 674.538 196.725 695.221 205.072C715.907 213.414 732.76 223.847 741.208 229.504C744.66 231.815 744.694 237.902 743.247 241.966Z" fill="#007EFF"/>
<path fill-rule="evenodd" clip-rule="evenodd" d="M743.255 241.971C741.95 245.652 716.613 238.841 686.663 226.758C656.713 214.675 633.492 201.896 634.797 198.215C636.102 194.535 661.438 201.346 691.388 213.428C721.338 225.511 744.559 238.29 743.255 241.971Z" fill="#2C2CC6"/>
<path fill-rule="evenodd" clip-rule="evenodd" d="M953.904 279.955C953.904 279.955 964.101 321.773 973.846 333.59C988.543 347.239 1029.99 374.784 1029.99 374.784L1033.47 358.736L991.285 319.042L974.546 271.994L953.904 279.955Z" fill="#FF77CA"/>
<path fill-rule="evenodd" clip-rule="evenodd" d="M947.994 689.24L914.608 689.14L922.757 533.184L910.102 394.482L859.103 691.735H825.464C825.464 691.735 839.435 534.805 845.738 439.39C850.171 372.282 858.997 350.472 858.997 350.472H956.751C956.751 350.472 962.725 380.434 964.587 418.814C968.137 491.994 969.042 505.285 966.867 534.007C963.913 572.99 947.994 689.24 947.994 689.24Z" fill="#272636"/>
<path fill-rule="evenodd" clip-rule="evenodd" d="M978.844 104.984C978.82 121.007 965.815 133.977 949.797 133.953C933.78 133.929 920.814 120.921 920.838 104.897C920.862 88.875 933.867 75.9047 949.884 75.9292C965.902 75.953 978.867 88.9611 978.844 104.984Z" fill="#25003F"/>
<path fill-rule="evenodd" clip-rule="evenodd" d="M968.976 171.757L968.87 242.879L860.83 242.718L860.936 171.596L968.976 171.757Z" fill="#25003F"/>
<path fill-rule="evenodd" clip-rule="evenodd" d="M967.099 321.361L987.291 307.815L985.266 302.124L964.41 314.609L967.099 321.361Z" fill="#DA327C"/>
<path fill-rule="evenodd" clip-rule="evenodd" d="M839.331 276.517L830.648 247.36L827.813 248.507L831.345 278.512L839.331 276.517Z" fill="#DA327C"/>
<path fill-rule="evenodd" clip-rule="evenodd" d="M991.721 298.259L956.463 319.367L951.644 288.424C951.644 288.424 962.21 288.123 958.119 296.165C950.214 311.708 949.286 313.929 953.904 334.318C954.672 337.708 956.75 350.472 956.75 350.472H858.997C858.997 350.472 864.057 335.898 878.331 310.411C887.409 294.203 870.427 270.475 870.427 270.475L843.851 291.692L829.286 242.79C829.286 242.79 847.8 234.501 863.16 227.775C878.869 220.89 886.652 221.9 909.669 221.934C931.336 221.971 945.497 223.137 955.172 231.221C975.349 248.081 991.721 298.259 991.721 298.259Z" fill="#FFC100"/>
<path fill-rule="evenodd" clip-rule="evenodd" d="M930.742 255.004C916.02 255.004 906.367 248.77 902.053 236.475C899.516 229.245 897.453 222.004 897.432 221.932L896.918 220.123L898.798 220.149C898.802 220.15 900.469 220.173 902.79 220.173C905.65 220.173 909.69 220.137 912.693 219.963C913 219.946 913.31 219.937 913.622 219.937C920.364 219.937 927.807 223.917 928.12 224.087C928.364 224.22 933.945 227.336 938.709 234.672C942.34 240.263 943.17 245.783 940.986 249.815C939.177 253.154 935.567 254.997 930.818 255.004H930.742Z" fill="#FF77CA"/>
<path fill-rule="evenodd" clip-rule="evenodd" d="M913.623 218.537H913.621C913.281 218.537 912.942 218.547 912.614 218.566C909.643 218.738 905.63 218.774 902.787 218.774C900.503 218.774 898.834 218.751 898.818 218.75L895.058 218.697L896.086 222.315C896.107 222.388 898.181 229.67 900.732 236.939C905.201 249.673 915.578 256.405 930.742 256.405H930.82C936.105 256.397 940.152 254.294 942.216 250.483C944.653 245.985 943.802 239.944 939.883 233.909C934.929 226.282 929.049 223 928.801 222.864C928.459 222.679 920.714 218.537 913.623 218.537ZM913.622 221.337C920.087 221.337 927.456 225.319 927.456 225.319C927.456 225.319 932.909 228.311 937.536 235.434C943.866 245.181 940.556 253.59 930.816 253.605H930.742C920.329 253.605 908.407 250.356 903.374 236.011C900.821 228.738 898.778 221.55 898.778 221.55C898.778 221.55 900.453 221.574 902.787 221.574C905.745 221.574 909.763 221.535 912.774 221.361C913.054 221.345 913.338 221.337 913.622 221.337Z" fill="#924E08"/>
<path fill-rule="evenodd" clip-rule="evenodd" d="M927.631 194.772C924.688 199.474 925.894 205.669 927.571 209.289C928.138 210.534 931.821 220.963 932.359 221.435C934.446 223.267 908.886 234.411 908.886 234.411L907.187 213.36C899.777 213.788 891.081 213.396 886.304 210.219C872.076 200.753 871.234 167.929 871.467 166.288L883.4 152.934C883.4 152.934 901.394 144.622 904.133 148.154C909.142 154.623 920.864 183.568 929.351 180.265C929.351 180.265 928.281 171.266 935.79 171.277C941.385 171.285 942.9 175.775 942.896 178.367C942.883 187.122 931.583 188.438 927.631 194.772Z" fill="#FF77CA"/>
<path fill-rule="evenodd" clip-rule="evenodd" d="M888.457 184.367L883.095 197.371L889.316 197.246L888.457 184.367Z" fill="#285FD7"/>
<path fill-rule="evenodd" clip-rule="evenodd" d="M894.166 184.931C894.299 187.529 895.826 189.553 897.577 189.452C899.327 189.351 900.638 187.163 900.505 184.566C900.371 181.968 898.844 179.944 897.093 180.045C895.343 180.146 894.032 182.333 894.166 184.931Z" fill="#0B096F"/>
<path fill-rule="evenodd" clip-rule="evenodd" d="M877.727 184.516C877.86 187.114 879.388 189.138 881.138 189.037C882.889 188.936 884.2 186.748 884.066 184.151C883.933 181.553 882.406 179.529 880.655 179.63C878.905 179.731 877.594 181.918 877.727 184.516Z" fill="#0B096F"/>
<path fill-rule="evenodd" clip-rule="evenodd" d="M887.473 152.786C887.467 156.378 886.863 159.832 885.759 163.033C885.613 163.432 885.466 163.845 885.297 164.244C884.232 166.925 882.814 169.41 881.104 171.626C876.491 177.593 869.737 181.632 862.089 182.441C861.697 182.481 861.312 182.513 860.92 182.528L860.936 171.596L860.944 171.596C860.937 171.255 860.937 170.922 860.938 170.58C860.958 157.087 865.396 144.69 872.812 134.922C874.19 133.103 875.677 131.383 877.254 129.759C880.831 132.894 883.661 136.946 885.43 141.582C886.754 145.038 887.479 148.819 887.473 152.786Z" fill="#25003F"/>
<path fill-rule="evenodd" clip-rule="evenodd" d="M929.391 152.154C929.379 159.962 922.306 166.534 912.651 168.537C911.887 168.701 911.109 168.832 910.312 168.929C909.031 169.1 907.711 169.181 906.37 169.179C893.67 169.16 883.386 161.509 883.4 152.085C883.402 151.179 883.497 150.29 883.686 149.425C885.421 141.264 894.94 135.035 906.422 135.051C919.001 135.07 929.204 142.582 929.385 151.881C929.392 151.972 929.392 152.063 929.391 152.154Z" fill="#25003F"/>
<path d="M889.199 202.075C889.199 202.075 893.252 203.383 897.315 198.866" stroke="#0C245F" stroke-width="2.1"/>
<path fill-rule="evenodd" clip-rule="evenodd" d="M907.187 213.36C907.187 213.36 916.557 213.638 920.55 211.455L907.685 219.534L907.187 213.36Z" fill="#EF3C86"/>
<path fill-rule="evenodd" clip-rule="evenodd" d="M895.468 221.806C895.468 221.806 897.918 221.697 901.687 221.935C906.962 222.268 907.905 222.278 907.905 222.278L907.286 214.591L893.039 216.469L895.468 221.806Z" fill="#25003F"/>
<path fill-rule="evenodd" clip-rule="evenodd" d="M913.285 698.027L950.319 697.977L950.305 688.537L913.271 688.588L913.285 698.027Z" fill="#272636"/>
<path fill-rule="evenodd" clip-rule="evenodd" d="M822.515 698.029L860.857 697.975L861.503 688.535L823.161 688.59L822.515 698.029Z" fill="#272636"/>
<path fill-rule="evenodd" clip-rule="evenodd" d="M947.879 264.678L925.781 264.645L925.877 200.467L968.934 200.532L968.869 243.744C968.852 255.323 959.454 264.696 947.879 264.678Z" fill="#25003F"/>
<path fill-rule="evenodd" clip-rule="evenodd" d="M721.414 242.275C720.978 243.72 718.15 244.104 715.128 243.128L693.962 236.107C690.941 235.132 692.031 233.419 692.743 232.971C693.826 232.29 696.592 231.863 699.818 232.767L716.711 237.873C719.733 238.849 721.849 240.83 721.414 242.275Z" fill="#FF77CA"/>
<path fill-rule="evenodd" clip-rule="evenodd" d="M722.415 244.386C721.587 245.76 718.672 245.507 715.938 243.821L696.836 231.831C694.101 230.146 695.652 228.65 696.483 228.355C697.744 227.907 700.608 228.102 703.565 229.761L718.949 238.824C721.683 240.508 723.243 243.012 722.415 244.386Z" fill="#FF77CA"/>
<path fill-rule="evenodd" clip-rule="evenodd" d="M725.938 247.361C724.729 248.557 722.131 247.877 720.162 245.849L706.479 231.469C704.511 229.441 706.423 228.235 707.283 228.077C708.589 227.836 711.161 228.453 713.343 230.489L724.554 241.5C726.524 243.527 727.146 246.166 725.938 247.361Z" fill="#FF77CA"/>
<path fill-rule="evenodd" clip-rule="evenodd" d="M725.56 248.576C724.334 249.25 722.532 248.297 721.553 246.457L714.831 233.46C713.854 231.621 715.618 231.062 716.313 231.093C717.368 231.142 719.167 232.044 720.304 233.926L726.012 244.005C726.989 245.845 726.786 247.901 725.56 248.576Z" fill="#FF77CA"/>
<path d="M953.094 304.106C953.094 304.106 960.065 291.937 958.606 280.497" stroke="#FF9A0F" stroke-width="2.1"/>
<path fill-rule="evenodd" clip-rule="evenodd" d="M607.079 725.252C607.079 726.65 505.237 727.783 379.609 727.783C253.98 727.783 152.139 726.65 152.139 725.252C152.139 723.855 253.98 722.722 379.609 722.722C505.237 722.722 607.079 723.855 607.079 725.252Z" fill="#AFB4C8"/>
<path d="M306.197 697.175C306.197 697.175 277.041 664.243 263.748 656.322C250.456 648.401 224.545 639.46 224.545 639.46" stroke="#2B2B3B" stroke-width="6.3"/>
<path fill-rule="evenodd" clip-rule="evenodd" d="M325.403 720.361L317.818 724.634C313.794 726.9 308.647 725.461 306.381 721.436L305.619 720.083C303.353 716.057 304.791 710.908 308.815 708.641L316.401 704.369C320.425 702.101 325.572 703.541 327.838 707.566L328.6 708.919C330.867 712.945 329.428 718.094 325.403 720.361Z" fill="#272636"/>
<path fill-rule="evenodd" clip-rule="evenodd" d="M301.812 690.033L304.85 717.2L325.775 705.413L301.812 690.033ZM306.965 698.331L317.634 705.179L308.317 710.427L306.965 698.331Z" fill="#2B2B3B"/>
<path d="M445.741 698.352C445.741 698.352 423.539 663.993 412.425 654.85C401.312 645.707 378.738 633.861 378.738 633.861" stroke="#2B2B3B" stroke-width="6.3"/>
<path fill-rule="evenodd" clip-rule="evenodd" d="M460.097 722.38L452.65 725.2C448.599 726.734 444.029 724.674 442.495 720.621L442.031 719.395C440.497 715.342 442.557 710.771 446.609 709.237L454.056 706.417C458.107 704.883 462.677 706.943 464.211 710.996L464.675 712.223C466.208 716.275 464.148 720.847 460.097 722.38Z" fill="#272636"/>
<path fill-rule="evenodd" clip-rule="evenodd" d="M442.709 691.171L441.703 716.575L462.59 708.665L442.709 691.171ZM446.555 700.149L454.578 707.209L446.149 710.4L446.555 700.149Z" fill="#2B2B3B"/>
<path d="M537.297 702.136C537.297 702.136 504.233 678.058 490.577 673.522C476.921 668.986 451.6 666.048 451.6 666.048" stroke="#2B2B3B" stroke-width="6.3"/>
<path fill-rule="evenodd" clip-rule="evenodd" d="M559.328 719.397L553.392 724.706C550.163 727.594 545.158 727.314 542.271 724.083L541.397 723.107C538.51 719.876 538.789 714.87 542.018 711.981L547.954 706.672C551.184 703.784 556.188 704.064 559.076 707.294L559.949 708.271C562.837 711.502 562.557 716.508 559.328 719.397Z" fill="#272636"/>
<path fill-rule="evenodd" clip-rule="evenodd" d="M531.887 696.525L540.078 720.593L556.726 705.702L531.887 696.525ZM538.703 703.52L548.725 707.223L542.008 713.232L538.703 703.52Z" fill="#2B2B3B"/>
<path fill-rule="evenodd" clip-rule="evenodd" d="M386.743 591.682C386.743 591.682 359.9 632.835 375.982 639.06C386.968 643.311 391.476 623.049 391.476 623.049L486.434 558.78C486.434 558.78 489.583 553.775 482.53 545.344C475.476 536.914 471.987 539.019 471.987 539.019L428.988 568.12L423.201 567.008L386.743 591.682Z" fill="#272636"/>
<path fill-rule="evenodd" clip-rule="evenodd" d="M229.605 597.193C229.605 597.193 207.329 643.748 224.933 648.01C236.958 650.92 238.858 629.2 238.858 629.2L328.87 549.179C328.87 549.179 331.459 543.532 322.951 535.726C314.444 527.922 311.101 530.595 311.101 530.595L270.343 566.83L264.163 566.471L229.605 597.193Z" fill="#272636"/>
<path fill-rule="evenodd" clip-rule="evenodd" d="M485.247 576.47L450.329 574.441C446.585 574.223 443.728 571.011 443.945 567.268L445.62 538.443C445.837 534.699 449.048 531.84 452.791 532.058L498.016 534.687C502.704 534.958 505.706 539.796 503.87 544.12L491.889 572.345C490.769 574.986 488.109 576.636 485.247 576.47Z" fill="#2B2B3B"/>
<path fill-rule="evenodd" clip-rule="evenodd" d="M449.404 535.497L447.332 571.157C447.046 576.088 442.818 579.854 437.888 579.567L414.418 578.203C414.605 574.984 412.148 572.223 408.93 572.035L323.261 567.055C320.044 566.869 317.283 569.326 317.096 572.546L238.733 567.99C233.804 567.704 230.04 563.474 230.327 558.543L232.398 522.882C232.685 517.951 236.913 514.187 241.842 514.473L440.997 526.049C445.927 526.336 449.69 530.566 449.404 535.497Z" fill="#FFC100"/>
<path fill-rule="evenodd" clip-rule="evenodd" d="M448.467 551.681L447.334 571.155C447.047 576.09 442.82 579.856 437.887 579.569L414.416 578.205C414.423 578.085 414.423 577.974 414.423 577.855C414.423 574.788 412.03 572.219 408.93 572.037L323.264 567.053C320.045 566.871 317.281 569.328 317.099 572.549L238.731 567.991C235.82 567.824 233.322 566.277 231.817 564.03L264.441 552.556L279.941 531.017L305.021 532.347L314.489 527.881L350.583 532.046L371.121 547.405L448.467 551.681Z" fill="#F38C01"/>
<path fill-rule="evenodd" clip-rule="evenodd" d="M283.732 564.757L257.696 563.243C253.631 563.007 250.528 559.519 250.764 555.453L252.4 527.284C252.636 523.218 256.123 520.113 260.187 520.35L286.224 521.863C290.289 522.1 293.392 525.587 293.156 529.654L291.52 557.822C291.283 561.888 287.797 564.993 283.732 564.757Z" fill="#2B2B3B"/>
<path fill-rule="evenodd" clip-rule="evenodd" d="M346.469 546.66L311.88 544.649C307.815 544.413 304.712 540.925 304.948 536.859L304.994 536.069C305.23 532.004 308.717 528.899 312.781 529.135L347.371 531.146C351.436 531.382 354.539 534.87 354.303 538.936L354.257 539.726C354.021 543.791 350.534 546.896 346.469 546.66Z" fill="#2B2B3B"/>
<path d="M448.45 551.899L371.118 547.404L348.131 530.212L311.654 528.091L305.02 532.348L289.653 531.454" stroke="#2B2B3B" stroke-width="3.5"/>
<path d="M442.099 537.577L399.771 535.36" stroke="#333337" stroke-width="6.3"/>
<path fill-rule="evenodd" clip-rule="evenodd" d="M482.741 506.027C482.275 514.066 475.38 520.205 467.343 519.739C459.307 519.271 453.17 512.375 453.636 504.335C454.104 496.296 460.998 490.157 469.035 490.624C477.072 491.091 483.208 497.987 482.741 506.027Z" fill="#2B2B3B"/>
<path fill-rule="evenodd" clip-rule="evenodd" d="M478.014 541.157L453.915 539.757L455.965 504.47L480.064 505.872L478.014 541.157Z" fill="#2B2B3B"/>
<path fill-rule="evenodd" clip-rule="evenodd" d="M433.502 634.829C433.502 634.829 439.105 683.647 455.456 678.167C466.625 674.424 457.163 655.949 457.163 655.949L489.235 545.84C489.235 545.84 488.464 539.975 477.654 537.991C466.844 536.008 465.502 539.856 465.502 539.856L450.98 589.714L445.815 592.555L433.502 634.829Z" fill="#FFC100"/>
<path d="M190.527 694.791C190.527 694.791 188.148 650.865 182.657 636.396C177.165 621.926 162.422 598.812 162.422 598.812" stroke="#2B2B3B" stroke-width="6.3"/>
<path fill-rule="evenodd" clip-rule="evenodd" d="M191.168 724.896L182.57 723.528C178.009 722.802 174.871 718.474 175.598 713.912L175.842 712.377C176.568 707.815 180.893 704.676 185.454 705.402L194.051 706.771C198.613 707.498 201.75 711.824 201.024 716.387L200.78 717.921C200.054 722.484 195.729 725.623 191.168 724.896Z" fill="#272636"/>
<path fill-rule="evenodd" clip-rule="evenodd" d="M191.529 686.47L177.029 709.641L200.745 713.417L191.529 686.47ZM190.41 696.173L194.514 708.172L183.954 706.491L190.41 696.173Z" fill="#2B2B3B"/>
<path fill-rule="evenodd" clip-rule="evenodd" d="M360.882 490.759L364.491 473.332L470.016 495.201L466.407 512.628L360.882 490.759Z" fill="#2B2B3B"/>
<path fill-rule="evenodd" clip-rule="evenodd" d="M464.899 447.136L373.558 470.159L365.51 486.79C363.369 491.221 358.037 493.07 353.614 490.928C349.192 488.786 347.337 483.473 349.464 479.049L361.032 454.969L460.554 429.881L464.899 447.136Z" fill="#2B2B3B"/>
<path fill-rule="evenodd" clip-rule="evenodd" d="M476.676 441.619L463.133 430.078L473.292 418.271L486.836 429.811L476.676 441.619Z" fill="#2B2B3B"/>
<path fill-rule="evenodd" clip-rule="evenodd" d="M484.345 434.316L502.574 435.046C503.331 435.076 504.035 434.657 504.369 433.976L522.11 397.78C522.794 396.385 521.619 394.799 520.086 395.048L480.598 401.457C479.922 401.566 479.357 402.028 479.115 402.667L471.61 422.46C471.321 423.221 471.545 424.08 472.168 424.604L483.191 433.868C483.515 434.141 483.922 434.299 484.345 434.316Z" fill="#2B2B3B"/>
<path fill-rule="evenodd" clip-rule="evenodd" d="M183.927 567.876C183.927 567.876 146.442 603.341 161.346 613.635C171.528 620.666 181.088 601.072 181.088 601.072L293.804 558.67C293.804 558.67 298.245 554.327 293.102 543.989C287.959 533.651 283.88 534.948 283.88 534.948L232.842 554.148L227.202 551.596L183.927 567.876Z" fill="#FFC100"/>
<path fill-rule="evenodd" clip-rule="evenodd" d="M171.874 603.971C172.884 606.441 171.701 609.263 169.231 610.273C166.762 611.282 163.941 610.099 162.931 607.629C161.921 605.159 163.104 602.337 165.574 601.327C168.044 600.317 170.864 601.501 171.874 603.971Z" fill="#2B2B3B"/>
<path fill-rule="evenodd" clip-rule="evenodd" d="M456.689 666.708C457.699 669.177 456.516 672 454.046 673.009C451.577 674.019 448.757 672.836 447.747 670.366C446.736 667.895 447.92 665.074 450.389 664.064C452.859 663.053 455.679 664.237 456.689 666.708Z" fill="#2B2B3B"/>
<path fill-rule="evenodd" clip-rule="evenodd" d="M362.932 478.592C363.871 480.889 362.771 483.512 360.475 484.453C358.178 485.392 355.555 484.292 354.616 481.993C353.676 479.697 354.777 477.072 357.074 476.133C359.37 475.194 361.993 476.295 362.932 478.592Z" fill="#7A8090"/>
<path fill-rule="evenodd" clip-rule="evenodd" d="M491.293 408.838C492.233 411.136 491.133 413.759 488.836 414.7C486.539 415.638 483.916 414.538 482.977 412.24C482.038 409.944 483.138 407.319 485.435 406.38C487.732 405.441 490.354 406.541 491.293 408.838Z" fill="#7A8090"/>
<path fill-rule="evenodd" clip-rule="evenodd" d="M480.374 431.684C482.957 438.003 479.931 445.22 473.614 447.803C467.298 450.387 460.083 447.36 457.5 441.041C454.916 434.722 457.943 427.505 464.26 424.922C470.577 422.337 477.791 425.365 480.374 431.684Z" fill="#2B2B3B"/>
<path d="M474.852 413.912L479.081 418.438C483.452 423.115 490.691 423.621 495.668 419.596L521.788 395.63" stroke="#6D7386" stroke-width="2.1"/>
</svg>
