<svg width="1161" height="702" viewBox="0 0 1161 702" fill="none" xmlns="http://www.w3.org/2000/svg">
<mask id="mask0_2413_764" style="mask-type:luminance" maskUnits="userSpaceOnUse" x="574" y="477" width="587" height="108">
<path fill-rule="evenodd" clip-rule="evenodd" d="M574.785 477.164H1160.88V584.844H574.785V477.164Z" fill="white"/>
</mask>
<g mask="url(#mask0_2413_764)">
<path fill-rule="evenodd" clip-rule="evenodd" d="M1160.88 514.644V547.364C1160.88 568.059 1144.1 584.844 1123.4 584.844H612.261C591.567 584.844 574.785 568.059 574.785 547.364V514.644C574.785 493.941 591.567 477.164 612.261 477.164H1123.4C1144.1 477.164 1160.88 493.941 1160.88 514.644" fill="#E8F6FF"/>
</g>
<path fill-rule="evenodd" clip-rule="evenodd" d="M601.534 523.252C601.777 523.495 601.912 523.63 602.155 523.873V547.364C602.155 568.06 592.951 581.892 574.785 584.842C571.752 585.334 561.342 585.611 552.635 585.761C550.389 585.798 550.254 582.726 552.411 582.096C569.965 576.966 574.785 561.019 574.785 547.364V523.873C575.027 523.63 575.162 523.495 575.405 523.252H601.534Z" fill="#E8F6FF"/>
<mask id="mask1_2413_764" style="mask-type:luminance" maskUnits="userSpaceOnUse" x="0" y="0" width="1161" height="702">
<path fill-rule="evenodd" clip-rule="evenodd" d="M0 701.206H1160.88V0H0V701.206Z" fill="white"/>
</mask>
<g mask="url(#mask1_2413_764)">
<path fill-rule="evenodd" clip-rule="evenodd" d="M613.959 511.837H1121.71V500.854H613.959V511.837Z" fill="#C3E4FF"/>
<path fill-rule="evenodd" clip-rule="evenodd" d="M613.959 536.495H1121.71V525.512H613.959V536.495Z" fill="#C3E4FF"/>
<path fill-rule="evenodd" clip-rule="evenodd" d="M613.959 561.153H998.107V550.171H613.959V561.153Z" fill="#C3E4FF"/>
<path fill-rule="evenodd" clip-rule="evenodd" d="M319.798 442.868H125.944C105.249 442.868 88.4727 426.088 88.4727 405.392V375.002C88.4727 354.304 105.249 337.526 125.944 337.526H319.798C340.493 337.526 357.27 354.304 357.27 375.002V405.392C357.27 426.088 340.493 442.868 319.798 442.868" fill="#E8F6FF"/>
<path fill-rule="evenodd" clip-rule="evenodd" d="M115.222 380.359L115.842 380.979V404.471C115.842 425.167 106.639 438.999 88.4723 441.949C85.4393 442.441 75.0295 442.718 66.3217 442.867C64.076 442.905 63.9423 439.833 66.0984 439.203C83.652 434.074 88.4723 418.126 88.4723 404.471V380.979L89.0931 380.359H115.222Z" fill="#E8F6FF"/>
<path fill-rule="evenodd" clip-rule="evenodd" d="M119.771 371.03H325.97V360.047H119.771V371.03Z" fill="#C3E4FF"/>
<path fill-rule="evenodd" clip-rule="evenodd" d="M119.771 395.688H325.97V384.705H119.771V395.688Z" fill="#C3E4FF"/>
<path fill-rule="evenodd" clip-rule="evenodd" d="M119.771 420.346H275.776V409.363H119.771V420.346Z" fill="#C3E4FF"/>
<path fill-rule="evenodd" clip-rule="evenodd" d="M467.335 584.842H37.4725C16.7768 584.842 0 568.062 0 547.364V514.642C0 493.943 16.7768 477.164 37.4725 477.164H467.335C488.031 477.164 504.808 493.943 504.808 514.642V547.364C504.808 568.062 488.031 584.842 467.335 584.842" fill="#E8F6FF"/>
<path fill-rule="evenodd" clip-rule="evenodd" d="M118.111 511.837H465.365V500.854H118.111V511.837Z" fill="#C3E4FF"/>
<path fill-rule="evenodd" clip-rule="evenodd" d="M118.111 536.495H465.365V525.512H118.111V536.495Z" fill="#C3E4FF"/>
<path fill-rule="evenodd" clip-rule="evenodd" d="M118.111 561.153H380.835V550.171H118.111V561.153Z" fill="#C3E4FF"/>
<path fill-rule="evenodd" clip-rule="evenodd" d="M91.3743 531.004C91.3743 547.655 77.8775 561.153 61.2281 561.153C44.5787 561.153 31.082 547.655 31.082 531.004C31.082 514.353 44.5787 500.854 61.2281 500.854C77.8775 500.854 91.3743 514.353 91.3743 531.004" fill="#AAD5FF"/>
<path fill-rule="evenodd" clip-rule="evenodd" d="M1012.76 442.868H664.333C643.639 442.868 626.861 426.088 626.861 405.392V375.002C626.861 354.304 643.639 337.526 664.333 337.526H1012.76C1033.46 337.526 1050.23 354.304 1050.23 375.002V405.392C1050.23 426.088 1033.46 442.868 1012.76 442.868" fill="#E8F6FF"/>
<path fill-rule="evenodd" clip-rule="evenodd" d="M744.861 369.795H1012.73V358.812H744.861V369.795Z" fill="#C3E4FF"/>
<path fill-rule="evenodd" clip-rule="evenodd" d="M744.861 394.454H1012.73V383.471H744.861V394.454Z" fill="#C3E4FF"/>
<path fill-rule="evenodd" clip-rule="evenodd" d="M744.861 419.112H947.525V408.129H744.861V419.112Z" fill="#C3E4FF"/>
<path fill-rule="evenodd" clip-rule="evenodd" d="M718.304 388.962C718.304 405.613 704.807 419.112 688.158 419.112C671.508 419.112 658.012 405.613 658.012 388.962C658.012 372.311 671.508 358.812 688.158 358.812C704.807 358.812 718.304 372.311 718.304 388.962" fill="#AAD5FF"/>
<path fill-rule="evenodd" clip-rule="evenodd" d="M615.412 139.085V139.085C577.01 139.085 545.879 107.951 545.879 69.5438C545.879 31.1375 577.01 0.00244141 615.412 0.00244141C653.814 0.00244141 684.945 31.1375 684.945 69.5438C684.945 107.951 653.814 139.085 615.412 139.085" fill="#E8F6FF"/>
<path fill-rule="evenodd" clip-rule="evenodd" d="M603.95 78.2531C592.789 78.2531 583.779 69.2426 583.779 58.0799C583.779 46.9179 592.789 37.9066 603.95 37.9066C615.111 37.9066 624.121 46.9179 624.121 58.0799C624.121 69.2426 615.111 78.2531 603.95 78.2531V78.2531ZM630.845 78.2531L627.304 78.2531L626.048 77.043C630.441 71.9323 633.086 65.2972 633.086 58.0799C633.086 41.9864 620.042 28.9409 603.95 28.9409C587.858 28.9409 574.814 41.9864 574.814 58.0799C574.814 74.1734 587.858 87.2195 603.95 87.2195C611.167 87.2195 617.801 84.5739 622.911 80.1806L624.121 81.4362L624.121 84.9777L646.533 107.347L653.212 100.667L630.845 78.2531Z" fill="#AAD5FF"/>
<path fill-rule="evenodd" clip-rule="evenodd" d="M455.489 297.853H45.5135C24.8185 297.853 8.04102 281.074 8.04102 260.376V37.4798C8.04102 16.7823 24.8185 0.00292969 45.5135 0.00292969H455.489C476.185 0.00292969 492.962 16.7823 492.962 37.4798V260.376C492.962 281.074 476.185 297.853 455.489 297.853" fill="#E8F6FF"/>
<path fill-rule="evenodd" clip-rule="evenodd" d="M250.502 181.026C223.937 181.026 202.312 159.398 202.312 132.83C202.312 106.262 223.937 84.6337 250.502 84.6337C277.066 84.6337 298.692 106.262 298.692 132.83C298.692 159.398 277.066 181.026 250.502 181.026V181.026ZM250.502 72.585C217.25 72.585 190.264 99.5752 190.264 132.83C190.264 166.085 217.25 193.075 250.502 193.075C283.753 193.075 310.74 166.085 310.74 132.83C310.74 99.5752 283.753 72.585 250.502 72.585V72.585ZM238.455 159.941L274.597 132.83L238.455 105.72L238.455 159.941Z" fill="#AAD5FF"/>
<path fill-rule="evenodd" clip-rule="evenodd" d="M49.6895 268.128H106.249V261.523H49.6895V268.128Z" fill="#AAD5FF"/>
<path fill-rule="evenodd" clip-rule="evenodd" d="M145.572 268.128H455.514V261.523H145.572V268.128Z" fill="#C3E4FF"/>
<path fill-rule="evenodd" clip-rule="evenodd" d="M139.841 264.825C139.841 272.675 133.478 279.039 125.629 279.039C117.781 279.039 111.418 272.675 111.418 264.825C111.418 256.975 117.781 250.612 125.629 250.612C133.478 250.612 139.841 256.975 139.841 264.825" fill="#AAD5FF"/>
<path fill-rule="evenodd" clip-rule="evenodd" d="M1115.64 296.561H591.964C571.269 296.561 554.492 279.782 554.492 259.085V221.345C554.492 200.646 571.269 183.868 591.964 183.868H1115.64C1136.33 183.868 1153.11 200.646 1153.11 221.345V259.085C1153.11 279.782 1136.33 296.561 1115.64 296.561" fill="#E8F6FF"/>
<path fill-rule="evenodd" clip-rule="evenodd" d="M1153.11 221.343V228.104H554.49V221.343C554.49 200.647 571.273 183.871 591.966 183.871H1115.63C1136.33 183.871 1153.11 200.647 1153.11 221.343" fill="#C3E4FF"/>
<path fill-rule="evenodd" clip-rule="evenodd" d="M601.246 207.375C601.246 213.275 596.464 218.058 590.564 218.058C584.665 218.058 579.883 213.275 579.883 207.375C579.883 201.475 584.665 196.691 590.564 196.691C596.464 196.691 601.246 201.475 601.246 207.375" fill="#E8F6FF"/>
<path fill-rule="evenodd" clip-rule="evenodd" d="M629.854 207.375C629.854 213.275 625.071 218.058 619.172 218.058C613.272 218.058 608.49 213.275 608.49 207.375C608.49 201.475 613.272 196.691 619.172 196.691C625.071 196.691 629.854 201.475 629.854 207.375" fill="#E8F6FF"/>
<path fill-rule="evenodd" clip-rule="evenodd" d="M658.459 207.375C658.459 213.275 653.677 218.058 647.777 218.058C641.878 218.058 637.096 213.275 637.096 207.375C637.096 201.475 641.878 196.691 647.777 196.691C653.677 196.691 658.459 201.475 658.459 207.375" fill="#E8F6FF"/>
<path fill-rule="evenodd" clip-rule="evenodd" d="M581.735 374.999V405.389C581.735 426.092 564.953 442.869 544.26 442.869H465.355C444.661 442.869 427.887 426.092 427.887 405.389V374.999C427.887 367.734 429.958 360.945 433.534 355.199C434.885 353.036 436.446 351.02 438.195 349.18C438.776 348.571 439.378 347.976 440.001 347.409C446.67 341.271 455.578 337.526 465.355 337.526H544.26C554.035 337.526 562.944 341.271 569.614 347.409C570.236 347.976 570.839 348.571 571.42 349.18C573.169 351.02 574.729 353.036 576.08 355.206C579.664 360.952 581.735 367.734 581.735 374.999" fill="#E8F6FF"/>
<path fill-rule="evenodd" clip-rule="evenodd" d="M576.081 355.206L504.819 399.083L433.535 355.199C434.886 353.036 436.446 351.021 438.196 349.18C438.777 348.571 439.379 347.976 440.001 347.409L504.819 387.31L569.615 347.409C570.237 347.976 570.84 348.571 571.421 349.18C573.17 351.021 574.73 353.036 576.081 355.206" fill="#D0F0FF"/>
<path fill-rule="evenodd" clip-rule="evenodd" d="M598.223 344.244C598.223 358.666 586.534 370.357 572.113 370.357C557.694 370.357 546.004 358.666 546.004 344.244C546.004 329.823 557.694 318.132 572.113 318.132C586.534 318.132 598.223 329.823 598.223 344.244" fill="#C3E4FF"/>
<path fill-rule="evenodd" clip-rule="evenodd" d="M1121.7 37.4797V101.612C1121.7 122.308 1104.93 139.084 1084.23 139.084H793.515C772.821 139.084 756.039 122.308 756.039 101.612V37.4797C756.039 16.7836 772.821 0 793.515 0H1084.23C1104.93 0 1121.7 16.7836 1121.7 37.4797" fill="#E8F6FF"/>
<path fill-rule="evenodd" clip-rule="evenodd" d="M902.068 34.977H1087.45V23.9941H902.068V34.977Z" fill="#C3E4FF"/>
<path fill-rule="evenodd" clip-rule="evenodd" d="M902.068 59.3495H1087.45V48.3667H902.068V59.3495Z" fill="#C3E4FF"/>
<path fill-rule="evenodd" clip-rule="evenodd" d="M902.068 83.7226H1087.45V72.7397H902.068V83.7226Z" fill="#C3E4FF"/>
<path fill-rule="evenodd" clip-rule="evenodd" d="M902.068 108.096H1042.32V97.1128H902.068V108.096Z" fill="#C3E4FF"/>
<path fill-rule="evenodd" clip-rule="evenodd" d="M877.934 -0.000488281V139.084H793.515C772.821 139.084 756.039 122.307 756.039 101.611V37.4792C756.039 16.7831 772.821 -0.000488281 793.515 -0.000488281H877.934Z" fill="#D6EEFF"/>
</g>
<path fill-rule="evenodd" clip-rule="evenodd" d="M46.6758 698.676C46.6758 700.073 276.271 701.206 559.49 701.206C842.71 701.206 1072.3 700.073 1072.3 698.676C1072.3 697.279 842.71 696.146 559.49 696.146C276.271 696.146 46.6758 697.279 46.6758 698.676" fill="#AFB4C8"/>
<mask id="mask2_2413_764" style="mask-type:luminance" maskUnits="userSpaceOnUse" x="511" y="259" width="543" height="205">
<path fill-rule="evenodd" clip-rule="evenodd" d="M613.641 259.397C585.417 259.397 559.873 270.84 541.377 289.331V289.331C522.88 307.83 511.445 333.383 511.445 361.603V361.603C511.445 418.05 557.199 463.81 613.641 463.81V463.81H951.66C979.884 463.81 1005.43 452.366 1023.93 433.875V433.875C1042.43 415.377 1053.86 389.823 1053.86 361.603V361.603C1053.86 305.156 1008.11 259.397 951.66 259.397V259.397H613.641Z" fill="white"/>
</mask>
<g mask="url(#mask2_2413_764)">
<path fill-rule="evenodd" clip-rule="evenodd" d="M613.641 259.397C585.417 259.397 559.873 270.84 541.377 289.331V289.331C522.88 307.83 511.445 333.383 511.445 361.603V361.603C511.445 418.05 557.199 463.81 613.641 463.81V463.81H951.66C979.884 463.81 1005.43 452.366 1023.93 433.875V433.875C1042.43 415.377 1053.86 389.823 1053.86 361.603V361.603C1053.86 305.156 1008.11 259.397 951.66 259.397V259.397H613.641Z" fill="url(#paint0_linear_2413_764)"/>
</g>
<mask id="mask3_2413_764" style="mask-type:luminance" maskUnits="userSpaceOnUse" x="551" y="215" width="294" height="293">
<path fill-rule="evenodd" clip-rule="evenodd" d="M551.863 361.603C551.863 442.326 617.295 507.766 698.009 507.766V507.766C778.722 507.766 844.154 442.326 844.154 361.603V361.603C844.154 280.88 778.722 215.44 698.009 215.44V215.44C617.295 215.44 551.863 280.88 551.863 361.603" fill="white"/>
</mask>
<g mask="url(#mask3_2413_764)">
<path fill-rule="evenodd" clip-rule="evenodd" d="M551.863 361.603C551.863 442.326 617.295 507.766 698.009 507.766V507.766C778.722 507.766 844.154 442.326 844.154 361.603V361.603C844.154 280.88 778.722 215.44 698.009 215.44V215.44C617.295 215.44 551.863 280.88 551.863 361.603" fill="url(#paint1_linear_2413_764)"/>
</g>
<mask id="mask4_2413_764" style="mask-type:luminance" maskUnits="userSpaceOnUse" x="551" y="215" width="294" height="293">
<path fill-rule="evenodd" clip-rule="evenodd" d="M551.863 361.603C551.863 442.326 617.295 507.766 698.009 507.766V507.766C778.722 507.766 844.154 442.326 844.154 361.603V361.603C844.154 280.88 778.722 215.44 698.009 215.44V215.44C617.295 215.44 551.863 280.88 551.863 361.603" fill="white"/>
</mask>
<g mask="url(#mask4_2413_764)">
<path fill-rule="evenodd" clip-rule="evenodd" d="M828.316 361.603C828.316 433.577 769.975 491.925 698.009 491.925C626.043 491.925 567.703 433.577 567.703 361.603C567.703 289.629 626.043 231.282 698.009 231.282C769.975 231.282 828.316 289.629 828.316 361.603" fill="#D7DBDE"/>
</g>
<path fill-rule="evenodd" clip-rule="evenodd" d="M534.985 333.138C534.985 333.138 533.325 346.104 537.118 348.769C541.431 351.799 553.346 343.4 553.346 343.4C553.346 343.4 562.365 334.914 568.051 330.6C573.653 326.349 569.615 322.818 569.615 322.818L555.633 329.84C555.223 331.031 556.559 325.047 559.207 317.275C563.332 305.172 567.133 296.663 567.133 296.663L554.933 308.186L548.595 324.37L534.985 333.138Z" fill="#FF77CA"/>
<path fill-rule="evenodd" clip-rule="evenodd" d="M382.558 667.313L375.35 680.142C375.35 680.142 409.962 686.329 425.034 698.655H346.379L368.865 659.505L382.558 667.313Z" fill="#0B096F"/>
<path fill-rule="evenodd" clip-rule="evenodd" d="M367.473 661.928L358.629 677.326L375.35 680.142L381.807 668.526L367.473 661.928Z" fill="#EF3C86"/>
<path fill-rule="evenodd" clip-rule="evenodd" d="M145.736 698.676H104.249L80.043 669.719L112.52 628.605L123.334 644.908L108.972 667.503L123.015 689.32C123.015 689.32 129.264 690.856 134.988 693.232C140.238 695.411 145.736 698.676 145.736 698.676" fill="#0B096F"/>
<path fill-rule="evenodd" clip-rule="evenodd" d="M112.245 628.659L93.6328 652.661L108.976 667.503L119.727 650.656L112.245 628.659Z" fill="#EF3C86"/>
<path fill-rule="evenodd" clip-rule="evenodd" d="M529.631 329.148L539.236 328.855V355.761L529.632 355.27C529.632 358.482 525.903 362.402 522.13 362.078L432.518 350.601L427.472 363.944L381.809 325.117L367.52 295.138L387.737 294.413C396.016 294.115 404.299 294.905 412.407 296.764L524.178 322.048C527.696 322.855 529.738 325.529 529.631 329.148" fill="#285FD7"/>
<path fill-rule="evenodd" clip-rule="evenodd" d="M349.556 420.766L224.247 561.964L128.938 669.364L95.4238 642.901L231.777 457.098L253.149 427.976L261.148 408.05L349.556 420.766Z" fill="#0D0D11"/>
<path fill-rule="evenodd" clip-rule="evenodd" d="M427.474 360.904L393.177 413.85C387.471 422.895 381.226 425.157 370.722 423.811L259.014 407.742C250.336 406.489 246.522 396.095 252.331 389.523L330.43 306.648C334.993 301.805 341.292 298.963 347.947 298.746L367.521 298.109L381.811 325.468L427.474 360.904Z" fill="#49A2FF"/>
<path fill-rule="evenodd" clip-rule="evenodd" d="M433.771 215.852C433.771 215.852 452.479 242.835 425.041 248.432Z" fill="#0B096F"/>
<path fill-rule="evenodd" clip-rule="evenodd" d="M380.085 312.493L397.469 286.538C397.469 286.538 426.494 291.785 432.754 289.321C432.754 289.321 440.166 262.035 437.932 241.905L416.777 218.369L378.788 217.204L370.943 250.884C369.579 244.857 352.384 235.684 346.708 248.291C339.39 264.545 369.588 276.477 369.588 276.477L350.047 302.21L380.085 312.493Z" fill="#FF77CA"/>
<path fill-rule="evenodd" clip-rule="evenodd" d="M352.888 242.469C352.888 242.469 336.723 231.159 360.352 211.322C383.981 191.485 401.788 204.921 401.788 204.921C401.788 204.921 409.496 182.999 424.323 184.613C445.448 186.915 445.298 219.913 445.298 219.913C445.298 219.913 452.43 202.704 458.222 205.876C464.014 209.048 463.391 268.617 382.307 231.081C382.307 231.081 390.554 249.593 370.943 250.883C370.943 250.883 365.405 240.402 352.888 242.469" fill="#0B096F"/>
<path d="M371.841 191.464L372.949 206.477L367.155 208.541L358.043 197.084" stroke="#001F68" stroke-width="6.3"/>
<path fill-rule="evenodd" clip-rule="evenodd" d="M424.093 258.745L428.21 273.195L421.426 272.528L424.093 258.745Z" fill="#285FD7"/>
<path d="M418.364 278.964C418.364 278.964 412.688 278.72 411.676 273.992" stroke="#0D1A88" stroke-width="2.1"/>
<path fill-rule="evenodd" clip-rule="evenodd" d="M418.706 257.575C418.599 259.476 416.973 260.929 415.074 260.824C413.174 260.717 411.719 259.091 411.826 257.191C411.932 255.29 413.559 253.837 415.458 253.943C417.358 254.049 418.812 255.676 418.706 257.575" fill="#0B096F"/>
<path fill-rule="evenodd" clip-rule="evenodd" d="M435.063 258.588C434.957 260.488 433.33 261.942 431.431 261.836C429.531 261.73 428.077 260.103 428.183 258.203C428.29 256.303 429.916 254.849 431.815 254.956C433.715 255.062 435.17 256.689 435.063 258.588" fill="#0B096F"/>
<path fill-rule="evenodd" clip-rule="evenodd" d="M394.298 671.521L359.016 668.487L411.74 541.037C411.74 541.037 313.657 463.399 288.356 445.42C264.263 428.299 264.307 408.501 264.307 408.501L360.828 422.387C360.828 422.387 460.278 502.344 466.648 530.915C472.131 555.504 394.298 671.521 394.298 671.521" fill="#393940"/>
<path fill-rule="evenodd" clip-rule="evenodd" d="M541.131 375.298C541.131 375.298 548.204 359.714 549.935 353.875C550.527 351.877 552.289 351.598 552.289 351.598C552.289 351.598 552.164 361.064 552.823 364.519C553.646 368.837 557.812 369.05 557.812 369.05L587.955 370.435C589.112 370.486 590.047 371.317 590.1 372.34L590.162 373.539C590.206 374.414 589.484 375.16 588.501 375.255L559.661 376.244C559.225 376.259 558.875 376.614 558.869 377.051C558.862 377.488 559.197 377.854 559.633 377.883L593.041 380.178C594.26 380.236 595.226 381.137 595.226 382.214L595.225 383.802C595.225 384.897 594.228 385.769 592.99 385.759L560.833 384.438C560.393 384.42 560.021 384.764 560.006 385.205C559.99 385.632 560.314 385.995 560.74 386.028L589.033 388.208C590.084 388.293 590.874 389.113 590.799 390.039L590.658 391.757C590.587 392.64 589.753 393.308 588.75 393.286L558.092 392.658C557.584 392.647 557.165 393.058 557.166 393.568C557.168 394.083 557.572 394.508 558.087 394.534L581.23 395.725C582.236 395.791 582.971 396.592 582.931 397.481L582.881 398.596C582.844 399.407 581.965 400.399 581.051 400.463L552.743 401.489L536.732 395.277L541.131 375.298Z" fill="#FF77CA"/>
<path fill-rule="evenodd" clip-rule="evenodd" d="M348.264 346.807C348.264 346.807 372.229 355.955 427.068 375.187C470.29 390.345 511.776 404.151 511.776 404.151C518.005 406.335 526.242 404.414 528.662 398.76L538.41 400.486L542.011 367.39L532.486 366.317C532.494 360.979 530.383 358.69 524.181 356.766C524.181 356.766 406.609 309.811 370.227 301.478C346.96 296.149 348.278 300.193 348.278 300.193L348.264 346.807Z" fill="#49A2FF"/>
<path fill-rule="evenodd" clip-rule="evenodd" d="M397.469 286.538L377.219 279.083L391.958 294.975L397.469 286.538Z" fill="#EF3C86"/>
<path fill-rule="evenodd" clip-rule="evenodd" d="M231.777 457.098C229.614 487.25 226.745 527.207 224.247 561.964L128.938 669.364L95.4238 642.901L231.777 457.098Z" fill="#393940"/>
<path fill-rule="evenodd" clip-rule="evenodd" d="M338.482 342.623L420.589 372.945L330.73 356.476L338.482 342.623Z" fill="#285FD7"/>
<defs>
<linearGradient id="paint0_linear_2413_764" x1="388.42" y1="540.77" x2="1323.88" y2="498.386" gradientUnits="userSpaceOnUse">
<stop stop-color="#EF3A86"/>
<stop offset="1" stop-color="#FFC000"/>
</linearGradient>
<linearGradient id="paint1_linear_2413_764" x1="854.91" y1="484.988" x2="830.714" y2="193.65" gradientUnits="userSpaceOnUse">
<stop stop-color="#B0B7BE"/>
<stop offset="1" stop-color="#E8EEF0"/>
</linearGradient>
</defs>
</svg>
