<svg width="1240" height="772" viewBox="0 0 1240 772" fill="none" xmlns="http://www.w3.org/2000/svg">
<path fill-rule="evenodd" clip-rule="evenodd" d="M1049.04 358.205C1049.04 450.19 974.488 524.759 882.521 524.759C790.553 524.759 715.998 450.19 715.998 358.205C715.998 266.22 790.553 191.651 882.521 191.651C974.488 191.651 1049.04 266.22 1049.04 358.205Z" fill="#E8F6FF"/>
<path d="M882.521 325.913V650.736" stroke="#AAD5FF" stroke-width="10.5" stroke-linecap="square"/>
<path d="M922.005 471.653L948.633 445.02" stroke="#AAD5FF" stroke-width="8.4" stroke-linecap="square"/>
<path d="M922.005 352.237L948.633 325.604" stroke="#AAD5FF" stroke-width="8.4" stroke-linecap="square"/>
<path d="M843.037 414.67L816.409 388.037" stroke="#AAD5FF" stroke-width="8.4" stroke-linecap="square"/>
<path d="M843.037 354.962L816.409 328.329" stroke="#AAD5FF" stroke-width="8.4" stroke-linecap="square"/>
<path fill-rule="evenodd" clip-rule="evenodd" d="M1206.84 399.958C1206.84 480.125 1154.53 524.85 1086.4 524.85C1018.27 524.85 965.966 480.125 965.966 399.958C965.966 231.168 1042.84 36.5789 1086.4 36.5789C1129.97 36.5789 1206.84 231.168 1206.84 399.958Z" fill="#C3E4FF"/>
<path d="M1086.4 280.715V650.736" stroke="#E8F6FF" stroke-width="10.5" stroke-linecap="square"/>
<path d="M1119.44 471.01L1146.07 444.377" stroke="#E8F6FF" stroke-width="7" stroke-linecap="square"/>
<path d="M1119.44 320.867L1146.07 294.234" stroke="#E8F6FF" stroke-width="7" stroke-linecap="square"/>
<path fill-rule="evenodd" clip-rule="evenodd" d="M606.921 652.144L907.173 653.721C924.312 631.944 964.221 577.407 948.155 561.294C937.587 550.696 905.91 584.808 897.358 574.571C888.807 564.342 944.968 500.575 930.708 491.587C905.576 475.75 824.71 589.414 814.273 580.267C803.3 570.647 854.868 503.806 836.699 496.725C815.543 488.485 759.527 590.698 743.345 580.267C734.866 574.796 751.326 541.472 739.09 535.777C717.795 525.853 682.259 622.103 667.15 613.528C660.006 609.465 668.043 595.558 657.33 592.099C644.238 587.876 617.866 632.397 606.921 652.144Z" fill="#C3E4FF"/>
<path fill-rule="evenodd" clip-rule="evenodd" d="M350.452 106.658H418.491V14.3848H350.452V106.658Z" fill="#D6EEFF"/>
<path fill-rule="evenodd" clip-rule="evenodd" d="M306.448 106.658H363.371V14.3848H306.448V106.658Z" fill="#C3E4FF"/>
<path fill-rule="evenodd" clip-rule="evenodd" d="M347.865 14.384H430.549V0.702148H347.865V14.384Z" fill="#D6EEFF"/>
<path fill-rule="evenodd" clip-rule="evenodd" d="M294.391 14.384H368.251V0.702148H294.391V14.384Z" fill="#C3E4FF"/>
<path fill-rule="evenodd" clip-rule="evenodd" d="M10.8623 294.256H408.237L606.921 65.3096H209.553L10.8623 294.256Z" fill="#AAD5FF"/>
<path fill-rule="evenodd" clip-rule="evenodd" d="M805.866 294.256H408.491L209.808 65.3096H607.175L805.866 294.256Z" fill="#AAD5FF"/>
<path d="M571.486 65.3096L770.177 294.256" stroke="#C3E4FF" stroke-width="9.1"/>
<path d="M519.003 65.3096L717.694 294.256" stroke="#C3E4FF" stroke-width="9.1"/>
<path d="M466.52 65.3096L665.211 294.256" stroke="#C3E4FF" stroke-width="9.1"/>
<path d="M414.037 65.3096L612.728 294.256" stroke="#C3E4FF" stroke-width="9.1"/>
<path d="M361.554 65.3096L560.245 294.256" stroke="#C3E4FF" stroke-width="9.1"/>
<path d="M256.588 65.3096L455.279 294.256" stroke="#C3E4FF" stroke-width="9.1"/>
<path d="M309.07 65.3096L507.761 294.256" stroke="#C3E4FF" stroke-width="9.1"/>
<path fill-rule="evenodd" clip-rule="evenodd" d="M39.3516 657.172H414.139V294.253H39.3516V657.172Z" fill="#C3E4FF"/>
<path fill-rule="evenodd" clip-rule="evenodd" d="M414.139 294.253H39.3516L226.745 78.3186L414.139 294.253Z" fill="#C3E4FF"/>
<path fill-rule="evenodd" clip-rule="evenodd" d="M108.892 340.535C97.2971 340.535 87.8984 349.936 87.8984 361.532V589.057H129.885V361.532C129.885 349.936 120.486 340.535 108.892 340.535Z" fill="#D6EEFF"/>
<path fill-rule="evenodd" clip-rule="evenodd" d="M355.794 340.535C344.199 340.535 334.801 349.936 334.801 361.532V589.057H376.787V361.532C376.787 349.936 367.388 340.535 355.794 340.535Z" fill="#D6EEFF"/>
<path fill-rule="evenodd" clip-rule="evenodd" d="M414.139 657.172H788.927V294.253H414.139V657.172Z" fill="#D6EEFF"/>
<path fill-rule="evenodd" clip-rule="evenodd" d="M488.34 579.68H582.347V382.691H488.34V579.68Z" fill="#C3E4FF"/>
<path fill-rule="evenodd" clip-rule="evenodd" d="M488.941 584.507H588.902V584.229H488.941V584.507Z" fill="#AAD5FF"/>
<path fill-rule="evenodd" clip-rule="evenodd" d="M484.393 589.056H593.45V579.68H484.393V589.056Z" fill="#E8F6FF"/>
<path fill-rule="evenodd" clip-rule="evenodd" d="M484.393 589.057H495.051V579.68H484.393V589.057Z" fill="#C3E4FF"/>
<path fill-rule="evenodd" clip-rule="evenodd" d="M622.641 584.507H722.601V584.229H622.641V584.507Z" fill="#AAD5FF"/>
<path fill-rule="evenodd" clip-rule="evenodd" d="M618.093 589.056H727.15V579.68H618.093V589.056Z" fill="#E8F6FF"/>
<path fill-rule="evenodd" clip-rule="evenodd" d="M618.093 589.057H628.75V579.68H618.093V589.057Z" fill="#C3E4FF"/>
<path fill-rule="evenodd" clip-rule="evenodd" d="M620.493 579.68H714.5V382.691H620.493V579.68Z" fill="#C3E4FF"/>
<path fill-rule="evenodd" clip-rule="evenodd" d="M498.013 575.13H582.923V387.24H498.013V575.13Z" fill="#AAD5FF"/>
<path fill-rule="evenodd" clip-rule="evenodd" d="M493.464 579.68H587.471V382.691H493.464V579.68ZM502.561 570.581H578.374V391.79H502.561V570.581Z" fill="#E8F6FF"/>
<path fill-rule="evenodd" clip-rule="evenodd" d="M164.065 653.721H289.424V363.147H164.065V653.721Z" fill="#D6EEFF"/>
<path fill-rule="evenodd" clip-rule="evenodd" d="M86.8486 584.507V361.532C86.8486 352.463 94.2257 345.084 103.293 345.084C112.361 345.084 119.738 352.463 119.738 361.532V584.507H86.8486Z" fill="#AAD5FF"/>
<path fill-rule="evenodd" clip-rule="evenodd" d="M103.293 340.535C91.6985 340.535 82.2998 349.936 82.2998 361.532V589.057H124.286V361.532C124.286 349.936 114.887 340.535 103.293 340.535ZM103.293 349.634C109.853 349.634 115.189 354.971 115.189 361.532V579.958H91.3969V361.532C91.3969 354.971 96.7333 349.634 103.293 349.634Z" fill="#E8F6FF"/>
<path fill-rule="evenodd" clip-rule="evenodd" d="M333.751 584.507V361.532C333.751 352.463 341.128 345.084 350.196 345.084C359.263 345.084 366.64 352.463 366.64 361.532V584.507H333.751Z" fill="#AAD5FF"/>
<path fill-rule="evenodd" clip-rule="evenodd" d="M350.195 340.535C338.601 340.535 329.202 349.936 329.202 361.532V589.057H371.189V361.532C371.189 349.936 361.789 340.535 350.195 340.535ZM350.195 349.634C356.755 349.634 362.092 354.971 362.092 361.532V579.958H338.299V361.532C338.299 354.971 343.636 349.634 350.195 349.634Z" fill="#E8F6FF"/>
<path fill-rule="evenodd" clip-rule="evenodd" d="M630.166 575.13H715.077V387.24H630.166V575.13Z" fill="#AAD5FF"/>
<path fill-rule="evenodd" clip-rule="evenodd" d="M625.617 579.68H719.625V382.691H625.617V579.68ZM634.714 570.581H710.528V391.79H634.714V570.581Z" fill="#E8F6FF"/>
<path fill-rule="evenodd" clip-rule="evenodd" d="M686.939 294.256H516.128L601.533 195.843L686.939 294.256Z" fill="#D6EEFF"/>
<path fill-rule="evenodd" clip-rule="evenodd" d="M643.304 308.663C643.304 331.736 624.602 350.442 601.533 350.442C578.463 350.442 559.762 331.736 559.762 308.663C559.762 285.589 578.463 266.884 601.533 266.884C624.602 266.884 643.304 285.589 643.304 308.663Z" fill="#AAD5FF"/>
<path fill-rule="evenodd" clip-rule="evenodd" d="M643.304 308.663C643.304 331.736 624.602 350.442 601.533 350.442C578.463 350.442 559.762 331.736 559.762 308.663C559.762 285.589 578.463 266.884 601.533 266.884C624.602 266.884 643.304 285.589 643.304 308.663Z" stroke="#E8F6FF" stroke-width="9.1"/>
<path d="M497.83 481.185H584.2" stroke="#E8F6FF" stroke-width="9.1"/>
<path d="M540.468 388.91V482.034" stroke="#E8F6FF" stroke-width="9.1"/>
<path d="M672.621 387.677V575.774" stroke="#E8F6FF" stroke-width="9.1"/>
<path d="M629.925 481.185H715.595" stroke="#E8F6FF" stroke-width="9.1"/>
<path d="M563.736 308.662H642.765" stroke="#E8F6FF" stroke-width="9.1"/>
<path d="M601.533 266.884V350.442" stroke="#E8F6FF" stroke-width="9.1"/>
<path fill-rule="evenodd" clip-rule="evenodd" d="M269.816 218.06C269.816 241.853 250.532 261.141 226.744 261.141C202.956 261.141 183.672 241.853 183.672 218.06C183.672 194.267 202.956 174.98 226.744 174.98C250.532 174.98 269.816 194.267 269.816 218.06Z" fill="#AAD5FF"/>
<path fill-rule="evenodd" clip-rule="evenodd" d="M269.816 218.06C269.816 241.853 250.532 261.141 226.744 261.141C202.956 261.141 183.672 241.853 183.672 218.06C183.672 194.267 202.956 174.98 226.744 174.98C250.532 174.98 269.816 194.267 269.816 218.06Z" stroke="#E8F6FF" stroke-width="9.1"/>
<path d="M186.155 218.06H267.645" stroke="#E8F6FF" stroke-width="9.1"/>
<path d="M226.744 174.98V261.141" stroke="#E8F6FF" stroke-width="9.1"/>
<path d="M88.1055 394.267H116.958" stroke="#E8F6FF" stroke-width="9.1"/>
<path d="M89.6123 443.081H115.45" stroke="#E8F6FF" stroke-width="9.1"/>
<path d="M89.6123 491.895H115.45" stroke="#E8F6FF" stroke-width="9.1"/>
<path d="M88.1055 540.71H116.958" stroke="#E8F6FF" stroke-width="9.1"/>
<path d="M335.125 394.267H363.977" stroke="#E8F6FF" stroke-width="9.1"/>
<path d="M336.633 443.081H362.471" stroke="#E8F6FF" stroke-width="9.1"/>
<path d="M336.633 491.895H362.471" stroke="#E8F6FF" stroke-width="9.1"/>
<path d="M335.125 540.71H363.977" stroke="#E8F6FF" stroke-width="9.1"/>
<path fill-rule="evenodd" clip-rule="evenodd" d="M192.667 536.985H260.868V471.418H192.667V536.985Z" fill="#AAD5FF"/>
<path fill-rule="evenodd" clip-rule="evenodd" d="M189.519 540.135H264.018V468.269H189.519V540.135ZM195.817 533.836H257.72V474.568H195.817V533.836Z" fill="#E8F6FF"/>
<path fill-rule="evenodd" clip-rule="evenodd" d="M202.679 562.03H250.811V550.377H202.679V562.03Z" fill="#E8F6FF"/>
<path fill-rule="evenodd" clip-rule="evenodd" d="M192.667 453.129H260.868V387.563H192.667V453.129Z" fill="#AAD5FF"/>
<path fill-rule="evenodd" clip-rule="evenodd" d="M189.519 456.279H264.018V384.414H189.519V456.279ZM195.817 449.98H257.72V390.713H195.817V449.98Z" fill="#E8F6FF"/>
<path fill-rule="evenodd" clip-rule="evenodd" d="M184.279 512.559C184.279 515.884 181.583 518.58 178.259 518.58C174.934 518.58 172.239 515.884 172.239 512.559C172.239 509.233 174.934 506.538 178.259 506.538C181.583 506.538 184.279 509.233 184.279 512.559Z" fill="#AAD5FF"/>
<path d="M10.8623 297.756L209.807 68.8091L408.492 297.756" stroke="#E8F6FF" stroke-width="11.2" stroke-linejoin="bevel"/>
<path d="M514.639 294.253L601.591 194.189L688.428 294.253" stroke="#E8F6FF" stroke-width="11.2" stroke-linejoin="bevel"/>
<path d="M414.139 309.132H39.3516" stroke="#E8F6FF" stroke-width="4.9"/>
<path d="M39.3516 296.304H414.139" stroke="#E8F6FF" stroke-width="4.9"/>
<path d="M39.3516 321.961H414.139" stroke="#E8F6FF" stroke-width="4.9"/>
<path fill-rule="evenodd" clip-rule="evenodd" d="M201.737 650.505H251.754V602.839H201.737V650.505Z" fill="#AAD5FF"/>
<path fill-rule="evenodd" clip-rule="evenodd" d="M213.18 604.778H240.31V600.902H213.18V604.778Z" fill="#E8F6FF"/>
<path fill-rule="evenodd" clip-rule="evenodd" d="M1057.12 601.453C1057.64 602.108 1068.75 627.666 1067.43 651.892H1106.54C1107.29 638.65 1115.69 619.697 1115.69 619.697C1115.69 619.697 1098.46 626.673 1086.82 646.596C1086.82 646.596 1078.01 610.653 1057.12 601.453Z" fill="#D6EEFF"/>
<path fill-rule="evenodd" clip-rule="evenodd" d="M1184.31 592.503C1184.01 593.659 1177.25 618.444 1172.73 648.801H1155.76C1168.16 612.933 1183.85 593.061 1184.31 592.503Z" fill="#D6EEFF"/>
<path fill-rule="evenodd" clip-rule="evenodd" d="M1010.16 615.971C1010.6 616.559 1023.94 634.351 1025.61 650.736H1049.04C1037.98 628.745 1010.77 616.244 1010.16 615.971Z" fill="#D6EEFF"/>
<path d="M1232.57 653.721H6.99805" stroke="#D6EEFF" stroke-width="14" stroke-linecap="round"/>
<mask id="mask0_82_23007" style="mask-type:luminance" maskUnits="userSpaceOnUse" x="169" y="766" width="850" height="6">
<path fill-rule="evenodd" clip-rule="evenodd" d="M169.925 766.433H1018.8V771.636H169.925V766.433Z" fill="white"/>
</mask>
<g mask="url(#mask0_82_23007)">
<path fill-rule="evenodd" clip-rule="evenodd" d="M1018.8 769.035C1018.8 770.472 828.776 771.636 594.365 771.636C359.953 771.636 169.925 770.472 169.925 769.035C169.925 767.598 359.953 766.433 594.365 766.433C828.776 766.433 1018.8 767.598 1018.8 769.035Z" fill="#AFB4C8"/>
</g>
<path fill-rule="evenodd" clip-rule="evenodd" d="M591.285 413.986L588.472 370.591L551.969 364.116C551.969 364.116 563.178 309.297 575.63 298.372C587.264 288.164 597.176 278.655 630.782 277.088C666.817 275.407 685.297 277.769 703.66 291.779C717.988 302.711 733.088 355.148 733.088 355.148L687.101 360.034L688.358 413.986H591.285Z" fill="#FFC100"/>
<path d="M654.715 173.042L655.161 188.52L661.307 190.022L669.425 177.34" stroke="#0B096F" stroke-width="6.3"/>
<path fill-rule="evenodd" clip-rule="evenodd" d="M577.609 203.377C577.609 203.377 560.248 233.512 589.704 236.994L577.609 203.377Z" fill="#0B096F"/>
<path fill-rule="evenodd" clip-rule="evenodd" d="M650.15 252.443L654.457 276.979L663.325 277.41C663.325 277.41 660.48 298.372 632.309 298.372C606.528 298.372 615.629 278.112 615.629 278.112L621.967 277.528L619.347 257.484" fill="#FF77CA"/>
<path fill-rule="evenodd" clip-rule="evenodd" d="M626.673 268.01C626.673 268.01 596.949 274.326 590.249 271.9C590.249 271.9 581.601 243.225 583.377 221.845L605.086 196.304L645.272 193.958L654.564 229.389C655.833 222.968 673.77 212.751 680.148 225.932C688.373 242.929 655.786 256.755 655.786 256.755" fill="#FF77CA"/>
<path fill-rule="evenodd" clip-rule="evenodd" d="M669.106 219.579C669.106 219.579 687.385 209.155 661.787 188.843C636.188 168.532 617.729 183.28 617.729 183.28C617.729 183.28 608.926 160.295 593.274 162.439C570.976 165.494 572.102 200.43 572.102 200.43C572.102 200.43 558.372 183.169 552.333 186.698C546.294 190.227 554.372 252.531 639.121 210.409C639.121 210.409 633.764 228.597 654.565 229.389C654.565 229.389 657.14 221.588 669.106 219.579Z" fill="#0B096F"/>
<path d="M612.738 255.594C608.481 255.594 605.613 259.626 606.716 262.465" stroke="#0B096F" stroke-width="2.1"/>
<path fill-rule="evenodd" clip-rule="evenodd" d="M597.71 237.19L595.148 255.204L603.177 253.288L597.71 237.19Z" fill="#285FD7"/>
<path fill-rule="evenodd" clip-rule="evenodd" d="M604.591 239.549C604.748 241.848 606.738 243.585 609.037 243.428C611.336 243.272 613.072 241.281 612.915 238.981C612.759 236.682 610.768 234.945 608.47 235.102C606.171 235.259 604.434 237.25 604.591 239.549Z" fill="#0B096F"/>
<path fill-rule="evenodd" clip-rule="evenodd" d="M585.999 241.731C586.156 244.03 588.146 245.767 590.445 245.61C592.744 245.454 594.48 243.462 594.324 241.163C594.167 238.864 592.177 237.127 589.878 237.284C587.579 237.44 585.842 239.432 585.999 241.731Z" fill="#0B096F"/>
<path d="M587.53 365.958L584.526 327.354" stroke="#F38C01" stroke-width="2.8"/>
<path d="M673.093 328.305L677.229 362.046L687.117 361.516" stroke="#F38C01" stroke-width="2.8"/>
<path fill-rule="evenodd" clip-rule="evenodd" d="M659.165 420.578L687.335 380.578L687.1 360.034L727.303 355.762C727.303 355.762 731.695 364.131 730.181 374.015C725.852 402.27 669.805 443.474 669.805 443.474" fill="#FF77CA"/>
<path d="M584.787 234.681L592.613 235.503" stroke="#0B096F" stroke-width="2.1"/>
<path d="M610.284 231.516L603.178 234.897" stroke="#0B096F" stroke-width="2.1"/>
<path fill-rule="evenodd" clip-rule="evenodd" d="M305.335 769.035L301.098 748.137L360.424 734.716L404.918 671.14L379.493 641.177L440.936 608.272L453.649 549.641L438.111 507.433L471.306 488.892L464.243 457.104L483.539 444.774L493.492 421.38L486.869 416.577L505.707 387.676L517.86 390.703L514.387 378.09L556.527 340.208L598.583 365.037L605.494 353.264L642.958 366.685L662.616 365.508L692.889 371.513L732.62 347L736.858 374.456H765.814L785.589 403.243L781.352 418.252L818.784 457.104L830.79 495.955L824.433 507.433L858.333 545.108L887.29 582.782L883.758 599.088L924.016 658.426L919.778 675.378L934.995 717.762L982.197 742.721L968.778 769.035H305.335Z" fill="#CBCBCF"/>
<path d="M659.165 548.515L682.715 532.834" stroke="#B8B8B9" stroke-width="2.1" stroke-linecap="round"/>
<path d="M697.961 532.833L721.516 548.514" stroke="#B8B8B9" stroke-width="2.1" stroke-linecap="round"/>
<path d="M721.516 517.153L690.338 537.909L659.165 517.153" stroke="#B8B8B9" stroke-width="2.1" stroke-linecap="round"/>
<path d="M461.338 677.04L489.287 672.657" stroke="#B8B8B9" stroke-width="2.1" stroke-linecap="round"/>
<path d="M503.134 679.04L517.965 703.142" stroke="#B8B8B9" stroke-width="2.1" stroke-linecap="round"/>
<path d="M531.087 674.66L494.087 680.458L474.461 648.558" stroke="#B8B8B9" stroke-width="2.1" stroke-linecap="round"/>
<path d="M467.824 557.157L482.395 532.903" stroke="#B8B8B9" stroke-width="2.1" stroke-linecap="round"/>
<path d="M496.174 526.375L524.172 530.46" stroke="#B8B8B9" stroke-width="2.1" stroke-linecap="round"/>
<path d="M510.749 502.118L491.457 534.225L454.401 528.816" stroke="#B8B8B9" stroke-width="2.1" stroke-linecap="round"/>
<path fill-rule="evenodd" clip-rule="evenodd" d="M517.042 583.709H587.077V541.717H517.042V583.709Z" fill="#E3E3E9"/>
<path fill-rule="evenodd" clip-rule="evenodd" d="M724.432 367.743L719.315 409.422L649.802 400.883L654.92 359.204L724.432 367.743Z" fill="#EDEDEF"/>
<path d="M394.426 754.166L418.692 746.317" stroke="#B8B8B9" stroke-width="2.1" stroke-linecap="square"/>
<path d="M396.207 759.677L420.474 751.829" stroke="#B8B8B9" stroke-width="2.1" stroke-linecap="square"/>
<path d="M401.984 763.374L417.955 758.208" stroke="#B8B8B9" stroke-width="2.1" stroke-linecap="square"/>
<path fill-rule="evenodd" clip-rule="evenodd" d="M437.582 743.539L436.721 743.817C434.175 744.641 431.444 743.245 430.621 740.698L430.343 739.837C429.52 737.29 430.916 734.559 433.462 733.736L434.322 733.458C436.868 732.634 439.599 734.031 440.422 736.577L440.701 737.437C441.524 739.984 440.128 742.715 437.582 743.539Z" stroke="#B8B8B9" stroke-width="2.1" stroke-linecap="round"/>
<path fill-rule="evenodd" clip-rule="evenodd" d="M506.184 603.046L501.066 644.725L431.554 636.186L436.672 594.507L506.184 603.046Z" fill="#EDEDEF"/>
<path fill-rule="evenodd" clip-rule="evenodd" d="M600.996 413.354L621.936 449.75L561.234 484.688L540.294 448.292L600.996 413.354Z" fill="#EDEDEF"/>
<path d="M532.783 399.155L557.629 404.911" stroke="#B8B8B9" stroke-width="2.1" stroke-linecap="square"/>
<path d="M531.477 404.798L556.323 410.553" stroke="#B8B8B9" stroke-width="2.1" stroke-linecap="square"/>
<path d="M534.529 410.941L550.882 414.729" stroke="#B8B8B9" stroke-width="2.1" stroke-linecap="square"/>
<path fill-rule="evenodd" clip-rule="evenodd" d="M575.257 412.247L574.375 412.043C571.769 411.439 570.145 408.836 570.749 406.229L570.953 405.347C571.557 402.74 574.159 401.117 576.766 401.72L577.647 401.924C580.254 402.528 581.878 405.131 581.274 407.738L581.07 408.62C580.466 411.227 577.864 412.851 575.257 412.247Z" stroke="#B8B8B9" stroke-width="2.1" stroke-linecap="round"/>
<path fill-rule="evenodd" clip-rule="evenodd" d="M669.623 710.79L664.506 752.469L594.993 743.93L600.111 702.251L669.623 710.79Z" fill="#EDEDEF"/>
<path fill-rule="evenodd" clip-rule="evenodd" d="M535.77 479.482L530.652 521.16L461.14 512.622L466.258 470.943L535.77 479.482Z" fill="#EDEDEF"/>
<path fill-rule="evenodd" clip-rule="evenodd" d="M780.643 449.021L803.476 484.261L744.704 522.356L721.871 487.117L780.643 449.021Z" fill="#EDEDEF"/>
<path fill-rule="evenodd" clip-rule="evenodd" d="M669.987 377.319L692.82 412.558L634.048 450.653L611.215 415.414L669.987 377.319Z" fill="#D3D3D9"/>
<path fill-rule="evenodd" clip-rule="evenodd" d="M796.385 702.828L805.872 743.734L737.648 759.563L728.162 718.656L796.385 702.828Z" fill="#EDEDEF"/>
<path fill-rule="evenodd" clip-rule="evenodd" d="M904.227 581.335L927.06 616.575L868.289 654.67L845.455 619.431L904.227 581.335Z" fill="#EDEDEF"/>
<path fill-rule="evenodd" clip-rule="evenodd" d="M486.365 709.561L481.246 751.24L411.734 742.701L416.853 701.022L486.365 709.561Z" fill="#EDEDEF"/>
<path fill-rule="evenodd" clip-rule="evenodd" d="M567.798 571.357L590.631 606.596L531.859 644.691L509.026 609.453L567.798 571.357Z" fill="#EDEDEF"/>
<path fill-rule="evenodd" clip-rule="evenodd" d="M629.478 380.241L635.716 421.767L566.458 432.175L560.221 390.649L629.478 380.241Z" fill="#E3E3E9"/>
<path fill-rule="evenodd" clip-rule="evenodd" d="M383.904 710.697H453.939V668.705H383.904V710.697Z" fill="#E3E3E9"/>
<path fill-rule="evenodd" clip-rule="evenodd" d="M546.407 769.352H616.442V727.36H546.407V769.352Z" fill="#E3E3E9"/>
<path d="M846.909 680.659L871.176 672.81" stroke="#B8B8B9" stroke-width="2.1" stroke-linecap="square"/>
<path d="M848.691 686.17L872.958 678.321" stroke="#B8B8B9" stroke-width="2.1" stroke-linecap="square"/>
<path d="M854.468 689.867L870.439 684.701" stroke="#B8B8B9" stroke-width="2.1" stroke-linecap="square"/>
<path fill-rule="evenodd" clip-rule="evenodd" d="M890.065 670.032L889.205 670.31C886.659 671.133 883.928 669.737 883.105 667.191L882.826 666.33C882.003 663.784 883.399 661.052 885.945 660.228L886.806 659.95C889.351 659.126 892.083 660.523 892.906 663.07L893.184 663.931C894.008 666.477 892.611 669.209 890.065 670.032Z" stroke="#B8B8B9" stroke-width="2.1" stroke-linecap="round"/>
<path fill-rule="evenodd" clip-rule="evenodd" d="M870.107 621.286L859.116 661.814L791.523 643.477L802.514 602.949L870.107 621.286Z" fill="#E3E3E9"/>
<path fill-rule="evenodd" clip-rule="evenodd" d="M610.958 370.058L588.223 405.361L529.346 367.428L552.08 332.126L610.958 370.058Z" fill="#E3E3E9"/>
<path d="M535.823 364.466L564.111 364.038" stroke="#505155" stroke-width="2.1" stroke-linecap="round"/>
<path d="M576.929 372.296L588.241 398.236" stroke="#505155" stroke-width="2.1" stroke-linecap="round"/>
<path d="M605.221 371.871L567.772 372.433L552.803 338.1" stroke="#505155" stroke-width="2.1" stroke-linecap="round"/>
<path fill-rule="evenodd" clip-rule="evenodd" d="M848.191 638.671L878.084 609.185L910.14 641.695L880.248 671.181L848.191 638.671Z" fill="#E3E3E9"/>
<path d="M904.111 644.125L882.17 644.203" stroke="#505155" stroke-width="2.1" stroke-linecap="round"/>
<path d="M875.191 637.126L875.571 615.181" stroke="#505155" stroke-width="2.1" stroke-linecap="round"/>
<path d="M853.247 637.202L882.293 637.101L881.786 666.146" stroke="#505155" stroke-width="2.1" stroke-linecap="round"/>
<path fill-rule="evenodd" clip-rule="evenodd" d="M618.311 496.688L624.992 538.146L555.85 549.292L549.169 507.835L618.311 496.688Z" fill="#E3E3E9"/>
<path d="M558.688 542.757L579.444 523.529" stroke="#505155" stroke-width="2.1" stroke-linecap="round"/>
<path d="M594.496 521.102L620.245 532.834" stroke="#505155" stroke-width="2.1" stroke-linecap="round"/>
<path d="M615.255 501.872L587.776 527.326L553.699 511.796" stroke="#505155" stroke-width="2.1" stroke-linecap="round"/>
<path fill-rule="evenodd" clip-rule="evenodd" d="M444.656 611.414L459.672 650.628L394.27 675.682L379.254 636.468L444.656 611.414Z" fill="#E3E3E9"/>
<path d="M395.713 668.705L412.097 645.637" stroke="#505155" stroke-width="2.1" stroke-linecap="round"/>
<path d="M426.335 640.183L453.939 646.4" stroke="#505155" stroke-width="2.1" stroke-linecap="round"/>
<path d="M442.724 617.113L421.031 647.65L384.498 639.419" stroke="#505155" stroke-width="2.1" stroke-linecap="round"/>
<path fill-rule="evenodd" clip-rule="evenodd" d="M797.243 494.435L755.321 492.134L758.711 430.357L800.632 432.658L797.243 494.435Z" fill="#E3E3E9"/>
<path d="M764.514 434.075L779.028 455.707" stroke="#505155" stroke-width="2.1" stroke-linecap="round"/>
<path d="M778.291 469.156L761.497 489.074" stroke="#505155" stroke-width="2.1" stroke-linecap="round"/>
<path d="M792.805 490.792L773.594 462.154L795.823 435.793" stroke="#505155" stroke-width="2.1" stroke-linecap="round"/>
<path fill-rule="evenodd" clip-rule="evenodd" d="M772.333 685.697L765.821 722.308L696.869 710.039L703.381 673.428L772.333 685.697Z" fill="#E3E3E9"/>
<path d="M701.582 705.481L727.199 695.936" stroke="#505155" stroke-width="2.1" stroke-linecap="round"/>
<path d="M742.209 698.606L762.968 716.404" stroke="#505155" stroke-width="2.1" stroke-linecap="round"/>
<path d="M767.832 689.062L733.918 701.696L706.445 678.139" stroke="#505155" stroke-width="2.1" stroke-linecap="round"/>
<path fill-rule="evenodd" clip-rule="evenodd" d="M540.902 431.027L549.238 472.183L480.598 486.092L472.262 444.937L540.902 431.027Z" fill="#F2F2F4"/>
<path d="M485.622 457.995L510.618 452.93" stroke="#505155" stroke-width="2.1" stroke-linecap="square"/>
<path d="M486.771 463.672L511.767 458.606" stroke="#505155" stroke-width="2.1" stroke-linecap="square"/>
<path d="M492.096 467.996L508.547 464.662" stroke="#505155" stroke-width="2.1" stroke-linecap="square"/>
<path fill-rule="evenodd" clip-rule="evenodd" d="M539.42 445.643L529.96 447.56L527.857 437.175L537.317 435.258L539.42 445.643Z" fill="white"/>
<path fill-rule="evenodd" clip-rule="evenodd" d="M529.7 452.297L528.814 452.477C526.191 453.008 523.635 451.313 523.103 448.69L522.924 447.803C522.392 445.18 524.087 442.623 526.71 442.092L527.597 441.913C530.219 441.381 532.776 443.076 533.307 445.699L533.487 446.586C534.018 449.208 532.323 451.766 529.7 452.297Z" stroke="#505155" stroke-width="2.1" stroke-linecap="square"/>
<path fill-rule="evenodd" clip-rule="evenodd" d="M873.499 542.068L864.027 582.978L795.798 567.174L805.271 526.264L873.499 542.068Z" fill="#F2F2F4"/>
<path d="M812.016 543.688L836.862 549.444" stroke="#505155" stroke-width="2.1" stroke-linecap="square"/>
<path d="M810.709 549.331L835.555 555.087" stroke="#505155" stroke-width="2.1" stroke-linecap="square"/>
<path d="M813.762 555.474L830.115 559.261" stroke="#505155" stroke-width="2.1" stroke-linecap="square"/>
<path fill-rule="evenodd" clip-rule="evenodd" d="M866.093 554.755L856.689 552.577L859.081 542.255L868.483 544.432L866.093 554.755Z" fill="white"/>
<path fill-rule="evenodd" clip-rule="evenodd" d="M854.489 556.78L853.608 556.576C851.002 555.972 849.378 553.37 849.982 550.762L850.186 549.881C850.789 547.273 853.392 545.65 855.998 546.254L856.88 546.458C859.487 547.061 861.11 549.664 860.506 552.271L860.302 553.153C859.698 555.76 857.096 557.384 854.489 556.78Z" stroke="#505155" stroke-width="2.1" stroke-linecap="square"/>
<path fill-rule="evenodd" clip-rule="evenodd" d="M623.92 720.4L604.04 757.386L542.354 724.216L562.235 687.23L623.92 720.4Z" fill="#F2F2F4"/>
<path d="M564.169 705.814L586.632 717.893" stroke="#505155" stroke-width="2.1" stroke-linecap="square"/>
<path d="M561.427 710.916L583.89 722.995" stroke="#505155" stroke-width="2.1" stroke-linecap="square"/>
<path d="M562.759 717.645L577.543 725.594" stroke="#505155" stroke-width="2.1" stroke-linecap="square"/>
<path fill-rule="evenodd" clip-rule="evenodd" d="M613.444 730.695L604.942 726.124L609.959 716.792L618.46 721.363L613.444 730.695Z" fill="white"/>
<path fill-rule="evenodd" clip-rule="evenodd" d="M601.715 729.603L600.918 729.174C598.561 727.907 597.678 724.968 598.945 722.612L599.373 721.815C600.64 719.457 603.577 718.574 605.934 719.842L606.731 720.269C609.087 721.537 609.971 724.475 608.704 726.832L608.276 727.629C607.008 729.986 604.071 730.87 601.715 729.603Z" stroke="#505155" stroke-width="2.1" stroke-linecap="square"/>
<path fill-rule="evenodd" clip-rule="evenodd" d="M393.716 719.224L384.243 760.134L316.015 744.33L325.487 703.42L393.716 719.224Z" fill="#E3E3E9"/>
<path d="M332.233 720.844L357.08 726.599" stroke="#505155" stroke-width="2.1" stroke-linecap="square"/>
<path d="M330.927 726.487L355.773 732.242" stroke="#505155" stroke-width="2.1" stroke-linecap="square"/>
<path d="M333.979 732.63L350.332 736.417" stroke="#505155" stroke-width="2.1" stroke-linecap="square"/>
<path fill-rule="evenodd" clip-rule="evenodd" d="M386.311 731.911L376.907 729.732L379.298 719.41L388.701 721.588L386.311 731.911Z" fill="white"/>
<path fill-rule="evenodd" clip-rule="evenodd" d="M374.707 733.936L373.826 733.732C371.22 733.128 369.595 730.525 370.199 727.917L370.404 727.037C371.007 724.429 373.609 722.805 376.216 723.409L377.098 723.613C379.704 724.217 381.328 726.82 380.724 729.427L380.52 730.308C379.916 732.915 377.314 734.539 374.707 733.936Z" stroke="#505155" stroke-width="2.1" stroke-linecap="square"/>
<path fill-rule="evenodd" clip-rule="evenodd" d="M771.938 362.308L762.466 403.217L694.236 387.413L703.709 346.504L771.938 362.308Z" fill="#E3E3E9"/>
<path d="M710.455 363.927L735.301 369.683" stroke="#505155" stroke-width="2.1" stroke-linecap="square"/>
<path d="M709.148 369.57L733.995 375.325" stroke="#505155" stroke-width="2.1" stroke-linecap="square"/>
<path d="M712.2 375.713L728.553 379.501" stroke="#505155" stroke-width="2.1" stroke-linecap="square"/>
<path fill-rule="evenodd" clip-rule="evenodd" d="M764.531 374.994L755.128 372.816L757.519 362.493L766.922 364.671L764.531 374.994Z" fill="white"/>
<path fill-rule="evenodd" clip-rule="evenodd" d="M752.928 377.019L752.046 376.815C749.44 376.211 747.816 373.608 748.42 371.001L748.624 370.12C749.228 367.513 751.831 365.889 754.437 366.492L755.318 366.696C757.925 367.3 759.549 369.903 758.945 372.511L758.741 373.392C758.137 375.999 755.535 377.623 752.928 377.019Z" stroke="#505155" stroke-width="2.1" stroke-linecap="square"/>
<path d="M625.244 667.896L650.09 673.651" stroke="#B8B8B9" stroke-width="2.1" stroke-linecap="square"/>
<path d="M623.938 673.539L648.784 679.294" stroke="#B8B8B9" stroke-width="2.1" stroke-linecap="square"/>
<path d="M626.989 679.681L643.342 683.469" stroke="#B8B8B9" stroke-width="2.1" stroke-linecap="square"/>
<path fill-rule="evenodd" clip-rule="evenodd" d="M667.718 680.987L666.836 680.784C664.23 680.18 662.606 677.577 663.21 674.97L663.414 674.088C664.018 671.481 666.62 669.857 669.227 670.461L670.108 670.665C672.715 671.269 674.339 673.871 673.735 676.479L673.531 677.36C672.926 679.968 670.325 681.591 667.718 680.987Z" stroke="#B8B8B9" stroke-width="2.1" stroke-linecap="round"/>
<path d="M651.232 418.502L676.079 424.257" stroke="#B8B8B9" stroke-width="2.1" stroke-linecap="square"/>
<path d="M649.926 424.145L674.772 429.9" stroke="#B8B8B9" stroke-width="2.1" stroke-linecap="square"/>
<path d="M652.979 430.287L669.331 434.075" stroke="#B8B8B9" stroke-width="2.1" stroke-linecap="square"/>
<path fill-rule="evenodd" clip-rule="evenodd" d="M693.707 431.594L692.826 431.389C690.219 430.786 688.595 428.183 689.2 425.575L689.403 424.694C690.007 422.087 692.61 420.463 695.216 421.067L696.097 421.271C698.704 421.875 700.327 424.478 699.724 427.085L699.52 427.966C698.916 430.573 696.314 432.197 693.707 431.594Z" stroke="#B8B8B9" stroke-width="2.1" stroke-linecap="round"/>
<path fill-rule="evenodd" clip-rule="evenodd" d="M950.859 713.027L954.535 756.276L878.333 762.754L874.658 719.505L950.859 713.027Z" fill="#E3E3E9"/>
<path d="M887.438 734.449L915.187 732.089" stroke="#505155" stroke-width="2.1" stroke-linecap="square"/>
<path d="M887.945 740.413L915.695 738.055" stroke="#505155" stroke-width="2.1" stroke-linecap="square"/>
<path d="M893.151 745.464L911.415 743.911" stroke="#505155" stroke-width="2.1" stroke-linecap="square"/>
<path fill-rule="evenodd" clip-rule="evenodd" d="M947.352 727.879L936.85 728.772L935.923 717.86L946.425 716.966L947.352 727.879Z" fill="white"/>
<path fill-rule="evenodd" clip-rule="evenodd" d="M936.395 733.574L934.522 733.734C931.857 733.96 929.512 731.983 929.285 729.315L929.178 728.059C928.951 725.393 930.929 723.047 933.595 722.821L935.467 722.661C938.133 722.434 940.478 724.412 940.705 727.079L940.812 728.336C941.038 731.002 939.061 733.347 936.395 733.574Z" stroke="#505155" stroke-width="2.1" stroke-linecap="square"/>
<path fill-rule="evenodd" clip-rule="evenodd" d="M726.529 454.664L742.879 493.341L678.373 520.62L662.023 481.942L726.529 454.664Z" fill="#E3E3E9"/>
<path fill-rule="evenodd" clip-rule="evenodd" d="M659.251 615.811L654.133 657.491L584.621 648.952L589.739 607.272L659.251 615.811Z" fill="#EDEDEF"/>
<path fill-rule="evenodd" clip-rule="evenodd" d="M654.842 559.726L679.38 593.8L622.553 634.74L598.015 600.667L654.842 559.726Z" fill="#F2F2F4"/>
<path d="M615.566 607.066L636.26 592.157" stroke="#505155" stroke-width="2.1" stroke-linecap="square"/>
<path d="M618.95 611.766L639.645 596.857" stroke="#505155" stroke-width="2.1" stroke-linecap="square"/>
<path d="M625.582 613.515L639.202 603.702" stroke="#505155" stroke-width="2.1" stroke-linecap="square"/>
<path fill-rule="evenodd" clip-rule="evenodd" d="M659.509 573.655L651.677 579.298L645.485 570.7L653.317 565.058L659.509 573.655Z" fill="white"/>
<path fill-rule="evenodd" clip-rule="evenodd" d="M653.39 583.722L652.656 584.251C650.485 585.815 647.456 585.323 645.893 583.151L645.364 582.417C643.801 580.245 644.293 577.218 646.464 575.653L647.197 575.125C649.369 573.56 652.397 574.053 653.96 576.224L654.489 576.959C656.053 579.13 655.561 582.158 653.39 583.722Z" stroke="#505155" stroke-width="2.1" stroke-linecap="square"/>
<path fill-rule="evenodd" clip-rule="evenodd" d="M718.596 584.63L722.426 626.446L652.683 632.837L648.854 591.019L718.596 584.63Z" fill="#D3D3D9"/>
<path fill-rule="evenodd" clip-rule="evenodd" d="M583.731 707.673L587.561 749.491L517.818 755.88L513.988 714.063L583.731 707.673Z" fill="#D3D3D9"/>
<path fill-rule="evenodd" clip-rule="evenodd" d="M730.222 647.662L753.055 682.901L694.283 720.997L671.45 685.758L730.222 647.662Z" fill="#D3D3D9"/>
<path fill-rule="evenodd" clip-rule="evenodd" d="M528.907 684.329L549.847 720.726L489.145 755.663L468.205 719.267L528.907 684.329Z" fill="#D3D3D9"/>
<path d="M710.872 629.728L728.222 607.376" stroke="#B8B8B9" stroke-width="2.1" stroke-linecap="round"/>
<path d="M742.678 602.532L769.993 609.916" stroke="#B8B8B9" stroke-width="2.1" stroke-linecap="round"/>
<path d="M760.031 580.179L737.061 609.766L700.911 599.992" stroke="#B8B8B9" stroke-width="2.1" stroke-linecap="round"/>
<path fill-rule="evenodd" clip-rule="evenodd" d="M793.153 543.073L803.676 583.725L735.877 601.282L725.354 560.63L793.153 543.073Z" fill="#EDEDEF"/>
<path fill-rule="evenodd" clip-rule="evenodd" d="M415.623 386.62V457.1H365.875V386.62C365.875 372.907 376.969 361.779 390.672 361.742H390.749L391.958 361.772C398.339 362.078 404.1 364.795 408.339 369.026C412.57 373.266 415.286 379.021 415.592 385.411C415.615 385.809 415.623 386.214 415.623 386.62Z" fill="#222229"/>
<path fill-rule="evenodd" clip-rule="evenodd" d="M402.007 373.599L409.267 414.959L340.288 427.072L333.027 385.713L402.007 373.599Z" fill="#BCBCBD"/>
<path d="M343.034 420.498L363.518 400.98" stroke="#505155" stroke-width="2.1" stroke-linecap="round"/>
<path d="M378.535 398.344L404.446 409.714" stroke="#505155" stroke-width="2.1" stroke-linecap="round"/>
<path d="M399.024 378.825L371.904 404.661L337.612 389.61" stroke="#505155" stroke-width="2.1" stroke-linecap="round"/>
<path fill-rule="evenodd" clip-rule="evenodd" d="M328.509 430.417H398.544V388.425H328.509V430.417Z" fill="#D0D0D4"/>
<path d="M332.352 424.417L355.901 408.736" stroke="#505155" stroke-width="2.1" stroke-linecap="round"/>
<path d="M371.147 408.736L394.703 424.417" stroke="#505155" stroke-width="2.1" stroke-linecap="round"/>
<path d="M394.702 393.056L363.524 413.811L332.352 393.056" stroke="#505155" stroke-width="2.1" stroke-linecap="round"/>
<path fill-rule="evenodd" clip-rule="evenodd" d="M453.452 427.544L440.784 467.579L374.014 446.443L386.682 406.408L453.452 427.544Z" fill="#D0D0D4"/>
<path d="M379.486 441.883L406.669 434.04" stroke="#505155" stroke-width="2.1" stroke-linecap="round"/>
<path d="M421.204 438.641L438.931 460.699" stroke="#505155" stroke-width="2.1" stroke-linecap="round"/>
<path d="M448.392 430.8L412.406 441.179L388.947 411.983" stroke="#505155" stroke-width="2.1" stroke-linecap="round"/>
<path fill-rule="evenodd" clip-rule="evenodd" d="M336.366 769.031H343.782V457.1H336.366V769.031Z" fill="#1B1C21"/>
<path fill-rule="evenodd" clip-rule="evenodd" d="M328.951 769.031H336.367V457.1H328.951V769.031Z" fill="#52555B"/>
<path fill-rule="evenodd" clip-rule="evenodd" d="M415.623 457.104H365.871L382.643 479.005C389.433 487.871 399.963 493.07 411.13 493.07H425.331C432.628 493.07 436.758 484.702 432.321 478.908L415.623 457.104Z" fill="#8B8C98"/>
<path fill-rule="evenodd" clip-rule="evenodd" d="M436.624 443.981L417.937 481.585L355.222 450.408L373.908 412.805L436.624 443.981Z" fill="#E3E3E9"/>
<path d="M376.437 431.317L399.275 442.67" stroke="#505155" stroke-width="2.1" stroke-linecap="square"/>
<path d="M373.859 436.503L396.698 447.857" stroke="#505155" stroke-width="2.1" stroke-linecap="square"/>
<path d="M375.406 443.186L390.437 450.658" stroke="#505155" stroke-width="2.1" stroke-linecap="square"/>
<path fill-rule="evenodd" clip-rule="evenodd" d="M426.482 454.607L417.838 450.311L422.554 440.822L431.197 445.119L426.482 454.607Z" fill="white"/>
<path fill-rule="evenodd" clip-rule="evenodd" d="M414.724 453.89L413.914 453.488C411.518 452.296 410.541 449.388 411.732 446.992L412.134 446.181C413.325 443.785 416.233 442.808 418.629 443.999L419.439 444.401C421.835 445.593 422.812 448.501 421.621 450.897L421.219 451.708C420.028 454.104 417.12 455.081 414.724 453.89Z" stroke="#505155" stroke-width="2.1" stroke-linecap="square"/>
<path fill-rule="evenodd" clip-rule="evenodd" d="M390.543 417.373L385.275 459.033L315.794 450.244L321.062 408.584L390.543 417.373Z" fill="#D0D0D4"/>
<path d="M320.358 444.774L345.69 432.172" stroke="#505155" stroke-width="2.1" stroke-linecap="round"/>
<path d="M360.814 434.085L382.216 452.598" stroke="#505155" stroke-width="2.1" stroke-linecap="round"/>
<path d="M386.151 421.485L352.616 438.165L324.293 413.66" stroke="#505155" stroke-width="2.1" stroke-linecap="round"/>
<path fill-rule="evenodd" clip-rule="evenodd" d="M390.672 361.741C376.969 361.78 365.875 372.906 365.875 386.619V457.1H267.229V386.696C267.229 372.914 278.4 361.741 292.188 361.741H390.672Z" fill="#ED3030"/>
<path fill-rule="evenodd" clip-rule="evenodd" d="M328.951 457.1V473.939L336.367 493.071V457.1H328.951Z" fill="#1B1C21"/>
<path fill-rule="evenodd" clip-rule="evenodd" d="M348.53 337.259V416.918H338.796V341.832H326.458V332.379L340.42 330.277C344.689 329.634 348.53 332.941 348.53 337.259Z" fill="#1B1C21"/>
</svg>
