<svg width="1843" height="1488" viewBox="0 0 1843 1488" fill="none" xmlns="http://www.w3.org/2000/svg">
<path fill-rule="evenodd" clip-rule="evenodd" d="M1052.72 1475H393.278C359.576 1475 332 1445.92 332 1410.38V64.6217C332 29.0795 359.576 0 393.278 0H1052.72C1086.43 0 1114 29.0795 1114 64.6217V1410.38C1114 1445.92 1086.43 1475 1052.72 1475" fill="#101218"/>
<path fill-rule="evenodd" clip-rule="evenodd" d="M981.183 1475H394.95C361.248 1475 333.674 1445.92 333.674 1410.38V64.6217C333.674 29.0795 361.248 0 394.95 0H981.183C1014.88 0 1042.46 29.0795 1042.46 64.6217V1410.38C1042.46 1445.92 1014.88 1475 981.183 1475" fill="#344148"/>
<mask id="mask0_2414_1468" style="mask-type:luminance" maskUnits="userSpaceOnUse" x="370" y="63" width="622" height="1366">
<path fill-rule="evenodd" clip-rule="evenodd" d="M411.142 63.6511C388.748 63.6511 370.424 82.6944 370.424 105.97V105.97V1386.33C370.424 1409.6 388.748 1428.65 411.142 1428.65V1428.65H950.856C973.251 1428.65 991.572 1409.6 991.572 1386.33V1386.33V105.97C991.572 82.6944 973.251 63.6511 950.856 63.6511V63.6511H411.142Z" fill="white"/>
</mask>
<g mask="url(#mask0_2414_1468)">
<path fill-rule="evenodd" clip-rule="evenodd" d="M340.312 1453.42H1012.92V28.6812H340.312V1453.42Z" fill="white"/>
<path fill-rule="evenodd" clip-rule="evenodd" d="M365.734 1428.65H996.264V716.074H365.734V1428.65Z" fill="#6A7884"/>
<path fill-rule="evenodd" clip-rule="evenodd" d="M920.635 1428.65H961.946V716.074H920.635V1428.65Z" fill="#7D8E98"/>
<path fill-rule="evenodd" clip-rule="evenodd" d="M846.525 1428.65H887.835V716.074H846.525V1428.65Z" fill="#7D8E98"/>
<path fill-rule="evenodd" clip-rule="evenodd" d="M772.41 1428.65H813.722V716.074H772.41V1428.65Z" fill="#7D8E98"/>
<path fill-rule="evenodd" clip-rule="evenodd" d="M698.299 1428.65H739.61V716.074H698.299V1428.65Z" fill="#7D8E98"/>
<path fill-rule="evenodd" clip-rule="evenodd" d="M624.188 1428.65H665.497V716.074H624.188V1428.65Z" fill="#7D8E98"/>
<path fill-rule="evenodd" clip-rule="evenodd" d="M550.076 1428.65H591.388V716.074H550.076V1428.65Z" fill="#7D8E98"/>
<path fill-rule="evenodd" clip-rule="evenodd" d="M475.963 1428.65H517.273V716.074H475.963V1428.65Z" fill="#7D8E98"/>
<path fill-rule="evenodd" clip-rule="evenodd" d="M401.85 1428.65H443.159V716.074H401.85V1428.65Z" fill="#7D8E98"/>
<path fill-rule="evenodd" clip-rule="evenodd" d="M370.424 798.239H991.572V716.074H370.424V798.239Z" fill="#1F2430"/>
<path fill-rule="evenodd" clip-rule="evenodd" d="M257.051 716.074H991.576V673.14H257.051V716.074Z" fill="#65747D"/>
<path fill-rule="evenodd" clip-rule="evenodd" d="M820.186 716.074H991.574V673.14H820.186V716.074Z" fill="#282E3B"/>
<path fill-rule="evenodd" clip-rule="evenodd" d="M1009.05 340.027C1009.05 364.422 990.023 384.201 966.549 384.201C943.075 384.201 924.047 364.422 924.047 340.027C924.047 315.63 943.075 295.852 966.549 295.852C990.023 295.852 1009.05 315.63 1009.05 340.027" fill="#FFC100"/>
<path d="M966.551 63.6519V228.476" stroke="#FFC100" stroke-width="5.6"/>
<path fill-rule="evenodd" clip-rule="evenodd" d="M1061.15 345.39H871.946C853.595 345.39 844.405 322.331 857.381 308.844L951.978 210.525C960.024 202.165 973.065 202.165 981.11 210.525L1075.72 308.844C1088.7 322.329 1079.51 345.39 1061.15 345.39" fill="#65747D"/>
<path fill-rule="evenodd" clip-rule="evenodd" d="M589.817 340.027C589.817 364.422 570.787 384.201 547.313 384.201C523.84 384.201 504.811 364.422 504.811 340.027C504.811 315.63 523.84 295.852 547.313 295.852C570.787 295.852 589.817 315.63 589.817 340.027" fill="#FFC100"/>
<path d="M547.312 64.5046V228.477" stroke="#FFC100" stroke-width="5.6"/>
<path fill-rule="evenodd" clip-rule="evenodd" d="M641.917 345.39H452.708C434.357 345.39 425.166 322.331 438.143 308.844L532.742 210.525C540.785 202.165 553.826 202.165 561.872 210.525L656.48 308.844C669.459 322.329 660.269 345.39 641.917 345.39" fill="#65747D"/>
<path fill-rule="evenodd" clip-rule="evenodd" d="M828.318 584.271C828.318 618.184 831.757 649.208 837.493 673.265H897.584C903.307 649.208 906.759 618.184 906.759 584.271" fill="#49A2FF"/>
<path d="M831.292 599.173C817.666 602.002 808.8 615.909 811.491 630.234C814.182 644.562 827.409 653.883 841.035 651.053" stroke="#49A2FF" stroke-width="4.9"/>
<path fill-rule="evenodd" clip-rule="evenodd" d="M865.642 1335.57H497.659C473.853 1335.57 454.375 1315.33 454.375 1290.59V928.505C454.375 903.761 473.853 883.519 497.659 883.519H865.642C889.446 883.519 908.926 903.761 908.926 928.505V1290.59C908.926 1315.33 889.446 1335.57 865.642 1335.57" fill="#EDEFF5"/>
<path fill-rule="evenodd" clip-rule="evenodd" d="M836.294 1293.99H527.004C516.468 1293.99 507.848 1285.03 507.848 1274.08V1232.06C507.848 1221.11 516.468 1212.15 527.004 1212.15H836.294C846.829 1212.15 855.449 1221.11 855.449 1232.06V1274.08C855.449 1285.03 846.829 1293.99 836.294 1293.99" fill="#49A2FF"/>
<path fill-rule="evenodd" clip-rule="evenodd" d="M806.508 949.001C806.508 949.286 806.463 949.56 806.366 949.834C803.38 959.502 748.68 967.195 681.654 967.195C614.617 967.195 559.914 959.502 556.931 949.834C556.834 949.56 556.787 949.286 556.787 949.001C556.787 938.936 612.694 930.796 681.654 930.796C750.602 930.796 806.508 938.936 806.508 949.001" fill="#696978"/>
<path fill-rule="evenodd" clip-rule="evenodd" d="M773.348 961.98C773.348 972.034 732.295 980.185 681.652 980.185C631.008 980.185 589.955 972.034 589.955 961.98C589.955 951.926 631.008 943.777 681.652 943.777C732.295 943.777 773.348 951.926 773.348 961.98" fill="#FFC100"/>
<path fill-rule="evenodd" clip-rule="evenodd" d="M806.508 949.833C806.508 1021.5 750.602 1079.61 681.654 1079.61C612.694 1079.61 556.787 1021.5 556.787 949.833H556.931C559.914 959.501 614.617 967.195 681.654 967.195C748.68 967.195 803.38 959.501 806.366 949.833H806.508Z" fill="#9898A2"/>
<path fill-rule="evenodd" clip-rule="evenodd" d="M604.396 1262.1H758.905V1244.04H604.396V1262.1Z" fill="#EDEFF5"/>
<path fill-rule="evenodd" clip-rule="evenodd" d="M585.941 1140.99H777.361V1113.62H585.941V1140.99Z" fill="#838298"/>
<path fill-rule="evenodd" clip-rule="evenodd" d="M600.676 1166.14H762.626V1156.85H600.676V1166.14Z" fill="#A8A9BE"/>
<path fill-rule="evenodd" clip-rule="evenodd" d="M600.676 1182.74H698.943V1173.45H600.676V1182.74Z" fill="#A8A9BE"/>
</g>
<path fill-rule="evenodd" clip-rule="evenodd" d="M814.305 122.866H547.69C524.509 122.866 505.545 103.154 505.545 79.0629V54.8045C505.545 30.713 524.509 11 547.69 11H814.305C837.485 11 856.452 30.713 856.452 54.8045V79.0629C856.452 103.154 837.485 122.866 814.305 122.866" fill="#344148"/>
<path fill-rule="evenodd" clip-rule="evenodd" d="M727.426 75.8674H610.003C606.211 75.8674 603.107 72.642 603.107 68.7011V65.1646C603.107 61.2237 606.211 57.9983 610.003 57.9983H727.426C731.218 57.9983 734.321 61.2237 734.321 65.1646V68.7011C734.321 72.642 731.218 75.8674 727.426 75.8674" fill="black"/>
<path fill-rule="evenodd" clip-rule="evenodd" d="M780.416 66.933C780.416 75.1575 774.001 81.8245 766.088 81.8245C758.176 81.8245 751.76 75.1575 751.76 66.933C751.76 58.7086 758.176 52.0415 766.088 52.0415C774.001 52.0415 780.416 58.7086 780.416 66.933" fill="black"/>
<path fill-rule="evenodd" clip-rule="evenodd" d="M1296 1481.65C1296 1485.16 1005.88 1488 648 1488C290.12 1488 0 1485.16 0 1481.65C0 1478.14 290.12 1475.29 648 1475.29C1005.88 1475.29 1296 1478.14 1296 1481.65" fill="#7D818A"/>
<path fill-rule="evenodd" clip-rule="evenodd" d="M578.253 517.277V517.277C569.957 509.266 562.205 508.645 565.956 504.711L597.289 468.869C601.04 464.936 611.186 476.045 614.083 480.158C618.48 486.406 627.403 504.685 624.166 509.529L600.152 524.692C596.403 528.627 586.547 525.289 578.253 517.277" fill="#FF77CA"/>
<path fill-rule="evenodd" clip-rule="evenodd" d="M595.043 472.88V472.88C596.967 469.368 601.326 468.011 604.728 469.867L628.394 483.302C631.795 485.156 628.702 489.406 627.286 490.586C625.135 492.377 620.825 493.829 617.068 492.177L597.73 482.639C594.327 480.785 593.118 476.394 595.043 472.88" fill="#FF77CA"/>
<path fill-rule="evenodd" clip-rule="evenodd" d="M290.344 1021.23L240.891 1095.44L268.512 1155L331.957 1189.05H234.011L167.412 1106.94L251.49 976.63L290.344 1021.23Z" fill="#0B096F"/>
<path fill-rule="evenodd" clip-rule="evenodd" d="M630.836 531.235L645.79 538.705L638.627 523.517L548.637 431.302L540.846 439.022L630.836 531.235Z" fill="#864622"/>
<path fill-rule="evenodd" clip-rule="evenodd" d="M630.91 535.438L643.429 546.522L640.364 529.939L576.952 417.358L567.496 422.857L630.91 535.438Z" fill="#864622"/>
<path fill-rule="evenodd" clip-rule="evenodd" d="M581.233 531.893L432.932 620.205L399.887 573.383L573.405 500.985L581.233 531.893Z" fill="#FF77CA"/>
<path fill-rule="evenodd" clip-rule="evenodd" d="M558.322 535.781L584.599 537.103C584.599 537.103 590.868 536.193 598.947 532.015C607.028 527.836 609.987 525.356 625.524 523.069C636.353 521.477 628.858 512.428 621.843 510.707C614.827 508.986 591.418 520.698 590.08 512.491C588.744 504.286 557.167 517.193 558.322 535.781" fill="#FF77CA"/>
<path fill-rule="evenodd" clip-rule="evenodd" d="M622.682 481.949V481.949C626.754 481.279 630.551 483.886 631.12 487.739L634.634 514.884C635.202 518.738 629.802 518.942 627.96 518.557C625.163 517.972 621.317 515.464 620.365 511.454L616.308 490.173C615.741 486.319 618.608 482.619 622.682 481.949" fill="#FF77CA"/>
<path fill-rule="evenodd" clip-rule="evenodd" d="M245.616 967.349L196.461 1061.88L240.891 1094.78L290.343 1020.98L245.616 967.349Z" fill="#EF3C86"/>
<path fill-rule="evenodd" clip-rule="evenodd" d="M338.777 762.346L188.725 1037.33L271.466 1084.03L472.614 770.279L338.777 762.346Z" fill="#12121B"/>
<path fill-rule="evenodd" clip-rule="evenodd" d="M295.77 1481.65H343.195V901.628H295.77V1481.65Z" fill="#A3AEB1"/>
<path fill-rule="evenodd" clip-rule="evenodd" d="M193.946 1189.2H445.022C452.154 1189.2 457.935 1195.21 457.935 1202.62C457.935 1210.03 452.154 1216.04 445.022 1216.04H193.946C186.816 1216.04 181.035 1210.03 181.035 1202.62C181.035 1195.21 186.816 1189.2 193.946 1189.2" fill="#BECACD"/>
<path fill-rule="evenodd" clip-rule="evenodd" d="M439.143 278.945C439.143 278.945 485.541 337.594 424.064 354.489Z" fill="#0B096F"/>
<path fill-rule="evenodd" clip-rule="evenodd" d="M434.155 364.351L448.568 395.426L433.09 396.391L434.155 364.351Z" fill="#285FD7"/>
<path fill-rule="evenodd" clip-rule="evenodd" d="M283.868 359.139C279.146 345.861 288.378 417.889 288.378 417.889L280.062 483.69L355.674 499.838L355.319 432.487C355.319 432.487 420.46 436.389 433.927 429.065C433.927 429.065 443.244 365.164 432.719 320.166L378.536 272.707L292.42 280.631L283.868 359.139Z" fill="#FF77CA"/>
<path d="M349.363 401.042C349.363 401.042 314.648 395.51 300.818 372.298" stroke="#E84595" stroke-width="2.1"/>
<path fill-rule="evenodd" clip-rule="evenodd" d="M480.634 1083.56L462.92 1140.63C462.92 1140.63 525.929 1176.43 561.191 1225.6L363.424 1178.11L447.434 1059.84L480.634 1083.56Z" fill="#0B096F"/>
<path fill-rule="evenodd" clip-rule="evenodd" d="M446.217 1059L401.848 1123.81L462.92 1140.63L503.431 1091.52L446.217 1059Z" fill="#EF3C86"/>
<path fill-rule="evenodd" clip-rule="evenodd" d="M286.202 400.035C265.91 401.843 232.35 328.382 260.806 284.647C299.222 225.608 347.566 249.014 347.566 249.014C347.566 249.014 359.009 197.189 392.937 196.726C441.274 196.067 449.914 270.892 449.914 270.892C449.914 270.892 461.34 229.909 475.284 235.488C489.227 241.067 496.367 361.549 386.857 316.871C386.857 316.871 391.611 354.066 365.634 355.183C354.434 355.664 349.305 340.101 349.305 340.101C349.305 340.101 325.631 364.982 308.455 377.008C308.455 377.008 295.585 399.198 286.202 400.035" fill="#0B096F"/>
<path d="M276.261 226.844L287.649 264.454L276.895 269.961L253.199 246.531" stroke="#001F68" stroke-width="6.3"/>
<path fill-rule="evenodd" clip-rule="evenodd" d="M472.803 1481.65H166.162C158.355 1481.65 155.727 1470.82 162.602 1466.97C214.362 1438.04 319.473 1369.42 319.473 1289.38C319.473 1369.42 424.597 1438.04 476.362 1466.97C483.236 1470.82 480.608 1481.65 472.803 1481.65" fill="#A3AEB1"/>
<path fill-rule="evenodd" clip-rule="evenodd" d="M195.13 924.299H443.835C454.731 924.299 463.565 915.118 463.565 903.791V877.894C463.565 866.568 454.731 857.387 443.835 857.387H195.13C184.233 857.387 175.398 866.568 175.398 877.894V903.791C175.398 915.118 184.233 924.299 195.13 924.299" fill="#555369"/>
<path fill-rule="evenodd" clip-rule="evenodd" d="M195.13 940.885H443.835C454.731 940.885 463.565 931.703 463.565 920.378V889.686H175.398V920.378C175.398 931.703 184.233 940.885 195.13 940.885" fill="#BECACD"/>
<path fill-rule="evenodd" clip-rule="evenodd" d="M755.348 581.894C755.338 582.05 755.309 582.224 755.232 582.379C753.111 587.986 720.31 590.22 680.442 587.345C640.592 584.471 608.386 577.549 607.031 571.689C606.974 571.527 606.969 571.349 606.979 571.193C607.378 565.213 640.922 562.77 681.885 565.723C722.868 568.679 755.747 575.914 755.348 581.894" fill="#838298"/>
<path fill-rule="evenodd" clip-rule="evenodd" d="M737.646 590.905C737.635 591.063 737.61 591.237 737.549 591.39C735.839 597.029 710.72 599.816 680.276 597.621C649.844 595.426 625.323 589.057 624.379 583.229C624.339 583.067 624.337 582.889 624.347 582.733C624.746 576.753 650.439 573.742 681.72 575.999C713.015 578.256 738.045 584.925 737.646 590.905" fill="#FFC100"/>
<path d="M636.119 532.37V620.205" stroke="#FFC100" stroke-width="3.5" stroke-linecap="round"/>
<path d="M643.174 529.718V617.554" stroke="#FFC100" stroke-width="3.5" stroke-linecap="round"/>
<path fill-rule="evenodd" clip-rule="evenodd" d="M755.317 582.385C752.472 624.976 716.965 657.092 675.985 654.135C635.02 651.181 604.104 614.277 606.947 571.684L607.032 571.689C608.386 577.549 640.592 584.471 680.444 587.345C720.312 590.219 753.111 587.987 755.232 582.379L755.317 582.385Z" fill="#505067"/>
<path fill-rule="evenodd" clip-rule="evenodd" d="M355.318 432.487L325.199 429.117L355.423 452.163L355.318 432.487Z" fill="#EF3C86"/>
<path d="M431.817 407.421C431.817 407.421 423.987 407.409 422.16 401.072" stroke="#0D1A88" stroke-width="2.1"/>
<path fill-rule="evenodd" clip-rule="evenodd" d="M424.61 371.979C425.067 377.059 427.795 380.667 430.704 380.043C433.613 379.418 435.601 374.795 435.145 369.715C434.688 364.637 431.96 361.027 429.051 361.652C426.142 362.276 424.154 366.901 424.61 371.979" fill="#0B096F"/>
<path fill-rule="evenodd" clip-rule="evenodd" d="M520.783 857.387L400.532 1091.03L498.667 1129.7L680.954 827.718C695.994 794.701 672.821 742.593 637.672 742.593L194.422 716.227V778.47C194.422 822.053 228.417 857.387 270.355 857.387H520.783Z" fill="#272636"/>
<path fill-rule="evenodd" clip-rule="evenodd" d="M545.239 702.267L651.497 661.881L640.963 621.503L532.546 644.801L467.644 536.704L399.445 580.621L479.464 693.811C491.453 708.716 515.604 711.302 545.239 702.267" fill="#FF77CA"/>
<path fill-rule="evenodd" clip-rule="evenodd" d="M193.514 725.896L388.477 729.802L406.724 615.893L426.949 648.095L527.782 589.099C474.78 502.07 447.2 480.597 420.181 469.529C400.657 461.531 392.868 459.833 375.005 456.829C334.456 450.021 312.517 450.777 270.962 460.754C247.874 466.296 216.623 490.771 200.868 529.664C180.933 578.872 193.514 725.896 193.514 725.896" fill="#49A2FF"/>
<path fill-rule="evenodd" clip-rule="evenodd" d="M274.376 460.067C268.539 464.126 266.628 479.446 292.193 479.232C324.326 478.961 355.002 469.025 360.941 454.738C320.391 447.93 306.805 451.518 274.376 460.067" fill="#FF77CA"/>
<path fill-rule="evenodd" clip-rule="evenodd" d="M634.537 624.76L666.616 602.001C666.616 602.001 674.232 598.408 683.315 595.522C692.399 592.637 696.416 592.3 709.705 582.398C718.966 575.499 719.934 587.958 715.936 594.513C711.938 601.067 685.903 609.724 690.868 616.938C695.832 624.15 714.694 634.55 735.875 628.08C738.722 627.21 747.673 637.296 727.36 658.137C717.348 668.41 695.778 677.012 686.409 673.913C686.409 673.913 659.787 665.889 649.087 662.175C638.5 658.496 647.184 639.694 634.537 624.76" fill="#FF77CA"/>
<path fill-rule="evenodd" clip-rule="evenodd" d="M406.723 615.894L388.201 581.68L394.795 690.355L406.723 615.894Z" fill="#285FD7"/>
<path fill-rule="evenodd" clip-rule="evenodd" d="M300.722 369.105C311.825 394.458 356.406 400.324 356.406 400.324L354.877 387.374L349.304 340.1C344.331 327.054 306.053 316.766 299.09 349.46C297.467 357.043 298.295 363.538 300.722 369.105" fill="#FF77CA"/>
<path d="M343.137 378.367C343.137 378.367 332.985 377.569 334.36 368.808C335.689 360.332 343.895 359.812 343.895 359.812C343.895 359.812 341.027 338.136 321.373 341.962" stroke="#E84595" stroke-width="2.1"/>
<path d="M1227.53 248.5L1289.12 186.062L1328.24 225.71C1346.81 211.347 1361.01 190.873 1367.53 166.229L1374.61 139.425M1374.61 139.425L1403.65 190.405M1374.61 139.425L1324.32 168.858" stroke="#09D410" stroke-width="13" stroke-linecap="round" stroke-linejoin="round"/>
<path d="M1244.06 344.54V335.42H1235.06V328.58H1244.06V319.46H1251.14V328.58H1260.14V335.42H1251.14V344.54H1244.06ZM1282.05 353.84C1278.89 353.84 1276.09 353.28 1273.65 352.16C1271.21 351.04 1269.29 349.44 1267.89 347.36C1266.53 345.24 1265.85 342.74 1265.85 339.86V338.78H1273.53V339.62C1273.53 341.86 1274.31 343.66 1275.87 345.02C1277.43 346.34 1279.49 347 1282.05 347C1284.65 347 1286.65 346.38 1288.05 345.14C1289.49 343.9 1290.21 342.34 1290.21 340.46V339.86C1290.21 338.58 1289.89 337.54 1289.25 336.74C1288.61 335.94 1287.75 335.36 1286.67 335C1285.59 334.6 1284.37 334.4 1283.01 334.4H1274.61V326L1288.17 318.8V317.84H1266.93V311H1296.69V321.2L1284.03 327.92V328.88H1286.25C1288.13 328.88 1289.95 329.26 1291.71 330.02C1293.51 330.78 1294.99 331.96 1296.15 333.56C1297.31 335.12 1297.89 337.16 1297.89 339.68V340.4C1297.89 343.12 1297.23 345.5 1295.91 347.54C1294.59 349.54 1292.73 351.1 1290.33 352.22C1287.97 353.3 1285.21 353.84 1282.05 353.84ZM1316.09 353.84C1312.81 353.84 1309.97 353.26 1307.57 352.1C1305.21 350.94 1303.39 349.3 1302.11 347.18C1300.83 345.06 1300.19 342.6 1300.19 339.8V339.2H1307.99V339.74C1307.99 341.74 1308.65 343.46 1309.97 344.9C1311.33 346.3 1313.33 347 1315.97 347C1318.61 347 1320.63 346.3 1322.03 344.9C1323.47 343.46 1324.19 341.6 1324.19 339.32V338.72C1324.19 336.48 1323.47 334.7 1322.03 333.38C1320.63 332.06 1318.87 331.4 1316.75 331.4C1315.59 331.4 1314.63 331.56 1313.87 331.88C1313.11 332.2 1312.49 332.6 1312.01 333.08C1311.53 333.56 1311.13 334.04 1310.81 334.52H1301.51V311H1330.19V317.96H1309.19V328.22H1310.27C1310.67 327.7 1311.21 327.2 1311.89 326.72C1312.57 326.24 1313.45 325.84 1314.53 325.52C1315.61 325.2 1316.89 325.04 1318.37 325.04C1320.85 325.04 1323.11 325.56 1325.15 326.6C1327.19 327.64 1328.81 329.18 1330.01 331.22C1331.25 333.22 1331.87 335.7 1331.87 338.66V339.38C1331.87 342.34 1331.23 344.9 1329.95 347.06C1328.71 349.22 1326.91 350.9 1324.55 352.1C1322.19 353.26 1319.37 353.84 1316.09 353.84ZM1340.37 353.78L1335.81 350.12L1368.09 310.22L1372.65 313.88L1340.37 353.78ZM1365.69 353.6C1362.65 353.6 1360.27 352.8 1358.55 351.2C1356.83 349.56 1355.97 347.34 1355.97 344.54V344.12C1355.97 341.28 1356.83 339.06 1358.55 337.46C1360.27 335.82 1362.65 335 1365.69 335C1368.65 335 1371.01 335.82 1372.77 337.46C1374.53 339.06 1375.41 341.28 1375.41 344.12V344.54C1375.41 347.34 1374.55 349.56 1372.83 351.2C1371.11 352.8 1368.73 353.6 1365.69 353.6ZM1365.69 348.68C1366.85 348.68 1367.75 348.32 1368.39 347.6C1369.07 346.88 1369.41 345.94 1369.41 344.78V343.82C1369.41 342.66 1369.07 341.72 1368.39 341C1367.75 340.28 1366.85 339.92 1365.69 339.92C1364.53 339.92 1363.61 340.28 1362.93 341C1362.29 341.72 1361.97 342.66 1361.97 343.82V344.78C1361.97 345.94 1362.29 346.88 1362.93 347.6C1363.61 348.32 1364.53 348.68 1365.69 348.68ZM1342.77 329C1339.73 329 1337.35 328.2 1335.63 326.6C1333.91 324.96 1333.05 322.74 1333.05 319.94V319.52C1333.05 316.68 1333.91 314.46 1335.63 312.86C1337.35 311.22 1339.73 310.4 1342.77 310.4C1345.73 310.4 1348.09 311.22 1349.85 312.86C1351.61 314.46 1352.49 316.68 1352.49 319.52V319.94C1352.49 322.74 1351.63 324.96 1349.91 326.6C1348.19 328.2 1345.81 329 1342.77 329ZM1342.77 324.08C1343.93 324.08 1344.83 323.72 1345.47 323C1346.15 322.28 1346.49 321.34 1346.49 320.18V319.22C1346.49 318.06 1346.15 317.12 1345.47 316.4C1344.83 315.68 1343.93 315.32 1342.77 315.32C1341.61 315.32 1340.69 315.68 1340.01 316.4C1339.37 317.12 1339.05 318.06 1339.05 319.22V320.18C1339.05 321.34 1339.37 322.28 1340.01 323C1340.69 323.72 1341.61 324.08 1342.77 324.08Z" fill="black"/>
<path d="M1537.46 214.396C1532.12 214.396 1527.88 212.86 1524.72 209.788C1521.56 206.673 1519.99 202.151 1519.99 196.22V185.98C1519.99 180.049 1521.56 175.548 1524.72 172.476C1527.88 169.361 1532.12 167.804 1537.46 167.804C1542.75 167.804 1546.8 169.276 1549.62 172.22C1552.48 175.164 1553.91 179.196 1553.91 184.316V184.636H1548.59V184.124C1548.59 180.753 1547.68 178.001 1545.84 175.868C1544.05 173.692 1541.25 172.604 1537.46 172.604C1533.66 172.604 1530.69 173.777 1528.56 176.124C1526.43 178.428 1525.36 181.671 1525.36 185.852V196.348C1525.36 200.529 1526.43 203.793 1528.56 206.14C1530.69 208.444 1533.66 209.596 1537.46 209.596C1541.25 209.596 1544.05 208.529 1545.84 206.396C1547.68 204.22 1548.59 201.447 1548.59 198.076V197.052H1553.91V197.884C1553.91 203.004 1552.48 207.036 1549.62 209.98C1546.8 212.924 1542.75 214.396 1537.46 214.396ZM1574.42 214.396C1571.27 214.396 1568.47 213.735 1566.04 212.412C1563.65 211.089 1561.77 209.233 1560.41 206.844C1559.08 204.412 1558.42 201.553 1558.42 198.268V197.436C1558.42 194.193 1559.08 191.356 1560.41 188.924C1561.77 186.492 1563.65 184.615 1566.04 183.292C1568.47 181.969 1571.27 181.308 1574.42 181.308C1577.58 181.308 1580.35 181.969 1582.74 183.292C1585.18 184.615 1587.05 186.492 1588.38 188.924C1589.74 191.356 1590.42 194.193 1590.42 197.436V198.268C1590.42 201.553 1589.74 204.412 1588.38 206.844C1587.05 209.233 1585.18 211.089 1582.74 212.412C1580.35 213.735 1577.58 214.396 1574.42 214.396ZM1574.42 209.852C1577.75 209.852 1580.4 208.807 1582.36 206.716C1584.36 204.583 1585.37 201.724 1585.37 198.14V197.564C1585.37 193.98 1584.36 191.143 1582.36 189.052C1580.4 186.919 1577.75 185.852 1574.42 185.852C1571.14 185.852 1568.49 186.919 1566.49 189.052C1564.48 191.143 1563.48 193.98 1563.48 197.564V198.14C1563.48 201.724 1564.48 204.583 1566.49 206.716C1568.49 208.807 1571.14 209.852 1574.42 209.852ZM1596.96 213.5V182.204H1601.89V187.516H1602.79C1603.47 186.023 1604.62 184.679 1606.24 183.484C1607.91 182.247 1610.34 181.628 1613.54 181.628C1615.88 181.628 1617.98 182.119 1619.81 183.1C1621.69 184.081 1623.18 185.532 1624.29 187.452C1625.4 189.372 1625.95 191.74 1625.95 194.556V213.5H1620.9V194.94C1620.9 191.825 1620.11 189.564 1618.53 188.156C1616.99 186.748 1614.9 186.044 1612.26 186.044C1609.23 186.044 1606.75 187.025 1604.83 188.988C1602.96 190.951 1602.02 193.873 1602.02 197.756V213.5H1596.96ZM1640.65 213.5L1629.45 182.204H1634.83L1644.23 209.724H1645.13L1654.54 182.204H1659.91L1648.71 213.5H1640.65ZM1677.68 214.396C1674.52 214.396 1671.75 213.735 1669.36 212.412C1666.97 211.047 1665.11 209.148 1663.79 206.716C1662.47 204.284 1661.81 201.468 1661.81 198.268V197.5C1661.81 194.257 1662.47 191.42 1663.79 188.988C1665.11 186.556 1666.95 184.679 1669.29 183.356C1671.64 181.991 1674.33 181.308 1677.36 181.308C1680.3 181.308 1682.9 181.948 1685.17 183.228C1687.43 184.465 1689.2 186.257 1690.48 188.604C1691.76 190.951 1692.4 193.703 1692.4 196.86V199.164H1666.86C1666.99 202.535 1668.08 205.18 1670.13 207.1C1672.17 208.977 1674.73 209.916 1677.81 209.916C1680.49 209.916 1682.56 209.297 1684.01 208.06C1685.46 206.823 1686.57 205.351 1687.34 203.644L1691.69 205.756C1691.05 207.079 1690.16 208.401 1689.01 209.724C1687.9 211.047 1686.42 212.156 1684.59 213.052C1682.8 213.948 1680.49 214.396 1677.68 214.396ZM1666.93 195.004H1687.28C1687.11 192.103 1686.1 189.841 1684.27 188.22C1682.48 186.599 1680.17 185.788 1677.36 185.788C1674.5 185.788 1672.15 186.599 1670.32 188.22C1668.48 189.841 1667.35 192.103 1666.93 195.004ZM1698.66 213.5V182.204H1703.59V186.044H1704.48C1705.04 184.679 1705.89 183.676 1707.04 183.036C1708.19 182.396 1709.71 182.076 1711.59 182.076H1715.3V186.684H1711.27C1709 186.684 1707.17 187.324 1705.76 188.604C1704.4 189.841 1703.71 191.783 1703.71 194.428V213.5H1698.66ZM1732.21 214.396C1728.32 214.396 1725.04 213.5 1722.35 211.708C1719.7 209.916 1718.1 207.079 1717.55 203.196L1722.35 202.108C1722.69 204.156 1723.33 205.777 1724.27 206.972C1725.21 208.124 1726.36 208.956 1727.73 209.468C1729.13 209.937 1730.63 210.172 1732.21 210.172C1734.55 210.172 1736.41 209.703 1737.77 208.764C1739.14 207.825 1739.82 206.567 1739.82 204.988C1739.82 203.367 1739.16 202.236 1737.84 201.596C1736.56 200.913 1734.79 200.359 1732.53 199.932L1729.9 199.484C1727.9 199.143 1726.06 198.609 1724.4 197.884C1722.73 197.159 1721.41 196.177 1720.43 194.94C1719.45 193.703 1718.96 192.145 1718.96 190.268C1718.96 187.452 1720.05 185.255 1722.22 183.676C1724.4 182.097 1727.28 181.308 1730.86 181.308C1734.4 181.308 1737.26 182.119 1739.44 183.74C1741.66 185.319 1743.09 187.559 1743.73 190.46L1738.99 191.676C1738.61 189.415 1737.69 187.836 1736.24 186.94C1734.79 186.001 1732.99 185.532 1730.86 185.532C1728.73 185.532 1727.04 185.937 1725.81 186.748C1724.57 187.516 1723.95 188.668 1723.95 190.204C1723.95 191.697 1724.53 192.807 1725.68 193.532C1726.87 194.215 1728.45 194.727 1730.41 195.068L1733.04 195.516C1735.26 195.9 1737.24 196.433 1738.99 197.116C1740.78 197.756 1742.19 198.695 1743.21 199.932C1744.28 201.169 1744.81 202.791 1744.81 204.796C1744.81 207.868 1743.66 210.236 1741.36 211.9C1739.1 213.564 1736.05 214.396 1732.21 214.396ZM1750.79 213.5V182.204H1755.84V213.5H1750.79ZM1753.35 177.34C1752.24 177.34 1751.3 176.977 1750.53 176.252C1749.81 175.527 1749.44 174.609 1749.44 173.5C1749.44 172.348 1749.81 171.409 1750.53 170.684C1751.3 169.959 1752.24 169.596 1753.35 169.596C1754.46 169.596 1755.37 169.959 1756.1 170.684C1756.82 171.409 1757.19 172.348 1757.19 173.5C1757.19 174.609 1756.82 175.527 1756.1 176.252C1755.37 176.977 1754.46 177.34 1753.35 177.34ZM1778.38 214.396C1775.22 214.396 1772.43 213.735 1769.99 212.412C1767.61 211.089 1765.73 209.233 1764.36 206.844C1763.04 204.412 1762.38 201.553 1762.38 198.268V197.436C1762.38 194.193 1763.04 191.356 1764.36 188.924C1765.73 186.492 1767.61 184.615 1769.99 183.292C1772.43 181.969 1775.22 181.308 1778.38 181.308C1781.54 181.308 1784.31 181.969 1786.7 183.292C1789.13 184.615 1791.01 186.492 1792.33 188.924C1793.7 191.356 1794.38 194.193 1794.38 197.436V198.268C1794.38 201.553 1793.7 204.412 1792.33 206.844C1791.01 209.233 1789.13 211.089 1786.7 212.412C1784.31 213.735 1781.54 214.396 1778.38 214.396ZM1778.38 209.852C1781.71 209.852 1784.35 208.807 1786.31 206.716C1788.32 204.583 1789.32 201.724 1789.32 198.14V197.564C1789.32 193.98 1788.32 191.143 1786.31 189.052C1784.35 186.919 1781.71 185.852 1778.38 185.852C1775.09 185.852 1772.45 186.919 1770.44 189.052C1768.44 191.143 1767.43 193.98 1767.43 197.564V198.14C1767.43 201.724 1768.44 204.583 1770.44 206.716C1772.45 208.807 1775.09 209.852 1778.38 209.852ZM1800.92 213.5V182.204H1805.84V187.516H1806.74C1807.42 186.023 1808.58 184.679 1810.2 183.484C1811.86 182.247 1814.29 181.628 1817.49 181.628C1819.84 181.628 1821.93 182.119 1823.76 183.1C1825.64 184.081 1827.14 185.532 1828.24 187.452C1829.35 189.372 1829.91 191.74 1829.91 194.556V213.5H1824.85V194.94C1824.85 191.825 1824.06 189.564 1822.48 188.156C1820.95 186.748 1818.86 186.044 1816.21 186.044C1813.18 186.044 1810.71 187.025 1808.79 188.988C1806.91 190.951 1805.97 193.873 1805.97 197.756V213.5H1800.92ZM1613.8 274.5V229.7H1631.92C1634.69 229.7 1637.12 230.191 1639.21 231.172C1641.35 232.111 1643.01 233.476 1644.2 235.268C1645.4 237.017 1646 239.129 1646 241.604V242.308C1646 245.252 1645.29 247.577 1643.88 249.284C1642.48 250.991 1640.81 252.143 1638.89 252.74V253.636C1640.43 253.679 1641.69 254.191 1642.67 255.172C1643.69 256.111 1644.2 257.54 1644.2 259.46V274.5H1638.89V260.1C1638.89 258.82 1638.53 257.839 1637.8 257.156C1637.12 256.473 1636.08 256.132 1634.67 256.132H1619.18V274.5H1613.8ZM1619.18 251.268H1631.4C1634.35 251.268 1636.61 250.564 1638.19 249.156C1639.81 247.705 1640.62 245.7 1640.62 243.14V242.692C1640.62 240.132 1639.83 238.148 1638.25 236.74C1636.67 235.289 1634.39 234.564 1631.4 234.564H1619.18V251.268ZM1661.41 275.396C1659.23 275.396 1657.25 275.012 1655.46 274.244C1653.67 273.476 1652.26 272.367 1651.23 270.916C1650.21 269.465 1649.7 267.695 1649.7 265.604C1649.7 263.471 1650.21 261.721 1651.23 260.356C1652.26 258.948 1653.67 257.903 1655.46 257.22C1657.25 256.495 1659.26 256.132 1661.47 256.132H1672.03V253.828C1672.03 251.609 1671.37 249.86 1670.05 248.58C1668.77 247.3 1666.85 246.66 1664.29 246.66C1661.77 246.66 1659.81 247.279 1658.4 248.516C1656.99 249.711 1656.03 251.332 1655.52 253.38L1650.79 251.844C1651.3 250.095 1652.11 248.516 1653.22 247.108C1654.33 245.657 1655.8 244.505 1657.63 243.652C1659.51 242.756 1661.75 242.308 1664.35 242.308C1668.37 242.308 1671.48 243.353 1673.7 245.444C1675.92 247.492 1677.03 250.393 1677.03 254.148V268.292C1677.03 269.572 1677.62 270.212 1678.82 270.212H1681.7V274.5H1677.28C1675.87 274.5 1674.74 274.116 1673.89 273.348C1673.04 272.537 1672.61 271.471 1672.61 270.148V269.828H1671.84C1671.37 270.639 1670.73 271.492 1669.92 272.388C1669.15 273.241 1668.09 273.945 1666.72 274.5C1665.36 275.097 1663.59 275.396 1661.41 275.396ZM1661.99 271.044C1664.97 271.044 1667.38 270.169 1669.22 268.42C1671.1 266.628 1672.03 264.132 1672.03 260.932V260.228H1661.67C1659.66 260.228 1658 260.676 1656.67 261.572C1655.39 262.425 1654.75 263.727 1654.75 265.476C1654.75 267.225 1655.42 268.591 1656.74 269.572C1658.1 270.553 1659.85 271.044 1661.99 271.044ZM1695.52 274.5C1693.73 274.5 1692.34 274.009 1691.36 273.028C1690.42 272.047 1689.95 270.703 1689.95 268.996V247.62H1680.54V243.204H1689.95V232.068H1695.01V243.204H1705.25V247.62H1695.01V268.228C1695.01 269.508 1695.63 270.148 1696.86 270.148H1703.84V274.5H1695.52ZM1724.09 275.396C1720.93 275.396 1718.16 274.735 1715.77 273.412C1713.38 272.047 1711.52 270.148 1710.2 267.716C1708.88 265.284 1708.22 262.468 1708.22 259.268V258.5C1708.22 255.257 1708.88 252.42 1710.2 249.988C1711.52 247.556 1713.36 245.679 1715.71 244.356C1718.05 242.991 1720.74 242.308 1723.77 242.308C1726.71 242.308 1729.32 242.948 1731.58 244.228C1733.84 245.465 1735.61 247.257 1736.89 249.604C1738.17 251.951 1738.81 254.703 1738.81 257.86V260.164H1713.27C1713.4 263.535 1714.49 266.18 1716.54 268.1C1718.59 269.977 1721.15 270.916 1724.22 270.916C1726.91 270.916 1728.97 270.297 1730.43 269.06C1731.88 267.823 1732.99 266.351 1733.75 264.644L1738.11 266.756C1737.47 268.079 1736.57 269.401 1735.42 270.724C1734.31 272.047 1732.84 273.156 1731 274.052C1729.21 274.948 1726.91 275.396 1724.09 275.396ZM1713.34 256.004H1733.69C1733.52 253.103 1732.52 250.841 1730.68 249.22C1728.89 247.599 1726.59 246.788 1723.77 246.788C1720.91 246.788 1718.56 247.599 1716.73 249.22C1714.89 250.841 1713.76 253.103 1713.34 256.004Z" fill="black"/>
<path d="M1227.53 643.5L1289.12 581.062L1328.24 620.71C1346.81 606.347 1361.01 585.873 1367.53 561.229L1374.61 534.425M1374.61 534.425L1403.65 585.405M1374.61 534.425L1324.32 563.858" stroke="#09D410" stroke-width="13" stroke-linecap="round" stroke-linejoin="round"/>
<path d="M1244.06 739.54V730.42H1235.06V723.58H1244.06V714.46H1251.14V723.58H1260.14V730.42H1251.14V739.54H1244.06ZM1281.99 748.84C1278.71 748.84 1275.87 748.26 1273.47 747.1C1271.11 745.94 1269.29 744.3 1268.01 742.18C1266.73 740.06 1266.09 737.6 1266.09 734.8V734.2H1273.89V734.74C1273.89 736.74 1274.55 738.46 1275.87 739.9C1277.23 741.3 1279.23 742 1281.87 742C1284.51 742 1286.53 741.3 1287.93 739.9C1289.37 738.46 1290.09 736.6 1290.09 734.32V733.72C1290.09 731.48 1289.37 729.7 1287.93 728.38C1286.53 727.06 1284.77 726.4 1282.65 726.4C1281.49 726.4 1280.53 726.56 1279.77 726.88C1279.01 727.2 1278.39 727.6 1277.91 728.08C1277.43 728.56 1277.03 729.04 1276.71 729.52H1267.41V706H1296.09V712.96H1275.09V723.22H1276.17C1276.57 722.7 1277.11 722.2 1277.79 721.72C1278.47 721.24 1279.35 720.84 1280.43 720.52C1281.51 720.2 1282.79 720.04 1284.27 720.04C1286.75 720.04 1289.01 720.56 1291.05 721.6C1293.09 722.64 1294.71 724.18 1295.91 726.22C1297.15 728.22 1297.77 730.7 1297.77 733.66V734.38C1297.77 737.34 1297.13 739.9 1295.85 742.06C1294.61 744.22 1292.81 745.9 1290.45 747.1C1288.09 748.26 1285.27 748.84 1281.99 748.84ZM1304.54 748V746.44C1304.54 744.88 1304.66 743.56 1304.9 742.48C1305.14 741.36 1305.66 740.1 1306.46 738.7L1320.56 713.8V712.84H1298.24V706H1328.48V715.12L1313.6 741.7C1313.08 742.62 1312.72 743.44 1312.52 744.16C1312.32 744.88 1312.22 745.76 1312.22 746.8V748H1304.54ZM1336.38 748.78L1331.82 745.12L1364.1 705.22L1368.66 708.88L1336.38 748.78ZM1361.7 748.6C1358.66 748.6 1356.28 747.8 1354.56 746.2C1352.84 744.56 1351.98 742.34 1351.98 739.54V739.12C1351.98 736.28 1352.84 734.06 1354.56 732.46C1356.28 730.82 1358.66 730 1361.7 730C1364.66 730 1367.02 730.82 1368.78 732.46C1370.54 734.06 1371.42 736.28 1371.42 739.12V739.54C1371.42 742.34 1370.56 744.56 1368.84 746.2C1367.12 747.8 1364.74 748.6 1361.7 748.6ZM1361.7 743.68C1362.86 743.68 1363.76 743.32 1364.4 742.6C1365.08 741.88 1365.42 740.94 1365.42 739.78V738.82C1365.42 737.66 1365.08 736.72 1364.4 736C1363.76 735.28 1362.86 734.92 1361.7 734.92C1360.54 734.92 1359.62 735.28 1358.94 736C1358.3 736.72 1357.98 737.66 1357.98 738.82V739.78C1357.98 740.94 1358.3 741.88 1358.94 742.6C1359.62 743.32 1360.54 743.68 1361.7 743.68ZM1338.78 724C1335.74 724 1333.36 723.2 1331.64 721.6C1329.92 719.96 1329.06 717.74 1329.06 714.94V714.52C1329.06 711.68 1329.92 709.46 1331.64 707.86C1333.36 706.22 1335.74 705.4 1338.78 705.4C1341.74 705.4 1344.1 706.22 1345.86 707.86C1347.62 709.46 1348.5 711.68 1348.5 714.52V714.94C1348.5 717.74 1347.64 719.96 1345.92 721.6C1344.2 723.2 1341.82 724 1338.78 724ZM1338.78 719.08C1339.94 719.08 1340.84 718.72 1341.48 718C1342.16 717.28 1342.5 716.34 1342.5 715.18V714.22C1342.5 713.06 1342.16 712.12 1341.48 711.4C1340.84 710.68 1339.94 710.32 1338.78 710.32C1337.62 710.32 1336.7 710.68 1336.02 711.4C1335.38 712.12 1335.06 713.06 1335.06 714.22V715.18C1335.06 716.34 1335.38 717.28 1336.02 718C1336.7 718.72 1337.62 719.08 1338.78 719.08Z" fill="black"/>
<path d="M1537.33 600.5V555.7H1554.48C1557.17 555.7 1559.56 556.233 1561.65 557.3C1563.78 558.324 1565.46 559.796 1566.7 561.716C1567.94 563.636 1568.56 565.961 1568.56 568.692V569.524C1568.56 572.212 1567.92 574.537 1566.64 576.5C1565.4 578.42 1563.72 579.892 1561.58 580.916C1559.45 581.94 1557.08 582.452 1554.48 582.452H1542.7V600.5H1537.33ZM1542.7 577.588H1553.9C1556.76 577.588 1559.02 576.884 1560.69 575.476C1562.35 574.025 1563.18 571.999 1563.18 569.396V568.756C1563.18 566.153 1562.35 564.148 1560.69 562.74C1559.06 561.289 1556.8 560.564 1553.9 560.564H1542.7V577.588ZM1582.31 601.396C1580.13 601.396 1578.15 601.012 1576.36 600.244C1574.56 599.476 1573.16 598.367 1572.13 596.916C1571.11 595.465 1570.6 593.695 1570.6 591.604C1570.6 589.471 1571.11 587.721 1572.13 586.356C1573.16 584.948 1574.56 583.903 1576.36 583.22C1578.15 582.495 1580.15 582.132 1582.37 582.132H1592.93V579.828C1592.93 577.609 1592.27 575.86 1590.95 574.58C1589.67 573.3 1587.75 572.66 1585.19 572.66C1582.67 572.66 1580.71 573.279 1579.3 574.516C1577.89 575.711 1576.93 577.332 1576.42 579.38L1571.68 577.844C1572.2 576.095 1573.01 574.516 1574.12 573.108C1575.23 571.657 1576.7 570.505 1578.53 569.652C1580.41 568.756 1582.65 568.308 1585.25 568.308C1589.26 568.308 1592.38 569.353 1594.6 571.444C1596.81 573.492 1597.92 576.393 1597.92 580.148V594.292C1597.92 595.572 1598.52 596.212 1599.72 596.212H1602.6V600.5H1598.18C1596.77 600.5 1595.64 600.116 1594.79 599.348C1593.93 598.537 1593.51 597.471 1593.51 596.148V595.828H1592.74C1592.27 596.639 1591.63 597.492 1590.82 598.388C1590.05 599.241 1588.99 599.945 1587.62 600.5C1586.25 601.097 1584.48 601.396 1582.31 601.396ZM1582.88 597.044C1585.87 597.044 1588.28 596.169 1590.12 594.42C1591.99 592.628 1592.93 590.132 1592.93 586.932V586.228H1582.56C1580.56 586.228 1578.89 586.676 1577.57 587.572C1576.29 588.425 1575.65 589.727 1575.65 591.476C1575.65 593.225 1576.31 594.591 1577.64 595.572C1579 596.553 1580.75 597.044 1582.88 597.044ZM1604.55 585.012V584.116C1604.55 580.831 1605.21 578.015 1606.53 575.668C1607.86 573.321 1609.65 571.508 1611.91 570.228C1614.17 568.948 1616.65 568.308 1619.33 568.308C1622.62 568.308 1625.14 568.948 1626.89 570.228C1628.68 571.465 1630 572.852 1630.85 574.388H1631.75V569.204H1636.55V607.796C1636.55 609.503 1636.08 610.847 1635.14 611.828C1634.2 612.809 1632.84 613.3 1631.05 613.3H1609.8V608.82H1629.7C1630.98 608.82 1631.62 608.18 1631.62 606.9V594.996H1630.73C1630.21 595.935 1629.49 596.852 1628.55 597.748C1627.61 598.644 1626.4 599.391 1624.9 599.988C1623.41 600.543 1621.55 600.82 1619.33 600.82C1616.65 600.82 1614.17 600.18 1611.91 598.9C1609.65 597.62 1607.86 595.807 1606.53 593.46C1605.21 591.071 1604.55 588.255 1604.55 585.012ZM1620.68 596.34C1623.92 596.34 1626.54 595.316 1628.55 593.268C1630.6 591.22 1631.62 588.404 1631.62 584.82V584.308C1631.62 580.681 1630.6 577.865 1628.55 575.86C1626.54 573.812 1623.92 572.788 1620.68 572.788C1617.48 572.788 1614.83 573.812 1612.74 575.86C1610.69 577.865 1609.67 580.681 1609.67 584.308V584.82C1609.67 588.404 1610.69 591.22 1612.74 593.268C1614.83 595.316 1617.48 596.34 1620.68 596.34ZM1658.92 601.396C1655.77 601.396 1652.99 600.735 1650.6 599.412C1648.21 598.047 1646.36 596.148 1645.04 593.716C1643.71 591.284 1643.05 588.468 1643.05 585.268V584.5C1643.05 581.257 1643.71 578.42 1645.04 575.988C1646.36 573.556 1648.19 571.679 1650.54 570.356C1652.89 568.991 1655.57 568.308 1658.6 568.308C1661.55 568.308 1664.15 568.948 1666.41 570.228C1668.67 571.465 1670.44 573.257 1671.72 575.604C1673 577.951 1673.64 580.703 1673.64 583.86V586.164H1648.11C1648.24 589.535 1649.32 592.18 1651.37 594.1C1653.42 595.977 1655.98 596.916 1659.05 596.916C1661.74 596.916 1663.81 596.297 1665.26 595.06C1666.71 593.823 1667.82 592.351 1668.59 590.644L1672.94 592.756C1672.3 594.079 1671.4 595.401 1670.25 596.724C1669.14 598.047 1667.67 599.156 1665.84 600.052C1664.04 600.948 1661.74 601.396 1658.92 601.396ZM1648.17 582.004H1668.52C1668.35 579.103 1667.35 576.841 1665.52 575.22C1663.72 573.599 1661.42 572.788 1658.6 572.788C1655.75 572.788 1653.4 573.599 1651.56 575.22C1649.73 576.841 1648.6 579.103 1648.17 582.004ZM1702.76 600.5L1689.26 555.7H1694.82L1707.05 597.236H1707.88L1720.1 555.7H1725.67L1712.17 600.5H1702.76ZM1730.03 600.5V569.204H1735.09V600.5H1730.03ZM1732.59 564.34C1731.48 564.34 1730.55 563.977 1729.78 563.252C1729.05 562.527 1728.69 561.609 1728.69 560.5C1728.69 559.348 1729.05 558.409 1729.78 557.684C1730.55 556.959 1731.48 556.596 1732.59 556.596C1733.7 556.596 1734.62 556.959 1735.35 557.684C1736.07 558.409 1736.43 559.348 1736.43 560.5C1736.43 561.609 1736.07 562.527 1735.35 563.252C1734.62 563.977 1733.7 564.34 1732.59 564.34ZM1755.77 601.396C1751.89 601.396 1748.6 600.5 1745.91 598.708C1743.27 596.916 1741.67 594.079 1741.11 590.196L1745.91 589.108C1746.25 591.156 1746.89 592.777 1747.83 593.972C1748.77 595.124 1749.92 595.956 1751.29 596.468C1752.7 596.937 1754.19 597.172 1755.77 597.172C1758.12 597.172 1759.97 596.703 1761.34 595.764C1762.7 594.825 1763.38 593.567 1763.38 591.988C1763.38 590.367 1762.72 589.236 1761.4 588.596C1760.12 587.913 1758.35 587.359 1756.09 586.932L1753.46 586.484C1751.46 586.143 1749.62 585.609 1747.96 584.884C1746.3 584.159 1744.97 583.177 1743.99 581.94C1743.01 580.703 1742.52 579.145 1742.52 577.268C1742.52 574.452 1743.61 572.255 1745.78 570.676C1747.96 569.097 1750.84 568.308 1754.42 568.308C1757.97 568.308 1760.82 569.119 1763 570.74C1765.22 572.319 1766.65 574.559 1767.29 577.46L1762.55 578.676C1762.17 576.415 1761.25 574.836 1759.8 573.94C1758.35 573.001 1756.56 572.532 1754.42 572.532C1752.29 572.532 1750.61 572.937 1749.37 573.748C1748.13 574.516 1747.51 575.668 1747.51 577.204C1747.51 578.697 1748.09 579.807 1749.24 580.532C1750.44 581.215 1752.01 581.727 1753.98 582.068L1756.6 582.516C1758.82 582.9 1760.8 583.433 1762.55 584.116C1764.34 584.756 1765.75 585.695 1766.78 586.932C1767.84 588.169 1768.38 589.791 1768.38 591.796C1768.38 594.868 1767.22 597.236 1764.92 598.9C1762.66 600.564 1759.61 601.396 1755.77 601.396ZM1774.35 600.5V569.204H1779.41V600.5H1774.35ZM1776.91 564.34C1775.8 564.34 1774.86 563.977 1774.09 563.252C1773.37 562.527 1773.01 561.609 1773.01 560.5C1773.01 559.348 1773.37 558.409 1774.09 557.684C1774.86 556.959 1775.8 556.596 1776.91 556.596C1778.02 556.596 1778.94 556.959 1779.66 557.684C1780.39 558.409 1780.75 559.348 1780.75 560.5C1780.75 561.609 1780.39 562.527 1779.66 563.252C1778.94 563.977 1778.02 564.34 1776.91 564.34ZM1799 600.5C1797.21 600.5 1795.82 600.009 1794.84 599.028C1793.9 598.047 1793.43 596.703 1793.43 594.996V573.62H1784.02V569.204H1793.43V558.068H1798.49V569.204H1808.73V573.62H1798.49V594.228C1798.49 595.508 1799.1 596.148 1800.34 596.148H1807.32V600.5H1799ZM1826.96 601.396C1823.08 601.396 1819.8 600.5 1817.11 598.708C1814.46 596.916 1812.86 594.079 1812.31 590.196L1817.11 589.108C1817.45 591.156 1818.09 592.777 1819.03 593.972C1819.97 595.124 1821.12 595.956 1822.48 596.468C1823.89 596.937 1825.39 597.172 1826.96 597.172C1829.31 597.172 1831.17 596.703 1832.53 595.764C1833.9 594.825 1834.58 593.567 1834.58 591.988C1834.58 590.367 1833.92 589.236 1832.6 588.596C1831.32 587.913 1829.55 587.359 1827.28 586.932L1824.66 586.484C1822.65 586.143 1820.82 585.609 1819.16 584.884C1817.49 584.159 1816.17 583.177 1815.19 581.94C1814.21 580.703 1813.72 579.145 1813.72 577.268C1813.72 574.452 1814.8 572.255 1816.98 570.676C1819.16 569.097 1822.04 568.308 1825.62 568.308C1829.16 568.308 1832.02 569.119 1834.2 570.74C1836.41 572.319 1837.84 574.559 1838.48 577.46L1833.75 578.676C1833.36 576.415 1832.45 574.836 1831 573.94C1829.55 573.001 1827.75 572.532 1825.62 572.532C1823.49 572.532 1821.8 572.937 1820.56 573.748C1819.33 574.516 1818.71 575.668 1818.71 577.204C1818.71 578.697 1819.28 579.807 1820.44 580.532C1821.63 581.215 1823.21 581.727 1825.17 582.068L1827.8 582.516C1830.01 582.9 1832 583.433 1833.75 584.116C1835.54 584.756 1836.95 585.695 1837.97 586.932C1839.04 588.169 1839.57 589.791 1839.57 591.796C1839.57 594.868 1838.42 597.236 1836.12 598.9C1833.85 600.564 1830.8 601.396 1826.96 601.396ZM1605.79 678.396C1602.63 678.396 1599.8 677.799 1597.28 676.604C1594.81 675.409 1592.84 673.681 1591.39 671.42C1589.98 669.159 1589.28 666.428 1589.28 663.228V662.012H1594.46V663.164C1594.46 666.449 1595.51 669.031 1597.6 670.908C1599.69 672.785 1602.42 673.724 1605.79 673.724C1609.21 673.724 1611.85 672.849 1613.73 671.1C1615.65 669.308 1616.61 667.068 1616.61 664.38V663.868C1616.61 661.905 1616.14 660.327 1615.2 659.132C1614.26 657.895 1612.98 656.999 1611.36 656.444C1609.78 655.847 1608.03 655.548 1606.11 655.548H1598.82V649.084L1615.9 638.14V637.372H1590.37V632.7H1621.41V639.932L1604.7 650.684V651.452H1607.9C1610.42 651.452 1612.73 651.921 1614.82 652.86C1616.95 653.756 1618.63 655.121 1619.87 656.956C1621.15 658.748 1621.79 661.009 1621.79 663.74V664.444C1621.79 667.26 1621.13 669.713 1619.81 671.804C1618.49 673.895 1616.63 675.516 1614.24 676.668C1611.85 677.82 1609.03 678.396 1605.79 678.396ZM1641.79 678.396C1638.51 678.396 1635.67 677.777 1633.28 676.54C1630.89 675.26 1629.04 673.511 1627.71 671.292C1626.39 669.031 1625.73 666.428 1625.73 663.484V662.716H1630.91V663.292C1630.91 666.663 1631.89 669.244 1633.86 671.036C1635.82 672.828 1638.42 673.724 1641.66 673.724C1645.08 673.724 1647.74 672.764 1649.66 670.844C1651.58 668.924 1652.54 666.3 1652.54 662.972V662.396C1652.54 659.196 1651.61 656.657 1649.73 654.78C1647.89 652.86 1645.5 651.9 1642.56 651.9C1640.85 651.9 1639.45 652.177 1638.34 652.732C1637.23 653.244 1636.35 653.905 1635.71 654.716C1635.07 655.484 1634.54 656.231 1634.11 656.956H1627.07V632.7H1656.51V637.372H1632.26V652.86H1633.15C1633.62 652.007 1634.26 651.175 1635.07 650.364C1635.93 649.553 1637.06 648.871 1638.46 648.316C1639.87 647.761 1641.62 647.484 1643.71 647.484C1646.32 647.484 1648.66 648.081 1650.75 649.276C1652.89 650.471 1654.57 652.177 1655.81 654.396C1657.09 656.615 1657.73 659.26 1657.73 662.332V663.036C1657.73 666.065 1657.09 668.732 1655.81 671.036C1654.53 673.34 1652.69 675.153 1650.3 676.476C1647.92 677.756 1645.08 678.396 1641.79 678.396ZM1663.02 685.5V682.3H1664.87C1666.41 682.3 1667.18 681.532 1667.18 679.996V677.948H1666.28C1665.04 677.948 1664 677.564 1663.15 676.796C1662.33 676.028 1661.93 675.068 1661.93 673.916C1661.93 672.679 1662.33 671.676 1663.15 670.908C1664 670.14 1665.04 669.756 1666.28 669.756C1667.52 669.756 1668.54 670.161 1669.35 670.972C1670.16 671.783 1670.57 672.807 1670.57 674.044V679.996C1670.57 683.665 1668.73 685.5 1665.07 685.5H1663.02ZM1691.2 678.396C1686.12 678.396 1682.07 676.903 1679.04 673.916C1676.05 670.887 1674.56 666.364 1674.56 660.348V649.852C1674.56 643.879 1676.05 639.377 1679.04 636.348C1682.07 633.319 1686.12 631.804 1691.2 631.804C1696.32 631.804 1700.37 633.319 1703.36 636.348C1706.39 639.377 1707.9 643.879 1707.9 649.852V660.348C1707.9 666.364 1706.39 670.887 1703.36 673.916C1700.37 676.903 1696.32 678.396 1691.2 678.396ZM1691.2 673.724C1695.04 673.724 1697.92 672.572 1699.84 670.268C1701.76 667.964 1702.72 664.743 1702.72 660.604V649.532C1702.72 645.393 1701.74 642.193 1699.78 639.932C1697.81 637.628 1694.95 636.476 1691.2 636.476C1687.45 636.476 1684.59 637.628 1682.62 639.932C1680.7 642.236 1679.74 645.436 1679.74 649.532V660.604C1679.74 664.785 1680.7 668.028 1682.62 670.332C1684.54 672.593 1687.4 673.724 1691.2 673.724ZM1729.64 678.396C1724.56 678.396 1720.51 676.903 1717.48 673.916C1714.49 670.887 1713 666.364 1713 660.348V649.852C1713 643.879 1714.49 639.377 1717.48 636.348C1720.51 633.319 1724.56 631.804 1729.64 631.804C1734.76 631.804 1738.81 633.319 1741.8 636.348C1744.83 639.377 1746.34 643.879 1746.34 649.852V660.348C1746.34 666.364 1744.83 670.887 1741.8 673.916C1738.81 676.903 1734.76 678.396 1729.64 678.396ZM1729.64 673.724C1733.48 673.724 1736.36 672.572 1738.28 670.268C1740.2 667.964 1741.16 664.743 1741.16 660.604V649.532C1741.16 645.393 1740.18 642.193 1738.22 639.932C1736.25 637.628 1733.39 636.476 1729.64 636.476C1725.89 636.476 1723.03 637.628 1721.06 639.932C1719.14 642.236 1718.18 645.436 1718.18 649.532V660.604C1718.18 664.785 1719.14 668.028 1721.06 670.332C1722.98 672.593 1725.84 673.724 1729.64 673.724ZM1768.08 678.396C1763 678.396 1758.95 676.903 1755.92 673.916C1752.93 670.887 1751.44 666.364 1751.44 660.348V649.852C1751.44 643.879 1752.93 639.377 1755.92 636.348C1758.95 633.319 1763 631.804 1768.08 631.804C1773.2 631.804 1777.25 633.319 1780.24 636.348C1783.27 639.377 1784.78 643.879 1784.78 649.852V660.348C1784.78 666.364 1783.27 670.887 1780.24 673.916C1777.25 676.903 1773.2 678.396 1768.08 678.396ZM1768.08 673.724C1771.92 673.724 1774.8 672.572 1776.72 670.268C1778.64 667.964 1779.6 664.743 1779.6 660.604V649.532C1779.6 645.393 1778.62 642.193 1776.66 639.932C1774.69 637.628 1771.83 636.476 1768.08 636.476C1764.33 636.476 1761.47 637.628 1759.5 639.932C1757.58 642.236 1756.62 645.436 1756.62 649.532V660.604C1756.62 664.785 1757.58 668.028 1759.5 670.332C1761.42 672.593 1764.28 673.724 1768.08 673.724Z" fill="black"/>
</svg>
