<svg width="620" height="432" viewBox="0 0 620 432" fill="none" xmlns="http://www.w3.org/2000/svg">
<g clip-path="url(#clip0_659_3606)">
<path d="M294.412 343.754L560.759 121.108V121.108C620.093 192.088 610.652 297.729 539.672 357.063L530.367 364.841C459.387 424.175 353.746 414.734 294.412 343.754V343.754Z" fill="#FF854B"/>
<rect width="161.253" height="161.253" rx="72" transform="matrix(-1 0 0 1 598.252 191)" fill="#43A574"/>
<rect x="54.6272" y="213" width="132.789" height="74.9973" transform="rotate(32.8005 54.6272 213)" fill="#43A574"/>
<path d="M499.313 14.9421C511.022 7.46943 526.64 12.544 531.72 25.4717L534.277 31.9795C536.965 38.8184 542.88 43.8707 550.055 45.4552L556.883 46.963C570.446 49.9582 577.902 64.5902 572.353 77.3236L569.559 83.7336C566.624 90.4697 567.234 98.2252 571.187 104.419L574.949 110.313C582.422 122.022 577.347 137.64 564.419 142.72L557.911 145.277C551.073 147.965 546.02 153.88 544.436 161.055L542.928 167.883C539.933 181.446 525.301 188.902 512.567 183.353L506.157 180.559C499.421 177.624 491.666 178.234 485.472 182.187L479.578 185.949C467.869 193.422 452.251 188.347 447.171 175.419L444.614 168.912C441.926 162.073 436.011 157.02 428.836 155.436L422.008 153.928C408.445 150.933 400.989 136.301 406.538 123.567L409.332 117.157C412.267 110.421 411.657 102.666 407.704 96.4719L403.942 90.5778C396.469 78.8692 401.544 63.2511 414.472 58.171L420.979 55.6137C427.818 52.9263 432.871 47.0108 434.455 39.8357L435.963 33.0079C438.958 19.4447 453.59 11.9894 466.324 17.5385L472.734 20.3319C479.47 23.2674 487.225 22.657 493.419 18.7039L499.313 14.9421Z" fill="#89C0FF"/>
<path fill-rule="evenodd" clip-rule="evenodd" d="M522.857 56.158C544.201 52.7144 564.296 67.2259 567.74 88.5703C571.183 109.915 556.672 130.009 535.327 133.453L451.087 147.044C450.321 147.167 449.557 147.268 448.795 147.346L441.887 155.209C440.771 156.479 438.68 155.877 438.41 154.207L437.215 146.802C421.636 143.702 408.883 131.234 406.204 114.632C402.761 93.2872 417.272 73.1925 438.617 69.7489L522.857 56.158Z" fill="white"/>
<path d="M450.522 116.181L447.492 98.2351L451.209 97.6074L452.43 104.837L460.685 103.443L459.465 96.2134L463.182 95.5857L466.212 113.532L462.495 114.159L461.252 106.801L452.997 108.195L454.24 115.553L450.522 116.181ZM475.825 112.172C474.492 112.397 473.226 112.294 472.029 111.864C470.848 111.43 469.853 110.746 469.045 109.81C468.236 108.874 467.723 107.757 467.503 106.458C467.284 105.159 467.385 103.938 467.807 102.794C468.247 101.648 468.936 100.679 469.874 99.8874C470.813 99.096 471.923 98.5921 473.205 98.3757C474.487 98.1592 475.677 98.2835 476.775 98.7485C477.873 99.2135 478.795 99.9367 479.541 100.918C480.304 101.897 480.801 103.07 481.032 104.437L481.187 105.36L471.292 107.031C471.535 107.535 471.863 107.972 472.277 108.341C472.709 108.708 473.201 108.968 473.754 109.12C474.324 109.27 474.908 109.295 475.506 109.193C476.105 109.092 476.636 108.906 477.1 108.634C477.581 108.36 477.972 108.021 478.273 107.619L480.935 109.331C480.227 110.137 479.464 110.767 478.644 111.221C477.841 111.673 476.902 111.99 475.825 112.172ZM470.816 104.527L477.302 103.432C477.093 102.922 476.793 102.498 476.402 102.16C476.025 101.802 475.596 101.549 475.114 101.402C474.646 101.235 474.147 101.196 473.617 101.286C473.07 101.378 472.594 101.573 472.187 101.87C471.78 102.167 471.457 102.547 471.219 103.009C470.995 103.451 470.86 103.957 470.816 104.527ZM484.266 110.483L481.235 92.5371L484.648 91.3543L487.778 109.89L484.266 110.483ZM490.525 109.426L487.494 91.4801L490.907 90.2974L494.037 108.833L490.525 109.426ZM503.339 107.526C502.006 107.751 500.749 107.647 499.568 107.213C498.388 106.78 497.393 106.095 496.585 105.16C495.776 104.224 495.262 103.106 495.043 101.807C494.824 100.508 494.934 99.2858 495.373 98.1393C495.826 96.9728 496.539 95.9911 497.512 95.1939C498.502 94.3939 499.664 93.8814 500.997 93.6563C502.33 93.4312 503.587 93.5353 504.768 93.9688C505.965 94.3994 506.961 95.0925 507.756 96.0483C508.564 96.9841 509.078 98.1015 509.297 99.4004C509.517 100.699 509.398 101.923 508.942 103.073C508.503 104.219 507.796 105.191 506.824 105.988C505.851 106.785 504.689 107.298 503.339 107.526ZM502.824 104.475C503.525 104.357 504.12 104.081 504.609 103.646C505.115 103.209 505.481 102.673 505.708 102.037C505.949 101.381 506.009 100.694 505.887 99.9762C505.763 99.2413 505.481 98.6121 505.041 98.0887C504.619 97.5624 504.096 97.176 503.474 96.9294C502.867 96.6629 502.213 96.5887 501.512 96.7071C500.828 96.8225 500.235 97.1073 499.731 97.5615C499.225 97.9986 498.859 98.5351 498.632 99.171C498.406 99.8069 498.354 100.492 498.478 101.227C498.6 101.945 498.873 102.576 499.299 103.119C499.722 103.645 500.244 104.032 500.866 104.278C501.487 104.525 502.14 104.591 502.824 104.475ZM512.032 100.257L509.453 87.6403L513.016 87.0386L514.723 99.8025L512.032 100.257ZM514.317 105.672C513.753 105.767 513.231 105.645 512.752 105.304C512.272 104.963 511.985 104.51 511.89 103.946C511.792 103.365 511.913 102.835 512.254 102.355C512.595 101.876 513.047 101.589 513.611 101.493C514.193 101.395 514.723 101.517 515.202 101.857C515.682 102.198 515.971 102.659 516.069 103.241C516.164 103.805 516.041 104.326 515.7 104.806C515.359 105.285 514.898 105.574 514.317 105.672Z" fill="#34322A"/>
<path d="M135.481 23C158.897 23 177.881 41.9832 177.881 65.4002V65.4002C177.881 88.8171 158.897 107.8 135.48 107.8L63.4001 107.8C39.9831 107.8 21 88.8171 21 65.4002V65.4002C21 41.9832 39.9832 23 63.4001 23L135.481 23Z" fill="white"/>
<rect x="57.4644" y="50.6926" width="11.2472" height="29.6399" rx="5.6236" fill="#FF854B"/>
<rect x="75.4961" y="46.6033" width="11.2472" height="37.8165" rx="5.6236" fill="#FF854B"/>
<rect x="93.5278" y="39.9601" width="11.2472" height="51.1034" rx="5.6236" fill="#FF854B"/>
<rect x="111.558" y="46.6033" width="11.2472" height="37.8165" rx="5.6236" fill="#FF854B"/>
<rect x="129.59" y="50.6926" width="11.2472" height="29.6399" rx="5.6236" fill="#FF854B"/>
<path d="M76.6484 381.23C76.6484 384.793 76.2617 388.098 75.4883 391.145C74.7383 394.168 73.543 396.84 71.9023 399.16C70.2852 401.457 68.1641 403.332 65.5391 404.785L78.0898 419.234H60.793L52.1445 407.703C52.1211 407.703 52.0391 407.703 51.8984 407.703C51.7812 407.703 51.6992 407.703 51.6523 407.703C47.3398 407.703 43.6016 407.082 40.4375 405.84C37.2969 404.574 34.707 402.781 32.668 400.461C30.6289 398.117 29.1172 395.316 28.1328 392.059C27.1484 388.801 26.6562 385.168 26.6562 381.16C26.6562 375.816 27.5352 371.176 29.293 367.238C31.0742 363.277 33.8164 360.219 37.5195 358.062C41.2227 355.883 45.957 354.793 51.7227 354.793C57.582 354.793 62.3398 355.883 65.9961 358.062C69.6758 360.242 72.3711 363.312 74.082 367.273C75.793 371.234 76.6484 375.887 76.6484 381.23ZM41.2812 381.23C41.2812 384.324 41.6328 386.984 42.3359 389.211C43.0391 391.438 44.1523 393.148 45.6758 394.344C47.1992 395.539 49.1914 396.137 51.6523 396.137C54.207 396.137 56.2344 395.539 57.7344 394.344C59.2578 393.148 60.3477 391.438 61.0039 389.211C61.6836 386.984 62.0234 384.324 62.0234 381.23C62.0234 376.59 61.25 372.922 59.7031 370.227C58.1562 367.531 55.4961 366.184 51.7227 366.184C49.2148 366.184 47.1875 366.793 45.6406 368.012C44.1172 369.23 43.0039 370.965 42.3008 373.215C41.6211 375.465 41.2812 378.137 41.2812 381.23ZM119.548 407L115.365 389.562C115.154 388.672 114.943 387.664 114.732 386.539C114.521 385.391 114.31 384.242 114.099 383.094C113.912 381.945 113.748 380.891 113.607 379.93C113.466 378.969 113.361 378.219 113.291 377.68H113.08C113.009 378.219 112.892 378.98 112.728 379.965C112.564 380.926 112.377 381.992 112.166 383.164C111.955 384.336 111.72 385.531 111.463 386.75C111.228 387.945 110.994 389.059 110.759 390.09L106.716 407H92.2672L81.4039 367.168H94.9391L98.1734 382.461C98.4078 383.586 98.6422 384.934 98.8766 386.504C99.1344 388.051 99.357 389.633 99.5445 391.25C99.7555 392.844 99.8961 394.273 99.9664 395.539H100.177C100.224 394.578 100.33 393.477 100.494 392.234C100.681 390.969 100.88 389.715 101.091 388.473C101.326 387.23 101.537 386.141 101.724 385.203C101.912 384.242 102.041 383.586 102.111 383.234L105.802 367.168H120.99L124.365 383.445C124.576 384.359 124.81 385.531 125.068 386.961C125.349 388.367 125.607 389.844 125.841 391.391C126.099 392.914 126.287 394.297 126.404 395.539H126.615C126.709 394.25 126.849 392.785 127.037 391.145C127.224 389.504 127.435 387.91 127.67 386.363C127.927 384.793 128.173 383.492 128.408 382.461L131.923 367.168H145.177L134.244 407H119.548ZM188.991 386.996C188.991 390.324 188.534 393.277 187.62 395.855C186.706 398.434 185.382 400.602 183.648 402.359C181.913 404.117 179.816 405.453 177.355 406.367C174.894 407.258 172.116 407.703 169.023 407.703C166.14 407.703 163.491 407.258 161.077 406.367C158.687 405.453 156.601 404.117 154.82 402.359C153.038 400.602 151.655 398.434 150.671 395.855C149.71 393.277 149.23 390.324 149.23 386.996C149.23 382.59 150.027 378.863 151.62 375.816C153.238 372.77 155.534 370.449 158.511 368.855C161.511 367.262 165.085 366.465 169.234 366.465C173.054 366.465 176.452 367.262 179.429 368.855C182.405 370.449 184.738 372.77 186.425 375.816C188.136 378.863 188.991 382.59 188.991 386.996ZM163.187 386.996C163.187 389.27 163.386 391.191 163.784 392.762C164.183 394.309 164.816 395.492 165.683 396.312C166.573 397.109 167.734 397.508 169.163 397.508C170.593 397.508 171.73 397.109 172.573 396.312C173.417 395.492 174.027 394.309 174.402 392.762C174.8 391.191 174.999 389.27 174.999 386.996C174.999 384.723 174.8 382.824 174.402 381.301C174.027 379.777 173.405 378.629 172.538 377.855C171.695 377.082 170.546 376.695 169.093 376.695C167.007 376.695 165.495 377.562 164.558 379.297C163.644 381.031 163.187 383.598 163.187 386.996ZM210.833 352.297V373.812C210.833 375.43 210.762 377.234 210.622 379.227C210.505 381.195 210.317 382.988 210.059 384.605H210.341C210.88 383.785 211.559 382.754 212.38 381.512C213.2 380.27 213.938 379.238 214.595 378.418L223.524 367.168H238.852L225.036 384.113L239.731 407H224.016L215.298 392.727L210.833 396.137V407H197.016V352.297H210.833ZM258.444 352.297V373.812C258.444 375.43 258.373 377.234 258.233 379.227C258.116 381.195 257.928 382.988 257.67 384.605H257.952C258.491 383.785 259.17 382.754 259.991 381.512C260.811 380.27 261.549 379.238 262.205 378.418L271.135 367.168H286.463L272.647 384.113L287.342 407H271.627L262.909 392.727L258.444 396.137V407H244.627V352.297H258.444ZM311.68 366.465C316.719 366.465 320.656 367.719 323.492 370.227C326.328 372.711 327.746 376.262 327.746 380.879V407H318.219L315.582 401.727H315.301C314.176 403.133 313.016 404.281 311.82 405.172C310.648 406.039 309.301 406.672 307.777 407.07C306.254 407.492 304.391 407.703 302.188 407.703C299.891 407.703 297.828 407.234 296 406.297C294.172 405.359 292.73 403.941 291.676 402.043C290.621 400.145 290.094 397.742 290.094 394.836C290.094 390.57 291.57 387.406 294.523 385.344C297.477 383.281 301.754 382.121 307.355 381.863L314 381.652V381.09C314 379.309 313.555 378.043 312.664 377.293C311.797 376.543 310.625 376.168 309.148 376.168C307.578 376.168 305.82 376.449 303.875 377.012C301.953 377.551 300.02 378.254 298.074 379.121L294.102 370.051C296.398 368.879 299 367.988 301.906 367.379C304.812 366.77 308.07 366.465 311.68 366.465ZM314.07 389.211L310.906 389.352C308.375 389.445 306.594 389.891 305.562 390.688C304.555 391.461 304.051 392.574 304.051 394.027C304.051 395.387 304.414 396.395 305.141 397.051C305.867 397.684 306.828 398 308.023 398C309.688 398 311.105 397.473 312.277 396.418C313.473 395.363 314.07 393.992 314.07 392.305V389.211ZM388.445 407L385.913 397.367H369.214L366.612 407H351.355L368.124 355.391H386.652L403.632 407H388.445ZM383.03 385.977L380.816 377.539C380.581 376.625 380.241 375.324 379.796 373.637C379.351 371.926 378.905 370.168 378.46 368.363C378.038 366.535 377.71 365.035 377.476 363.863C377.265 365.035 376.96 366.488 376.562 368.223C376.187 369.934 375.788 371.633 375.366 373.32C374.968 375.008 374.616 376.414 374.312 377.539L372.097 385.977H383.03ZM409.372 407V355.602H423.329V407H409.372Z" fill="url(#paint0_linear_659_3606)"/>
<path d="M394.62 266.849C394.381 266.849 394.141 266.789 393.962 266.609C393.602 266.25 393.602 265.711 393.962 265.352L405.4 253.913C405.759 253.554 406.298 253.554 406.658 253.913C407.017 254.273 407.017 254.812 406.658 255.171L395.219 266.609C395.099 266.729 394.86 266.849 394.62 266.849Z" fill="#097CFF"/>
<path d="M386.835 264.094C386.356 264.094 385.937 263.675 385.937 263.196V233.372C385.937 232.893 386.356 232.474 386.835 232.474C387.314 232.474 387.733 232.893 387.733 233.372V263.196C387.733 263.675 387.374 264.094 386.835 264.094Z" fill="#097CFF"/>
<path d="M179.268 288.228C178.789 288.228 178.37 287.809 178.37 287.33V257.506C178.37 257.027 178.789 256.608 179.268 256.608C179.747 256.608 180.166 257.027 180.166 257.506V287.33C180.166 287.809 179.747 288.228 179.268 288.228Z" fill="#097CFF"/>
<path d="M170.405 291.462C170.165 291.462 169.926 291.402 169.746 291.223L158.308 279.784C157.948 279.425 157.948 278.886 158.308 278.527C158.667 278.167 159.206 278.167 159.565 278.527L171.004 289.965C171.363 290.324 171.363 290.863 171.004 291.223C170.824 291.342 170.644 291.462 170.405 291.462Z" fill="#097CFF"/>
<path d="M371.085 313.92C369.768 313.92 368.45 313.68 367.192 313.201C361.264 311.045 358.269 304.518 360.425 298.589L363 291.522C353.538 289.546 340.543 286.013 327.547 279.964C293.113 263.974 275.566 238.403 276.823 206.064C277.063 199.776 282.333 194.865 288.621 195.105C294.909 195.344 299.82 200.614 299.58 206.902C299.101 219.419 302.455 230.019 309.941 239.301C316.169 247.026 325.152 253.674 336.71 259.124C357.551 268.945 379.349 271.221 379.589 271.221C383.062 271.58 386.236 273.496 388.093 276.491C389.949 279.485 390.369 283.138 389.171 286.432L381.865 306.374C380.128 311.045 375.756 313.92 371.085 313.92Z" fill="#097CFF"/>
<path d="M196.575 335C192.922 335 189.329 333.263 187.173 330.029L175.255 312.423C173.279 309.488 172.74 305.835 173.878 302.481C174.956 299.128 177.531 296.493 180.885 295.295C181.064 295.235 201.665 287.749 219.512 273.137C229.393 265.052 236.519 256.369 240.651 247.386C245.622 236.606 246.341 225.527 242.807 213.49C241.071 207.441 244.484 201.153 250.533 199.357C256.581 197.62 262.869 201.033 264.666 207.082C273.709 238.163 262.929 267.208 233.405 291.103C222.266 300.146 210.529 306.674 201.785 310.926L206.037 317.154C209.57 322.364 208.193 329.43 202.983 332.964C201.007 334.341 198.791 335 196.575 335Z" fill="#097CFF"/>
<path d="M357.55 187.2C355.754 187.2 353.957 186.78 352.28 185.882C346.711 182.948 344.555 176.061 347.49 170.491C360.605 145.578 382.044 126.774 409.472 116.114C430.013 108.149 446.842 107.55 447.56 107.55C453.848 107.371 459.118 112.281 459.298 118.57C459.478 124.858 454.567 130.068 448.339 130.307C448.099 130.307 434.026 130.966 417.018 137.673C394.86 146.417 378.271 161.089 367.671 181.151C365.575 184.984 361.623 187.2 357.55 187.2Z" fill="#097CFF"/>
<path d="M185.017 199.357C182.142 199.357 179.268 198.279 177.052 196.063C160.523 179.774 139.623 169.234 114.83 164.742C95.9655 161.269 81.7724 162.826 81.6526 162.826C75.4244 163.544 69.795 159.053 69.0764 152.825C68.3577 146.596 72.7894 140.967 79.0176 140.248C81.7125 139.949 145.432 133.002 192.982 179.893C197.473 184.325 197.533 191.511 193.102 196.003C190.886 198.219 187.951 199.357 185.017 199.357Z" fill="#097CFF"/>
<path d="M196.935 224.749L350.783 213.969C362.761 213.131 371.804 202.71 370.965 190.733L362.461 69.1031C361.084 49.64 338.087 40.0581 323.295 52.7541L270.655 98.0883C267.661 100.663 263.349 100.963 260.055 98.8069L201.725 61.258C185.316 50.6581 163.817 63.354 165.195 82.8771L173.698 204.507C174.597 216.544 184.957 225.527 196.935 224.749Z" fill="#097CFF"/>
<path d="M343.298 202.77L203.043 212.532C193.821 213.191 185.796 206.184 185.137 196.961L180.825 134.859C180.167 125.636 187.173 117.611 196.396 116.953L336.65 107.191C345.873 106.532 353.898 113.539 354.557 122.762L358.868 184.864C359.467 194.147 352.52 202.171 343.298 202.77Z" fill="black"/>
<path d="M272.751 183.127C269.038 183.127 266.044 180.133 266.044 176.42C266.044 172.707 269.038 169.713 272.751 169.713C276.464 169.713 279.458 172.707 279.458 176.42C279.458 180.133 276.464 183.127 272.751 183.127ZM272.751 173.306C271.014 173.306 269.637 174.743 269.637 176.42C269.637 178.097 271.074 179.534 272.751 179.534C274.488 179.534 275.865 178.097 275.865 176.42C275.865 174.743 274.488 173.306 272.751 173.306Z" fill="white"/>
<path d="M216.038 161.388C215.679 156.238 217.356 151.208 220.769 147.255C224.183 143.363 228.914 140.967 234.064 140.608C234.543 140.548 234.963 140.548 235.442 140.548C245.563 140.548 254.066 148.513 254.785 158.634C254.845 159.352 254.845 160.071 254.845 160.79C254.725 164.023 257.42 166.599 260.594 166.359C263.289 166.179 265.505 163.964 265.625 161.269C265.684 160.131 265.684 158.993 265.565 157.855C264.427 141.925 251.192 129.768 235.442 129.768C234.723 129.768 234.004 129.768 233.286 129.828C216.637 130.966 204.121 145.459 205.259 162.047C205.319 163.185 205.498 164.323 205.678 165.401C206.157 168.096 208.612 169.952 211.367 169.773C214.601 169.533 216.877 166.599 216.278 163.425C216.158 162.826 216.098 162.107 216.038 161.388Z" fill="white"/>
<path d="M287.124 156.418C286.764 151.268 288.441 146.237 291.855 142.285C295.268 138.392 299.999 135.997 305.15 135.637C305.629 135.577 306.048 135.577 306.527 135.577C316.648 135.577 325.152 143.542 325.87 153.663C325.93 154.382 325.93 155.1 325.93 155.819C325.81 159.053 328.505 161.628 331.679 161.389C334.374 161.209 336.59 158.993 336.71 156.298C336.77 155.16 336.77 154.082 336.65 152.945C335.512 137.015 322.277 124.858 306.527 124.858C305.808 124.858 305.09 124.858 304.371 124.918C287.722 126.055 275.206 140.548 276.344 157.137C276.404 158.274 276.584 159.412 276.763 160.49C277.242 163.185 279.698 165.042 282.452 164.862C285.686 164.622 287.962 161.688 287.363 158.514C287.243 157.855 287.124 157.137 287.124 156.418Z" fill="white"/>
</g>
<defs>
<linearGradient id="paint0_linear_659_3606" x1="48.0239" y1="341.49" x2="93.9616" y2="485.742" gradientUnits="userSpaceOnUse">
<stop offset="0.0545422" stop-color="#097CFF"/>
<stop offset="0.897433" stop-color="#064A99"/>
</linearGradient>
<clipPath id="clip0_659_3606">
<rect width="620" height="432" rx="20" fill="white"/>
</clipPath>
</defs>
</svg>
