<svg width="512" height="512" viewBox="0 0 512 512" fill="none" xmlns="http://www.w3.org/2000/svg">
<path d="M277.128 419C270.29 419 264.754 413.464 264.754 406.626V396.726C246.258 392.298 227.761 378.556 215.973 359.734C207.963 346.904 203.208 332.12 202.362 317.01C201.385 299.816 205.162 282.362 213.564 265.038C216.559 258.916 223.984 256.311 230.106 259.307C236.228 262.303 238.833 269.727 235.837 275.849C219.425 309.651 229.52 334.66 237.01 346.643C245.151 359.604 261.172 373.541 277.194 373.541C277.194 373.541 277.194 373.541 277.259 373.541C280.515 373.541 283.706 374.843 285.986 377.188C288.33 379.533 289.633 382.659 289.633 385.915V406.691C289.503 413.464 283.967 419 277.128 419Z" fill="#097CFF"/>
<path d="M223.27 419H201.713C194.875 419 189.339 413.464 189.339 406.625C189.339 399.787 194.875 394.251 201.713 394.251H213.632L244.828 270.638C246.521 263.995 253.229 260.022 259.872 261.651C266.515 263.344 270.488 270.052 268.86 276.695L235.319 409.686C233.886 415.157 228.937 419 223.27 419Z" fill="#097CFF"/>
<path d="M131.88 289.395L144.189 354.393H184.959L197.138 289.395H131.88Z" fill="black"/>
<path d="M321.613 418.935C321.417 418.935 321.287 418.804 321.287 418.609V312.19C321.287 311.995 321.417 311.865 321.613 311.865H426.794C426.99 311.865 427.12 311.995 427.12 312.19C427.12 312.386 426.99 312.516 426.794 312.516H321.938V418.609C321.938 418.739 321.808 418.935 321.613 418.935Z" fill="#097CFF"/>
<path d="M309.951 339.154C309.626 339.154 309.3 339.154 308.909 339.088C302.071 338.502 297.056 332.576 297.577 325.737C299.596 300.728 319.981 287.702 338.999 287.702H375.665C367.003 278.454 353.587 266.015 347.986 260.87C342.971 256.246 342.646 248.365 347.335 243.35C351.959 238.335 359.839 238.01 364.854 242.699C381.136 257.809 390.775 267.252 396.897 274.286C401.847 279.887 410.965 290.373 406.666 301.184C402.172 312.581 388.496 312.451 381.918 312.451H338.999C333.267 312.451 323.238 315.707 322.196 327.756C321.74 334.269 316.334 339.154 309.951 339.154Z" fill="#097CFF"/>
<path d="M141.722 335.636C114.629 335.636 93.9185 320.266 86.7544 294.28C82.1955 277.737 86.6893 256.831 98.2821 241.005C110.2 224.658 128.306 215.215 149.277 214.303C156.116 214.042 161.847 219.318 162.172 226.156C162.433 232.995 157.158 238.726 150.319 239.052C133.321 239.768 123.552 248.43 118.341 255.594C110.135 266.861 108.637 280.147 110.721 287.702C116.909 310.106 135.926 311.669 146.737 310.627C153.51 309.976 159.567 314.925 160.284 321.699C160.935 328.472 155.985 334.529 149.212 335.245C146.607 335.506 144.132 335.636 141.722 335.636Z" fill="#097CFF"/>
<path d="M166.54 273.309L332.616 296.625C345.577 298.448 357.495 289.461 359.319 276.5L377.815 145.202C380.746 124.166 358.472 108.796 339.845 118.956L273.61 155.297C269.833 157.381 265.209 156.73 262.148 153.669L208.613 100.525C193.503 85.5452 167.843 94.2072 164.847 115.243L146.416 246.541C144.527 259.567 153.58 271.485 166.54 273.309Z" fill="#097CFF"/>
<path d="M327.136 283.078L175.779 261.716C165.814 260.284 158.845 251.1 160.278 241.136L169.722 174.054C171.154 164.09 180.337 157.121 190.302 158.554L341.659 179.916C351.624 181.348 358.593 190.532 357.16 200.496L347.716 267.578C346.283 277.542 337.1 284.511 327.136 283.078Z" fill="black"/>
<path d="M230.69 259.502C230.56 259.502 230.429 259.502 230.299 259.437C229.257 259.176 228.606 258.199 228.801 257.092C229.452 253.966 231.732 252.533 234.076 251.947C232.383 249.016 232.709 245.89 232.709 245.695C232.839 244.653 233.751 243.871 234.858 243.936C235.9 244.066 236.682 244.978 236.616 246.085C236.616 246.281 236.291 250.319 239.808 252.077C240.72 252.533 241.11 253.51 240.785 254.487C240.459 255.399 239.482 255.985 238.505 255.789C238.31 255.724 233.23 254.747 232.579 257.939C232.383 258.85 231.602 259.502 230.69 259.502Z" fill="white"/>
<path d="M318.421 215.085C317.64 220.686 314.709 225.635 310.215 229.022C305.721 232.409 300.12 233.841 294.584 233.06C294.063 232.995 293.607 232.93 293.086 232.799C282.275 230.52 275.046 220.165 276.609 209.223C276.739 208.442 276.87 207.66 277.065 206.944C277.912 203.557 275.697 200.17 272.18 199.714C269.25 199.324 266.449 201.147 265.668 204.013C265.342 205.185 265.147 206.423 264.951 207.66C262.541 224.854 273.874 240.81 290.612 244.392C291.393 244.522 292.11 244.718 292.891 244.783C310.866 247.323 327.474 234.818 330.014 216.843C330.209 215.606 330.274 214.368 330.34 213.196C330.405 210.2 328.255 207.725 325.26 207.269C321.808 206.813 318.682 209.418 318.617 212.935C318.617 213.522 318.551 214.303 318.421 215.085Z" fill="white"/>
<path d="M241.702 204.273C240.921 209.874 237.99 214.824 233.496 218.211C229.003 221.597 223.402 223.03 217.866 222.249C217.345 222.183 216.889 222.118 216.368 221.988C205.556 219.709 198.327 209.353 199.89 198.412C200.021 197.63 200.151 196.849 200.346 196.132C201.193 192.746 198.979 189.359 195.462 188.903C192.531 188.512 189.73 190.336 188.949 193.202C188.623 194.374 188.428 195.611 188.232 196.784C185.823 213.977 197.155 229.934 213.893 233.516C214.674 233.646 215.391 233.841 216.172 233.906C234.148 236.446 250.755 223.942 253.295 205.967C253.491 204.729 253.556 203.492 253.621 202.319C253.686 199.324 251.537 196.849 248.541 196.393C245.089 195.937 241.963 198.542 241.898 202.059C241.898 202.71 241.833 203.492 241.702 204.273Z" fill="white"/>
<path d="M158.011 343.191C157.751 343.191 157.425 343.125 157.165 342.995C156.188 342.539 155.797 341.367 156.253 340.39L196.763 256.57C201.582 246.606 213.435 242.112 223.66 246.345L234.081 250.709C235.058 251.1 235.579 252.272 235.123 253.249C234.667 254.226 233.56 254.747 232.583 254.291L222.162 249.927C213.826 246.476 204.187 250.123 200.279 258.264L159.77 342.083C159.444 342.8 158.728 343.191 158.011 343.191Z" fill="white"/>
</svg>
