<svg xmlns="http://www.w3.org/2000/svg" class="recharts-surface" width="558" height="300" viewBox="0 0 558 300" style="width: 100%; height: 100%;"><title/><desc/><defs><clipPath id="recharts1-clip"><rect x="65" y="5" height="236" width="488"/></clipPath></defs><g class="recharts-layer recharts-cartesian-axis recharts-xAxis xAxis"><line orientation="bottom" width="488" height="30" x="65" y="241" class="recharts-cartesian-axis-line" stroke="#666" fill="none" x1="65" y1="241" x2="553" y2="241"/><g class="recharts-cartesian-axis-ticks"><g class="recharts-layer recharts-cartesian-axis-tick"><line orientation="bottom" width="488" height="30" x="65" y="241" class="recharts-cartesian-axis-tick-line" stroke="#666" fill="none" x1="105.66666666666666" y1="247" x2="105.66666666666666" y2="241"/><text orientation="bottom" width="488" height="30" stroke="none" x="105.66666666666666" y="249" class="recharts-text recharts-cartesian-axis-tick-value" text-anchor="middle" fill="#666"><tspan x="105.66666666666666" dy="0.71em">$0</tspan></text></g><g class="recharts-layer recharts-cartesian-axis-tick"><line orientation="bottom" width="488" height="30" x="65" y="241" class="recharts-cartesian-axis-tick-line" stroke="#666" fill="none" x1="186.99999999999997" y1="247" x2="186.99999999999997" y2="241"/><text orientation="bottom" width="488" height="30" stroke="none" x="186.99999999999997" y="249" class="recharts-text recharts-cartesian-axis-tick-value" text-anchor="middle" fill="#666"><tspan x="186.99999999999997" dy="0.71em">$1-30</tspan></text></g><g class="recharts-layer recharts-cartesian-axis-tick"><line orientation="bottom" width="488" height="30" x="65" y="241" class="recharts-cartesian-axis-tick-line" stroke="#666" fill="none" x1="268.3333333333333" y1="247" x2="268.3333333333333" y2="241"/><text orientation="bottom" width="488" height="30" stroke="none" x="268.3333333333333" y="249" class="recharts-text recharts-cartesian-axis-tick-value" text-anchor="middle" fill="#666"><tspan x="268.3333333333333" dy="0.71em">$31-80</tspan></text></g><g class="recharts-layer recharts-cartesian-axis-tick"><line orientation="bottom" width="488" height="30" x="65" y="241" class="recharts-cartesian-axis-tick-line" stroke="#666" fill="none" x1="349.6666666666667" y1="247" x2="349.6666666666667" y2="241"/><text orientation="bottom" width="488" height="30" stroke="none" x="349.6666666666667" y="249" class="recharts-text recharts-cartesian-axis-tick-value" text-anchor="middle" fill="#666"><tspan x="349.6666666666667" dy="0.71em">$81-200</tspan></text></g><g class="recharts-layer recharts-cartesian-axis-tick"><line orientation="bottom" width="488" height="30" x="65" y="241" class="recharts-cartesian-axis-tick-line" stroke="#666" fill="none" x1="431" y1="247" x2="431" y2="241"/><text orientation="bottom" width="488" height="30" stroke="none" x="431" y="249" class="recharts-text recharts-cartesian-axis-tick-value" text-anchor="middle" fill="#666"><tspan x="431" dy="0.71em">$201-600</tspan></text></g><g class="recharts-layer recharts-cartesian-axis-tick"><line orientation="bottom" width="488" height="30" x="65" y="241" class="recharts-cartesian-axis-tick-line" stroke="#666" fill="none" x1="512.3333333333333" y1="247" x2="512.3333333333333" y2="241"/><text orientation="bottom" width="488" height="30" stroke="none" x="512.3333333333333" y="249" class="recharts-text recharts-cartesian-axis-tick-value" text-anchor="middle" fill="#666"><tspan x="512.3333333333333" dy="0.71em">$601+</tspan></text></g></g></g><g class="recharts-layer recharts-cartesian-axis recharts-yAxis yAxis"><line orientation="left" width="60" height="236" x="5" y="5" class="recharts-cartesian-axis-line" stroke="#666" fill="none" x1="65" y1="5" x2="65" y2="241"/><g class="recharts-cartesian-axis-ticks"><g class="recharts-layer recharts-cartesian-axis-tick"><line orientation="left" width="60" height="236" x="5" y="5" class="recharts-cartesian-axis-tick-line" stroke="#666" fill="none" x1="59" y1="241" x2="65" y2="241"/><text orientation="left" width="60" height="236" stroke="none" x="57" y="241" class="recharts-text recharts-cartesian-axis-tick-value" text-anchor="end" fill="#666"><tspan x="57" dy="0.355em">0</tspan></text></g><g class="recharts-layer recharts-cartesian-axis-tick"><line orientation="left" width="60" height="236" x="5" y="5" class="recharts-cartesian-axis-tick-line" stroke="#666" fill="none" x1="59" y1="182" x2="65" y2="182"/><text orientation="left" width="60" height="236" stroke="none" x="57" y="182" class="recharts-text recharts-cartesian-axis-tick-value" text-anchor="end" fill="#666"><tspan x="57" dy="0.355em">2</tspan></text></g><g class="recharts-layer recharts-cartesian-axis-tick"><line orientation="left" width="60" height="236" x="5" y="5" class="recharts-cartesian-axis-tick-line" stroke="#666" fill="none" x1="59" y1="123" x2="65" y2="123"/><text orientation="left" width="60" height="236" stroke="none" x="57" y="123" class="recharts-text recharts-cartesian-axis-tick-value" text-anchor="end" fill="#666"><tspan x="57" dy="0.355em">4</tspan></text></g><g class="recharts-layer recharts-cartesian-axis-tick"><line orientation="left" width="60" height="236" x="5" y="5" class="recharts-cartesian-axis-tick-line" stroke="#666" fill="none" x1="59" y1="64" x2="65" y2="64"/><text orientation="left" width="60" height="236" stroke="none" x="57" y="64" class="recharts-text recharts-cartesian-axis-tick-value" text-anchor="end" fill="#666"><tspan x="57" dy="0.355em">6</tspan></text></g><g class="recharts-layer recharts-cartesian-axis-tick"><line orientation="left" width="60" height="236" x="5" y="5" class="recharts-cartesian-axis-tick-line" stroke="#666" fill="none" x1="59" y1="5" x2="65" y2="5"/><text orientation="left" width="60" height="236" stroke="none" x="57" y="12" class="recharts-text recharts-cartesian-axis-tick-value" text-anchor="end" fill="#666"><tspan x="57" dy="0.355em">8</tspan></text></g></g></g><g class="recharts-layer recharts-bar"><g class="recharts-layer recharts-bar-rectangles"><g class="recharts-layer"><g class="recharts-layer recharts-bar-rectangle"><path x="73.13333333333333" y="152.5" width="65" height="88.5" radius="0" fill="#2563eb" name="$0" class="recharts-rectangle" d="M 73.13333333333333,152.5 h 65 v 88.5 h -65 Z"/></g><g class="recharts-layer recharts-bar-rectangle"><path x="154.46666666666664" y="123" width="65" height="118" radius="0" fill="#3b82f6" name="$1-30" class="recharts-rectangle" d="M 154.46666666666664,123 h 65 v 118 h -65 Z"/></g><g class="recharts-layer recharts-bar-rectangle"><path x="235.79999999999998" y="93.5" width="65" height="147.5" radius="0" fill="#60a5fa" name="$31-80" class="recharts-rectangle" d="M 235.79999999999998,93.5 h 65 v 147.5 h -65 Z"/></g><g class="recharts-layer recharts-bar-rectangle"><path x="317.1333333333333" y="34.5" width="65" height="206.5" radius="0" fill="#93c5fd" name="$81-200" class="recharts-rectangle" d="M 317.1333333333333,34.5 h 65 v 206.5 h -65 Z"/></g><g class="recharts-layer recharts-bar-rectangle"><path x="398.46666666666664" y="93.5" width="65" height="147.5" radius="0" fill="#bfdbfe" name="$201-600" class="recharts-rectangle" d="M 398.46666666666664,93.5 h 65 v 147.5 h -65 Z"/></g><g class="recharts-layer recharts-bar-rectangle"><path x="479.79999999999995" y="64" width="65" height="177" radius="0" fill="#dbeafe" name="$601+" class="recharts-rectangle" d="M 479.79999999999995,64 h 65 v 177 h -65 Z"/></g></g></g><g class="recharts-layer"/></g></svg>