<svg xmlns="http://www.w3.org/2000/svg" class="recharts-surface" width="534" height="360" viewBox="0 0 534 360" style="width: 100%; height: 100%;"><title/><desc/><defs><clipPath id="recharts5-clip"><rect x="120" y="86" height="174" width="364"/></clipPath></defs><g class="recharts-cartesian-grid"><g class="recharts-cartesian-grid-horizontal"><line stroke-dasharray="3 3" stroke="#ccc" fill="none" x="120" y="86" width="364" height="174" x1="120" y1="260" x2="484" y2="260"/><line stroke-dasharray="3 3" stroke="#ccc" fill="none" x="120" y="86" width="364" height="174" x1="120" y1="216.5" x2="484" y2="216.5"/><line stroke-dasharray="3 3" stroke="#ccc" fill="none" x="120" y="86" width="364" height="174" x1="120" y1="173" x2="484" y2="173"/><line stroke-dasharray="3 3" stroke="#ccc" fill="none" x="120" y="86" width="364" height="174" x1="120" y1="129.5" x2="484" y2="129.5"/><line stroke-dasharray="3 3" stroke="#ccc" fill="none" x="120" y="86" width="364" height="174" x1="120" y1="86" x2="484" y2="86"/></g><g class="recharts-cartesian-grid-vertical"><line stroke-dasharray="3 3" stroke="#ccc" fill="none" x="120" y="86" width="364" height="174" x1="165.5" y1="86" x2="165.5" y2="260"/><line stroke-dasharray="3 3" stroke="#ccc" fill="none" x="120" y="86" width="364" height="174" x1="256.5" y1="86" x2="256.5" y2="260"/><line stroke-dasharray="3 3" stroke="#ccc" fill="none" x="120" y="86" width="364" height="174" x1="347.5" y1="86" x2="347.5" y2="260"/><line stroke-dasharray="3 3" stroke="#ccc" fill="none" x="120" y="86" width="364" height="174" x1="438.5" y1="86" x2="438.5" y2="260"/><line stroke-dasharray="3 3" stroke="#ccc" fill="none" x="120" y="86" width="364" height="174" x1="120" y1="86" x2="120" y2="260"/><line stroke-dasharray="3 3" stroke="#ccc" fill="none" x="120" y="86" width="364" height="174" x1="484" y1="86" x2="484" y2="260"/></g></g><g class="recharts-layer recharts-cartesian-axis recharts-xAxis xAxis"><line orientation="bottom" width="364" height="30" angle="-45" text-anchor="end" x="120" y="260" class="recharts-cartesian-axis-line" stroke="#666" fill="none" x1="120" y1="260" x2="484" y2="260"/><g class="recharts-cartesian-axis-ticks"><g class="recharts-layer recharts-cartesian-axis-tick"><line orientation="bottom" width="364" height="30" angle="-45" text-anchor="end" x="120" y="260" class="recharts-cartesian-axis-tick-line" stroke="#666" fill="none" x1="165.5" y1="266" x2="165.5" y2="260"/><text orientation="bottom" width="100" height="30" stroke="none" font-size="12" transform="rotate(-45, 165.5, 268)" x="165.5" y="268" class="recharts-text recharts-cartesian-axis-tick-value" text-anchor="end" fill="#666"><tspan x="165.5" dy="0.71em">Financial</tspan><tspan x="165.5" dy="1em">Benefits</tspan></text></g><g class="recharts-layer recharts-cartesian-axis-tick"><line orientation="bottom" width="364" height="30" angle="-45" text-anchor="end" x="120" y="260" class="recharts-cartesian-axis-tick-line" stroke="#666" fill="none" x1="256.5" y1="266" x2="256.5" y2="260"/><text orientation="bottom" width="100" height="30" stroke="none" font-size="12" transform="rotate(-45, 256.5, 268)" x="256.5" y="268" class="recharts-text recharts-cartesian-axis-tick-value" text-anchor="end" fill="#666"><tspan x="256.5" dy="0.71em">Better</tspan><tspan x="256.5" dy="1em">Platforms</tspan></text></g><g class="recharts-layer recharts-cartesian-axis-tick"><line orientation="bottom" width="364" height="30" angle="-45" text-anchor="end" x="120" y="260" class="recharts-cartesian-axis-tick-line" stroke="#666" fill="none" x1="347.5" y1="266" x2="347.5" y2="260"/><text orientation="bottom" width="100" height="30" stroke="none" font-size="12" transform="rotate(-45, 347.5, 268)" x="347.5" y="268" class="recharts-text recharts-cartesian-axis-tick-value" text-anchor="end" fill="#666"><tspan x="347.5" dy="0.71em">More</tspan><tspan x="347.5" dy="1em">Knowledge</tspan></text></g><g class="recharts-layer recharts-cartesian-axis-tick"><line orientation="bottom" width="364" height="30" angle="-45" text-anchor="end" x="120" y="260" class="recharts-cartesian-axis-tick-line" stroke="#666" fill="none" x1="438.5" y1="266" x2="438.5" y2="260"/><text orientation="bottom" width="100" height="30" stroke="none" font-size="12" transform="rotate(-45, 438.5, 268)" x="438.5" y="268" class="recharts-text recharts-cartesian-axis-tick-value" text-anchor="end" fill="#666"><tspan x="438.5" dy="0.71em">Transparency</tspan></text></g></g><text offset="40" x="302" y="330" class="recharts-text recharts-label" text-anchor="middle" fill="#808080"><tspan x="302" dy="0.71em">Barrier</tspan></text></g><g class="recharts-layer recharts-cartesian-axis recharts-yAxis yAxis"><line orientation="left" width="60" height="174" x="60" y="86" class="recharts-cartesian-axis-line" stroke="#666" fill="none" x1="120" y1="86" x2="120" y2="260"/><g class="recharts-cartesian-axis-ticks"><g class="recharts-layer recharts-cartesian-axis-tick"><line orientation="left" width="60" height="174" x="60" y="86" class="recharts-cartesian-axis-tick-line" stroke="#666" fill="none" x1="114" y1="260" x2="120" y2="260"/><text orientation="left" width="60" height="174" stroke="none" font-size="12" x="112" y="260" class="recharts-text recharts-cartesian-axis-tick-value" text-anchor="end" fill="#666"><tspan x="112" dy="0.355em">0</tspan></text></g><g class="recharts-layer recharts-cartesian-axis-tick"><line orientation="left" width="60" height="174" x="60" y="86" class="recharts-cartesian-axis-tick-line" stroke="#666" fill="none" x1="114" y1="216.5" x2="120" y2="216.5"/><text orientation="left" width="60" height="174" stroke="none" font-size="12" x="112" y="216.5" class="recharts-text recharts-cartesian-axis-tick-value" text-anchor="end" fill="#666"><tspan x="112" dy="0.355em">2</tspan></text></g><g class="recharts-layer recharts-cartesian-axis-tick"><line orientation="left" width="60" height="174" x="60" y="86" class="recharts-cartesian-axis-tick-line" stroke="#666" fill="none" x1="114" y1="173" x2="120" y2="173"/><text orientation="left" width="60" height="174" stroke="none" font-size="12" x="112" y="173" class="recharts-text recharts-cartesian-axis-tick-value" text-anchor="end" fill="#666"><tspan x="112" dy="0.355em">4</tspan></text></g><g class="recharts-layer recharts-cartesian-axis-tick"><line orientation="left" width="60" height="174" x="60" y="86" class="recharts-cartesian-axis-tick-line" stroke="#666" fill="none" x1="114" y1="129.5" x2="120" y2="129.5"/><text orientation="left" width="60" height="174" stroke="none" font-size="12" x="112" y="129.5" class="recharts-text recharts-cartesian-axis-tick-value" text-anchor="end" fill="#666"><tspan x="112" dy="0.355em">6</tspan></text></g><g class="recharts-layer recharts-cartesian-axis-tick"><line orientation="left" width="60" height="174" x="60" y="86" class="recharts-cartesian-axis-tick-line" stroke="#666" fill="none" x1="114" y1="86" x2="120" y2="86"/><text orientation="left" width="60" height="174" stroke="none" font-size="12" x="112" y="86" class="recharts-text recharts-cartesian-axis-tick-value" text-anchor="end" fill="#666"><tspan x="112" dy="0.355em">8</tspan></text></g></g><text offset="-40" transform="rotate(-90, 20, 173)" x="20" y="173" class="recharts-text recharts-label" text-anchor="start" fill="#808080"><tspan x="20" dy="0.355em">Number of Donors</tspan></text></g><g class="recharts-layer recharts-bar"><g class="recharts-layer recharts-bar-rectangles"><g class="recharts-layer"><g class="recharts-layer recharts-bar-rectangle"><path x="129.1" y="86" width="21" height="174" radius="0" fill="#E8B201" name="Low Income" class="recharts-rectangle" d="M 129.1,86 h 21 v 174 h -21 Z"/></g><g class="recharts-layer recharts-bar-rectangle"><path x="220.1" y="129.5" width="21" height="130.5" radius="0" fill="#E8B201" name="Low Income" class="recharts-rectangle" d="M 220.1,129.5 h 21 v 130.5 h -21 Z"/></g><g class="recharts-layer recharts-bar-rectangle"><path x="311.1" y="107.75" width="21" height="152.25" radius="0" fill="#E8B201" name="Low Income" class="recharts-rectangle" d="M 311.1,107.75 h 21 v 152.25 h -21 Z"/></g><g class="recharts-layer recharts-bar-rectangle"><path x="402.1" y="151.25" width="21" height="108.75" radius="0" fill="#E8B201" name="Low Income" class="recharts-rectangle" d="M 402.1,151.25 h 21 v 108.75 h -21 Z"/></g></g></g><g class="recharts-layer"/></g><g class="recharts-layer recharts-bar"><g class="recharts-layer recharts-bar-rectangles"><g class="recharts-layer"><g class="recharts-layer recharts-bar-rectangle"><path x="154.1" y="129.5" width="21" height="130.5" radius="0" fill="#FFD54F" name="Medium Income" class="recharts-rectangle" d="M 154.1,129.5 h 21 v 130.5 h -21 Z"/></g><g class="recharts-layer recharts-bar-rectangle"><path x="245.1" y="107.75" width="21" height="152.25" radius="0" fill="#FFD54F" name="Medium Income" class="recharts-rectangle" d="M 245.1,107.75 h 21 v 152.25 h -21 Z"/></g><g class="recharts-layer recharts-bar-rectangle"><path x="336.1" y="151.25" width="21" height="108.75" radius="0" fill="#FFD54F" name="Medium Income" class="recharts-rectangle" d="M 336.1,151.25 h 21 v 108.75 h -21 Z"/></g><g class="recharts-layer recharts-bar-rectangle"><path x="427.1" y="129.5" width="21" height="130.5" radius="0" fill="#FFD54F" name="Medium Income" class="recharts-rectangle" d="M 427.1,129.5 h 21 v 130.5 h -21 Z"/></g></g></g><g class="recharts-layer"/></g><g class="recharts-layer recharts-bar"><g class="recharts-layer recharts-bar-rectangles"><g class="recharts-layer"><g class="recharts-layer recharts-bar-rectangle"><path x="179.1" y="173" width="21" height="87" radius="0" fill="#FFA000" name="High Income" class="recharts-rectangle" d="M 179.1,173 h 21 v 87 h -21 Z"/></g><g class="recharts-layer recharts-bar-rectangle"><path x="270.1" y="151.25" width="21" height="108.75" radius="0" fill="#FFA000" name="High Income" class="recharts-rectangle" d="M 270.1,151.25 h 21 v 108.75 h -21 Z"/></g><g class="recharts-layer recharts-bar-rectangle"><path x="361.1" y="194.75" width="21" height="65.25" radius="0" fill="#FFA000" name="High Income" class="recharts-rectangle" d="M 361.1,194.75 h 21 v 65.25 h -21 Z"/></g><g class="recharts-layer recharts-bar-rectangle"><path x="452.1" y="173" width="21" height="87" radius="0" fill="#FFA000" name="High Income" class="recharts-rectangle" d="M 452.1,173 h 21 v 87 h -21 Z"/></g></g></g><g class="recharts-layer"/></g></svg>