<svg xmlns="http://www.w3.org/2000/svg" class="recharts-surface" width="534" height="360" viewBox="0 0 534 360" style="width: 100%; height: 100%;"><title/><desc/><defs><clipPath id="recharts6-clip"><rect x="120" y="86" height="174" width="364"/></clipPath></defs><g class="recharts-cartesian-grid"><g class="recharts-cartesian-grid-horizontal"><line stroke-dasharray="3 3" stroke="#ccc" fill="none" x="120" y="86" width="364" height="174" x1="120" y1="260" x2="484" y2="260"/><line stroke-dasharray="3 3" stroke="#ccc" fill="none" x="120" y="86" width="364" height="174" x1="120" y1="207.8" x2="484" y2="207.8"/><line stroke-dasharray="3 3" stroke="#ccc" fill="none" x="120" y="86" width="364" height="174" x1="120" y1="155.6" x2="484" y2="155.6"/><line stroke-dasharray="3 3" stroke="#ccc" fill="none" x="120" y="86" width="364" height="174" x1="120" y1="86" x2="484" y2="86"/></g><g class="recharts-cartesian-grid-vertical"><line stroke-dasharray="3 3" stroke="#ccc" fill="none" x="120" y="86" width="364" height="174" x1="120" y1="86" x2="120" y2="260"/><line stroke-dasharray="3 3" stroke="#ccc" fill="none" x="120" y="86" width="364" height="174" x1="241.33333333333331" y1="86" x2="241.33333333333331" y2="260"/><line stroke-dasharray="3 3" stroke="#ccc" fill="none" x="120" y="86" width="364" height="174" x1="362.66666666666663" y1="86" x2="362.66666666666663" y2="260"/><line stroke-dasharray="3 3" stroke="#ccc" fill="none" x="120" y="86" width="364" height="174" x1="484" y1="86" x2="484" y2="260"/></g></g><g class="recharts-layer recharts-cartesian-axis recharts-xAxis xAxis"><line orientation="bottom" width="364" height="30" name="Donation Frequency" x="120" y="260" class="recharts-cartesian-axis-line" stroke="#666" fill="none" x1="120" y1="260" x2="484" y2="260"/><g class="recharts-cartesian-axis-ticks"><g class="recharts-layer recharts-cartesian-axis-tick"><line orientation="bottom" width="364" height="30" name="Donation Frequency" x="120" y="260" class="recharts-cartesian-axis-tick-line" stroke="#666" fill="none" x1="120" y1="266" x2="120" y2="260"/><text orientation="bottom" width="364" height="30" name="Donation Frequency" stroke="none" font-size="12" x="120" y="268" class="recharts-text recharts-cartesian-axis-tick-value" text-anchor="middle" fill="#666"><tspan x="120" dy="0.71em">0</tspan></text></g><g class="recharts-layer recharts-cartesian-axis-tick"><line orientation="bottom" width="364" height="30" name="Donation Frequency" x="120" y="260" class="recharts-cartesian-axis-tick-line" stroke="#666" fill="none" x1="241.33333333333331" y1="266" x2="241.33333333333331" y2="260"/><text orientation="bottom" width="364" height="30" name="Donation Frequency" stroke="none" font-size="12" x="241.33333333333331" y="268" class="recharts-text recharts-cartesian-axis-tick-value" text-anchor="middle" fill="#666"><tspan x="241.33333333333331" dy="0.71em">2</tspan></text></g><g class="recharts-layer recharts-cartesian-axis-tick"><line orientation="bottom" width="364" height="30" name="Donation Frequency" x="120" y="260" class="recharts-cartesian-axis-tick-line" stroke="#666" fill="none" x1="362.66666666666663" y1="266" x2="362.66666666666663" y2="260"/><text orientation="bottom" width="364" height="30" name="Donation Frequency" stroke="none" font-size="12" x="362.66666666666663" y="268" class="recharts-text recharts-cartesian-axis-tick-value" text-anchor="middle" fill="#666"><tspan x="362.66666666666663" dy="0.71em">4</tspan></text></g><g class="recharts-layer recharts-cartesian-axis-tick"><line orientation="bottom" width="364" height="30" name="Donation Frequency" x="120" y="260" class="recharts-cartesian-axis-tick-line" stroke="#666" fill="none" x1="484" y1="266" x2="484" y2="260"/><text orientation="bottom" width="364" height="30" name="Donation Frequency" stroke="none" font-size="12" x="484" y="268" class="recharts-text recharts-cartesian-axis-tick-value" text-anchor="middle" fill="#666"><tspan x="484" dy="0.71em">6</tspan></text></g></g><text offset="-10" x="302" y="300" class="recharts-text recharts-label" text-anchor="middle" fill="#808080"><tspan x="302" dy="0em">Donation Frequency</tspan></text></g><g class="recharts-layer recharts-cartesian-axis recharts-yAxis yAxis"><line orientation="left" width="60" height="174" name="Peer Influence Score" x="60" y="86" class="recharts-cartesian-axis-line" stroke="#666" fill="none" x1="120" y1="86" x2="120" y2="260"/><g class="recharts-cartesian-axis-ticks"><g class="recharts-layer recharts-cartesian-axis-tick"><line orientation="left" width="60" height="174" name="Peer Influence Score" x="60" y="86" class="recharts-cartesian-axis-tick-line" stroke="#666" fill="none" x1="114" y1="260" x2="120" y2="260"/><text orientation="left" width="60" height="174" name="Peer Influence Score" stroke="none" font-size="12" x="112" y="260" class="recharts-text recharts-cartesian-axis-tick-value" text-anchor="end" fill="#666"><tspan x="112" dy="0.355em">0</tspan></text></g><g class="recharts-layer recharts-cartesian-axis-tick"><line orientation="left" width="60" height="174" name="Peer Influence Score" x="60" y="86" class="recharts-cartesian-axis-tick-line" stroke="#666" fill="none" x1="114" y1="207.8" x2="120" y2="207.8"/><text orientation="left" width="60" height="174" name="Peer Influence Score" stroke="none" font-size="12" x="112" y="207.8" class="recharts-text recharts-cartesian-axis-tick-value" text-anchor="end" fill="#666"><tspan x="112" dy="0.355em">3</tspan></text></g><g class="recharts-layer recharts-cartesian-axis-tick"><line orientation="left" width="60" height="174" name="Peer Influence Score" x="60" y="86" class="recharts-cartesian-axis-tick-line" stroke="#666" fill="none" x1="114" y1="155.6" x2="120" y2="155.6"/><text orientation="left" width="60" height="174" name="Peer Influence Score" stroke="none" font-size="12" x="112" y="155.6" class="recharts-text recharts-cartesian-axis-tick-value" text-anchor="end" fill="#666"><tspan x="112" dy="0.355em">6</tspan></text></g><g class="recharts-layer recharts-cartesian-axis-tick"><line orientation="left" width="60" height="174" name="Peer Influence Score" x="60" y="86" class="recharts-cartesian-axis-tick-line" stroke="#666" fill="none" x1="114" y1="86" x2="120" y2="86"/><text orientation="left" width="60" height="174" name="Peer Influence Score" stroke="none" font-size="12" x="112" y="86" class="recharts-text recharts-cartesian-axis-tick-value" text-anchor="end" fill="#666"><tspan x="112" dy="0.355em">10</tspan></text></g></g><text offset="10" transform="rotate(-90, 70, 173)" x="70" y="173" class="recharts-text recharts-label" text-anchor="start" fill="#808080"><tspan x="70" dy="0.355em">Peer Influence Score</tspan></text></g><g class="recharts-layer recharts-scatter"><g class="recharts-layer"><g class="recharts-layer"><g class="recharts-layer recharts-scatter-symbol" role="img"><path name="Influence" fill="#E8B201" width="9.0270333367641" height="9.0270333367641" cx="180.66666666666666" cy="225.2" x="176.15314999828462" y="220.68648333161795" class="recharts-symbols" transform="translate(180.66666666666666, 225.2)" d="M4.514,0A4.514,4.514,0,1,1,-4.514,0A4.514,4.514,0,1,1,4.514,0"/></g><g class="recharts-layer recharts-scatter-symbol" role="img"><path name="Influence" fill="#E8B201" width="9.0270333367641" height="9.0270333367641" cx="241.33333333333331" cy="190.4" x="236.81981666495128" y="185.88648333161797" class="recharts-symbols" transform="translate(241.33333333333331, 190.4)" d="M4.514,0A4.514,4.514,0,1,1,-4.514,0A4.514,4.514,0,1,1,4.514,0"/></g><g class="recharts-layer recharts-scatter-symbol" role="img"><path name="Influence" fill="#E8B201" width="9.0270333367641" height="9.0270333367641" cx="302" cy="155.6" x="297.48648333161793" y="151.08648333161796" class="recharts-symbols" transform="translate(302, 155.6)" d="M4.514,0A4.514,4.514,0,1,1,-4.514,0A4.514,4.514,0,1,1,4.514,0"/></g><g class="recharts-layer recharts-scatter-symbol" role="img"><path name="Influence" fill="#E8B201" width="9.0270333367641" height="9.0270333367641" cx="362.66666666666663" cy="120.79999999999998" x="358.15314999828456" y="116.28648333161793" class="recharts-symbols" transform="translate(362.66666666666663, 120.79999999999998)" d="M4.514,0A4.514,4.514,0,1,1,-4.514,0A4.514,4.514,0,1,1,4.514,0"/></g><g class="recharts-layer recharts-scatter-symbol" role="img"><path name="Influence" fill="#E8B201" width="9.0270333367641" height="9.0270333367641" cx="423.33333333333337" cy="138.20000000000002" x="418.8198166649513" y="133.68648333161798" class="recharts-symbols" transform="translate(423.33333333333337, 138.20000000000002)" d="M4.514,0A4.514,4.514,0,1,1,-4.514,0A4.514,4.514,0,1,1,4.514,0"/></g></g></g></g></svg>