<svg xmlns="http://www.w3.org/2000/svg" class="recharts-surface" width="558" height="276" viewBox="0 0 558 276" style="width: 100%; height: 100%;"><title/><desc/><defs><clipPath id="recharts3-clip"><rect x="125" y="5" height="236" width="428"/></clipPath></defs><g class="recharts-cartesian-grid"><g class="recharts-cartesian-grid-horizontal"><line stroke-dasharray="3 3" stroke="#ccc" fill="none" x="125" y="5" width="428" height="236" x1="125" y1="28.6" x2="553" y2="28.6"/><line stroke-dasharray="3 3" stroke="#ccc" fill="none" x="125" y="5" width="428" height="236" x1="125" y1="75.80000000000001" x2="553" y2="75.80000000000001"/><line stroke-dasharray="3 3" stroke="#ccc" fill="none" x="125" y="5" width="428" height="236" x1="125" y1="123" x2="553" y2="123"/><line stroke-dasharray="3 3" stroke="#ccc" fill="none" x="125" y="5" width="428" height="236" x1="125" y1="170.20000000000002" x2="553" y2="170.20000000000002"/><line stroke-dasharray="3 3" stroke="#ccc" fill="none" x="125" y="5" width="428" height="236" x1="125" y1="217.4" x2="553" y2="217.4"/><line stroke-dasharray="3 3" stroke="#ccc" fill="none" x="125" y="5" width="428" height="236" x1="125" y1="5" x2="553" y2="5"/><line stroke-dasharray="3 3" stroke="#ccc" fill="none" x="125" y="5" width="428" height="236" x1="125" y1="241" x2="553" y2="241"/></g><g class="recharts-cartesian-grid-vertical"><line stroke-dasharray="3 3" stroke="#ccc" fill="none" x="125" y="5" width="428" height="236" x1="125" y1="5" x2="125" y2="241"/><line stroke-dasharray="3 3" stroke="#ccc" fill="none" x="125" y="5" width="428" height="236" x1="232" y1="5" x2="232" y2="241"/><line stroke-dasharray="3 3" stroke="#ccc" fill="none" x="125" y="5" width="428" height="236" x1="339" y1="5" x2="339" y2="241"/><line stroke-dasharray="3 3" stroke="#ccc" fill="none" x="125" y="5" width="428" height="236" x1="446" y1="5" x2="446" y2="241"/><line stroke-dasharray="3 3" stroke="#ccc" fill="none" x="125" y="5" width="428" height="236" x1="553" y1="5" x2="553" y2="241"/></g></g><g class="recharts-layer recharts-cartesian-axis recharts-xAxis xAxis"><line orientation="bottom" width="428" height="30" x="125" y="241" class="recharts-cartesian-axis-line" stroke="#666" fill="none" x1="125" y1="241" x2="553" y2="241"/><g class="recharts-cartesian-axis-ticks"><g class="recharts-layer recharts-cartesian-axis-tick"><line orientation="bottom" width="428" height="30" x="125" y="241" class="recharts-cartesian-axis-tick-line" stroke="#666" fill="none" x1="125" y1="247" x2="125" y2="241"/><text orientation="bottom" width="428" height="30" stroke="none" x="125" y="249" class="recharts-text recharts-cartesian-axis-tick-value" text-anchor="middle" fill="#666"><tspan x="125" dy="0.71em">0</tspan></text></g><g class="recharts-layer recharts-cartesian-axis-tick"><line orientation="bottom" width="428" height="30" x="125" y="241" class="recharts-cartesian-axis-tick-line" stroke="#666" fill="none" x1="232" y1="247" x2="232" y2="241"/><text orientation="bottom" width="428" height="30" stroke="none" x="232" y="249" class="recharts-text recharts-cartesian-axis-tick-value" text-anchor="middle" fill="#666"><tspan x="232" dy="0.71em">8</tspan></text></g><g class="recharts-layer recharts-cartesian-axis-tick"><line orientation="bottom" width="428" height="30" x="125" y="241" class="recharts-cartesian-axis-tick-line" stroke="#666" fill="none" x1="339" y1="247" x2="339" y2="241"/><text orientation="bottom" width="428" height="30" stroke="none" x="339" y="249" class="recharts-text recharts-cartesian-axis-tick-value" text-anchor="middle" fill="#666"><tspan x="339" dy="0.71em">16</tspan></text></g><g class="recharts-layer recharts-cartesian-axis-tick"><line orientation="bottom" width="428" height="30" x="125" y="241" class="recharts-cartesian-axis-tick-line" stroke="#666" fill="none" x1="446" y1="247" x2="446" y2="241"/><text orientation="bottom" width="428" height="30" stroke="none" x="446" y="249" class="recharts-text recharts-cartesian-axis-tick-value" text-anchor="middle" fill="#666"><tspan x="446" dy="0.71em">24</tspan></text></g><g class="recharts-layer recharts-cartesian-axis-tick"><line orientation="bottom" width="428" height="30" x="125" y="241" class="recharts-cartesian-axis-tick-line" stroke="#666" fill="none" x1="553" y1="247" x2="553" y2="241"/><text orientation="bottom" width="428" height="30" stroke="none" x="548.140625" y="249" class="recharts-text recharts-cartesian-axis-tick-value" text-anchor="middle" fill="#666"><tspan x="548.140625" dy="0.71em">32</tspan></text></g></g></g><g class="recharts-layer recharts-cartesian-axis recharts-yAxis yAxis"><line orientation="left" width="120" height="236" x="5" y="5" class="recharts-cartesian-axis-line" stroke="#666" fill="none" x1="125" y1="5" x2="125" y2="241"/><g class="recharts-cartesian-axis-ticks"><g class="recharts-layer recharts-cartesian-axis-tick"><line orientation="left" width="120" height="236" x="5" y="5" class="recharts-cartesian-axis-tick-line" stroke="#666" fill="none" x1="119" y1="28.6" x2="125" y2="28.6"/><text orientation="left" width="120" height="236" stroke="none" x="117" y="28.6" class="recharts-text recharts-cartesian-axis-tick-value" text-anchor="end" fill="#666"><tspan x="117" dy="0.355em">Social Good</tspan></text></g><g class="recharts-layer recharts-cartesian-axis-tick"><line orientation="left" width="120" height="236" x="5" y="5" class="recharts-cartesian-axis-tick-line" stroke="#666" fill="none" x1="119" y1="75.80000000000001" x2="125" y2="75.80000000000001"/><text orientation="left" width="120" height="236" stroke="none" x="117" y="75.80000000000001" class="recharts-text recharts-cartesian-axis-tick-value" text-anchor="end" fill="#666"><tspan x="117" dy="-0.14500000000000002em">Moral</tspan><tspan x="117" dy="1em">Obligation</tspan></text></g><g class="recharts-layer recharts-cartesian-axis-tick"><line orientation="left" width="120" height="236" x="5" y="5" class="recharts-cartesian-axis-tick-line" stroke="#666" fill="none" x1="119" y1="123" x2="125" y2="123"/><text orientation="left" width="120" height="236" stroke="none" x="117" y="123" class="recharts-text recharts-cartesian-axis-tick-value" text-anchor="end" fill="#666"><tspan x="117" dy="-0.14500000000000002em">Religious</tspan><tspan x="117" dy="1em">Reasons</tspan></text></g><g class="recharts-layer recharts-cartesian-axis-tick"><line orientation="left" width="120" height="236" x="5" y="5" class="recharts-cartesian-axis-tick-line" stroke="#666" fill="none" x1="119" y1="170.20000000000002" x2="125" y2="170.20000000000002"/><text orientation="left" width="120" height="236" stroke="none" x="117" y="170.20000000000002" class="recharts-text recharts-cartesian-axis-tick-value" text-anchor="end" fill="#666"><tspan x="117" dy="-0.14500000000000002em">Political</tspan><tspan x="117" dy="1em">Reasons</tspan></text></g><g class="recharts-layer recharts-cartesian-axis-tick"><line orientation="left" width="120" height="236" x="5" y="5" class="recharts-cartesian-axis-tick-line" stroke="#666" fill="none" x1="119" y1="217.4" x2="125" y2="217.4"/><text orientation="left" width="120" height="236" stroke="none" x="117" y="217.4" class="recharts-text recharts-cartesian-axis-tick-value" text-anchor="end" fill="#666"><tspan x="117" dy="-0.14500000000000002em">Personal</tspan><tspan x="117" dy="1em">Connection</tspan></text></g></g></g><g class="recharts-layer recharts-bar"><g class="recharts-layer recharts-bar-rectangles"><g class="recharts-layer"><g class="recharts-layer recharts-bar-rectangle"><path x="125" y="9.719999999999999" width="401.25" height="37" radius="0" fill="#E8B201" name="Social Good" class="recharts-rectangle" d="M 125,9.719999999999999 h 401.25 v 37 h -401.25 Z"/></g><g class="recharts-layer recharts-bar-rectangle"><path x="125" y="56.92" width="334.375" height="37" radius="0" fill="#E8B201" name="Moral Obligation" class="recharts-rectangle" d="M 125,56.92 h 334.375 v 37 h -334.375 Z"/></g><g class="recharts-layer recharts-bar-rectangle"><path x="125" y="104.12" width="187.25" height="37" radius="0" fill="#E8B201" name="Religious Reasons" class="recharts-rectangle" d="M 125,104.12 h 187.25 v 37 h -187.25 Z"/></g><g class="recharts-layer recharts-bar-rectangle"><path x="125" y="151.32000000000002" width="120.375" height="37" radius="0" fill="#E8B201" name="Political Reasons" class="recharts-rectangle" d="M 125,151.32000000000002 h 120.375 v 37 h -120.375 Z"/></g><g class="recharts-layer recharts-bar-rectangle"><path x="125" y="198.52" width="93.625" height="37" radius="0" fill="#E8B201" name="Personal Connection" class="recharts-rectangle" d="M 125,198.52 h 93.625 v 37 h -93.625 Z"/></g></g></g><g class="recharts-layer"/></g></svg>