<svg width="491" height="490" viewBox="0 0 491 490" fill="none" xmlns="http://www.w3.org/2000/svg">
<path d="M0 122.444C0 54.8206 54.8206 0 122.444 0H244.888V122.444C244.888 190.067 190.067 244.888 122.444 244.888C54.8206 244.888 0 190.067 0 122.444Z" fill="#24CB71"/>
<path d="M244.888 367.332C244.888 299.708 299.708 244.888 367.332 244.888H489.776V367.332C489.776 434.955 434.955 489.776 367.332 489.776C299.708 489.776 244.888 434.955 244.888 367.332Z" fill="#874FFF"/>
<path d="M122.444 489.776C190.068 489.776 244.888 434.956 244.888 367.332C244.888 299.708 190.068 244.888 122.444 244.888C54.82 244.888 0 299.708 0 367.332C0 434.956 54.82 489.776 122.444 489.776Z" fill="#FF3737"/>
<path d="M368.556 244.888C436.18 244.888 491 190.068 491 122.444C491 54.82 436.18 0 368.556 0C300.932 0 246.112 54.82 246.112 122.444C246.112 190.068 300.932 244.888 368.556 244.888Z" fill="#FF7237"/>
</svg>
