<svg width="325" height="178" viewBox="0 0 325 178" fill="none" xmlns="http://www.w3.org/2000/svg">
<path d="M40 25C40 11.1929 51.1929 0 65 0H325V29C325 42.8071 313.807 54 300 54H65C51.1929 54 40 42.8071 40 29V25Z" fill="#3F3F3F"/>
<path d="M74.8 16.05L72.74 23H71.45L69.99 17.74L68.44 23L67.16 23.01L65.19 16.05H66.4L67.84 21.71L69.4 16.05H70.68L72.13 21.68L73.58 16.05H74.8ZM78.5902 17.4C79.0102 17.4 79.3836 17.49 79.7102 17.67C80.0436 17.85 80.3036 18.1167 80.4902 18.47C80.6836 18.8233 80.7802 19.25 80.7802 19.75V23H79.6502V19.92C79.6502 19.4267 79.5269 19.05 79.2802 18.79C79.0336 18.5233 78.6969 18.39 78.2702 18.39C77.8436 18.39 77.5036 18.5233 77.2502 18.79C77.0036 19.05 76.8802 19.4267 76.8802 19.92V23H75.7402V15.6H76.8802V18.13C77.0736 17.8967 77.3169 17.7167 77.6102 17.59C77.9102 17.4633 78.2369 17.4 78.5902 17.4ZM87.2844 20.11C87.2844 20.3167 87.271 20.5033 87.2444 20.67H83.0344C83.0677 21.11 83.231 21.4633 83.5244 21.73C83.8177 21.9967 84.1777 22.13 84.6044 22.13C85.2177 22.13 85.651 21.8733 85.9044 21.36H87.1344C86.9677 21.8667 86.6644 22.2833 86.2244 22.61C85.791 22.93 85.251 23.09 84.6044 23.09C84.0777 23.09 83.6044 22.9733 83.1844 22.74C82.771 22.5 82.4444 22.1667 82.2044 21.74C81.971 21.3067 81.8544 20.8067 81.8544 20.24C81.8544 19.6733 81.9677 19.1767 82.1944 18.75C82.4277 18.3167 82.751 17.9833 83.1644 17.75C83.5844 17.5167 84.0644 17.4 84.6044 17.4C85.1244 17.4 85.5877 17.5133 85.9944 17.74C86.401 17.9667 86.7177 18.2867 86.9444 18.7C87.171 19.1067 87.2844 19.5767 87.2844 20.11ZM86.0944 19.75C86.0877 19.33 85.9377 18.9933 85.6444 18.74C85.351 18.4867 84.9877 18.36 84.5544 18.36C84.161 18.36 83.8244 18.4867 83.5444 18.74C83.2644 18.9867 83.0977 19.3233 83.0444 19.75H86.0944ZM91.1863 17.4C91.6196 17.4 92.0063 17.49 92.3463 17.67C92.6929 17.85 92.9629 18.1167 93.1563 18.47C93.3496 18.8233 93.4463 19.25 93.4463 19.75V23H92.3163V19.92C92.3163 19.4267 92.1929 19.05 91.9463 18.79C91.6996 18.5233 91.3629 18.39 90.9363 18.39C90.5096 18.39 90.1696 18.5233 89.9163 18.79C89.6696 19.05 89.5463 19.4267 89.5463 19.92V23H88.4063V17.49H89.5463V18.12C89.7329 17.8933 89.9696 17.7167 90.2563 17.59C90.5496 17.4633 90.8596 17.4 91.1863 17.4ZM97.118 20.22C97.118 19.6667 97.2314 19.1767 97.458 18.75C97.6914 18.3233 98.0047 17.9933 98.398 17.76C98.798 17.52 99.2414 17.4 99.728 17.4C100.088 17.4 100.441 17.48 100.788 17.64C101.141 17.7933 101.421 18 101.628 18.26V15.6H102.778V23H101.628V22.17C101.441 22.4367 101.181 22.6567 100.848 22.83C100.521 23.0033 100.145 23.09 99.718 23.09C99.238 23.09 98.798 22.97 98.398 22.73C98.0047 22.4833 97.6914 22.1433 97.458 21.71C97.2314 21.27 97.118 20.7733 97.118 20.22ZM101.628 20.24C101.628 19.86 101.548 19.53 101.388 19.25C101.235 18.97 101.031 18.7567 100.778 18.61C100.525 18.4633 100.251 18.39 99.958 18.39C99.6647 18.39 99.3914 18.4633 99.138 18.61C98.8847 18.75 98.678 18.96 98.518 19.24C98.3647 19.5133 98.288 19.84 98.288 20.22C98.288 20.6 98.3647 20.9333 98.518 21.22C98.678 21.5067 98.8847 21.7267 99.138 21.88C99.398 22.0267 99.6714 22.1 99.958 22.1C100.251 22.1 100.525 22.0267 100.778 21.88C101.031 21.7333 101.235 21.52 101.388 21.24C101.548 20.9533 101.628 20.62 101.628 20.24ZM104.855 16.76C104.649 16.76 104.475 16.69 104.335 16.55C104.195 16.41 104.125 16.2367 104.125 16.03C104.125 15.8233 104.195 15.65 104.335 15.51C104.475 15.37 104.649 15.3 104.855 15.3C105.055 15.3 105.225 15.37 105.365 15.51C105.505 15.65 105.575 15.8233 105.575 16.03C105.575 16.2367 105.505 16.41 105.365 16.55C105.225 16.69 105.055 16.76 104.855 16.76ZM105.415 17.49V23H104.275V17.49H105.415ZM106.532 20.22C106.532 19.6667 106.645 19.1767 106.872 18.75C107.105 18.3233 107.419 17.9933 107.812 17.76C108.212 17.52 108.655 17.4 109.142 17.4C109.502 17.4 109.855 17.48 110.202 17.64C110.555 17.7933 110.835 18 111.042 18.26V15.6H112.192V23H111.042V22.17C110.855 22.4367 110.595 22.6567 110.262 22.83C109.935 23.0033 109.559 23.09 109.132 23.09C108.652 23.09 108.212 22.97 107.812 22.73C107.419 22.4833 107.105 22.1433 106.872 21.71C106.645 21.27 106.532 20.7733 106.532 20.22ZM111.042 20.24C111.042 19.86 110.962 19.53 110.802 19.25C110.649 18.97 110.445 18.7567 110.192 18.61C109.939 18.4633 109.665 18.39 109.372 18.39C109.079 18.39 108.805 18.4633 108.552 18.61C108.299 18.75 108.092 18.96 107.932 19.24C107.779 19.5133 107.702 19.84 107.702 20.22C107.702 20.6 107.779 20.9333 107.932 21.22C108.092 21.5067 108.299 21.7267 108.552 21.88C108.812 22.0267 109.085 22.1 109.372 22.1C109.665 22.1 109.939 22.0267 110.192 21.88C110.445 21.7333 110.649 21.52 110.802 21.24C110.962 20.9533 111.042 20.62 111.042 20.24ZM117.617 18.42V21.47C117.617 21.6767 117.664 21.8267 117.757 21.92C117.857 22.0067 118.024 22.05 118.257 22.05H118.957V23H118.057C117.544 23 117.15 22.88 116.877 22.64C116.604 22.4 116.467 22.01 116.467 21.47V18.42H115.817V17.49H116.467V16.12H117.617V17.49H118.957V18.42H117.617ZM122.858 17.4C123.278 17.4 123.651 17.49 123.978 17.67C124.311 17.85 124.571 18.1167 124.758 18.47C124.951 18.8233 125.048 19.25 125.048 19.75V23H123.918V19.92C123.918 19.4267 123.794 19.05 123.548 18.79C123.301 18.5233 122.964 18.39 122.538 18.39C122.111 18.39 121.771 18.5233 121.518 18.79C121.271 19.05 121.148 19.4267 121.148 19.92V23H120.008V15.6H121.148V18.13C121.341 17.8967 121.584 17.7167 121.878 17.59C122.178 17.4633 122.504 17.4 122.858 17.4ZM131.552 20.11C131.552 20.3167 131.539 20.5033 131.512 20.67H127.302C127.335 21.11 127.499 21.4633 127.792 21.73C128.085 21.9967 128.445 22.13 128.872 22.13C129.485 22.13 129.919 21.8733 130.172 21.36H131.402C131.235 21.8667 130.932 22.2833 130.492 22.61C130.059 22.93 129.519 23.09 128.872 23.09C128.345 23.09 127.872 22.9733 127.452 22.74C127.039 22.5 126.712 22.1667 126.472 21.74C126.239 21.3067 126.122 20.8067 126.122 20.24C126.122 19.6733 126.235 19.1767 126.462 18.75C126.695 18.3167 127.019 17.9833 127.432 17.75C127.852 17.5167 128.332 17.4 128.872 17.4C129.392 17.4 129.855 17.5133 130.262 17.74C130.669 17.9667 130.985 18.2867 131.212 18.7C131.439 19.1067 131.552 19.5767 131.552 20.11ZM130.362 19.75C130.355 19.33 130.205 18.9933 129.912 18.74C129.619 18.4867 129.255 18.36 128.822 18.36C128.429 18.36 128.092 18.4867 127.812 18.74C127.532 18.9867 127.365 19.3233 127.312 19.75H130.362ZM137.661 23.09C137.141 23.09 136.671 22.9733 136.251 22.74C135.831 22.5 135.501 22.1667 135.261 21.74C135.021 21.3067 134.901 20.8067 134.901 20.24C134.901 19.68 135.025 19.1833 135.271 18.75C135.518 18.3167 135.855 17.9833 136.281 17.75C136.708 17.5167 137.185 17.4 137.711 17.4C138.238 17.4 138.715 17.5167 139.141 17.75C139.568 17.9833 139.905 18.3167 140.151 18.75C140.398 19.1833 140.521 19.68 140.521 20.24C140.521 20.8 140.395 21.2967 140.141 21.73C139.888 22.1633 139.541 22.5 139.101 22.74C138.668 22.9733 138.188 23.09 137.661 23.09ZM137.661 22.1C137.955 22.1 138.228 22.03 138.481 21.89C138.741 21.75 138.951 21.54 139.111 21.26C139.271 20.98 139.351 20.64 139.351 20.24C139.351 19.84 139.275 19.5033 139.121 19.23C138.968 18.95 138.765 18.74 138.511 18.6C138.258 18.46 137.985 18.39 137.691 18.39C137.398 18.39 137.125 18.46 136.871 18.6C136.625 18.74 136.428 18.95 136.281 19.23C136.135 19.5033 136.061 19.84 136.061 20.24C136.061 20.8333 136.211 21.2933 136.511 21.62C136.818 21.94 137.201 22.1 137.661 22.1ZM143.958 18.42H142.938V23H141.788V18.42H141.138V17.49H141.788V17.1C141.788 16.4667 141.955 16.0067 142.288 15.72C142.628 15.4267 143.158 15.28 143.878 15.28V16.23C143.532 16.23 143.288 16.2967 143.148 16.43C143.008 16.5567 142.938 16.78 142.938 17.1V17.49H143.958V18.42ZM147.279 18.42H146.259V23H145.109V18.42H144.459V17.49H145.109V17.1C145.109 16.4667 145.275 16.0067 145.609 15.72C145.949 15.4267 146.479 15.28 147.199 15.28V16.23C146.852 16.23 146.609 16.2967 146.469 16.43C146.329 16.5567 146.259 16.78 146.259 17.1V17.49H147.279V18.42ZM148.869 16.76C148.662 16.76 148.489 16.69 148.349 16.55C148.209 16.41 148.139 16.2367 148.139 16.03C148.139 15.8233 148.209 15.65 148.349 15.51C148.489 15.37 148.662 15.3 148.869 15.3C149.069 15.3 149.239 15.37 149.379 15.51C149.519 15.65 149.589 15.8233 149.589 16.03C149.589 16.2367 149.519 16.41 149.379 16.55C149.239 16.69 149.069 16.76 148.869 16.76ZM149.429 17.49V23H148.289V17.49H149.429ZM150.546 20.24C150.546 19.6733 150.659 19.1767 150.886 18.75C151.119 18.3167 151.439 17.9833 151.846 17.75C152.252 17.5167 152.719 17.4 153.246 17.4C153.912 17.4 154.462 17.56 154.896 17.88C155.336 18.1933 155.632 18.6433 155.786 19.23H154.556C154.456 18.9567 154.296 18.7433 154.076 18.59C153.856 18.4367 153.579 18.36 153.246 18.36C152.779 18.36 152.406 18.5267 152.126 18.86C151.852 19.1867 151.716 19.6467 151.716 20.24C151.716 20.8333 151.852 21.2967 152.126 21.63C152.406 21.9633 152.779 22.13 153.246 22.13C153.906 22.13 154.342 21.84 154.556 21.26H155.786C155.626 21.82 155.326 22.2667 154.886 22.6C154.446 22.9267 153.899 23.09 153.246 23.09C152.719 23.09 152.252 22.9733 151.846 22.74C151.439 22.5 151.119 22.1667 150.886 21.74C150.659 21.3067 150.546 20.8067 150.546 20.24ZM161.972 20.11C161.972 20.3167 161.959 20.5033 161.932 20.67H157.722C157.755 21.11 157.919 21.4633 158.212 21.73C158.505 21.9967 158.865 22.13 159.292 22.13C159.905 22.13 160.339 21.8733 160.592 21.36H161.822C161.655 21.8667 161.352 22.2833 160.912 22.61C160.479 22.93 159.939 23.09 159.292 23.09C158.765 23.09 158.292 22.9733 157.872 22.74C157.459 22.5 157.132 22.1667 156.892 21.74C156.659 21.3067 156.542 20.8067 156.542 20.24C156.542 19.6733 156.655 19.1767 156.882 18.75C157.115 18.3167 157.439 17.9833 157.852 17.75C158.272 17.5167 158.752 17.4 159.292 17.4C159.812 17.4 160.275 17.5133 160.682 17.74C161.089 17.9667 161.405 18.2867 161.632 18.7C161.859 19.1067 161.972 19.5767 161.972 20.11ZM160.782 19.75C160.775 19.33 160.625 18.9933 160.332 18.74C160.039 18.4867 159.675 18.36 159.242 18.36C158.849 18.36 158.512 18.4867 158.232 18.74C157.952 18.9867 157.785 19.3233 157.732 19.75H160.782ZM164.234 18.29C164.4 18.01 164.62 17.7933 164.894 17.64C165.174 17.48 165.504 17.4 165.884 17.4V18.58H165.594C165.147 18.58 164.807 18.6933 164.574 18.92C164.347 19.1467 164.234 19.54 164.234 20.1V23H163.094V17.49H164.234V18.29ZM171.839 18.42H170.819V23H169.669V18.42H169.019V17.49H169.669V17.1C169.669 16.4667 169.836 16.0067 170.169 15.72C170.509 15.4267 171.039 15.28 171.759 15.28V16.23C171.413 16.23 171.169 16.2967 171.029 16.43C170.889 16.5567 170.819 16.78 170.819 17.1V17.49H171.839V18.42ZM173.43 16.76C173.223 16.76 173.05 16.69 172.91 16.55C172.77 16.41 172.7 16.2367 172.7 16.03C172.7 15.8233 172.77 15.65 172.91 15.51C173.05 15.37 173.223 15.3 173.43 15.3C173.63 15.3 173.8 15.37 173.94 15.51C174.08 15.65 174.15 15.8233 174.15 16.03C174.15 16.2367 174.08 16.41 173.94 16.55C173.8 16.69 173.63 16.76 173.43 16.76ZM173.99 17.49V23H172.85V17.49H173.99ZM176.626 18.29C176.793 18.01 177.013 17.7933 177.286 17.64C177.566 17.48 177.896 17.4 178.276 17.4V18.58H177.986C177.54 18.58 177.2 18.6933 176.966 18.92C176.74 19.1467 176.626 19.54 176.626 20.1V23H175.486V17.49H176.626V18.29ZM181.324 23.09C180.891 23.09 180.501 23.0133 180.154 22.86C179.814 22.7 179.544 22.4867 179.344 22.22C179.144 21.9467 179.038 21.6433 179.024 21.31H180.204C180.224 21.5433 180.334 21.74 180.534 21.9C180.741 22.0533 180.998 22.13 181.304 22.13C181.624 22.13 181.871 22.07 182.044 21.95C182.224 21.8233 182.314 21.6633 182.314 21.47C182.314 21.2633 182.214 21.11 182.014 21.01C181.821 20.91 181.511 20.8 181.084 20.68C180.671 20.5667 180.334 20.4567 180.074 20.35C179.814 20.2433 179.588 20.08 179.394 19.86C179.208 19.64 179.114 19.35 179.114 18.99C179.114 18.6967 179.201 18.43 179.374 18.19C179.548 17.9433 179.794 17.75 180.114 17.61C180.441 17.47 180.814 17.4 181.234 17.4C181.861 17.4 182.364 17.56 182.744 17.88C183.131 18.1933 183.338 18.6233 183.364 19.17H182.224C182.204 18.9233 182.104 18.7267 181.924 18.58C181.744 18.4333 181.501 18.36 181.194 18.36C180.894 18.36 180.664 18.4167 180.504 18.53C180.344 18.6433 180.264 18.7933 180.264 18.98C180.264 19.1267 180.318 19.25 180.424 19.35C180.531 19.45 180.661 19.53 180.814 19.59C180.968 19.6433 181.194 19.7133 181.494 19.8C181.894 19.9067 182.221 20.0167 182.474 20.13C182.734 20.2367 182.958 20.3967 183.144 20.61C183.331 20.8233 183.428 21.1067 183.434 21.46C183.434 21.7733 183.348 22.0533 183.174 22.3C183.001 22.5467 182.754 22.74 182.434 22.88C182.121 23.02 181.751 23.09 181.324 23.09ZM185.996 18.42V21.47C185.996 21.6767 186.043 21.8267 186.136 21.92C186.236 22.0067 186.403 22.05 186.636 22.05H187.336V23H186.436C185.923 23 185.529 22.88 185.256 22.64C184.983 22.4 184.846 22.01 184.846 21.47V18.42H184.196V17.49H184.846V16.12H185.996V17.49H187.336V18.42H185.996ZM197.654 17.4C198.088 17.4 198.474 17.49 198.814 17.67C199.161 17.85 199.431 18.1167 199.624 18.47C199.824 18.8233 199.924 19.25 199.924 19.75V23H198.794V19.92C198.794 19.4267 198.671 19.05 198.424 18.79C198.178 18.5233 197.841 18.39 197.414 18.39C196.988 18.39 196.648 18.5233 196.394 18.79C196.148 19.05 196.024 19.4267 196.024 19.92V23H194.894V19.92C194.894 19.4267 194.771 19.05 194.524 18.79C194.278 18.5233 193.941 18.39 193.514 18.39C193.088 18.39 192.748 18.5233 192.494 18.79C192.248 19.05 192.124 19.4267 192.124 19.92V23H190.984V17.49H192.124V18.12C192.311 17.8933 192.548 17.7167 192.834 17.59C193.121 17.4633 193.428 17.4 193.754 17.4C194.194 17.4 194.588 17.4933 194.934 17.68C195.281 17.8667 195.548 18.1367 195.734 18.49C195.901 18.1567 196.161 17.8933 196.514 17.7C196.868 17.5 197.248 17.4 197.654 17.4ZM206.425 20.11C206.425 20.3167 206.412 20.5033 206.385 20.67H202.175C202.208 21.11 202.372 21.4633 202.665 21.73C202.958 21.9967 203.318 22.13 203.745 22.13C204.358 22.13 204.792 21.8733 205.045 21.36H206.275C206.108 21.8667 205.805 22.2833 205.365 22.61C204.932 22.93 204.392 23.09 203.745 23.09C203.218 23.09 202.745 22.9733 202.325 22.74C201.912 22.5 201.585 22.1667 201.345 21.74C201.112 21.3067 200.995 20.8067 200.995 20.24C200.995 19.6733 201.108 19.1767 201.335 18.75C201.568 18.3167 201.892 17.9833 202.305 17.75C202.725 17.5167 203.205 17.4 203.745 17.4C204.265 17.4 204.728 17.5133 205.135 17.74C205.542 17.9667 205.858 18.2867 206.085 18.7C206.312 19.1067 206.425 19.5767 206.425 20.11ZM205.235 19.75C205.228 19.33 205.078 18.9933 204.785 18.74C204.492 18.4867 204.128 18.36 203.695 18.36C203.302 18.36 202.965 18.4867 202.685 18.74C202.405 18.9867 202.238 19.3233 202.185 19.75H205.235ZM210.327 17.4C210.76 17.4 211.147 17.49 211.487 17.67C211.834 17.85 212.104 18.1167 212.297 18.47C212.49 18.8233 212.587 19.25 212.587 19.75V23H211.457V19.92C211.457 19.4267 211.334 19.05 211.087 18.79C210.84 18.5233 210.504 18.39 210.077 18.39C209.65 18.39 209.31 18.5233 209.057 18.79C208.81 19.05 208.687 19.4267 208.687 19.92V23H207.547V17.49H208.687V18.12C208.874 17.8933 209.11 17.7167 209.397 17.59C209.69 17.4633 210 17.4 210.327 17.4ZM215.371 18.42V21.47C215.371 21.6767 215.418 21.8267 215.511 21.92C215.611 22.0067 215.778 22.05 216.011 22.05H216.711V23H215.811C215.298 23 214.904 22.88 214.631 22.64C214.358 22.4 214.221 22.01 214.221 21.47V18.42H213.571V17.49H214.221V16.12H215.371V17.49H216.711V18.42H215.371ZM218.342 16.76C218.135 16.76 217.962 16.69 217.822 16.55C217.682 16.41 217.612 16.2367 217.612 16.03C217.612 15.8233 217.682 15.65 217.822 15.51C217.962 15.37 218.135 15.3 218.342 15.3C218.542 15.3 218.712 15.37 218.852 15.51C218.992 15.65 219.062 15.8233 219.062 16.03C219.062 16.2367 218.992 16.41 218.852 16.55C218.712 16.69 218.542 16.76 218.342 16.76ZM218.902 17.49V23H217.762V17.49H218.902ZM222.788 23.09C222.268 23.09 221.798 22.9733 221.378 22.74C220.958 22.5 220.628 22.1667 220.388 21.74C220.148 21.3067 220.028 20.8067 220.028 20.24C220.028 19.68 220.152 19.1833 220.398 18.75C220.645 18.3167 220.982 17.9833 221.408 17.75C221.835 17.5167 222.312 17.4 222.838 17.4C223.365 17.4 223.842 17.5167 224.268 17.75C224.695 17.9833 225.032 18.3167 225.278 18.75C225.525 19.1833 225.648 19.68 225.648 20.24C225.648 20.8 225.522 21.2967 225.268 21.73C225.015 22.1633 224.668 22.5 224.228 22.74C223.795 22.9733 223.315 23.09 222.788 23.09ZM222.788 22.1C223.082 22.1 223.355 22.03 223.608 21.89C223.868 21.75 224.078 21.54 224.238 21.26C224.398 20.98 224.478 20.64 224.478 20.24C224.478 19.84 224.402 19.5033 224.248 19.23C224.095 18.95 223.892 18.74 223.638 18.6C223.385 18.46 223.112 18.39 222.818 18.39C222.525 18.39 222.252 18.46 221.998 18.6C221.752 18.74 221.555 18.95 221.408 19.23C221.262 19.5033 221.188 19.84 221.188 20.24C221.188 20.8333 221.338 21.2933 221.638 21.62C221.945 21.94 222.328 22.1 222.788 22.1ZM229.555 17.4C229.989 17.4 230.375 17.49 230.715 17.67C231.062 17.85 231.332 18.1167 231.525 18.47C231.719 18.8233 231.815 19.25 231.815 19.75V23H230.685V19.92C230.685 19.4267 230.562 19.05 230.315 18.79C230.069 18.5233 229.732 18.39 229.305 18.39C228.879 18.39 228.539 18.5233 228.285 18.79C228.039 19.05 227.915 19.4267 227.915 19.92V23H226.775V17.49H227.915V18.12C228.102 17.8933 228.339 17.7167 228.625 17.59C228.919 17.4633 229.229 17.4 229.555 17.4ZM237.197 18.42V21.47C237.197 21.6767 237.244 21.8267 237.337 21.92C237.437 22.0067 237.604 22.05 237.837 22.05H238.537V23H237.637C237.124 23 236.731 22.88 236.457 22.64C236.184 22.4 236.047 22.01 236.047 21.47V18.42H235.397V17.49H236.047V16.12H237.197V17.49H238.537V18.42H237.197ZM242.438 17.4C242.858 17.4 243.231 17.49 243.558 17.67C243.891 17.85 244.151 18.1167 244.338 18.47C244.531 18.8233 244.628 19.25 244.628 19.75V23H243.498V19.92C243.498 19.4267 243.375 19.05 243.128 18.79C242.881 18.5233 242.545 18.39 242.118 18.39C241.691 18.39 241.351 18.5233 241.098 18.79C240.851 19.05 240.728 19.4267 240.728 19.92V23H239.588V15.6H240.728V18.13C240.921 17.8967 241.165 17.7167 241.458 17.59C241.758 17.4633 242.085 17.4 242.438 17.4ZM251.132 20.11C251.132 20.3167 251.119 20.5033 251.092 20.67H246.882C246.915 21.11 247.079 21.4633 247.372 21.73C247.665 21.9967 248.025 22.13 248.452 22.13C249.065 22.13 249.499 21.8733 249.752 21.36H250.982C250.815 21.8667 250.512 22.2833 250.072 22.61C249.639 22.93 249.099 23.09 248.452 23.09C247.925 23.09 247.452 22.9733 247.032 22.74C246.619 22.5 246.292 22.1667 246.052 21.74C245.819 21.3067 245.702 20.8067 245.702 20.24C245.702 19.6733 245.815 19.1767 246.042 18.75C246.275 18.3167 246.599 17.9833 247.012 17.75C247.432 17.5167 247.912 17.4 248.452 17.4C248.972 17.4 249.435 17.5133 249.842 17.74C250.249 17.9667 250.565 18.2867 250.792 18.7C251.019 19.1067 251.132 19.5767 251.132 20.11ZM249.942 19.75C249.935 19.33 249.785 18.9933 249.492 18.74C249.199 18.4867 248.835 18.36 248.402 18.36C248.009 18.36 247.672 18.4867 247.392 18.74C247.112 18.9867 246.945 19.3233 246.892 19.75H249.942ZM254.472 20.22C254.472 19.6667 254.585 19.1767 254.812 18.75C255.045 18.3233 255.358 17.9933 255.752 17.76C256.152 17.52 256.595 17.4 257.082 17.4C257.442 17.4 257.795 17.48 258.142 17.64C258.495 17.7933 258.775 18 258.982 18.26V15.6H260.132V23H258.982V22.17C258.795 22.4367 258.535 22.6567 258.202 22.83C257.875 23.0033 257.498 23.09 257.072 23.09C256.592 23.09 256.152 22.97 255.752 22.73C255.358 22.4833 255.045 22.1433 254.812 21.71C254.585 21.27 254.472 20.7733 254.472 20.22ZM258.982 20.24C258.982 19.86 258.902 19.53 258.742 19.25C258.588 18.97 258.385 18.7567 258.132 18.61C257.878 18.4633 257.605 18.39 257.312 18.39C257.018 18.39 256.745 18.4633 256.492 18.61C256.238 18.75 256.032 18.96 255.872 19.24C255.718 19.5133 255.642 19.84 255.642 20.22C255.642 20.6 255.718 20.9333 255.872 21.22C256.032 21.5067 256.238 21.7267 256.492 21.88C256.752 22.0267 257.025 22.1 257.312 22.1C257.605 22.1 257.878 22.0267 258.132 21.88C258.385 21.7333 258.588 21.52 258.742 21.24C258.902 20.9533 258.982 20.62 258.982 20.24ZM266.679 20.11C266.679 20.3167 266.666 20.5033 266.639 20.67H262.429C262.462 21.11 262.626 21.4633 262.919 21.73C263.212 21.9967 263.572 22.13 263.999 22.13C264.612 22.13 265.046 21.8733 265.299 21.36H266.529C266.362 21.8667 266.059 22.2833 265.619 22.61C265.186 22.93 264.646 23.09 263.999 23.09C263.472 23.09 262.999 22.9733 262.579 22.74C262.166 22.5 261.839 22.1667 261.599 21.74C261.366 21.3067 261.249 20.8067 261.249 20.24C261.249 19.6733 261.362 19.1767 261.589 18.75C261.822 18.3167 262.146 17.9833 262.559 17.75C262.979 17.5167 263.459 17.4 263.999 17.4C264.519 17.4 264.982 17.5133 265.389 17.74C265.796 17.9667 266.112 18.2867 266.339 18.7C266.566 19.1067 266.679 19.5767 266.679 20.11ZM265.489 19.75C265.482 19.33 265.332 18.9933 265.039 18.74C264.746 18.4867 264.382 18.36 263.949 18.36C263.556 18.36 263.219 18.4867 262.939 18.74C262.659 18.9867 262.492 19.3233 262.439 19.75H265.489ZM270.111 18.42H269.091V23H267.941V18.42H267.291V17.49H267.941V17.1C267.941 16.4667 268.107 16.0067 268.441 15.72C268.781 15.4267 269.311 15.28 270.031 15.28V16.23C269.684 16.23 269.441 16.2967 269.301 16.43C269.161 16.5567 269.091 16.78 269.091 17.1V17.49H270.111V18.42ZM276.171 20.11C276.171 20.3167 276.158 20.5033 276.131 20.67H271.921C271.954 21.11 272.118 21.4633 272.411 21.73C272.704 21.9967 273.064 22.13 273.491 22.13C274.104 22.13 274.538 21.8733 274.791 21.36H276.021C275.854 21.8667 275.551 22.2833 275.111 22.61C274.678 22.93 274.138 23.09 273.491 23.09C272.964 23.09 272.491 22.9733 272.071 22.74C271.658 22.5 271.331 22.1667 271.091 21.74C270.858 21.3067 270.741 20.8067 270.741 20.24C270.741 19.6733 270.854 19.1767 271.081 18.75C271.314 18.3167 271.638 17.9833 272.051 17.75C272.471 17.5167 272.951 17.4 273.491 17.4C274.011 17.4 274.474 17.5133 274.881 17.74C275.288 17.9667 275.604 18.2867 275.831 18.7C276.058 19.1067 276.171 19.5767 276.171 20.11ZM274.981 19.75C274.974 19.33 274.824 18.9933 274.531 18.74C274.238 18.4867 273.874 18.36 273.441 18.36C273.048 18.36 272.711 18.4867 272.431 18.74C272.151 18.9867 271.984 19.3233 271.931 19.75H274.981ZM280.073 17.4C280.506 17.4 280.893 17.49 281.233 17.67C281.58 17.85 281.85 18.1167 282.043 18.47C282.236 18.8233 282.333 19.25 282.333 19.75V23H281.203V19.92C281.203 19.4267 281.08 19.05 280.833 18.79C280.586 18.5233 280.25 18.39 279.823 18.39C279.396 18.39 279.056 18.5233 278.803 18.79C278.556 19.05 278.433 19.4267 278.433 19.92V23H277.293V17.49H278.433V18.12C278.62 17.8933 278.856 17.7167 279.143 17.59C279.436 17.4633 279.746 17.4 280.073 17.4ZM283.407 20.22C283.407 19.6667 283.52 19.1767 283.747 18.75C283.98 18.3233 284.294 17.9933 284.687 17.76C285.087 17.52 285.53 17.4 286.017 17.4C286.377 17.4 286.73 17.48 287.077 17.64C287.43 17.7933 287.71 18 287.917 18.26V15.6H289.067V23H287.917V22.17C287.73 22.4367 287.47 22.6567 287.137 22.83C286.81 23.0033 286.434 23.09 286.007 23.09C285.527 23.09 285.087 22.97 284.687 22.73C284.294 22.4833 283.98 22.1433 283.747 21.71C283.52 21.27 283.407 20.7733 283.407 20.22ZM287.917 20.24C287.917 19.86 287.837 19.53 287.677 19.25C287.524 18.97 287.32 18.7567 287.067 18.61C286.814 18.4633 286.54 18.39 286.247 18.39C285.954 18.39 285.68 18.4633 285.427 18.61C285.174 18.75 284.967 18.96 284.807 19.24C284.654 19.5133 284.577 19.84 284.577 20.22C284.577 20.6 284.654 20.9333 284.807 21.22C284.967 21.5067 285.174 21.7267 285.427 21.88C285.687 22.0267 285.96 22.1 286.247 22.1C286.54 22.1 286.814 22.0267 287.067 21.88C287.32 21.7333 287.524 21.52 287.677 21.24C287.837 20.9533 287.917 20.62 287.917 20.24ZM290.184 20.22C290.184 19.6667 290.298 19.1767 290.524 18.75C290.758 18.3233 291.071 17.9933 291.464 17.76C291.864 17.52 292.304 17.4 292.784 17.4C293.218 17.4 293.594 17.4867 293.914 17.66C294.241 17.8267 294.501 18.0367 294.694 18.29V17.49H295.844V23H294.694V22.18C294.501 22.44 294.238 22.6567 293.904 22.83C293.571 23.0033 293.191 23.09 292.764 23.09C292.291 23.09 291.858 22.97 291.464 22.73C291.071 22.4833 290.758 22.1433 290.524 21.71C290.298 21.27 290.184 20.7733 290.184 20.22ZM294.694 20.24C294.694 19.86 294.614 19.53 294.454 19.25C294.301 18.97 294.098 18.7567 293.844 18.61C293.591 18.4633 293.318 18.39 293.024 18.39C292.731 18.39 292.458 18.4633 292.204 18.61C291.951 18.75 291.744 18.96 291.584 19.24C291.431 19.5133 291.354 19.84 291.354 20.22C291.354 20.6 291.431 20.9333 291.584 21.22C291.744 21.5067 291.951 21.7267 292.204 21.88C292.464 22.0267 292.738 22.1 293.024 22.1C293.318 22.1 293.591 22.0267 293.844 21.88C294.098 21.7333 294.301 21.52 294.454 21.24C294.614 20.9533 294.694 20.62 294.694 20.24ZM300.122 17.4C300.555 17.4 300.942 17.49 301.282 17.67C301.628 17.85 301.898 18.1167 302.092 18.47C302.285 18.8233 302.382 19.25 302.382 19.75V23H301.252V19.92C301.252 19.4267 301.128 19.05 300.882 18.79C300.635 18.5233 300.298 18.39 299.872 18.39C299.445 18.39 299.105 18.5233 298.852 18.79C298.605 19.05 298.482 19.4267 298.482 19.92V23H297.342V17.49H298.482V18.12C298.668 17.8933 298.905 17.7167 299.192 17.59C299.485 17.4633 299.795 17.4 300.122 17.4ZM305.166 18.42V21.47C305.166 21.6767 305.213 21.8267 305.306 21.92C305.406 22.0067 305.573 22.05 305.806 22.05H306.506V23H305.606C305.093 23 304.699 22.88 304.426 22.64C304.153 22.4 304.016 22.01 304.016 21.47V18.42H303.366V17.49H304.016V16.12H305.166V17.49H306.506V18.42H305.166ZM307.737 16.05H308.977L307.927 18.43H307.127L307.737 16.05ZM311.979 23.09C311.545 23.09 311.155 23.0133 310.809 22.86C310.469 22.7 310.199 22.4867 309.999 22.22C309.799 21.9467 309.692 21.6433 309.679 21.31H310.859C310.879 21.5433 310.989 21.74 311.189 21.9C311.395 22.0533 311.652 22.13 311.959 22.13C312.279 22.13 312.525 22.07 312.699 21.95C312.879 21.8233 312.969 21.6633 312.969 21.47C312.969 21.2633 312.869 21.11 312.669 21.01C312.475 20.91 312.165 20.8 311.739 20.68C311.325 20.5667 310.989 20.4567 310.729 20.35C310.469 20.2433 310.242 20.08 310.049 19.86C309.862 19.64 309.769 19.35 309.769 18.99C309.769 18.6967 309.855 18.43 310.029 18.19C310.202 17.9433 310.449 17.75 310.769 17.61C311.095 17.47 311.469 17.4 311.889 17.4C312.515 17.4 313.019 17.56 313.399 17.88C313.785 18.1933 313.992 18.6233 314.019 19.17H312.879C312.859 18.9233 312.759 18.7267 312.579 18.58C312.399 18.4333 312.155 18.36 311.849 18.36C311.549 18.36 311.319 18.4167 311.159 18.53C310.999 18.6433 310.919 18.7933 310.919 18.98C310.919 19.1267 310.972 19.25 311.079 19.35C311.185 19.45 311.315 19.53 311.469 19.59C311.622 19.6433 311.849 19.7133 312.149 19.8C312.549 19.9067 312.875 20.0167 313.129 20.13C313.389 20.2367 313.612 20.3967 313.799 20.61C313.985 20.8233 314.082 21.1067 314.089 21.46C314.089 21.7733 314.002 22.0533 313.829 22.3C313.655 22.5467 313.409 22.74 313.089 22.88C312.775 23.02 312.405 23.09 311.979 23.09ZM66.89 33.29C67.0567 33.01 67.2767 32.7933 67.55 32.64C67.83 32.48 68.16 32.4 68.54 32.4V33.58H68.25C67.8033 33.58 67.4633 33.6933 67.23 33.92C67.0033 34.1467 66.89 34.54 66.89 35.1V38H65.75V32.49H66.89V33.29ZM70.1679 31.76C69.9612 31.76 69.7879 31.69 69.6479 31.55C69.5079 31.41 69.4379 31.2367 69.4379 31.03C69.4379 30.8233 69.5079 30.65 69.6479 30.51C69.7879 30.37 69.9612 30.3 70.1679 30.3C70.3679 30.3 70.5379 30.37 70.6779 30.51C70.8179 30.65 70.8879 30.8233 70.8879 31.03C70.8879 31.2367 70.8179 31.41 70.6779 31.55C70.5379 31.69 70.3679 31.76 70.1679 31.76ZM70.7279 32.49V38H69.5879V32.49H70.7279ZM74.4446 32.4C74.8713 32.4 75.2479 32.4867 75.5746 32.66C75.9079 32.8267 76.1679 33.0367 76.3546 33.29V32.49H77.5046V38.09C77.5046 38.5967 77.3979 39.0467 77.1846 39.44C76.9713 39.84 76.6613 40.1533 76.2546 40.38C75.8546 40.6067 75.3746 40.72 74.8146 40.72C74.0679 40.72 73.4479 40.5433 72.9546 40.19C72.4613 39.8433 72.1813 39.37 72.1146 38.77H73.2446C73.3313 39.0567 73.5146 39.2867 73.7946 39.46C74.0813 39.64 74.4213 39.73 74.8146 39.73C75.2746 39.73 75.6446 39.59 75.9246 39.31C76.2113 39.03 76.3546 38.6233 76.3546 38.09V37.17C76.1613 37.43 75.8979 37.65 75.5646 37.83C75.2379 38.0033 74.8646 38.09 74.4446 38.09C73.9646 38.09 73.5246 37.97 73.1246 37.73C72.7313 37.4833 72.4179 37.1433 72.1846 36.71C71.9579 36.27 71.8446 35.7733 71.8446 35.22C71.8446 34.6667 71.9579 34.1767 72.1846 33.75C72.4179 33.3233 72.7313 32.9933 73.1246 32.76C73.5246 32.52 73.9646 32.4 74.4446 32.4ZM76.3546 35.24C76.3546 34.86 76.2746 34.53 76.1146 34.25C75.9613 33.97 75.7579 33.7567 75.5046 33.61C75.2513 33.4633 74.9779 33.39 74.6846 33.39C74.3913 33.39 74.1179 33.4633 73.8646 33.61C73.6113 33.75 73.4046 33.96 73.2446 34.24C73.0913 34.5133 73.0146 34.84 73.0146 35.22C73.0146 35.6 73.0913 35.9333 73.2446 36.22C73.4046 36.5067 73.6113 36.7267 73.8646 36.88C74.1246 37.0267 74.3979 37.1 74.6846 37.1C74.9779 37.1 75.2513 37.0267 75.5046 36.88C75.7579 36.7333 75.9613 36.52 76.1146 36.24C76.2746 35.9533 76.3546 35.62 76.3546 35.24ZM81.852 32.4C82.272 32.4 82.6453 32.49 82.972 32.67C83.3053 32.85 83.5653 33.1167 83.752 33.47C83.9453 33.8233 84.042 34.25 84.042 34.75V38H82.912V34.92C82.912 34.4267 82.7886 34.05 82.542 33.79C82.2953 33.5233 81.9586 33.39 81.532 33.39C81.1053 33.39 80.7653 33.5233 80.512 33.79C80.2653 34.05 80.142 34.4267 80.142 34.92V38H79.002V30.6H80.142V33.13C80.3353 32.8967 80.5786 32.7167 80.872 32.59C81.172 32.4633 81.4986 32.4 81.852 32.4ZM86.8261 33.42V36.47C86.8261 36.6767 86.8728 36.8267 86.9661 36.92C87.0661 37.0067 87.2328 37.05 87.4661 37.05H88.1661V38H87.2661C86.7528 38 86.3594 37.88 86.0861 37.64C85.8128 37.4 85.6761 37.01 85.6761 36.47V33.42H85.0261V32.49H85.6761V31.12H86.8261V32.49H88.1661V33.42H86.8261ZM91.2168 38.09C90.7835 38.09 90.3935 38.0133 90.0468 37.86C89.7068 37.7 89.4368 37.4867 89.2368 37.22C89.0368 36.9467 88.9301 36.6433 88.9168 36.31H90.0968C90.1168 36.5433 90.2268 36.74 90.4268 36.9C90.6335 37.0533 90.8901 37.13 91.1968 37.13C91.5168 37.13 91.7635 37.07 91.9368 36.95C92.1168 36.8233 92.2068 36.6633 92.2068 36.47C92.2068 36.2633 92.1068 36.11 91.9068 36.01C91.7135 35.91 91.4035 35.8 90.9768 35.68C90.5635 35.5667 90.2268 35.4567 89.9668 35.35C89.7068 35.2433 89.4801 35.08 89.2868 34.86C89.1001 34.64 89.0068 34.35 89.0068 33.99C89.0068 33.6967 89.0935 33.43 89.2668 33.19C89.4401 32.9433 89.6868 32.75 90.0068 32.61C90.3335 32.47 90.7068 32.4 91.1268 32.4C91.7535 32.4 92.2568 32.56 92.6368 32.88C93.0235 33.1933 93.2301 33.6233 93.2568 34.17H92.1168C92.0968 33.9233 91.9968 33.7267 91.8168 33.58C91.6368 33.4333 91.3935 33.36 91.0868 33.36C90.7868 33.36 90.5568 33.4167 90.3968 33.53C90.2368 33.6433 90.1568 33.7933 90.1568 33.98C90.1568 34.1267 90.2101 34.25 90.3168 34.35C90.4235 34.45 90.5535 34.53 90.7068 34.59C90.8601 34.6433 91.0868 34.7133 91.3868 34.8C91.7868 34.9067 92.1135 35.0167 92.3668 35.13C92.6268 35.2367 92.8501 35.3967 93.0368 35.61C93.2235 35.8233 93.3201 36.1067 93.3268 36.46C93.3268 36.7733 93.2401 37.0533 93.0668 37.3C92.8935 37.5467 92.6468 37.74 92.3268 37.88C92.0135 38.02 91.6435 38.09 91.2168 38.09ZM96.4286 30.95C97.1086 30.95 97.6519 31.1367 98.0586 31.51C98.4719 31.8833 98.6786 32.3933 98.6786 33.04C98.6786 33.7133 98.4653 34.22 98.0386 34.56C97.6119 34.9 97.0453 35.07 96.3386 35.07L96.2986 35.86H95.3086L95.2586 34.29H95.5886C96.2353 34.29 96.7286 34.2033 97.0686 34.03C97.4153 33.8567 97.5886 33.5267 97.5886 33.04C97.5886 32.6867 97.4853 32.41 97.2786 32.21C97.0786 32.01 96.7986 31.91 96.4386 31.91C96.0786 31.91 95.7953 32.0067 95.5886 32.2C95.3819 32.3933 95.2786 32.6633 95.2786 33.01H94.2086C94.2086 32.61 94.2986 32.2533 94.4786 31.94C94.6586 31.6267 94.9153 31.3833 95.2486 31.21C95.5886 31.0367 95.9819 30.95 96.4286 30.95ZM95.7886 38.07C95.5819 38.07 95.4086 38 95.2686 37.86C95.1286 37.72 95.0586 37.5467 95.0586 37.34C95.0586 37.1333 95.1286 36.96 95.2686 36.82C95.4086 36.68 95.5819 36.61 95.7886 36.61C95.9886 36.61 96.1586 36.68 96.2986 36.82C96.4386 36.96 96.5086 37.1333 96.5086 37.34C96.5086 37.5467 96.4386 37.72 96.2986 37.86C96.1586 38 95.9886 38.07 95.7886 38.07Z" fill="white"/>
<g filter="url(#filter0_d_102_144)">
<rect x="10" y="144" width="25" height="25" rx="12.5" fill="url(#paint0_linear_102_144)" shape-rendering="crispEdges"/>
<path d="M19.9941 159.49C20.1195 159.578 20.2632 159.638 20.4145 159.664C20.5659 159.691 20.7212 159.683 20.8692 159.642C21.0172 159.6 21.1542 159.527 21.2702 159.426C21.3863 159.325 21.4785 159.2 21.5402 159.059L22.0301 157.57C22.1493 157.212 22.3502 156.886 22.6171 156.619C22.8839 156.352 23.2093 156.15 23.5674 156.031L24.9914 155.568C25.1938 155.497 25.3688 155.365 25.4915 155.189C25.5862 155.056 25.6479 154.902 25.6715 154.74C25.6951 154.578 25.6799 154.413 25.6271 154.259C25.5743 154.104 25.4855 153.964 25.368 153.85C25.2505 153.736 25.1077 153.652 24.9513 153.605L23.5419 153.146C23.1836 153.028 22.8579 152.827 22.5907 152.56C22.3234 152.293 22.1219 151.968 22.0021 151.61L21.5396 150.186C21.4684 149.984 21.3364 149.81 21.1616 149.686C20.9858 149.565 20.7774 149.5 20.5638 149.5C20.3503 149.5 20.1418 149.565 19.9661 149.686C19.7886 149.812 19.6551 149.99 19.5843 150.195L19.116 151.637C18.9965 151.986 18.7993 152.303 18.5393 152.565C18.2792 152.826 17.9632 153.025 17.615 153.146L16.1898 153.608C15.987 153.68 15.8116 153.813 15.6879 153.989C15.5643 154.165 15.4986 154.375 15.5 154.591C15.5014 154.806 15.5698 155.015 15.6957 155.19C15.8216 155.364 15.9988 155.495 16.2025 155.564L17.6125 156.022C18.0696 156.176 18.4715 156.461 18.768 156.841C18.9372 157.059 19.0676 157.304 19.1535 157.567L19.6168 158.989C19.688 159.191 19.8204 159.366 19.9953 159.49M26.1952 163.36C26.3247 163.452 26.4795 163.5 26.638 163.5C26.7955 163.5 26.9493 163.452 27.0783 163.362C27.2112 163.268 27.3106 163.134 27.3621 162.98L27.5988 162.252C27.6489 162.101 27.7334 161.964 27.8457 161.851C27.9581 161.739 28.0951 161.654 28.2459 161.603L28.9878 161.362C29.1374 161.309 29.2669 161.211 29.3586 161.081C29.4503 160.952 29.4997 160.797 29.5 160.638C29.5 160.475 29.4479 160.316 29.3513 160.185C29.2546 160.054 29.1186 159.957 28.963 159.909L28.2351 159.673C28.084 159.623 27.9467 159.538 27.8341 159.426C27.7214 159.313 27.6365 159.176 27.5861 159.025L27.3443 158.285C27.2922 158.134 27.194 158.003 27.0635 157.91C26.9331 157.818 26.777 157.769 26.6172 157.77C26.4574 157.771 26.302 157.823 26.1729 157.917C26.0438 158.011 25.9474 158.143 25.8974 158.295L25.6594 159.024C25.6107 159.173 25.5284 159.309 25.4188 159.422C25.3093 159.534 25.1754 159.619 25.0276 159.672L24.2857 159.912C24.1358 159.965 24.0059 160.064 23.914 160.193C23.822 160.323 23.7725 160.478 23.7723 160.637C23.7724 160.798 23.8231 160.954 23.9171 161.084C24.0111 161.214 24.1436 161.311 24.2959 161.362L25.0238 161.599C25.1755 161.649 25.3132 161.734 25.426 161.847C25.5387 161.96 25.6233 162.098 25.6728 162.25L25.914 162.99C25.9666 163.14 26.0644 163.269 26.1939 163.361" fill="white"/>
</g>
<path d="M40 103C40 89.1929 51.1929 78 65 78H300C313.807 78 325 89.1929 325 103V119C325 132.807 313.807 144 300 144H40V103Z" fill="#9747FF"/>
<path d="M59.74 92.55V93.48H57.89V99.5H56.75V93.48H54.89V92.55H59.74ZM63.7445 93.9C64.1645 93.9 64.5379 93.99 64.8645 94.17C65.1979 94.35 65.4579 94.6167 65.6445 94.97C65.8379 95.3233 65.9345 95.75 65.9345 96.25V99.5H64.8045V96.42C64.8045 95.9267 64.6812 95.55 64.4345 95.29C64.1879 95.0233 63.8512 94.89 63.4245 94.89C62.9979 94.89 62.6579 95.0233 62.4045 95.29C62.1579 95.55 62.0345 95.9267 62.0345 96.42V99.5H60.8945V92.1H62.0345V94.63C62.2279 94.3967 62.4712 94.2167 62.7645 94.09C63.0645 93.9633 63.3912 93.9 63.7445 93.9ZM72.4387 96.61C72.4387 96.8167 72.4253 97.0033 72.3987 97.17H68.1887C68.222 97.61 68.3853 97.9633 68.6787 98.23C68.972 98.4967 69.332 98.63 69.7587 98.63C70.372 98.63 70.8053 98.3733 71.0587 97.86H72.2887C72.122 98.3667 71.8187 98.7833 71.3787 99.11C70.9453 99.43 70.4053 99.59 69.7587 99.59C69.232 99.59 68.7587 99.4733 68.3387 99.24C67.9253 99 67.5987 98.6667 67.3587 98.24C67.1253 97.8067 67.0087 97.3067 67.0087 96.74C67.0087 96.1733 67.122 95.6767 67.3487 95.25C67.582 94.8167 67.9053 94.4833 68.3187 94.25C68.7387 94.0167 69.2187 93.9 69.7587 93.9C70.2787 93.9 70.742 94.0133 71.1487 94.24C71.5553 94.4667 71.872 94.7867 72.0987 95.2C72.3253 95.6067 72.4387 96.0767 72.4387 96.61ZM71.2487 96.25C71.242 95.83 71.092 95.4933 70.7987 95.24C70.5053 94.9867 70.142 94.86 69.7087 94.86C69.3153 94.86 68.9787 94.9867 68.6987 95.24C68.4187 95.4867 68.252 95.8233 68.1987 96.25H71.2487ZM78.5482 99.59C78.0282 99.59 77.5582 99.4733 77.1382 99.24C76.7182 99 76.3882 98.6667 76.1482 98.24C75.9082 97.8067 75.7882 97.3067 75.7882 96.74C75.7882 96.18 75.9115 95.6833 76.1582 95.25C76.4049 94.8167 76.7415 94.4833 77.1682 94.25C77.5949 94.0167 78.0715 93.9 78.5982 93.9C79.1249 93.9 79.6015 94.0167 80.0282 94.25C80.4549 94.4833 80.7915 94.8167 81.0382 95.25C81.2849 95.6833 81.4082 96.18 81.4082 96.74C81.4082 97.3 81.2815 97.7967 81.0282 98.23C80.7749 98.6633 80.4282 99 79.9882 99.24C79.5549 99.4733 79.0749 99.59 78.5482 99.59ZM78.5482 98.6C78.8415 98.6 79.1149 98.53 79.3682 98.39C79.6282 98.25 79.8382 98.04 79.9982 97.76C80.1582 97.48 80.2382 97.14 80.2382 96.74C80.2382 96.34 80.1615 96.0033 80.0082 95.73C79.8549 95.45 79.6515 95.24 79.3982 95.1C79.1449 94.96 78.8715 94.89 78.5782 94.89C78.2849 94.89 78.0115 94.96 77.7582 95.1C77.5115 95.24 77.3149 95.45 77.1682 95.73C77.0215 96.0033 76.9482 96.34 76.9482 96.74C76.9482 97.3333 77.0982 97.7933 77.3982 98.12C77.7049 98.44 78.0882 98.6 78.5482 98.6ZM84.8452 94.92H83.8252V99.5H82.6752V94.92H82.0252V93.99H82.6752V93.6C82.6752 92.9667 82.8418 92.5067 83.1752 92.22C83.5152 91.9267 84.0452 91.78 84.7652 91.78V92.73C84.4185 92.73 84.1752 92.7967 84.0352 92.93C83.8952 93.0567 83.8252 93.28 83.8252 93.6V93.99H84.8452V94.92ZM88.1655 94.92H87.1455V99.5H85.9955V94.92H85.3455V93.99H85.9955V93.6C85.9955 92.9667 86.1621 92.5067 86.4955 92.22C86.8355 91.9267 87.3655 91.78 88.0855 91.78V92.73C87.7388 92.73 87.4955 92.7967 87.3555 92.93C87.2155 93.0567 87.1455 93.28 87.1455 93.6V93.99H88.1655V94.92ZM89.7558 93.26C89.5491 93.26 89.3758 93.19 89.2358 93.05C89.0958 92.91 89.0258 92.7367 89.0258 92.53C89.0258 92.3233 89.0958 92.15 89.2358 92.01C89.3758 91.87 89.5491 91.8 89.7558 91.8C89.9558 91.8 90.1258 91.87 90.2658 92.01C90.4058 92.15 90.4758 92.3233 90.4758 92.53C90.4758 92.7367 90.4058 92.91 90.2658 93.05C90.1258 93.19 89.9558 93.26 89.7558 93.26ZM90.3158 93.99V99.5H89.1758V93.99H90.3158ZM91.4325 96.74C91.4325 96.1733 91.5458 95.6767 91.7725 95.25C92.0058 94.8167 92.3258 94.4833 92.7325 94.25C93.1392 94.0167 93.6058 93.9 94.1325 93.9C94.7992 93.9 95.3492 94.06 95.7825 94.38C96.2225 94.6933 96.5192 95.1433 96.6725 95.73H95.4425C95.3425 95.4567 95.1825 95.2433 94.9625 95.09C94.7425 94.9367 94.4658 94.86 94.1325 94.86C93.6658 94.86 93.2925 95.0267 93.0125 95.36C92.7392 95.6867 92.6025 96.1467 92.6025 96.74C92.6025 97.3333 92.7392 97.7967 93.0125 98.13C93.2925 98.4633 93.6658 98.63 94.1325 98.63C94.7925 98.63 95.2292 98.34 95.4425 97.76H96.6725C96.5125 98.32 96.2125 98.7667 95.7725 99.1C95.3325 99.4267 94.7858 99.59 94.1325 99.59C93.6058 99.59 93.1392 99.4733 92.7325 99.24C92.3258 99 92.0058 98.6667 91.7725 98.24C91.5458 97.8067 91.4325 97.3067 91.4325 96.74ZM102.859 96.61C102.859 96.8167 102.845 97.0033 102.819 97.17H98.6086C98.6419 97.61 98.8053 97.9633 99.0986 98.23C99.3919 98.4967 99.7519 98.63 100.179 98.63C100.792 98.63 101.225 98.3733 101.479 97.86H102.709C102.542 98.3667 102.239 98.7833 101.799 99.11C101.365 99.43 100.825 99.59 100.179 99.59C99.6519 99.59 99.1786 99.4733 98.7586 99.24C98.3453 99 98.0186 98.6667 97.7786 98.24C97.5453 97.8067 97.4286 97.3067 97.4286 96.74C97.4286 96.1733 97.5419 95.6767 97.7686 95.25C98.0019 94.8167 98.3253 94.4833 98.7386 94.25C99.1586 94.0167 99.6386 93.9 100.179 93.9C100.699 93.9 101.162 94.0133 101.569 94.24C101.975 94.4667 102.292 94.7867 102.519 95.2C102.745 95.6067 102.859 96.0767 102.859 96.61ZM101.669 96.25C101.662 95.83 101.512 95.4933 101.219 95.24C100.925 94.9867 100.562 94.86 100.129 94.86C99.7353 94.86 99.3986 94.9867 99.1186 95.24C98.8386 95.4867 98.6719 95.8233 98.6186 96.25H101.669ZM105.12 94.79C105.287 94.51 105.507 94.2933 105.78 94.14C106.06 93.98 106.39 93.9 106.77 93.9V95.08H106.48C106.034 95.08 105.694 95.1933 105.46 95.42C105.234 95.6467 105.12 96.04 105.12 96.6V99.5H103.98V93.99H105.12V94.79ZM112.416 99.59C111.983 99.59 111.593 99.5133 111.246 99.36C110.906 99.2 110.636 98.9867 110.436 98.72C110.236 98.4467 110.129 98.1433 110.116 97.81H111.296C111.316 98.0433 111.426 98.24 111.626 98.4C111.833 98.5533 112.089 98.63 112.396 98.63C112.716 98.63 112.963 98.57 113.136 98.45C113.316 98.3233 113.406 98.1633 113.406 97.97C113.406 97.7633 113.306 97.61 113.106 97.51C112.913 97.41 112.603 97.3 112.176 97.18C111.763 97.0667 111.426 96.9567 111.166 96.85C110.906 96.7433 110.679 96.58 110.486 96.36C110.299 96.14 110.206 95.85 110.206 95.49C110.206 95.1967 110.293 94.93 110.466 94.69C110.639 94.4433 110.886 94.25 111.206 94.11C111.533 93.97 111.906 93.9 112.326 93.9C112.953 93.9 113.456 94.06 113.836 94.38C114.223 94.6933 114.429 95.1233 114.456 95.67H113.316C113.296 95.4233 113.196 95.2267 113.016 95.08C112.836 94.9333 112.593 94.86 112.286 94.86C111.986 94.86 111.756 94.9167 111.596 95.03C111.436 95.1433 111.356 95.2933 111.356 95.48C111.356 95.6267 111.409 95.75 111.516 95.85C111.623 95.95 111.753 96.03 111.906 96.09C112.059 96.1433 112.286 96.2133 112.586 96.3C112.986 96.4067 113.313 96.5167 113.566 96.63C113.826 96.7367 114.049 96.8967 114.236 97.11C114.423 97.3233 114.519 97.6067 114.526 97.96C114.526 98.2733 114.439 98.5533 114.266 98.8C114.093 99.0467 113.846 99.24 113.526 99.38C113.213 99.52 112.843 99.59 112.416 99.59ZM117.088 94.92V97.97C117.088 98.1767 117.134 98.3267 117.228 98.42C117.328 98.5067 117.494 98.55 117.728 98.55H118.428V99.5H117.528C117.014 99.5 116.621 99.38 116.348 99.14C116.074 98.9 115.938 98.51 115.938 97.97V94.92H115.288V93.99H115.938V92.62H117.088V93.99H118.428V94.92H117.088ZM119.099 96.72C119.099 96.1667 119.212 95.6767 119.439 95.25C119.672 94.8233 119.985 94.4933 120.379 94.26C120.779 94.02 121.219 93.9 121.699 93.9C122.132 93.9 122.509 93.9867 122.829 94.16C123.155 94.3267 123.415 94.5367 123.609 94.79V93.99H124.759V99.5H123.609V98.68C123.415 98.94 123.152 99.1567 122.819 99.33C122.485 99.5033 122.105 99.59 121.679 99.59C121.205 99.59 120.772 99.47 120.379 99.23C119.985 98.9833 119.672 98.6433 119.439 98.21C119.212 97.77 119.099 97.2733 119.099 96.72ZM123.609 96.74C123.609 96.36 123.529 96.03 123.369 95.75C123.215 95.47 123.012 95.2567 122.759 95.11C122.505 94.9633 122.232 94.89 121.939 94.89C121.645 94.89 121.372 94.9633 121.119 95.11C120.865 95.25 120.659 95.46 120.499 95.74C120.345 96.0133 120.269 96.34 120.269 96.72C120.269 97.1 120.345 97.4333 120.499 97.72C120.659 98.0067 120.865 98.2267 121.119 98.38C121.379 98.5267 121.652 98.6 121.939 98.6C122.232 98.6 122.505 98.5267 122.759 98.38C123.012 98.2333 123.215 98.02 123.369 97.74C123.529 97.4533 123.609 97.12 123.609 96.74ZM127.586 94.92V97.97C127.586 98.1767 127.633 98.3267 127.726 98.42C127.826 98.5067 127.993 98.55 128.226 98.55H128.926V99.5H128.026C127.513 99.5 127.119 99.38 126.846 99.14C126.573 98.9 126.436 98.51 126.436 97.97V94.92H125.786V93.99H126.436V92.62H127.586V93.99H128.926V94.92H127.586ZM135.027 96.61C135.027 96.8167 135.013 97.0033 134.987 97.17H130.777C130.81 97.61 130.973 97.9633 131.267 98.23C131.56 98.4967 131.92 98.63 132.347 98.63C132.96 98.63 133.393 98.3733 133.647 97.86H134.877C134.71 98.3667 134.407 98.7833 133.967 99.11C133.533 99.43 132.993 99.59 132.347 99.59C131.82 99.59 131.347 99.4733 130.927 99.24C130.513 99 130.187 98.6667 129.947 98.24C129.713 97.8067 129.597 97.3067 129.597 96.74C129.597 96.1733 129.71 95.6767 129.937 95.25C130.17 94.8167 130.493 94.4833 130.907 94.25C131.327 94.0167 131.807 93.9 132.347 93.9C132.867 93.9 133.33 94.0133 133.737 94.24C134.143 94.4667 134.46 94.7867 134.687 95.2C134.913 95.6067 135.027 96.0767 135.027 96.61ZM133.837 96.25C133.83 95.83 133.68 95.4933 133.387 95.24C133.093 94.9867 132.73 94.86 132.297 94.86C131.903 94.86 131.567 94.9867 131.287 95.24C131.007 95.4867 130.84 95.8233 130.787 96.25H133.837ZM135.768 96.72C135.768 96.1667 135.882 95.6767 136.108 95.25C136.342 94.8233 136.655 94.4933 137.048 94.26C137.448 94.02 137.892 93.9 138.378 93.9C138.738 93.9 139.092 93.98 139.438 94.14C139.792 94.2933 140.072 94.5 140.278 94.76V92.1H141.428V99.5H140.278V98.67C140.092 98.9367 139.832 99.1567 139.498 99.33C139.172 99.5033 138.795 99.59 138.368 99.59C137.888 99.59 137.448 99.47 137.048 99.23C136.655 98.9833 136.342 98.6433 136.108 98.21C135.882 97.77 135.768 97.2733 135.768 96.72ZM140.278 96.74C140.278 96.36 140.198 96.03 140.038 95.75C139.885 95.47 139.682 95.2567 139.428 95.11C139.175 94.9633 138.902 94.89 138.608 94.89C138.315 94.89 138.042 94.9633 137.788 95.11C137.535 95.25 137.328 95.46 137.168 95.74C137.015 96.0133 136.938 96.34 136.938 96.72C136.938 97.1 137.015 97.4333 137.168 97.72C137.328 98.0067 137.535 98.2267 137.788 98.38C138.048 98.5267 138.322 98.6 138.608 98.6C138.902 98.6 139.175 98.5267 139.428 98.38C139.682 98.2333 139.885 98.02 140.038 97.74C140.198 97.4533 140.278 97.12 140.278 96.74ZM146.853 94.92V97.97C146.853 98.1767 146.9 98.3267 146.993 98.42C147.093 98.5067 147.26 98.55 147.493 98.55H148.193V99.5H147.293C146.78 99.5 146.387 99.38 146.113 99.14C145.84 98.9 145.703 98.51 145.703 97.97V94.92H145.053V93.99H145.703V92.62H146.853V93.99H148.193V94.92H146.853ZM152.094 93.9C152.514 93.9 152.887 93.99 153.214 94.17C153.547 94.35 153.807 94.6167 153.994 94.97C154.187 95.3233 154.284 95.75 154.284 96.25V99.5H153.154V96.42C153.154 95.9267 153.031 95.55 152.784 95.29C152.537 95.0233 152.201 94.89 151.774 94.89C151.347 94.89 151.007 95.0233 150.754 95.29C150.507 95.55 150.384 95.9267 150.384 96.42V99.5H149.244V92.1H150.384V94.63C150.577 94.3967 150.821 94.2167 151.114 94.09C151.414 93.9633 151.741 93.9 152.094 93.9ZM160.788 96.61C160.788 96.8167 160.775 97.0033 160.748 97.17H156.538C156.572 97.61 156.735 97.9633 157.028 98.23C157.322 98.4967 157.682 98.63 158.108 98.63C158.722 98.63 159.155 98.3733 159.408 97.86H160.638C160.472 98.3667 160.168 98.7833 159.728 99.11C159.295 99.43 158.755 99.59 158.108 99.59C157.582 99.59 157.108 99.4733 156.688 99.24C156.275 99 155.948 98.6667 155.708 98.24C155.475 97.8067 155.358 97.3067 155.358 96.74C155.358 96.1733 155.472 95.6767 155.698 95.25C155.932 94.8167 156.255 94.4833 156.668 94.25C157.088 94.0167 157.568 93.9 158.108 93.9C158.628 93.9 159.092 94.0133 159.498 94.24C159.905 94.4667 160.222 94.7867 160.448 95.2C160.675 95.6067 160.788 96.0767 160.788 96.61ZM159.598 96.25C159.592 95.83 159.442 95.4933 159.148 95.24C158.855 94.9867 158.492 94.86 158.058 94.86C157.665 94.86 157.328 94.9867 157.048 95.24C156.768 95.4867 156.602 95.8233 156.548 96.25H159.598ZM171.828 92.55V99.5H170.688V94.74L168.568 99.5H167.778L165.648 94.74V99.5H164.508V92.55H165.738L168.178 98L170.608 92.55H171.828ZM173.906 93.26C173.7 93.26 173.526 93.19 173.386 93.05C173.246 92.91 173.176 92.7367 173.176 92.53C173.176 92.3233 173.246 92.15 173.386 92.01C173.526 91.87 173.7 91.8 173.906 91.8C174.106 91.8 174.276 91.87 174.416 92.01C174.556 92.15 174.626 92.3233 174.626 92.53C174.626 92.7367 174.556 92.91 174.416 93.05C174.276 93.19 174.106 93.26 173.906 93.26ZM174.466 93.99V99.5H173.326V93.99H174.466ZM177.103 94.79C177.27 94.51 177.49 94.2933 177.763 94.14C178.043 93.98 178.373 93.9 178.753 93.9V95.08H178.463C178.016 95.08 177.676 95.1933 177.443 95.42C177.216 95.6467 177.103 96.04 177.103 96.6V99.5H175.963V93.99H177.103V94.79ZM179.421 96.72C179.421 96.1667 179.534 95.6767 179.761 95.25C179.994 94.8233 180.307 94.4933 180.701 94.26C181.101 94.02 181.541 93.9 182.021 93.9C182.454 93.9 182.831 93.9867 183.151 94.16C183.477 94.3267 183.737 94.5367 183.931 94.79V93.99H185.081V99.5H183.931V98.68C183.737 98.94 183.474 99.1567 183.141 99.33C182.807 99.5033 182.427 99.59 182.001 99.59C181.527 99.59 181.094 99.47 180.701 99.23C180.307 98.9833 179.994 98.6433 179.761 98.21C179.534 97.77 179.421 97.2733 179.421 96.72ZM183.931 96.74C183.931 96.36 183.851 96.03 183.691 95.75C183.537 95.47 183.334 95.2567 183.081 95.11C182.827 94.9633 182.554 94.89 182.261 94.89C181.967 94.89 181.694 94.9633 181.441 95.11C181.187 95.25 180.981 95.46 180.821 95.74C180.667 96.0133 180.591 96.34 180.591 96.72C180.591 97.1 180.667 97.4333 180.821 97.72C180.981 98.0067 181.187 98.2267 181.441 98.38C181.701 98.5267 181.974 98.6 182.261 98.6C182.554 98.6 182.827 98.5267 183.081 98.38C183.334 98.2333 183.537 98.02 183.691 97.74C183.851 97.4533 183.931 97.12 183.931 96.74ZM189.358 93.9C189.791 93.9 190.178 93.99 190.518 94.17C190.865 94.35 191.135 94.6167 191.328 94.97C191.521 95.3233 191.618 95.75 191.618 96.25V99.5H190.488V96.42C190.488 95.9267 190.365 95.55 190.118 95.29C189.871 95.0233 189.535 94.89 189.108 94.89C188.681 94.89 188.341 95.0233 188.088 95.29C187.841 95.55 187.718 95.9267 187.718 96.42V99.5H186.578V93.99H187.718V94.62C187.905 94.3933 188.141 94.2167 188.428 94.09C188.721 93.9633 189.031 93.9 189.358 93.9ZM192.692 96.72C192.692 96.1667 192.806 95.6767 193.032 95.25C193.266 94.8233 193.579 94.4933 193.972 94.26C194.372 94.02 194.816 93.9 195.302 93.9C195.662 93.9 196.016 93.98 196.362 94.14C196.716 94.2933 196.996 94.5 197.202 94.76V92.1H198.352V99.5H197.202V98.67C197.016 98.9367 196.756 99.1567 196.422 99.33C196.096 99.5033 195.719 99.59 195.292 99.59C194.812 99.59 194.372 99.47 193.972 99.23C193.579 98.9833 193.266 98.6433 193.032 98.21C192.806 97.77 192.692 97.2733 192.692 96.72ZM197.202 96.74C197.202 96.36 197.122 96.03 196.962 95.75C196.809 95.47 196.606 95.2567 196.352 95.11C196.099 94.9633 195.826 94.89 195.532 94.89C195.239 94.89 194.966 94.9633 194.712 95.11C194.459 95.25 194.252 95.46 194.092 95.74C193.939 96.0133 193.862 96.34 193.862 96.72C193.862 97.1 193.939 97.4333 194.092 97.72C194.252 98.0067 194.459 98.2267 194.712 98.38C194.972 98.5267 195.246 98.6 195.532 98.6C195.826 98.6 196.099 98.5267 196.352 98.38C196.606 98.2333 196.809 98.02 196.962 97.74C197.122 97.4533 197.202 97.12 197.202 96.74ZM199.47 96.72C199.47 96.1667 199.583 95.6767 199.81 95.25C200.043 94.8233 200.356 94.4933 200.75 94.26C201.15 94.02 201.59 93.9 202.07 93.9C202.503 93.9 202.88 93.9867 203.2 94.16C203.526 94.3267 203.786 94.5367 203.98 94.79V93.99H205.13V99.5H203.98V98.68C203.786 98.94 203.523 99.1567 203.19 99.33C202.856 99.5033 202.476 99.59 202.05 99.59C201.576 99.59 201.143 99.47 200.75 99.23C200.356 98.9833 200.043 98.6433 199.81 98.21C199.583 97.77 199.47 97.2733 199.47 96.72ZM203.98 96.74C203.98 96.36 203.9 96.03 203.74 95.75C203.586 95.47 203.383 95.2567 203.13 95.11C202.876 94.9633 202.603 94.89 202.31 94.89C202.016 94.89 201.743 94.9633 201.49 95.11C201.236 95.25 201.03 95.46 200.87 95.74C200.716 96.0133 200.64 96.34 200.64 96.72C200.64 97.1 200.716 97.4333 200.87 97.72C201.03 98.0067 201.236 98.2267 201.49 98.38C201.75 98.5267 202.023 98.6 202.31 98.6C202.603 98.6 202.876 98.5267 203.13 98.38C203.383 98.2333 203.586 98.02 203.74 97.74C203.9 97.4533 203.98 97.12 203.98 96.74ZM210.365 94.79C210.531 94.51 210.751 94.2933 211.025 94.14C211.305 93.98 211.635 93.9 212.015 93.9V95.08H211.725C211.278 95.08 210.938 95.1933 210.705 95.42C210.478 95.6467 210.365 96.04 210.365 96.6V99.5H209.225V93.99H210.365V94.79ZM213.643 93.26C213.436 93.26 213.263 93.19 213.123 93.05C212.983 92.91 212.913 92.7367 212.913 92.53C212.913 92.3233 212.983 92.15 213.123 92.01C213.263 91.87 213.436 91.8 213.643 91.8C213.843 91.8 214.013 91.87 214.153 92.01C214.293 92.15 214.363 92.3233 214.363 92.53C214.363 92.7367 214.293 92.91 214.153 93.05C214.013 93.19 213.843 93.26 213.643 93.26ZM214.203 93.99V99.5H213.063V93.99H214.203ZM217.919 93.9C218.346 93.9 218.723 93.9867 219.049 94.16C219.383 94.3267 219.643 94.5367 219.829 94.79V93.99H220.979V99.59C220.979 100.097 220.873 100.547 220.659 100.94C220.446 101.34 220.136 101.653 219.729 101.88C219.329 102.107 218.849 102.22 218.289 102.22C217.543 102.22 216.923 102.043 216.429 101.69C215.936 101.343 215.656 100.87 215.589 100.27H216.719C216.806 100.557 216.989 100.787 217.269 100.96C217.556 101.14 217.896 101.23 218.289 101.23C218.749 101.23 219.119 101.09 219.399 100.81C219.686 100.53 219.829 100.123 219.829 99.59V98.67C219.636 98.93 219.373 99.15 219.039 99.33C218.713 99.5033 218.339 99.59 217.919 99.59C217.439 99.59 216.999 99.47 216.599 99.23C216.206 98.9833 215.893 98.6433 215.659 98.21C215.433 97.77 215.319 97.2733 215.319 96.72C215.319 96.1667 215.433 95.6767 215.659 95.25C215.893 94.8233 216.206 94.4933 216.599 94.26C216.999 94.02 217.439 93.9 217.919 93.9ZM219.829 96.74C219.829 96.36 219.749 96.03 219.589 95.75C219.436 95.47 219.233 95.2567 218.979 95.11C218.726 94.9633 218.453 94.89 218.159 94.89C217.866 94.89 217.593 94.9633 217.339 95.11C217.086 95.25 216.879 95.46 216.719 95.74C216.566 96.0133 216.489 96.34 216.489 96.72C216.489 97.1 216.566 97.4333 216.719 97.72C216.879 98.0067 217.086 98.2267 217.339 98.38C217.599 98.5267 217.873 98.6 218.159 98.6C218.453 98.6 218.726 98.5267 218.979 98.38C219.233 98.2333 219.436 98.02 219.589 97.74C219.749 97.4533 219.829 97.12 219.829 96.74ZM225.327 93.9C225.747 93.9 226.12 93.99 226.447 94.17C226.78 94.35 227.04 94.6167 227.227 94.97C227.42 95.3233 227.517 95.75 227.517 96.25V99.5H226.387V96.42C226.387 95.9267 226.263 95.55 226.017 95.29C225.77 95.0233 225.433 94.89 225.007 94.89C224.58 94.89 224.24 95.0233 223.987 95.29C223.74 95.55 223.617 95.9267 223.617 96.42V99.5H222.477V92.1H223.617V94.63C223.81 94.3967 224.053 94.2167 224.347 94.09C224.647 93.9633 224.973 93.9 225.327 93.9ZM230.301 94.92V97.97C230.301 98.1767 230.347 98.3267 230.441 98.42C230.541 98.5067 230.707 98.55 230.941 98.55H231.641V99.5H230.741C230.227 99.5 229.834 99.38 229.561 99.14C229.287 98.9 229.151 98.51 229.151 97.97V94.92H228.501V93.99H229.151V92.62H230.301V93.99H231.641V94.92H230.301ZM234.691 99.59C234.258 99.59 233.868 99.5133 233.521 99.36C233.181 99.2 232.911 98.9867 232.711 98.72C232.511 98.4467 232.405 98.1433 232.391 97.81H233.571C233.591 98.0433 233.701 98.24 233.901 98.4C234.108 98.5533 234.365 98.63 234.671 98.63C234.991 98.63 235.238 98.57 235.411 98.45C235.591 98.3233 235.681 98.1633 235.681 97.97C235.681 97.7633 235.581 97.61 235.381 97.51C235.188 97.41 234.878 97.3 234.451 97.18C234.038 97.0667 233.701 96.9567 233.441 96.85C233.181 96.7433 232.955 96.58 232.761 96.36C232.575 96.14 232.481 95.85 232.481 95.49C232.481 95.1967 232.568 94.93 232.741 94.69C232.915 94.4433 233.161 94.25 233.481 94.11C233.808 93.97 234.181 93.9 234.601 93.9C235.228 93.9 235.731 94.06 236.111 94.38C236.498 94.6933 236.705 95.1233 236.731 95.67H235.591C235.571 95.4233 235.471 95.2267 235.291 95.08C235.111 94.9333 234.868 94.86 234.561 94.86C234.261 94.86 234.031 94.9167 233.871 95.03C233.711 95.1433 233.631 95.2933 233.631 95.48C233.631 95.6267 233.685 95.75 233.791 95.85C233.898 95.95 234.028 96.03 234.181 96.09C234.335 96.1433 234.561 96.2133 234.861 96.3C235.261 96.4067 235.588 96.5167 235.841 96.63C236.101 96.7367 236.325 96.8967 236.511 97.11C236.698 97.3233 236.795 97.6067 236.801 97.96C236.801 98.2733 236.715 98.5533 236.541 98.8C236.368 99.0467 236.121 99.24 235.801 99.38C235.488 99.52 235.118 99.59 234.691 99.59ZM240.251 96.72C240.251 96.1667 240.364 95.6767 240.591 95.25C240.824 94.8233 241.138 94.4933 241.531 94.26C241.931 94.02 242.371 93.9 242.851 93.9C243.284 93.9 243.661 93.9867 243.981 94.16C244.308 94.3267 244.568 94.5367 244.761 94.79V93.99H245.911V99.5H244.761V98.68C244.568 98.94 244.304 99.1567 243.971 99.33C243.638 99.5033 243.258 99.59 242.831 99.59C242.358 99.59 241.924 99.47 241.531 99.23C241.138 98.9833 240.824 98.6433 240.591 98.21C240.364 97.77 240.251 97.2733 240.251 96.72ZM244.761 96.74C244.761 96.36 244.681 96.03 244.521 95.75C244.368 95.47 244.164 95.2567 243.911 95.11C243.658 94.9633 243.384 94.89 243.091 94.89C242.798 94.89 242.524 94.9633 242.271 95.11C242.018 95.25 241.811 95.46 241.651 95.74C241.498 96.0133 241.421 96.34 241.421 96.72C241.421 97.1 241.498 97.4333 241.651 97.72C241.811 98.0067 242.018 98.2267 242.271 98.38C242.531 98.5267 242.804 98.6 243.091 98.6C243.384 98.6 243.658 98.5267 243.911 98.38C244.164 98.2333 244.368 98.02 244.521 97.74C244.681 97.4533 244.761 97.12 244.761 96.74ZM248.738 94.92V97.97C248.738 98.1767 248.785 98.3267 248.878 98.42C248.978 98.5067 249.145 98.55 249.378 98.55H250.078V99.5H249.178C248.665 99.5 248.272 99.38 247.998 99.14C247.725 98.9 247.588 98.51 247.588 97.97V94.92H246.938V93.99H247.588V92.62H248.738V93.99H250.078V94.92H248.738ZM253.577 95.76C253.577 94.6067 253.77 93.7067 254.157 93.06C254.55 92.4067 255.223 92.08 256.177 92.08C257.13 92.08 257.8 92.4067 258.187 93.06C258.58 93.7067 258.777 94.6067 258.777 95.76C258.777 96.9267 258.58 97.84 258.187 98.5C257.8 99.1533 257.13 99.48 256.177 99.48C255.223 99.48 254.55 99.1533 254.157 98.5C253.77 97.84 253.577 96.9267 253.577 95.76ZM257.657 95.76C257.657 95.22 257.62 94.7633 257.547 94.39C257.48 94.0167 257.34 93.7133 257.127 93.48C256.913 93.24 256.597 93.12 256.177 93.12C255.757 93.12 255.44 93.24 255.227 93.48C255.013 93.7133 254.87 94.0167 254.797 94.39C254.73 94.7633 254.697 95.22 254.697 95.76C254.697 96.32 254.73 96.79 254.797 97.17C254.863 97.55 255.003 97.8567 255.217 98.09C255.437 98.3233 255.757 98.44 256.177 98.44C256.597 98.44 256.913 98.3233 257.127 98.09C257.347 97.8567 257.49 97.55 257.557 97.17C257.623 96.79 257.657 96.32 257.657 95.76ZM259.983 95.76C259.983 94.6067 260.176 93.7067 260.563 93.06C260.956 92.4067 261.629 92.08 262.583 92.08C263.536 92.08 264.206 92.4067 264.593 93.06C264.986 93.7067 265.183 94.6067 265.183 95.76C265.183 96.9267 264.986 97.84 264.593 98.5C264.206 99.1533 263.536 99.48 262.583 99.48C261.629 99.48 260.956 99.1533 260.563 98.5C260.176 97.84 259.983 96.9267 259.983 95.76ZM264.063 95.76C264.063 95.22 264.026 94.7633 263.953 94.39C263.886 94.0167 263.746 93.7133 263.533 93.48C263.319 93.24 263.003 93.12 262.583 93.12C262.163 93.12 261.846 93.24 261.633 93.48C261.419 93.7133 261.276 94.0167 261.203 94.39C261.136 94.7633 261.103 95.22 261.103 95.76C261.103 96.32 261.136 96.79 261.203 97.17C261.269 97.55 261.409 97.8567 261.623 98.09C261.843 98.3233 262.163 98.44 262.583 98.44C263.003 98.44 263.319 98.3233 263.533 98.09C263.753 97.8567 263.896 97.55 263.963 97.17C264.029 96.79 264.063 96.32 264.063 95.76ZM266.999 99.57C266.792 99.57 266.619 99.5 266.479 99.36C266.339 99.22 266.269 99.0467 266.269 98.84C266.269 98.6333 266.339 98.46 266.479 98.32C266.619 98.18 266.792 98.11 266.999 98.11C267.199 98.11 267.369 98.18 267.509 98.32C267.649 98.46 267.719 98.6333 267.719 98.84C267.719 99.0467 267.649 99.22 267.509 99.36C267.369 99.5 267.199 99.57 266.999 99.57ZM266.999 95.37C266.792 95.37 266.619 95.3 266.479 95.16C266.339 95.02 266.269 94.8467 266.269 94.64C266.269 94.4333 266.339 94.26 266.479 94.12C266.619 93.98 266.792 93.91 266.999 93.91C267.199 93.91 267.369 93.98 267.509 94.12C267.649 94.26 267.719 94.4333 267.719 94.64C267.719 94.8467 267.649 95.02 267.509 95.16C267.369 95.3 267.199 95.37 266.999 95.37ZM268.84 95.76C268.84 94.6067 269.034 93.7067 269.42 93.06C269.814 92.4067 270.487 92.08 271.44 92.08C272.394 92.08 273.064 92.4067 273.45 93.06C273.844 93.7067 274.04 94.6067 274.04 95.76C274.04 96.9267 273.844 97.84 273.45 98.5C273.064 99.1533 272.394 99.48 271.44 99.48C270.487 99.48 269.814 99.1533 269.42 98.5C269.034 97.84 268.84 96.9267 268.84 95.76ZM272.92 95.76C272.92 95.22 272.884 94.7633 272.81 94.39C272.744 94.0167 272.604 93.7133 272.39 93.48C272.177 93.24 271.86 93.12 271.44 93.12C271.02 93.12 270.704 93.24 270.49 93.48C270.277 93.7133 270.134 94.0167 270.06 94.39C269.994 94.7633 269.96 95.22 269.96 95.76C269.96 96.32 269.994 96.79 270.06 97.17C270.127 97.55 270.267 97.8567 270.48 98.09C270.7 98.3233 271.02 98.44 271.44 98.44C271.86 98.44 272.177 98.3233 272.39 98.09C272.61 97.8567 272.754 97.55 272.82 97.17C272.887 96.79 272.92 96.32 272.92 95.76ZM275.226 94.01C275.266 93.39 275.503 92.9067 275.936 92.56C276.376 92.2133 276.936 92.04 277.616 92.04C278.083 92.04 278.486 92.1233 278.826 92.29C279.166 92.4567 279.423 92.6833 279.596 92.97C279.77 93.2567 279.856 93.58 279.856 93.94C279.856 94.3533 279.746 94.7067 279.526 95C279.306 95.2933 279.043 95.49 278.736 95.59V95.63C279.13 95.75 279.436 95.97 279.656 96.29C279.876 96.6033 279.986 97.0067 279.986 97.5C279.986 97.8933 279.896 98.2433 279.716 98.55C279.536 98.8567 279.27 99.1 278.916 99.28C278.563 99.4533 278.14 99.54 277.646 99.54C276.926 99.54 276.333 99.3567 275.866 98.99C275.406 98.6167 275.16 98.0833 275.126 97.39H276.226C276.253 97.7433 276.39 98.0333 276.636 98.26C276.883 98.48 277.216 98.59 277.636 98.59C278.043 98.59 278.356 98.48 278.576 98.26C278.796 98.0333 278.906 97.7433 278.906 97.39C278.906 96.9233 278.756 96.5933 278.456 96.4C278.163 96.2 277.71 96.1 277.096 96.1H276.836V95.16H277.106C277.646 95.1533 278.056 95.0633 278.336 94.89C278.623 94.7167 278.766 94.4433 278.766 94.07C278.766 93.75 278.663 93.4967 278.456 93.31C278.25 93.1167 277.956 93.02 277.576 93.02C277.203 93.02 276.913 93.1167 276.706 93.31C276.5 93.4967 276.376 93.73 276.336 94.01H275.226ZM281.794 99.57C281.587 99.57 281.414 99.5 281.274 99.36C281.134 99.22 281.064 99.0467 281.064 98.84C281.064 98.6333 281.134 98.46 281.274 98.32C281.414 98.18 281.587 98.11 281.794 98.11C281.994 98.11 282.164 98.18 282.304 98.32C282.444 98.46 282.514 98.6333 282.514 98.84C282.514 99.0467 282.444 99.22 282.304 99.36C282.164 99.5 281.994 99.57 281.794 99.57ZM281.794 95.37C281.587 95.37 281.414 95.3 281.274 95.16C281.134 95.02 281.064 94.8467 281.064 94.64C281.064 94.4333 281.134 94.26 281.274 94.12C281.414 93.98 281.587 93.91 281.794 93.91C281.994 93.91 282.164 93.98 282.304 94.12C282.444 94.26 282.514 94.4333 282.514 94.64C282.514 94.8467 282.444 95.02 282.304 95.16C282.164 95.3 281.994 95.37 281.794 95.37ZM283.495 97.98V97.12L286.855 92.3H288.235V96.99H289.165V97.98H288.235V99.5H287.115V97.98H283.495ZM287.165 93.46L284.805 96.99H287.165V93.46ZM290.74 97.95C291.38 97.3967 291.883 96.9433 292.25 96.59C292.623 96.23 292.933 95.8567 293.18 95.47C293.426 95.0833 293.55 94.6967 293.55 94.31C293.55 93.91 293.453 93.5967 293.26 93.37C293.073 93.1433 292.776 93.03 292.37 93.03C291.976 93.03 291.67 93.1567 291.45 93.41C291.236 93.6567 291.123 93.99 291.11 94.41H290.01C290.03 93.65 290.256 93.07 290.69 92.67C291.13 92.2633 291.686 92.06 292.36 92.06C293.086 92.06 293.653 92.26 294.06 92.66C294.473 93.06 294.68 93.5933 294.68 94.26C294.68 94.74 294.556 95.2033 294.31 95.65C294.07 96.09 293.78 96.4867 293.44 96.84C293.106 97.1867 292.68 97.59 292.16 98.05L291.71 98.45H294.88V99.4H290.02V98.57L290.74 97.95ZM299.209 93.26C299.002 93.26 298.829 93.19 298.689 93.05C298.549 92.91 298.479 92.7367 298.479 92.53C298.479 92.3233 298.549 92.15 298.689 92.01C298.829 91.87 299.002 91.8 299.209 91.8C299.409 91.8 299.579 91.87 299.719 92.01C299.859 92.15 299.929 92.3233 299.929 92.53C299.929 92.7367 299.859 92.91 299.719 93.05C299.579 93.19 299.409 93.26 299.209 93.26ZM299.769 93.99V99.5H298.629V93.99H299.769ZM304.046 93.9C304.479 93.9 304.866 93.99 305.206 94.17C305.552 94.35 305.822 94.6167 306.016 94.97C306.209 95.3233 306.306 95.75 306.306 96.25V99.5H305.176V96.42C305.176 95.9267 305.052 95.55 304.806 95.29C304.559 95.0233 304.222 94.89 303.796 94.89C303.369 94.89 303.029 95.0233 302.776 95.29C302.529 95.55 302.406 95.9267 302.406 96.42V99.5H301.266V93.99H302.406V94.62C302.592 94.3933 302.829 94.2167 303.116 94.09C303.409 93.9633 303.719 93.9 304.046 93.9ZM56.58 109.92V112.97C56.58 113.177 56.6267 113.327 56.72 113.42C56.82 113.507 56.9867 113.55 57.22 113.55H57.92V114.5H57.02C56.5067 114.5 56.1133 114.38 55.84 114.14C55.5667 113.9 55.43 113.51 55.43 112.97V109.92H54.78V108.99H55.43V107.62H56.58V108.99H57.92V109.92H56.58ZM61.8207 108.9C62.2407 108.9 62.614 108.99 62.9407 109.17C63.274 109.35 63.534 109.617 63.7207 109.97C63.914 110.323 64.0107 110.75 64.0107 111.25V114.5H62.8807V111.42C62.8807 110.927 62.7574 110.55 62.5107 110.29C62.264 110.023 61.9274 109.89 61.5007 109.89C61.074 109.89 60.734 110.023 60.4807 110.29C60.234 110.55 60.1107 110.927 60.1107 111.42V114.5H58.9707V107.1H60.1107V109.63C60.304 109.397 60.5474 109.217 60.8407 109.09C61.1407 108.963 61.4674 108.9 61.8207 108.9ZM70.5148 111.61C70.5148 111.817 70.5015 112.003 70.4748 112.17H66.2648C66.2982 112.61 66.4615 112.963 66.7548 113.23C67.0482 113.497 67.4082 113.63 67.8348 113.63C68.4482 113.63 68.8815 113.373 69.1348 112.86H70.3648C70.1982 113.367 69.8948 113.783 69.4548 114.11C69.0215 114.43 68.4815 114.59 67.8348 114.59C67.3082 114.59 66.8348 114.473 66.4148 114.24C66.0015 114 65.6748 113.667 65.4348 113.24C65.2015 112.807 65.0848 112.307 65.0848 111.74C65.0848 111.173 65.1982 110.677 65.4248 110.25C65.6582 109.817 65.9815 109.483 66.3948 109.25C66.8148 109.017 67.2948 108.9 67.8348 108.9C68.3548 108.9 68.8182 109.013 69.2248 109.24C69.6315 109.467 69.9482 109.787 70.1748 110.2C70.4015 110.607 70.5148 111.077 70.5148 111.61ZM69.3248 111.25C69.3182 110.83 69.1682 110.493 68.8748 110.24C68.5815 109.987 68.2182 109.86 67.7848 109.86C67.3915 109.86 67.0548 109.987 66.7748 110.24C66.4948 110.487 66.3282 110.823 66.2748 111.25H69.3248ZM75.5644 109.92V112.97C75.5644 113.177 75.611 113.327 75.7044 113.42C75.8044 113.507 75.971 113.55 76.2044 113.55H76.9044V114.5H76.0044C75.491 114.5 75.0977 114.38 74.8244 114.14C74.551 113.9 74.4144 113.51 74.4144 112.97V109.92H73.7644V108.99H74.4144V107.62H75.5644V108.99H76.9044V109.92H75.5644ZM79.0951 109.79C79.2617 109.51 79.4817 109.293 79.7551 109.14C80.0351 108.98 80.3651 108.9 80.7451 108.9V110.08H80.4551C80.0084 110.08 79.6684 110.193 79.4351 110.42C79.2084 110.647 79.0951 111.04 79.0951 111.6V114.5H77.9551V108.99H79.0951V109.79ZM81.413 111.72C81.413 111.167 81.5263 110.677 81.753 110.25C81.9863 109.823 82.2996 109.493 82.693 109.26C83.093 109.02 83.533 108.9 84.013 108.9C84.4463 108.9 84.823 108.987 85.143 109.16C85.4696 109.327 85.7296 109.537 85.923 109.79V108.99H87.073V114.5H85.923V113.68C85.7296 113.94 85.4663 114.157 85.133 114.33C84.7996 114.503 84.4196 114.59 83.993 114.59C83.5196 114.59 83.0863 114.47 82.693 114.23C82.2996 113.983 81.9863 113.643 81.753 113.21C81.5263 112.77 81.413 112.273 81.413 111.72ZM85.923 111.74C85.923 111.36 85.843 111.03 85.683 110.75C85.5296 110.47 85.3263 110.257 85.073 110.11C84.8196 109.963 84.5463 109.89 84.253 109.89C83.9596 109.89 83.6863 109.963 83.433 110.11C83.1796 110.25 82.973 110.46 82.813 110.74C82.6596 111.013 82.583 111.34 82.583 111.72C82.583 112.1 82.6596 112.433 82.813 112.72C82.973 113.007 83.1796 113.227 83.433 113.38C83.693 113.527 83.9663 113.6 84.253 113.6C84.5463 113.6 84.8196 113.527 85.073 113.38C85.3263 113.233 85.5296 113.02 85.683 112.74C85.843 112.453 85.923 112.12 85.923 111.74ZM91.3503 108.9C91.7836 108.9 92.1703 108.99 92.5103 109.17C92.857 109.35 93.127 109.617 93.3203 109.97C93.5136 110.323 93.6103 110.75 93.6103 111.25V114.5H92.4803V111.42C92.4803 110.927 92.357 110.55 92.1103 110.29C91.8636 110.023 91.527 109.89 91.1003 109.89C90.6736 109.89 90.3336 110.023 90.0803 110.29C89.8336 110.55 89.7103 110.927 89.7103 111.42V114.5H88.5703V108.99H89.7103V109.62C89.897 109.393 90.1336 109.217 90.4203 109.09C90.7136 108.963 91.0236 108.9 91.3503 108.9ZM97.0645 114.59C96.6311 114.59 96.2411 114.513 95.8945 114.36C95.5545 114.2 95.2845 113.987 95.0845 113.72C94.8845 113.447 94.7778 113.143 94.7645 112.81H95.9445C95.9645 113.043 96.0745 113.24 96.2745 113.4C96.4811 113.553 96.7378 113.63 97.0445 113.63C97.3645 113.63 97.6111 113.57 97.7845 113.45C97.9645 113.323 98.0545 113.163 98.0545 112.97C98.0545 112.763 97.9545 112.61 97.7545 112.51C97.5611 112.41 97.2511 112.3 96.8245 112.18C96.4111 112.067 96.0745 111.957 95.8145 111.85C95.5545 111.743 95.3278 111.58 95.1345 111.36C94.9478 111.14 94.8545 110.85 94.8545 110.49C94.8545 110.197 94.9411 109.93 95.1145 109.69C95.2878 109.443 95.5345 109.25 95.8545 109.11C96.1811 108.97 96.5545 108.9 96.9745 108.9C97.6011 108.9 98.1045 109.06 98.4845 109.38C98.8711 109.693 99.0778 110.123 99.1045 110.67H97.9645C97.9445 110.423 97.8445 110.227 97.6645 110.08C97.4845 109.933 97.2411 109.86 96.9345 109.86C96.6345 109.86 96.4045 109.917 96.2445 110.03C96.0845 110.143 96.0045 110.293 96.0045 110.48C96.0045 110.627 96.0578 110.75 96.1645 110.85C96.2711 110.95 96.4011 111.03 96.5545 111.09C96.7078 111.143 96.9345 111.213 97.2345 111.3C97.6345 111.407 97.9611 111.517 98.2145 111.63C98.4745 111.737 98.6978 111.897 98.8845 112.11C99.0711 112.323 99.1678 112.607 99.1745 112.96C99.1745 113.273 99.0878 113.553 98.9145 113.8C98.7411 114.047 98.4945 114.24 98.1745 114.38C97.8611 114.52 97.4911 114.59 97.0645 114.59ZM100.026 111.74C100.026 111.173 100.14 110.677 100.366 110.25C100.6 109.817 100.92 109.483 101.326 109.25C101.733 109.017 102.2 108.9 102.726 108.9C103.393 108.9 103.943 109.06 104.376 109.38C104.816 109.693 105.113 110.143 105.266 110.73H104.036C103.936 110.457 103.776 110.243 103.556 110.09C103.336 109.937 103.06 109.86 102.726 109.86C102.26 109.86 101.886 110.027 101.606 110.36C101.333 110.687 101.196 111.147 101.196 111.74C101.196 112.333 101.333 112.797 101.606 113.13C101.886 113.463 102.26 113.63 102.726 113.63C103.386 113.63 103.823 113.34 104.036 112.76H105.266C105.106 113.32 104.806 113.767 104.366 114.1C103.926 114.427 103.38 114.59 102.726 114.59C102.2 114.59 101.733 114.473 101.326 114.24C100.92 114 100.6 113.667 100.366 113.24C100.14 112.807 100.026 112.307 100.026 111.74ZM107.542 109.79C107.709 109.51 107.929 109.293 108.202 109.14C108.482 108.98 108.812 108.9 109.192 108.9V110.08H108.902C108.456 110.08 108.116 110.193 107.882 110.42C107.656 110.647 107.542 111.04 107.542 111.6V114.5H106.402V108.99H107.542V109.79ZM110.82 108.26C110.614 108.26 110.44 108.19 110.3 108.05C110.16 107.91 110.09 107.737 110.09 107.53C110.09 107.323 110.16 107.15 110.3 107.01C110.44 106.87 110.614 106.8 110.82 106.8C111.02 106.8 111.19 106.87 111.33 107.01C111.47 107.15 111.54 107.323 111.54 107.53C111.54 107.737 111.47 107.91 111.33 108.05C111.19 108.19 111.02 108.26 110.82 108.26ZM111.38 108.99V114.5H110.24V108.99H111.38ZM114.017 109.8C114.21 109.547 114.474 109.333 114.807 109.16C115.14 108.987 115.517 108.9 115.937 108.9C116.417 108.9 116.854 109.02 117.247 109.26C117.647 109.493 117.96 109.823 118.187 110.25C118.414 110.677 118.527 111.167 118.527 111.72C118.527 112.273 118.414 112.77 118.187 113.21C117.96 113.643 117.647 113.983 117.247 114.23C116.854 114.47 116.417 114.59 115.937 114.59C115.517 114.59 115.144 114.507 114.817 114.34C114.49 114.167 114.224 113.953 114.017 113.7V117.12H112.877V108.99H114.017V109.8ZM117.367 111.72C117.367 111.34 117.287 111.013 117.127 110.74C116.974 110.46 116.767 110.25 116.507 110.11C116.254 109.963 115.98 109.89 115.687 109.89C115.4 109.89 115.127 109.963 114.867 110.11C114.614 110.257 114.407 110.47 114.247 110.75C114.094 111.03 114.017 111.36 114.017 111.74C114.017 112.12 114.094 112.453 114.247 112.74C114.407 113.02 114.614 113.233 114.867 113.38C115.127 113.527 115.4 113.6 115.687 113.6C115.98 113.6 116.254 113.527 116.507 113.38C116.767 113.227 116.974 113.007 117.127 112.72C117.287 112.433 117.367 112.1 117.367 111.72ZM120.984 109.92V112.97C120.984 113.177 121.031 113.327 121.124 113.42C121.224 113.507 121.391 113.55 121.624 113.55H122.324V114.5H121.424C120.911 114.5 120.518 114.38 120.244 114.14C119.971 113.9 119.834 113.51 119.834 112.97V109.92H119.184V108.99H119.834V107.62H120.984V108.99H122.324V109.92H120.984ZM123.835 114.57C123.628 114.57 123.455 114.5 123.315 114.36C123.175 114.22 123.105 114.047 123.105 113.84C123.105 113.633 123.175 113.46 123.315 113.32C123.455 113.18 123.628 113.11 123.835 113.11C124.035 113.11 124.205 113.18 124.345 113.32C124.485 113.46 124.555 113.633 124.555 113.84C124.555 114.047 124.485 114.22 124.345 114.36C124.205 114.5 124.035 114.57 123.835 114.57ZM130.655 107.55C131.395 107.55 132.041 107.693 132.595 107.98C133.155 108.26 133.585 108.667 133.885 109.2C134.191 109.727 134.345 110.343 134.345 111.05C134.345 111.757 134.191 112.37 133.885 112.89C133.585 113.41 133.155 113.81 132.595 114.09C132.041 114.363 131.395 114.5 130.655 114.5H128.385V107.55H130.655ZM130.655 113.57C131.468 113.57 132.091 113.35 132.525 112.91C132.958 112.47 133.175 111.85 133.175 111.05C133.175 110.243 132.958 109.613 132.525 109.16C132.091 108.707 131.468 108.48 130.655 108.48H129.525V113.57H130.655ZM137.865 114.59C137.345 114.59 136.875 114.473 136.455 114.24C136.035 114 135.705 113.667 135.465 113.24C135.225 112.807 135.105 112.307 135.105 111.74C135.105 111.18 135.228 110.683 135.475 110.25C135.721 109.817 136.058 109.483 136.485 109.25C136.911 109.017 137.388 108.9 137.915 108.9C138.441 108.9 138.918 109.017 139.345 109.25C139.771 109.483 140.108 109.817 140.355 110.25C140.601 110.683 140.725 111.18 140.725 111.74C140.725 112.3 140.598 112.797 140.345 113.23C140.091 113.663 139.745 114 139.305 114.24C138.871 114.473 138.391 114.59 137.865 114.59ZM137.865 113.6C138.158 113.6 138.431 113.53 138.685 113.39C138.945 113.25 139.155 113.04 139.315 112.76C139.475 112.48 139.555 112.14 139.555 111.74C139.555 111.34 139.478 111.003 139.325 110.73C139.171 110.45 138.968 110.24 138.715 110.1C138.461 109.96 138.188 109.89 137.895 109.89C137.601 109.89 137.328 109.96 137.075 110.1C136.828 110.24 136.631 110.45 136.485 110.73C136.338 111.003 136.265 111.34 136.265 111.74C136.265 112.333 136.415 112.793 136.715 113.12C137.021 113.44 137.405 113.6 137.865 113.6ZM149.409 108.99L146.029 117.09H144.849L145.969 114.41L143.799 108.99H145.069L146.619 113.19L148.229 108.99H149.409ZM152.66 114.59C152.14 114.59 151.67 114.473 151.25 114.24C150.83 114 150.5 113.667 150.26 113.24C150.02 112.807 149.9 112.307 149.9 111.74C149.9 111.18 150.023 110.683 150.27 110.25C150.516 109.817 150.853 109.483 151.28 109.25C151.706 109.017 152.183 108.9 152.71 108.9C153.236 108.9 153.713 109.017 154.14 109.25C154.566 109.483 154.903 109.817 155.15 110.25C155.396 110.683 155.52 111.18 155.52 111.74C155.52 112.3 155.393 112.797 155.14 113.23C154.886 113.663 154.54 114 154.1 114.24C153.666 114.473 153.186 114.59 152.66 114.59ZM152.66 113.6C152.953 113.6 153.226 113.53 153.48 113.39C153.74 113.25 153.95 113.04 154.11 112.76C154.27 112.48 154.35 112.14 154.35 111.74C154.35 111.34 154.273 111.003 154.12 110.73C153.966 110.45 153.763 110.24 153.51 110.1C153.256 109.96 152.983 109.89 152.69 109.89C152.396 109.89 152.123 109.96 151.87 110.1C151.623 110.24 151.426 110.45 151.28 110.73C151.133 111.003 151.06 111.34 151.06 111.74C151.06 112.333 151.21 112.793 151.51 113.12C151.816 113.44 152.2 113.6 152.66 113.6ZM161.636 108.99V114.5H160.496V113.85C160.316 114.077 160.08 114.257 159.786 114.39C159.5 114.517 159.193 114.58 158.866 114.58C158.433 114.58 158.043 114.49 157.696 114.31C157.356 114.13 157.086 113.863 156.886 113.51C156.693 113.157 156.596 112.73 156.596 112.23V108.99H157.726V112.06C157.726 112.553 157.85 112.933 158.096 113.2C158.343 113.46 158.68 113.59 159.106 113.59C159.533 113.59 159.87 113.46 160.116 113.2C160.37 112.933 160.496 112.553 160.496 112.06V108.99H161.636ZM173.138 108.99L171.428 114.5H170.228L169.118 110.43L168.008 114.5H166.808L165.088 108.99H166.248L167.398 113.42L168.568 108.99H169.758L170.878 113.4L172.018 108.99H173.138ZM173.61 111.72C173.61 111.167 173.724 110.677 173.95 110.25C174.184 109.823 174.497 109.493 174.89 109.26C175.29 109.02 175.73 108.9 176.21 108.9C176.644 108.9 177.02 108.987 177.34 109.16C177.667 109.327 177.927 109.537 178.12 109.79V108.99H179.27V114.5H178.12V113.68C177.927 113.94 177.664 114.157 177.33 114.33C176.997 114.503 176.617 114.59 176.19 114.59C175.717 114.59 175.284 114.47 174.89 114.23C174.497 113.983 174.184 113.643 173.95 113.21C173.724 112.77 173.61 112.273 173.61 111.72ZM178.12 111.74C178.12 111.36 178.04 111.03 177.88 110.75C177.727 110.47 177.524 110.257 177.27 110.11C177.017 109.963 176.744 109.89 176.45 109.89C176.157 109.89 175.884 109.963 175.63 110.11C175.377 110.25 175.17 110.46 175.01 110.74C174.857 111.013 174.78 111.34 174.78 111.72C174.78 112.1 174.857 112.433 175.01 112.72C175.17 113.007 175.377 113.227 175.63 113.38C175.89 113.527 176.164 113.6 176.45 113.6C176.744 113.6 177.017 113.527 177.27 113.38C177.524 113.233 177.727 113.02 177.88 112.74C178.04 112.453 178.12 112.12 178.12 111.74ZM183.548 108.9C183.981 108.9 184.368 108.99 184.708 109.17C185.054 109.35 185.324 109.617 185.518 109.97C185.711 110.323 185.808 110.75 185.808 111.25V114.5H184.678V111.42C184.678 110.927 184.554 110.55 184.308 110.29C184.061 110.023 183.724 109.89 183.298 109.89C182.871 109.89 182.531 110.023 182.278 110.29C182.031 110.55 181.908 110.927 181.908 111.42V114.5H180.768V108.99H181.908V109.62C182.094 109.393 182.331 109.217 182.618 109.09C182.911 108.963 183.221 108.9 183.548 108.9ZM188.592 109.92V112.97C188.592 113.177 188.638 113.327 188.732 113.42C188.832 113.507 188.998 113.55 189.232 113.55H189.932V114.5H189.032C188.518 114.5 188.125 114.38 187.852 114.14C187.578 113.9 187.442 113.51 187.442 112.97V109.92H186.792V108.99H187.442V107.62H188.592V108.99H189.932V109.92H188.592ZM194.91 109.92V112.97C194.91 113.177 194.957 113.327 195.05 113.42C195.15 113.507 195.317 113.55 195.55 113.55H196.25V114.5H195.35C194.837 114.5 194.443 114.38 194.17 114.14C193.897 113.9 193.76 113.51 193.76 112.97V109.92H193.11V108.99H193.76V107.62H194.91V108.99H196.25V109.92H194.91ZM199.691 114.59C199.171 114.59 198.701 114.473 198.281 114.24C197.861 114 197.531 113.667 197.291 113.24C197.051 112.807 196.931 112.307 196.931 111.74C196.931 111.18 197.054 110.683 197.301 110.25C197.547 109.817 197.884 109.483 198.311 109.25C198.737 109.017 199.214 108.9 199.741 108.9C200.267 108.9 200.744 109.017 201.171 109.25C201.597 109.483 201.934 109.817 202.181 110.25C202.427 110.683 202.551 111.18 202.551 111.74C202.551 112.3 202.424 112.797 202.171 113.23C201.917 113.663 201.571 114 201.131 114.24C200.697 114.473 200.217 114.59 199.691 114.59ZM199.691 113.6C199.984 113.6 200.257 113.53 200.511 113.39C200.771 113.25 200.981 113.04 201.141 112.76C201.301 112.48 201.381 112.14 201.381 111.74C201.381 111.34 201.304 111.003 201.151 110.73C200.997 110.45 200.794 110.24 200.541 110.1C200.287 109.96 200.014 109.89 199.721 109.89C199.427 109.89 199.154 109.96 198.901 110.1C198.654 110.24 198.457 110.45 198.311 110.73C198.164 111.003 198.091 111.34 198.091 111.74C198.091 112.333 198.241 112.793 198.541 113.12C198.847 113.44 199.231 113.6 199.691 113.6ZM206.855 108.26C206.649 108.26 206.475 108.19 206.335 108.05C206.195 107.91 206.125 107.737 206.125 107.53C206.125 107.323 206.195 107.15 206.335 107.01C206.475 106.87 206.649 106.8 206.855 106.8C207.055 106.8 207.225 106.87 207.365 107.01C207.505 107.15 207.575 107.323 207.575 107.53C207.575 107.737 207.505 107.91 207.365 108.05C207.225 108.19 207.055 108.26 206.855 108.26ZM207.415 115.58C207.415 116.12 207.279 116.51 207.005 116.75C206.739 116.997 206.349 117.12 205.835 117.12H205.245V116.16H205.635C205.869 116.16 206.032 116.113 206.125 116.02C206.225 115.933 206.275 115.787 206.275 115.58V108.99H207.415V115.58ZM213.902 108.99V114.5H212.762V113.85C212.582 114.077 212.345 114.257 212.052 114.39C211.765 114.517 211.459 114.58 211.132 114.58C210.699 114.58 210.309 114.49 209.962 114.31C209.622 114.13 209.352 113.863 209.152 113.51C208.959 113.157 208.862 112.73 208.862 112.23V108.99H209.992V112.06C209.992 112.553 210.115 112.933 210.362 113.2C210.609 113.46 210.945 113.59 211.372 113.59C211.799 113.59 212.135 113.46 212.382 113.2C212.635 112.933 212.762 112.553 212.762 112.06V108.99H213.902ZM222.076 108.9C222.51 108.9 222.896 108.99 223.236 109.17C223.583 109.35 223.853 109.617 224.046 109.97C224.246 110.323 224.346 110.75 224.346 111.25V114.5H223.216V111.42C223.216 110.927 223.093 110.55 222.846 110.29C222.6 110.023 222.263 109.89 221.836 109.89C221.41 109.89 221.07 110.023 220.816 110.29C220.57 110.55 220.446 110.927 220.446 111.42V114.5H219.316V111.42C219.316 110.927 219.193 110.55 218.946 110.29C218.7 110.023 218.363 109.89 217.936 109.89C217.51 109.89 217.17 110.023 216.916 110.29C216.67 110.55 216.546 110.927 216.546 111.42V114.5H215.406V108.99H216.546V109.62C216.733 109.393 216.97 109.217 217.256 109.09C217.543 108.963 217.85 108.9 218.176 108.9C218.616 108.9 219.01 108.993 219.356 109.18C219.703 109.367 219.97 109.637 220.156 109.99C220.323 109.657 220.583 109.393 220.936 109.2C221.29 109 221.67 108.9 222.076 108.9ZM226.937 109.8C227.13 109.547 227.394 109.333 227.727 109.16C228.06 108.987 228.437 108.9 228.857 108.9C229.337 108.9 229.774 109.02 230.167 109.26C230.567 109.493 230.88 109.823 231.107 110.25C231.334 110.677 231.447 111.167 231.447 111.72C231.447 112.273 231.334 112.77 231.107 113.21C230.88 113.643 230.567 113.983 230.167 114.23C229.774 114.47 229.337 114.59 228.857 114.59C228.437 114.59 228.064 114.507 227.737 114.34C227.41 114.167 227.144 113.953 226.937 113.7V117.12H225.797V108.99H226.937V109.8ZM230.287 111.72C230.287 111.34 230.207 111.013 230.047 110.74C229.894 110.46 229.687 110.25 229.427 110.11C229.174 109.963 228.9 109.89 228.607 109.89C228.32 109.89 228.047 109.963 227.787 110.11C227.534 110.257 227.327 110.47 227.167 110.75C227.014 111.03 226.937 111.36 226.937 111.74C226.937 112.12 227.014 112.453 227.167 112.74C227.327 113.02 227.534 113.233 227.787 113.38C228.047 113.527 228.32 113.6 228.607 113.6C228.9 113.6 229.174 113.527 229.427 113.38C229.687 113.227 229.894 113.007 230.047 112.72C230.207 112.433 230.287 112.1 230.287 111.72ZM236.502 109.92V112.97C236.502 113.177 236.549 113.327 236.642 113.42C236.742 113.507 236.909 113.55 237.142 113.55H237.842V114.5H236.942C236.429 114.5 236.035 114.38 235.762 114.14C235.489 113.9 235.352 113.51 235.352 112.97V109.92H234.702V108.99H235.352V107.62H236.502V108.99H237.842V109.92H236.502ZM241.283 114.59C240.763 114.59 240.293 114.473 239.873 114.24C239.453 114 239.123 113.667 238.883 113.24C238.643 112.807 238.523 112.307 238.523 111.74C238.523 111.18 238.646 110.683 238.893 110.25C239.139 109.817 239.476 109.483 239.903 109.25C240.329 109.017 240.806 108.9 241.333 108.9C241.859 108.9 242.336 109.017 242.763 109.25C243.189 109.483 243.526 109.817 243.773 110.25C244.019 110.683 244.143 111.18 244.143 111.74C244.143 112.3 244.016 112.797 243.763 113.23C243.509 113.663 243.163 114 242.723 114.24C242.289 114.473 241.809 114.59 241.283 114.59ZM241.283 113.6C241.576 113.6 241.849 113.53 242.103 113.39C242.363 113.25 242.573 113.04 242.733 112.76C242.893 112.48 242.973 112.14 242.973 111.74C242.973 111.34 242.896 111.003 242.743 110.73C242.589 110.45 242.386 110.24 242.133 110.1C241.879 109.96 241.606 109.89 241.313 109.89C241.019 109.89 240.746 109.96 240.493 110.1C240.246 110.24 240.049 110.45 239.903 110.73C239.756 111.003 239.683 111.34 239.683 111.74C239.683 112.333 239.833 112.793 240.133 113.12C240.439 113.44 240.823 113.6 241.283 113.6ZM249.197 109.92V112.97C249.197 113.177 249.244 113.327 249.337 113.42C249.437 113.507 249.604 113.55 249.837 113.55H250.537V114.5H249.637C249.124 114.5 248.731 114.38 248.457 114.14C248.184 113.9 248.047 113.51 248.047 112.97V109.92H247.397V108.99H248.047V107.62H249.197V108.99H250.537V109.92H249.197ZM254.438 108.9C254.858 108.9 255.231 108.99 255.558 109.17C255.891 109.35 256.151 109.617 256.338 109.97C256.531 110.323 256.628 110.75 256.628 111.25V114.5H255.498V111.42C255.498 110.927 255.375 110.55 255.128 110.29C254.881 110.023 254.545 109.89 254.118 109.89C253.691 109.89 253.351 110.023 253.098 110.29C252.851 110.55 252.728 110.927 252.728 111.42V114.5H251.588V107.1H252.728V109.63C252.921 109.397 253.165 109.217 253.458 109.09C253.758 108.963 254.085 108.9 254.438 108.9ZM257.702 111.72C257.702 111.167 257.815 110.677 258.042 110.25C258.275 109.823 258.589 109.493 258.982 109.26C259.382 109.02 259.822 108.9 260.302 108.9C260.735 108.9 261.112 108.987 261.432 109.16C261.759 109.327 262.019 109.537 262.212 109.79V108.99H263.362V114.5H262.212V113.68C262.019 113.94 261.755 114.157 261.422 114.33C261.089 114.503 260.709 114.59 260.282 114.59C259.809 114.59 259.375 114.47 258.982 114.23C258.589 113.983 258.275 113.643 258.042 113.21C257.815 112.77 257.702 112.273 257.702 111.72ZM262.212 111.74C262.212 111.36 262.132 111.03 261.972 110.75C261.819 110.47 261.615 110.257 261.362 110.11C261.109 109.963 260.835 109.89 260.542 109.89C260.249 109.89 259.975 109.963 259.722 110.11C259.469 110.25 259.262 110.46 259.102 110.74C258.949 111.013 258.872 111.34 258.872 111.72C258.872 112.1 258.949 112.433 259.102 112.72C259.262 113.007 259.469 113.227 259.722 113.38C259.982 113.527 260.255 113.6 260.542 113.6C260.835 113.6 261.109 113.527 261.362 113.38C261.615 113.233 261.819 113.02 261.972 112.74C262.132 112.453 262.212 112.12 262.212 111.74ZM266.189 109.92V112.97C266.189 113.177 266.236 113.327 266.329 113.42C266.429 113.507 266.596 113.55 266.829 113.55H267.529V114.5H266.629C266.116 114.5 265.723 114.38 265.449 114.14C265.176 113.9 265.039 113.51 265.039 112.97V109.92H264.389V108.99H265.039V107.62H266.189V108.99H267.529V109.92H266.189ZM61.92 123.9C62.3533 123.9 62.74 123.99 63.08 124.17C63.4267 124.35 63.6967 124.617 63.89 124.97C64.09 125.323 64.19 125.75 64.19 126.25V129.5H63.06V126.42C63.06 125.927 62.9367 125.55 62.69 125.29C62.4433 125.023 62.1067 124.89 61.68 124.89C61.2533 124.89 60.9133 125.023 60.66 125.29C60.4133 125.55 60.29 125.927 60.29 126.42V129.5H59.16V126.42C59.16 125.927 59.0367 125.55 58.79 125.29C58.5433 125.023 58.2067 124.89 57.78 124.89C57.3533 124.89 57.0133 125.023 56.76 125.29C56.5133 125.55 56.39 125.927 56.39 126.42V129.5H55.25V123.99H56.39V124.62C56.5767 124.393 56.8133 124.217 57.1 124.09C57.3867 123.963 57.6933 123.9 58.02 123.9C58.46 123.9 58.8533 123.993 59.2 124.18C59.5467 124.367 59.8133 124.637 60 124.99C60.1667 124.657 60.4267 124.393 60.78 124.2C61.1333 124 61.5133 123.9 61.92 123.9ZM68.0306 129.59C67.5106 129.59 67.0406 129.473 66.6206 129.24C66.2006 129 65.8706 128.667 65.6306 128.24C65.3906 127.807 65.2706 127.307 65.2706 126.74C65.2706 126.18 65.394 125.683 65.6406 125.25C65.8873 124.817 66.224 124.483 66.6506 124.25C67.0773 124.017 67.554 123.9 68.0806 123.9C68.6073 123.9 69.084 124.017 69.5106 124.25C69.9373 124.483 70.274 124.817 70.5206 125.25C70.7673 125.683 70.8906 126.18 70.8906 126.74C70.8906 127.3 70.764 127.797 70.5106 128.23C70.2573 128.663 69.9106 129 69.4706 129.24C69.0373 129.473 68.5573 129.59 68.0306 129.59ZM68.0306 128.6C68.324 128.6 68.5973 128.53 68.8506 128.39C69.1106 128.25 69.3206 128.04 69.4806 127.76C69.6406 127.48 69.7206 127.14 69.7206 126.74C69.7206 126.34 69.644 126.003 69.4906 125.73C69.3373 125.45 69.134 125.24 68.8806 125.1C68.6273 124.96 68.354 124.89 68.0606 124.89C67.7673 124.89 67.494 124.96 67.2406 125.1C66.994 125.24 66.7973 125.45 66.6506 125.73C66.504 126.003 66.4306 126.34 66.4306 126.74C66.4306 127.333 66.5806 127.793 66.8806 128.12C67.1873 128.44 67.5706 128.6 68.0306 128.6ZM78.6876 123.9C79.1209 123.9 79.5076 123.99 79.8476 124.17C80.1942 124.35 80.4642 124.617 80.6576 124.97C80.8576 125.323 80.9576 125.75 80.9576 126.25V129.5H79.8276V126.42C79.8276 125.927 79.7042 125.55 79.4576 125.29C79.2109 125.023 78.8742 124.89 78.4476 124.89C78.0209 124.89 77.6809 125.023 77.4276 125.29C77.1809 125.55 77.0576 125.927 77.0576 126.42V129.5H75.9276V126.42C75.9276 125.927 75.8042 125.55 75.5576 125.29C75.3109 125.023 74.9742 124.89 74.5476 124.89C74.1209 124.89 73.7809 125.023 73.5276 125.29C73.2809 125.55 73.1576 125.927 73.1576 126.42V129.5H72.0176V123.99H73.1576V124.62C73.3442 124.393 73.5809 124.217 73.8676 124.09C74.1542 123.963 74.4609 123.9 74.7876 123.9C75.2276 123.9 75.6209 123.993 75.9676 124.18C76.3142 124.367 76.5809 124.637 76.7676 124.99C76.9342 124.657 77.1942 124.393 77.5476 124.2C77.9009 124 78.2809 123.9 78.6876 123.9ZM87.4582 126.61C87.4582 126.817 87.4449 127.003 87.4182 127.17H83.2082C83.2415 127.61 83.4049 127.963 83.6982 128.23C83.9915 128.497 84.3515 128.63 84.7782 128.63C85.3915 128.63 85.8249 128.373 86.0782 127.86H87.3082C87.1415 128.367 86.8382 128.783 86.3982 129.11C85.9649 129.43 85.4249 129.59 84.7782 129.59C84.2515 129.59 83.7782 129.473 83.3582 129.24C82.9449 129 82.6182 128.667 82.3782 128.24C82.1449 127.807 82.0282 127.307 82.0282 126.74C82.0282 126.173 82.1415 125.677 82.3682 125.25C82.6015 124.817 82.9249 124.483 83.3382 124.25C83.7582 124.017 84.2382 123.9 84.7782 123.9C85.2982 123.9 85.7615 124.013 86.1682 124.24C86.5749 124.467 86.8915 124.787 87.1182 125.2C87.3449 125.607 87.4582 126.077 87.4582 126.61ZM86.2682 126.25C86.2615 125.83 86.1115 125.493 85.8182 125.24C85.5249 124.987 85.1615 124.86 84.7282 124.86C84.3349 124.86 83.9982 124.987 83.7182 125.24C83.4382 125.487 83.2715 125.823 83.2182 126.25H86.2682ZM91.3601 123.9C91.7934 123.9 92.1801 123.99 92.5201 124.17C92.8667 124.35 93.1367 124.617 93.3301 124.97C93.5234 125.323 93.6201 125.75 93.6201 126.25V129.5H92.4901V126.42C92.4901 125.927 92.3667 125.55 92.1201 125.29C91.8734 125.023 91.5367 124.89 91.1101 124.89C90.6834 124.89 90.3434 125.023 90.0901 125.29C89.8434 125.55 89.7201 125.927 89.7201 126.42V129.5H88.5801V123.99H89.7201V124.62C89.9067 124.393 90.1434 124.217 90.4301 124.09C90.7234 123.963 91.0334 123.9 91.3601 123.9ZM96.4042 124.92V127.97C96.4042 128.177 96.4509 128.327 96.5442 128.42C96.6442 128.507 96.8109 128.55 97.0442 128.55H97.7442V129.5H96.8442C96.3309 129.5 95.9376 129.38 95.6642 129.14C95.3909 128.9 95.2542 128.51 95.2542 127.97V124.92H94.6042V123.99H95.2542V122.62H96.4042V123.99H97.7442V124.92H96.4042ZM101.973 123.26C101.766 123.26 101.593 123.19 101.453 123.05C101.313 122.91 101.243 122.737 101.243 122.53C101.243 122.323 101.313 122.15 101.453 122.01C101.593 121.87 101.766 121.8 101.973 121.8C102.173 121.8 102.343 121.87 102.483 122.01C102.623 122.15 102.693 122.323 102.693 122.53C102.693 122.737 102.623 122.91 102.483 123.05C102.343 123.19 102.173 123.26 101.973 123.26ZM102.533 123.99V129.5H101.393V123.99H102.533ZM106.809 123.9C107.243 123.9 107.629 123.99 107.969 124.17C108.316 124.35 108.586 124.617 108.779 124.97C108.973 125.323 109.069 125.75 109.069 126.25V129.5H107.939V126.42C107.939 125.927 107.816 125.55 107.569 125.29C107.323 125.023 106.986 124.89 106.559 124.89C106.133 124.89 105.793 125.023 105.539 125.29C105.293 125.55 105.169 125.927 105.169 126.42V129.5H104.029V123.99H105.169V124.62C105.356 124.393 105.593 124.217 105.879 124.09C106.173 123.963 106.483 123.9 106.809 123.9ZM114.451 124.92V127.97C114.451 128.177 114.498 128.327 114.591 128.42C114.691 128.507 114.858 128.55 115.091 128.55H115.791V129.5H114.891C114.378 129.5 113.984 129.38 113.711 129.14C113.438 128.9 113.301 128.51 113.301 127.97V124.92H112.651V123.99H113.301V122.62H114.451V123.99H115.791V124.92H114.451ZM119.692 123.9C120.112 123.9 120.485 123.99 120.812 124.17C121.145 124.35 121.405 124.617 121.592 124.97C121.785 125.323 121.882 125.75 121.882 126.25V129.5H120.752V126.42C120.752 125.927 120.628 125.55 120.382 125.29C120.135 125.023 119.798 124.89 119.372 124.89C118.945 124.89 118.605 125.023 118.352 125.29C118.105 125.55 117.982 125.927 117.982 126.42V129.5H116.842V122.1H117.982V124.63C118.175 124.397 118.418 124.217 118.712 124.09C119.012 123.963 119.338 123.9 119.692 123.9ZM128.386 126.61C128.386 126.817 128.373 127.003 128.346 127.17H124.136C124.169 127.61 124.333 127.963 124.626 128.23C124.919 128.497 125.279 128.63 125.706 128.63C126.319 128.63 126.753 128.373 127.006 127.86H128.236C128.069 128.367 127.766 128.783 127.326 129.11C126.893 129.43 126.353 129.59 125.706 129.59C125.179 129.59 124.706 129.473 124.286 129.24C123.873 129 123.546 128.667 123.306 128.24C123.073 127.807 122.956 127.307 122.956 126.74C122.956 126.173 123.069 125.677 123.296 125.25C123.529 124.817 123.853 124.483 124.266 124.25C124.686 124.017 125.166 123.9 125.706 123.9C126.226 123.9 126.689 124.013 127.096 124.24C127.503 124.467 127.819 124.787 128.046 125.2C128.273 125.607 128.386 126.077 128.386 126.61ZM127.196 126.25C127.189 125.83 127.039 125.493 126.746 125.24C126.453 124.987 126.089 124.86 125.656 124.86C125.263 124.86 124.926 124.987 124.646 125.24C124.366 125.487 124.199 125.823 124.146 126.25H127.196ZM133.245 124.79C133.412 124.51 133.632 124.293 133.905 124.14C134.185 123.98 134.515 123.9 134.895 123.9V125.08H134.605C134.159 125.08 133.819 125.193 133.585 125.42C133.359 125.647 133.245 126.04 133.245 126.6V129.5H132.105V123.99H133.245V124.79ZM140.993 126.61C140.993 126.817 140.98 127.003 140.953 127.17H136.743C136.777 127.61 136.94 127.963 137.233 128.23C137.527 128.497 137.887 128.63 138.313 128.63C138.927 128.63 139.36 128.373 139.613 127.86H140.843C140.677 128.367 140.373 128.783 139.933 129.11C139.5 129.43 138.96 129.59 138.313 129.59C137.787 129.59 137.313 129.473 136.893 129.24C136.48 129 136.153 128.667 135.913 128.24C135.68 127.807 135.563 127.307 135.563 126.74C135.563 126.173 135.677 125.677 135.903 125.25C136.137 124.817 136.46 124.483 136.873 124.25C137.293 124.017 137.773 123.9 138.313 123.9C138.833 123.9 139.297 124.013 139.703 124.24C140.11 124.467 140.427 124.787 140.653 125.2C140.88 125.607 140.993 126.077 140.993 126.61ZM139.803 126.25C139.797 125.83 139.647 125.493 139.353 125.24C139.06 124.987 138.697 124.86 138.263 124.86C137.87 124.86 137.533 124.987 137.253 125.24C136.973 125.487 136.807 125.823 136.753 126.25H139.803ZM141.735 126.74C141.735 126.173 141.849 125.677 142.075 125.25C142.309 124.817 142.629 124.483 143.035 124.25C143.442 124.017 143.909 123.9 144.435 123.9C145.102 123.9 145.652 124.06 146.085 124.38C146.525 124.693 146.822 125.143 146.975 125.73H145.745C145.645 125.457 145.485 125.243 145.265 125.09C145.045 124.937 144.769 124.86 144.435 124.86C143.969 124.86 143.595 125.027 143.315 125.36C143.042 125.687 142.905 126.147 142.905 126.74C142.905 127.333 143.042 127.797 143.315 128.13C143.595 128.463 143.969 128.63 144.435 128.63C145.095 128.63 145.532 128.34 145.745 127.76H146.975C146.815 128.32 146.515 128.767 146.075 129.1C145.635 129.427 145.089 129.59 144.435 129.59C143.909 129.59 143.442 129.473 143.035 129.24C142.629 129 142.309 128.667 142.075 128.24C141.849 127.807 141.735 127.307 141.735 126.74ZM150.501 129.59C149.981 129.59 149.511 129.473 149.091 129.24C148.671 129 148.341 128.667 148.101 128.24C147.861 127.807 147.741 127.307 147.741 126.74C147.741 126.18 147.865 125.683 148.111 125.25C148.358 124.817 148.695 124.483 149.121 124.25C149.548 124.017 150.025 123.9 150.551 123.9C151.078 123.9 151.555 124.017 151.981 124.25C152.408 124.483 152.745 124.817 152.991 125.25C153.238 125.683 153.361 126.18 153.361 126.74C153.361 127.3 153.235 127.797 152.981 128.23C152.728 128.663 152.381 129 151.941 129.24C151.508 129.473 151.028 129.59 150.501 129.59ZM150.501 128.6C150.795 128.6 151.068 128.53 151.321 128.39C151.581 128.25 151.791 128.04 151.951 127.76C152.111 127.48 152.191 127.14 152.191 126.74C152.191 126.34 152.115 126.003 151.961 125.73C151.808 125.45 151.605 125.24 151.351 125.1C151.098 124.96 150.825 124.89 150.531 124.89C150.238 124.89 149.965 124.96 149.711 125.1C149.465 125.24 149.268 125.45 149.121 125.73C148.975 126.003 148.901 126.34 148.901 126.74C148.901 127.333 149.051 127.793 149.351 128.12C149.658 128.44 150.041 128.6 150.501 128.6ZM155.628 124.79C155.795 124.51 156.015 124.293 156.288 124.14C156.568 123.98 156.898 123.9 157.278 123.9V125.08H156.988C156.542 125.08 156.202 125.193 155.968 125.42C155.742 125.647 155.628 126.04 155.628 126.6V129.5H154.488V123.99H155.628V124.79ZM157.946 126.72C157.946 126.167 158.06 125.677 158.286 125.25C158.52 124.823 158.833 124.493 159.226 124.26C159.626 124.02 160.07 123.9 160.556 123.9C160.916 123.9 161.27 123.98 161.616 124.14C161.97 124.293 162.25 124.5 162.456 124.76V122.1H163.606V129.5H162.456V128.67C162.27 128.937 162.01 129.157 161.676 129.33C161.35 129.503 160.973 129.59 160.546 129.59C160.066 129.59 159.626 129.47 159.226 129.23C158.833 128.983 158.52 128.643 158.286 128.21C158.06 127.77 157.946 127.273 157.946 126.72ZM162.456 126.74C162.456 126.36 162.376 126.03 162.216 125.75C162.063 125.47 161.86 125.257 161.606 125.11C161.353 124.963 161.08 124.89 160.786 124.89C160.493 124.89 160.22 124.963 159.966 125.11C159.713 125.25 159.506 125.46 159.346 125.74C159.193 126.013 159.116 126.34 159.116 126.72C159.116 127.1 159.193 127.433 159.346 127.72C159.506 128.007 159.713 128.227 159.966 128.38C160.226 128.527 160.5 128.6 160.786 128.6C161.08 128.6 161.353 128.527 161.606 128.38C161.86 128.233 162.063 128.02 162.216 127.74C162.376 127.453 162.456 127.12 162.456 126.74ZM165.684 123.26C165.477 123.26 165.304 123.19 165.164 123.05C165.024 122.91 164.954 122.737 164.954 122.53C164.954 122.323 165.024 122.15 165.164 122.01C165.304 121.87 165.477 121.8 165.684 121.8C165.884 121.8 166.054 121.87 166.194 122.01C166.334 122.15 166.404 122.323 166.404 122.53C166.404 122.737 166.334 122.91 166.194 123.05C166.054 123.19 165.884 123.26 165.684 123.26ZM166.244 123.99V129.5H165.104V123.99H166.244ZM170.52 123.9C170.954 123.9 171.34 123.99 171.68 124.17C172.027 124.35 172.297 124.617 172.49 124.97C172.684 125.323 172.78 125.75 172.78 126.25V129.5H171.65V126.42C171.65 125.927 171.527 125.55 171.28 125.29C171.034 125.023 170.697 124.89 170.27 124.89C169.844 124.89 169.504 125.023 169.25 125.29C169.004 125.55 168.88 125.927 168.88 126.42V129.5H167.74V123.99H168.88V124.62C169.067 124.393 169.304 124.217 169.59 124.09C169.884 123.963 170.194 123.9 170.52 123.9ZM176.454 123.9C176.881 123.9 177.258 123.987 177.584 124.16C177.918 124.327 178.178 124.537 178.364 124.79V123.99H179.514V129.59C179.514 130.097 179.408 130.547 179.194 130.94C178.981 131.34 178.671 131.653 178.264 131.88C177.864 132.107 177.384 132.22 176.824 132.22C176.078 132.22 175.458 132.043 174.964 131.69C174.471 131.343 174.191 130.87 174.124 130.27H175.254C175.341 130.557 175.524 130.787 175.804 130.96C176.091 131.14 176.431 131.23 176.824 131.23C177.284 131.23 177.654 131.09 177.934 130.81C178.221 130.53 178.364 130.123 178.364 129.59V128.67C178.171 128.93 177.908 129.15 177.574 129.33C177.248 129.503 176.874 129.59 176.454 129.59C175.974 129.59 175.534 129.47 175.134 129.23C174.741 128.983 174.428 128.643 174.194 128.21C173.968 127.77 173.854 127.273 173.854 126.72C173.854 126.167 173.968 125.677 174.194 125.25C174.428 124.823 174.741 124.493 175.134 124.26C175.534 124.02 175.974 123.9 176.454 123.9ZM178.364 126.74C178.364 126.36 178.284 126.03 178.124 125.75C177.971 125.47 177.768 125.257 177.514 125.11C177.261 124.963 176.988 124.89 176.694 124.89C176.401 124.89 176.128 124.963 175.874 125.11C175.621 125.25 175.414 125.46 175.254 125.74C175.101 126.013 175.024 126.34 175.024 126.72C175.024 127.1 175.101 127.433 175.254 127.72C175.414 128.007 175.621 128.227 175.874 128.38C176.134 128.527 176.408 128.6 176.694 128.6C176.988 128.6 177.261 128.527 177.514 128.38C177.768 128.233 177.971 128.02 178.124 127.74C178.284 127.453 178.364 127.12 178.364 126.74ZM182.882 122.45C183.562 122.45 184.105 122.637 184.512 123.01C184.925 123.383 185.132 123.893 185.132 124.54C185.132 125.213 184.918 125.72 184.492 126.06C184.065 126.4 183.498 126.57 182.792 126.57L182.752 127.36H181.762L181.712 125.79H182.042C182.688 125.79 183.182 125.703 183.522 125.53C183.868 125.357 184.042 125.027 184.042 124.54C184.042 124.187 183.938 123.91 183.732 123.71C183.532 123.51 183.252 123.41 182.892 123.41C182.532 123.41 182.248 123.507 182.042 123.7C181.835 123.893 181.732 124.163 181.732 124.51H180.662C180.662 124.11 180.752 123.753 180.932 123.44C181.112 123.127 181.368 122.883 181.702 122.71C182.042 122.537 182.435 122.45 182.882 122.45ZM182.242 129.57C182.035 129.57 181.862 129.5 181.722 129.36C181.582 129.22 181.512 129.047 181.512 128.84C181.512 128.633 181.582 128.46 181.722 128.32C181.862 128.18 182.035 128.11 182.242 128.11C182.442 128.11 182.612 128.18 182.752 128.32C182.892 128.46 182.962 128.633 182.962 128.84C182.962 129.047 182.892 129.22 182.752 129.36C182.612 129.5 182.442 129.57 182.242 129.57Z" fill="white"/>
<defs>
<filter id="filter0_d_102_144" x="0.0377359" y="139" width="44.9245" height="38.9245" filterUnits="userSpaceOnUse" color-interpolation-filters="sRGB">
<feFlood flood-opacity="0" result="BackgroundImageFix"/>
<feColorMatrix in="SourceAlpha" type="matrix" values="0 0 0 0 0 0 0 0 0 0 0 0 0 0 0 0 0 0 127 0" result="hardAlpha"/>
<feOffset dy="1.96226"/>
<feGaussianBlur stdDeviation="0.981132"/>
<feComposite in2="hardAlpha" operator="out"/>
<feColorMatrix type="matrix" values="0 0 0 0 0 0 0 0 0 0 0 0 0 0 0 0 0 0 0.05 0"/>
<feBlend mode="normal" in2="BackgroundImageFix" result="effect1_dropShadow_102_144"/>
<feBlend mode="normal" in="SourceGraphic" in2="effect1_dropShadow_102_144" result="shape"/>
</filter>
<linearGradient id="paint0_linear_102_144" x1="22.5" y1="144" x2="22.5" y2="169" gradientUnits="userSpaceOnUse">
<stop stop-color="#9747FF"/>
<stop offset="1" stop-color="#5B2B99"/>
</linearGradient>
</defs>
</svg>
