<svg width="849" height="474" viewBox="0 0 849 474" fill="none" xmlns="http://www.w3.org/2000/svg">
<path d="M74.2 450.8C64.0667 450.8 55.1333 448.867 47.4 445C39.6667 441 33.6667 435.467 29.4 428.4C25.1333 421.333 23 413.133 23 403.8V355.4C23 344.467 25.1333 335.267 29.4 327.8C33.8 320.333 39.9333 314.733 47.8 311C55.6667 307.133 64.8 305.2 75.2 305.2C85.4667 305.2 94.3333 307 101.8 310.6C109.267 314.067 115 319.067 119 325.6C123 332 125 339.533 125 348.2H103.8C103.8 341.267 101.467 335.533 96.8 331C92.2667 326.333 85.0667 324 75.2 324C65.2 324 57.4667 326.667 52 332C46.6667 337.2 44 344.467 44 353.8V370.6H47.2C49.4667 367.4 53.1333 364.333 58.2 361.4C63.4 358.467 70.7333 357 80.2 357C88.4667 357 96.0667 358.8 103 362.4C109.933 366 115.467 371.133 119.6 377.8C123.867 384.467 126 392.533 126 402V404.4C126 413.6 123.8 421.733 119.4 428.8C115 435.733 108.867 441.133 101 445C93.2667 448.867 84.3333 450.8 74.2 450.8ZM74.4 432C83.7333 432 91.1333 429.467 96.6 424.4C102.2 419.333 105 412.533 105 404V402.4C105 396.667 103.733 391.733 101.2 387.6C98.6667 383.333 95.0667 380 90.4 377.6C85.8667 375.2 80.5333 374 74.4 374C68.4 374 63.0667 375.2 58.4 377.6C53.8667 380 50.3333 383.333 47.8 387.6C45.2667 391.733 44 396.667 44 402.4V404C44 412.533 46.7333 419.333 52.2 424.4C57.8 429.467 65.2 432 74.4 432ZM189.247 450.8C179.114 450.8 170.18 448.867 162.447 445C154.714 441 148.714 435.467 144.447 428.4C140.18 421.333 138.047 413.133 138.047 403.8V355.4C138.047 344.467 140.18 335.267 144.447 327.8C148.847 320.333 154.98 314.733 162.847 311C170.714 307.133 179.847 305.2 190.247 305.2C200.514 305.2 209.38 307 216.847 310.6C224.314 314.067 230.047 319.067 234.047 325.6C238.047 332 240.047 339.533 240.047 348.2H218.847C218.847 341.267 216.514 335.533 211.847 331C207.314 326.333 200.114 324 190.247 324C180.247 324 172.514 326.667 167.047 332C161.714 337.2 159.047 344.467 159.047 353.8V370.6H162.247C164.514 367.4 168.18 364.333 173.247 361.4C178.447 358.467 185.78 357 195.247 357C203.514 357 211.114 358.8 218.047 362.4C224.98 366 230.514 371.133 234.647 377.8C238.914 384.467 241.047 392.533 241.047 402V404.4C241.047 413.6 238.847 421.733 234.447 428.8C230.047 435.733 223.914 441.133 216.047 445C208.314 448.867 199.38 450.8 189.247 450.8ZM189.447 432C198.78 432 206.18 429.467 211.647 424.4C217.247 419.333 220.047 412.533 220.047 404V402.4C220.047 396.667 218.78 391.733 216.247 387.6C213.714 383.333 210.114 380 205.447 377.6C200.914 375.2 195.58 374 189.447 374C183.447 374 178.114 375.2 173.447 377.6C168.914 380 165.38 383.333 162.847 387.6C160.314 391.733 159.047 396.667 159.047 402.4V404C159.047 412.533 161.78 419.333 167.247 424.4C172.847 429.467 180.247 432 189.447 432Z" fill="black"/>
<path d="M322.04 330.48V372H316.58V341.04L302.78 372H298.94L285.08 340.98V372H279.62V330.48H285.5L300.86 364.8L316.22 330.48H322.04ZM331.72 333.78C330.68 333.78 329.8 333.42 329.08 332.7C328.36 331.98 328 331.1 328 330.06C328 329.02 328.36 328.14 329.08 327.42C329.8 326.7 330.68 326.34 331.72 326.34C332.72 326.34 333.56 326.7 334.24 327.42C334.96 328.14 335.32 329.02 335.32 330.06C335.32 331.1 334.96 331.98 334.24 332.7C333.56 333.42 332.72 333.78 331.72 333.78ZM334.36 339.12V372H328.9V339.12H334.36ZM346.725 344.46C347.685 342.58 349.045 341.12 350.805 340.08C352.605 339.04 354.785 338.52 357.345 338.52V344.16H355.905C349.785 344.16 346.725 347.48 346.725 354.12V372H341.265V339.12H346.725V344.46ZM359.208 355.44C359.208 352.08 359.888 349.14 361.248 346.62C362.608 344.06 364.468 342.08 366.828 340.68C369.228 339.28 371.888 338.58 374.808 338.58C377.688 338.58 380.188 339.2 382.308 340.44C384.428 341.68 386.008 343.24 387.048 345.12V339.12H392.568V372H387.048V365.88C385.968 367.8 384.348 369.4 382.188 370.68C380.068 371.92 377.588 372.54 374.748 372.54C371.828 372.54 369.188 371.82 366.828 370.38C364.468 368.94 362.608 366.92 361.248 364.32C359.888 361.72 359.208 358.76 359.208 355.44ZM387.048 355.5C387.048 353.02 386.548 350.86 385.548 349.02C384.548 347.18 383.188 345.78 381.468 344.82C379.788 343.82 377.928 343.32 375.888 343.32C373.848 343.32 371.988 343.8 370.308 344.76C368.628 345.72 367.288 347.12 366.288 348.96C365.288 350.8 364.788 352.96 364.788 355.44C364.788 357.96 365.288 360.16 366.288 362.04C367.288 363.88 368.628 365.3 370.308 366.3C371.988 367.26 373.848 367.74 375.888 367.74C377.928 367.74 379.788 367.26 381.468 366.3C383.188 365.3 384.548 363.88 385.548 362.04C386.548 360.16 387.048 357.98 387.048 355.5ZM415.415 338.52C419.415 338.52 422.655 339.74 425.135 342.18C427.615 344.58 428.855 348.06 428.855 352.62V372H423.455V353.4C423.455 350.12 422.635 347.62 420.995 345.9C419.355 344.14 417.115 343.26 414.275 343.26C411.395 343.26 409.095 344.16 407.375 345.96C405.695 347.76 404.855 350.38 404.855 353.82V372H399.395V339.12H404.855V343.8C405.935 342.12 407.395 340.82 409.235 339.9C411.115 338.98 413.175 338.52 415.415 338.52ZM433.334 355.44C433.334 352.08 434.014 349.14 435.374 346.62C436.734 344.06 438.594 342.08 440.954 340.68C443.354 339.28 446.034 338.58 448.994 338.58C451.554 338.58 453.934 339.18 456.134 340.38C458.334 341.54 460.014 343.08 461.174 345V327.6H466.694V372H461.174V365.82C460.094 367.78 458.494 369.4 456.374 370.68C454.254 371.92 451.774 372.54 448.934 372.54C446.014 372.54 443.354 371.82 440.954 370.38C438.594 368.94 436.734 366.92 435.374 364.32C434.014 361.72 433.334 358.76 433.334 355.44ZM461.174 355.5C461.174 353.02 460.674 350.86 459.674 349.02C458.674 347.18 457.314 345.78 455.594 344.82C453.914 343.82 452.054 343.32 450.014 343.32C447.974 343.32 446.114 343.8 444.434 344.76C442.754 345.72 441.414 347.12 440.414 348.96C439.414 350.8 438.914 352.96 438.914 355.44C438.914 357.96 439.414 360.16 440.414 362.04C441.414 363.88 442.754 365.3 444.434 366.3C446.114 367.26 447.974 367.74 450.014 367.74C452.054 367.74 453.914 367.26 455.594 366.3C457.314 365.3 458.674 363.88 459.674 362.04C460.674 360.16 461.174 357.98 461.174 355.5ZM471.481 355.44C471.481 352.08 472.161 349.14 473.521 346.62C474.881 344.06 476.741 342.08 479.101 340.68C481.501 339.28 484.161 338.58 487.081 338.58C489.961 338.58 492.461 339.2 494.581 340.44C496.701 341.68 498.281 343.24 499.321 345.12V339.12H504.841V372H499.321V365.88C498.241 367.8 496.621 369.4 494.461 370.68C492.341 371.92 489.861 372.54 487.021 372.54C484.101 372.54 481.461 371.82 479.101 370.38C476.741 368.94 474.881 366.92 473.521 364.32C472.161 361.72 471.481 358.76 471.481 355.44ZM499.321 355.5C499.321 353.02 498.821 350.86 497.821 349.02C496.821 347.18 495.461 345.78 493.741 344.82C492.061 343.82 490.201 343.32 488.161 343.32C486.121 343.32 484.261 343.8 482.581 344.76C480.901 345.72 479.561 347.12 478.561 348.96C477.561 350.8 477.061 352.96 477.061 355.44C477.061 357.96 477.561 360.16 478.561 362.04C479.561 363.88 480.901 365.3 482.581 366.3C484.261 367.26 486.121 367.74 488.161 367.74C490.201 367.74 492.061 367.26 493.741 366.3C495.461 365.3 496.821 363.88 497.821 362.04C498.821 360.16 499.321 357.98 499.321 355.5ZM304.34 419.7H286.1L282.74 429H276.98L292.1 387.42H298.4L313.46 429H307.7L304.34 419.7ZM302.78 415.26L295.22 394.14L287.66 415.26H302.78ZM323.11 387.18V429H317.65V387.18H323.11ZM348.951 387.18V413.64C348.951 417.36 349.851 420.12 351.651 421.92C353.491 423.72 356.031 424.62 359.271 424.62C362.471 424.62 364.971 423.72 366.771 421.92C368.611 420.12 369.531 417.36 369.531 413.64V387.18H374.991V413.58C374.991 417.06 374.291 420 372.891 422.4C371.491 424.76 369.591 426.52 367.191 427.68C364.831 428.84 362.171 429.42 359.211 429.42C356.251 429.42 353.571 428.84 351.171 427.68C348.811 426.52 346.931 424.76 345.531 422.4C344.171 420 343.491 417.06 343.491 413.58V387.18H348.951ZM393.34 429.54C390.82 429.54 388.56 429.12 386.56 428.28C384.56 427.4 382.98 426.2 381.82 424.68C380.66 423.12 380.02 421.34 379.9 419.34H385.54C385.7 420.98 386.46 422.32 387.82 423.36C389.22 424.4 391.04 424.92 393.28 424.92C395.36 424.92 397 424.46 398.2 423.54C399.4 422.62 400 421.46 400 420.06C400 418.62 399.36 417.56 398.08 416.88C396.8 416.16 394.82 415.46 392.14 414.78C389.7 414.14 387.7 413.5 386.14 412.86C384.62 412.18 383.3 411.2 382.18 409.92C381.1 408.6 380.56 406.88 380.56 404.76C380.56 403.08 381.06 401.54 382.06 400.14C383.06 398.74 384.48 397.64 386.32 396.84C388.16 396 390.26 395.58 392.62 395.58C396.26 395.58 399.2 396.5 401.44 398.34C403.68 400.18 404.88 402.7 405.04 405.9H399.58C399.46 404.18 398.76 402.8 397.48 401.76C396.24 400.72 394.56 400.2 392.44 400.2C390.48 400.2 388.92 400.62 387.76 401.46C386.6 402.3 386.02 403.4 386.02 404.76C386.02 405.84 386.36 406.74 387.04 407.46C387.76 408.14 388.64 408.7 389.68 409.14C390.76 409.54 392.24 410 394.12 410.52C396.48 411.16 398.4 411.8 399.88 412.44C401.36 413.04 402.62 413.96 403.66 415.2C404.74 416.44 405.3 418.06 405.34 420.06C405.34 421.86 404.84 423.48 403.84 424.92C402.84 426.36 401.42 427.5 399.58 428.34C397.78 429.14 395.7 429.54 393.34 429.54ZM440.647 411.3C440.647 412.34 440.587 413.44 440.467 414.6H414.187C414.387 417.84 415.487 420.38 417.487 422.22C419.527 424.02 421.987 424.92 424.867 424.92C427.227 424.92 429.187 424.38 430.747 423.3C432.347 422.18 433.467 420.7 434.107 418.86H439.987C439.107 422.02 437.347 424.6 434.707 426.6C432.067 428.56 428.787 429.54 424.867 429.54C421.747 429.54 418.947 428.84 416.467 427.44C414.027 426.04 412.107 424.06 410.707 421.5C409.307 418.9 408.607 415.9 408.607 412.5C408.607 409.1 409.287 406.12 410.647 403.56C412.007 401 413.907 399.04 416.347 397.68C418.827 396.28 421.667 395.58 424.867 395.58C427.987 395.58 430.747 396.26 433.147 397.62C435.547 398.98 437.387 400.86 438.667 403.26C439.987 405.62 440.647 408.3 440.647 411.3ZM435.007 410.16C435.007 408.08 434.547 406.3 433.627 404.82C432.707 403.3 431.447 402.16 429.847 401.4C428.287 400.6 426.547 400.2 424.627 400.2C421.867 400.2 419.507 401.08 417.547 402.84C415.627 404.6 414.527 407.04 414.247 410.16H435.007ZM450.914 401.46C451.874 399.58 453.234 398.12 454.994 397.08C456.794 396.04 458.974 395.52 461.534 395.52V401.16H460.094C453.974 401.16 450.914 404.48 450.914 411.12V429H445.454V396.12H450.914V401.46ZM477.077 429.54C474.557 429.54 472.297 429.12 470.297 428.28C468.297 427.4 466.717 426.2 465.557 424.68C464.397 423.12 463.757 421.34 463.637 419.34H469.277C469.437 420.98 470.197 422.32 471.557 423.36C472.957 424.4 474.777 424.92 477.017 424.92C479.097 424.92 480.737 424.46 481.937 423.54C483.137 422.62 483.737 421.46 483.737 420.06C483.737 418.62 483.097 417.56 481.817 416.88C480.537 416.16 478.557 415.46 475.877 414.78C473.437 414.14 471.437 413.5 469.877 412.86C468.357 412.18 467.037 411.2 465.917 409.92C464.837 408.6 464.297 406.88 464.297 404.76C464.297 403.08 464.797 401.54 465.797 400.14C466.797 398.74 468.217 397.64 470.057 396.84C471.897 396 473.997 395.58 476.357 395.58C479.997 395.58 482.937 396.5 485.177 398.34C487.417 400.18 488.617 402.7 488.777 405.9H483.317C483.197 404.18 482.497 402.8 481.217 401.76C479.977 400.72 478.297 400.2 476.177 400.2C474.217 400.2 472.657 400.62 471.497 401.46C470.337 402.3 469.757 403.4 469.757 404.76C469.757 405.84 470.097 406.74 470.777 407.46C471.497 408.14 472.377 408.7 473.417 409.14C474.497 409.54 475.977 410 477.857 410.52C480.217 411.16 482.137 411.8 483.617 412.44C485.097 413.04 486.357 413.96 487.397 415.2C488.477 416.44 489.037 418.06 489.077 420.06C489.077 421.86 488.577 423.48 487.577 424.92C486.577 426.36 485.157 427.5 483.317 428.34C481.517 429.14 479.437 429.54 477.077 429.54Z" fill="black"/>
<path d="M607.06 457.54V448.42H598.06V441.58H607.06V432.46H614.14V441.58H623.14V448.42H614.14V457.54H607.06ZM642.287 466V429.64H641.207L635.567 442.96H627.527L636.107 424H649.967V466H642.287ZM669.716 466.84C666.436 466.84 663.596 466.26 661.196 465.1C658.836 463.94 657.016 462.3 655.736 460.18C654.456 458.06 653.816 455.6 653.816 452.8V452.2H661.616V452.74C661.616 454.74 662.276 456.46 663.596 457.9C664.956 459.3 666.956 460 669.596 460C672.236 460 674.256 459.3 675.656 457.9C677.096 456.46 677.816 454.6 677.816 452.32V451.72C677.816 449.48 677.096 447.7 675.656 446.38C674.256 445.06 672.496 444.4 670.376 444.4C669.216 444.4 668.256 444.56 667.496 444.88C666.736 445.2 666.116 445.6 665.636 446.08C665.156 446.56 664.756 447.04 664.436 447.52H655.136V424H683.816V430.96H662.816V441.22H663.896C664.296 440.7 664.836 440.2 665.516 439.72C666.196 439.24 667.076 438.84 668.156 438.52C669.236 438.2 670.516 438.04 671.996 438.04C674.476 438.04 676.736 438.56 678.776 439.6C680.816 440.64 682.436 442.18 683.636 444.22C684.876 446.22 685.496 448.7 685.496 451.66V452.38C685.496 455.34 684.856 457.9 683.576 460.06C682.336 462.22 680.536 463.9 678.176 465.1C675.816 466.26 672.996 466.84 669.716 466.84ZM693.993 466.78L689.433 463.12L721.713 423.22L726.273 426.88L693.993 466.78ZM719.313 466.6C716.273 466.6 713.893 465.8 712.173 464.2C710.453 462.56 709.593 460.34 709.593 457.54V457.12C709.593 454.28 710.453 452.06 712.173 450.46C713.893 448.82 716.273 448 719.313 448C722.273 448 724.633 448.82 726.393 450.46C728.153 452.06 729.033 454.28 729.033 457.12V457.54C729.033 460.34 728.173 462.56 726.453 464.2C724.733 465.8 722.353 466.6 719.313 466.6ZM719.313 461.68C720.473 461.68 721.373 461.32 722.013 460.6C722.693 459.88 723.033 458.94 723.033 457.78V456.82C723.033 455.66 722.693 454.72 722.013 454C721.373 453.28 720.473 452.92 719.313 452.92C718.153 452.92 717.233 453.28 716.553 454C715.913 454.72 715.593 455.66 715.593 456.82V457.78C715.593 458.94 715.913 459.88 716.553 460.6C717.233 461.32 718.153 461.68 719.313 461.68ZM696.393 442C693.353 442 690.973 441.2 689.253 439.6C687.533 437.96 686.673 435.74 686.673 432.94V432.52C686.673 429.68 687.533 427.46 689.253 425.86C690.973 424.22 693.353 423.4 696.393 423.4C699.353 423.4 701.713 424.22 703.473 425.86C705.233 427.46 706.113 429.68 706.113 432.52V432.94C706.113 435.74 705.253 437.96 703.533 439.6C701.813 441.2 699.433 442 696.393 442ZM696.393 437.08C697.553 437.08 698.453 436.72 699.093 436C699.773 435.28 700.113 434.34 700.113 433.18V432.22C700.113 431.06 699.773 430.12 699.093 429.4C698.453 428.68 697.553 428.32 696.393 428.32C695.233 428.32 694.313 428.68 693.633 429.4C692.993 430.12 692.673 431.06 692.673 432.22V433.18C692.673 434.34 692.993 435.28 693.633 436C694.313 436.72 695.233 437.08 696.393 437.08Z" fill="black"/>
<path d="M615.938 364.25L645.75 334.156L664.681 353.265C673.671 346.343 680.545 336.475 683.698 324.597L687.127 311.678M687.127 311.678L701.181 336.249M687.127 311.678L662.785 325.864" stroke="#09D410" stroke-width="7.57088" stroke-linecap="round" stroke-linejoin="round"/>
<path d="M60 166.8C49.6 166.8 40.6667 165.067 33.2 161.6C25.7333 158 20 153 16 146.6C12 140.067 10 132.467 10 123.8H31.4C31.4 130.733 33.6667 136.533 38.2 141.2C42.8667 145.733 50.1333 148 60 148C70 148 77.6667 145.333 83 140C88.3333 134.667 91 127.4 91 118.2V101.4H87.8C85.5333 104.6 81.8667 107.667 76.8 110.6C71.7333 113.533 64.4 115 54.8 115C46.6667 115 39.1333 113.2 32.2 109.6C25.2667 106 19.6667 100.867 15.4 94.2C11.2667 87.4 9.2 79.3333 9.2 70V67.6C9.2 58.2667 11.3333 50.1333 15.6 43.2C20 36.2667 26.0667 30.8667 33.8 27C41.6667 23.1333 50.6667 21.2 60.8 21.2C71.0667 21.2 80 23.2 87.6 27.2C95.3333 31.0667 101.333 36.5333 105.6 43.6C109.867 50.5333 112 58.7333 112 68.2V116.6C112 127.533 109.8 136.733 105.4 144.2C101.133 151.667 95.0667 157.333 87.2 161.2C79.4667 164.933 70.4 166.8 60 166.8ZM60.6 98C66.7333 98 72.0667 96.8 76.6 94.4C81.1333 92 84.6667 88.7333 87.2 84.6C89.7333 80.3333 91 75.3333 91 69.6V68C91 59.3333 88.2 52.5333 82.6 47.6C77.1333 42.5333 69.8 40 60.6 40C51.4 40 44 42.5333 38.4 47.6C32.9333 52.5333 30.2 59.3333 30.2 68V69.6C30.2 75.3333 31.4 80.3333 33.8 84.6C36.3333 88.7333 39.8667 92 44.4 94.4C49.0667 96.8 54.4667 98 60.6 98ZM191.647 164V135.4H120.847V111L174.447 24H212.647V116.8H236.247V135.4H212.647V164H191.647ZM141.247 116.8H191.647V37.2H188.447L141.247 114V116.8ZM297.423 166.8C281.157 166.8 268.157 162.2 258.423 153C248.823 143.667 244.023 129.667 244.023 111V77C244.023 58.7333 248.823 44.8667 258.423 35.4C268.157 25.9333 281.157 21.2 297.423 21.2C313.823 21.2 326.823 25.9333 336.423 35.4C346.157 44.8667 351.023 58.7333 351.023 77V111C351.023 129.667 346.157 143.667 336.423 153C326.823 162.2 313.823 166.8 297.423 166.8ZM297.423 148C308.49 148 316.69 144.867 322.023 138.6C327.357 132.2 330.023 123.267 330.023 111.8V75.8C330.023 64.3333 327.157 55.5333 321.423 49.4C315.69 43.1333 307.69 40 297.423 40C287.023 40 279.023 43.2 273.423 49.6C267.823 55.8667 265.023 64.6 265.023 75.8V111.8C265.023 123.533 267.69 132.533 273.023 138.8C278.49 144.933 286.623 148 297.423 148Z" fill="black"/>
<path d="M424.16 95.92L415.82 87.58C413.78 88.14 411.7 88.42 409.58 88.42C405.7 88.42 402.16 87.52 398.96 85.72C395.76 83.88 393.22 81.34 391.34 78.1C389.5 74.82 388.58 71.14 388.58 67.06C388.58 62.98 389.5 59.32 391.34 56.08C393.22 52.8 395.76 50.26 398.96 48.46C402.16 46.62 405.7 45.7 409.58 45.7C413.5 45.7 417.06 46.62 420.26 48.46C423.46 50.26 425.98 52.78 427.82 56.02C429.66 59.26 430.58 62.94 430.58 67.06C430.58 71.06 429.7 74.66 427.94 77.86C426.18 81.06 423.76 83.58 420.68 85.42L431.24 95.92H424.16ZM394.16 67.06C394.16 70.38 394.82 73.3 396.14 75.82C397.5 78.34 399.34 80.28 401.66 81.64C404.02 83 406.66 83.68 409.58 83.68C412.5 83.68 415.12 83 417.44 81.64C419.8 80.28 421.64 78.34 422.96 75.82C424.32 73.3 425 70.38 425 67.06C425 63.7 424.32 60.78 422.96 58.3C421.64 55.78 419.82 53.84 417.5 52.48C415.18 51.12 412.54 50.44 409.58 50.44C406.62 50.44 403.98 51.12 401.66 52.48C399.34 53.84 397.5 55.78 396.14 58.3C394.82 60.78 394.16 63.7 394.16 67.06ZM464.665 55.12V88H459.205V83.14C458.165 84.82 456.705 86.14 454.825 87.1C452.985 88.02 450.945 88.48 448.705 88.48C446.145 88.48 443.845 87.96 441.805 86.92C439.765 85.84 438.145 84.24 436.945 82.12C435.785 80 435.205 77.42 435.205 74.38V55.12H440.605V73.66C440.605 76.9 441.425 79.4 443.065 81.16C444.705 82.88 446.945 83.74 449.785 83.74C452.705 83.74 455.005 82.84 456.685 81.04C458.365 79.24 459.205 76.62 459.205 73.18V55.12H464.665ZM501.484 70.3C501.484 71.34 501.424 72.44 501.304 73.6H475.024C475.224 76.84 476.324 79.38 478.324 81.22C480.364 83.02 482.824 83.92 485.704 83.92C488.064 83.92 490.024 83.38 491.584 82.3C493.184 81.18 494.304 79.7 494.944 77.86H500.824C499.944 81.02 498.184 83.6 495.544 85.6C492.904 87.56 489.624 88.54 485.704 88.54C482.584 88.54 479.784 87.84 477.304 86.44C474.864 85.04 472.944 83.06 471.544 80.5C470.144 77.9 469.444 74.9 469.444 71.5C469.444 68.1 470.124 65.12 471.484 62.56C472.844 60 474.744 58.04 477.184 56.68C479.664 55.28 482.504 54.58 485.704 54.58C488.824 54.58 491.584 55.26 493.984 56.62C496.384 57.98 498.224 59.86 499.504 62.26C500.824 64.62 501.484 67.3 501.484 70.3ZM495.844 69.16C495.844 67.08 495.384 65.3 494.464 63.82C493.544 62.3 492.284 61.16 490.684 60.4C489.124 59.6 487.384 59.2 485.464 59.2C482.704 59.2 480.344 60.08 478.384 61.84C476.464 63.6 475.364 66.04 475.084 69.16H495.844ZM517.931 88.54C515.411 88.54 513.151 88.12 511.151 87.28C509.151 86.4 507.571 85.2 506.411 83.68C505.251 82.12 504.611 80.34 504.491 78.34H510.131C510.291 79.98 511.051 81.32 512.411 82.36C513.811 83.4 515.631 83.92 517.871 83.92C519.951 83.92 521.591 83.46 522.791 82.54C523.991 81.62 524.591 80.46 524.591 79.06C524.591 77.62 523.951 76.56 522.671 75.88C521.391 75.16 519.411 74.46 516.731 73.78C514.291 73.14 512.291 72.5 510.731 71.86C509.211 71.18 507.891 70.2 506.771 68.92C505.691 67.6 505.151 65.88 505.151 63.76C505.151 62.08 505.651 60.54 506.651 59.14C507.651 57.74 509.071 56.64 510.911 55.84C512.751 55 514.851 54.58 517.211 54.58C520.851 54.58 523.791 55.5 526.031 57.34C528.271 59.18 529.471 61.7 529.631 64.9H524.171C524.051 63.18 523.351 61.8 522.071 60.76C520.831 59.72 519.151 59.2 517.031 59.2C515.071 59.2 513.511 59.62 512.351 60.46C511.191 61.3 510.611 62.4 510.611 63.76C510.611 64.84 510.951 65.74 511.631 66.46C512.351 67.14 513.231 67.7 514.271 68.14C515.351 68.54 516.831 69 518.711 69.52C521.071 70.16 522.991 70.8 524.471 71.44C525.951 72.04 527.211 72.96 528.251 74.2C529.331 75.44 529.891 77.06 529.931 79.06C529.931 80.86 529.431 82.48 528.431 83.92C527.431 85.36 526.011 86.5 524.171 87.34C522.371 88.14 520.291 88.54 517.931 88.54ZM541.899 59.62V79C541.899 80.6 542.239 81.74 542.919 82.42C543.599 83.06 544.779 83.38 546.459 83.38H550.479V88H545.559C542.519 88 540.239 87.3 538.719 85.9C537.199 84.5 536.439 82.2 536.439 79V59.62H532.179V55.12H536.439V46.84H541.899V55.12H550.479V59.62H541.899ZM557.514 49.78C556.474 49.78 555.594 49.42 554.874 48.7C554.154 47.98 553.794 47.1 553.794 46.06C553.794 45.02 554.154 44.14 554.874 43.42C555.594 42.7 556.474 42.34 557.514 42.34C558.514 42.34 559.354 42.7 560.034 43.42C560.754 44.14 561.114 45.02 561.114 46.06C561.114 47.1 560.754 47.98 560.034 48.7C559.354 49.42 558.514 49.78 557.514 49.78ZM560.154 55.12V88H554.694V55.12H560.154ZM581.4 88.54C578.32 88.54 575.52 87.84 573 86.44C570.52 85.04 568.56 83.06 567.12 80.5C565.72 77.9 565.02 74.9 565.02 71.5C565.02 68.14 565.74 65.18 567.18 62.62C568.66 60.02 570.66 58.04 573.18 56.68C575.7 55.28 578.52 54.58 581.64 54.58C584.76 54.58 587.58 55.28 590.1 56.68C592.62 58.04 594.6 60 596.04 62.56C597.52 65.12 598.26 68.1 598.26 71.5C598.26 74.9 597.5 77.9 595.98 80.5C594.5 83.06 592.48 85.04 589.92 86.44C587.36 87.84 584.52 88.54 581.4 88.54ZM581.4 83.74C583.36 83.74 585.2 83.28 586.92 82.36C588.64 81.44 590.02 80.06 591.06 78.22C592.14 76.38 592.68 74.14 592.68 71.5C592.68 68.86 592.16 66.62 591.12 64.78C590.08 62.94 588.72 61.58 587.04 60.7C585.36 59.78 583.54 59.32 581.58 59.32C579.58 59.32 577.74 59.78 576.06 60.7C574.42 61.58 573.1 62.94 572.1 64.78C571.1 66.62 570.6 68.86 570.6 71.5C570.6 74.18 571.08 76.44 572.04 78.28C573.04 80.12 574.36 81.5 576 82.42C577.64 83.3 579.44 83.74 581.4 83.74ZM619.059 54.52C623.059 54.52 626.299 55.74 628.779 58.18C631.259 60.58 632.499 64.06 632.499 68.62V88H627.099V69.4C627.099 66.12 626.279 63.62 624.639 61.9C622.999 60.14 620.759 59.26 617.919 59.26C615.039 59.26 612.739 60.16 611.019 61.96C609.339 63.76 608.499 66.38 608.499 69.82V88H603.039V55.12H608.499V59.8C609.579 58.12 611.039 56.82 612.879 55.9C614.759 54.98 616.819 54.52 619.059 54.52ZM650.658 88.54C648.138 88.54 645.878 88.12 643.878 87.28C641.878 86.4 640.298 85.2 639.138 83.68C637.978 82.12 637.338 80.34 637.218 78.34H642.858C643.018 79.98 643.778 81.32 645.138 82.36C646.538 83.4 648.358 83.92 650.598 83.92C652.678 83.92 654.318 83.46 655.518 82.54C656.718 81.62 657.318 80.46 657.318 79.06C657.318 77.62 656.678 76.56 655.398 75.88C654.118 75.16 652.138 74.46 649.458 73.78C647.018 73.14 645.018 72.5 643.458 71.86C641.938 71.18 640.618 70.2 639.498 68.92C638.418 67.6 637.878 65.88 637.878 63.76C637.878 62.08 638.378 60.54 639.378 59.14C640.378 57.74 641.798 56.64 643.638 55.84C645.478 55 647.578 54.58 649.938 54.58C653.578 54.58 656.518 55.5 658.758 57.34C660.998 59.18 662.198 61.7 662.358 64.9H656.898C656.778 63.18 656.078 61.8 654.798 60.76C653.558 59.72 651.878 59.2 649.758 59.2C647.798 59.2 646.238 59.62 645.078 60.46C643.918 61.3 643.338 62.4 643.338 63.76C643.338 64.84 643.678 65.74 644.358 66.46C645.078 67.14 645.958 67.7 646.998 68.14C648.078 68.54 649.558 69 651.438 69.52C653.798 70.16 655.718 70.8 657.198 71.44C658.678 72.04 659.938 72.96 660.978 74.2C662.058 75.44 662.618 77.06 662.658 79.06C662.658 80.86 662.158 82.48 661.158 83.92C660.158 85.36 658.738 86.5 656.898 87.34C655.098 88.14 653.018 88.54 650.658 88.54ZM415.34 135.7H397.1L393.74 145H387.98L403.1 103.42H409.4L424.46 145H418.7L415.34 135.7ZM413.78 131.26L406.22 110.14L398.66 131.26H413.78ZM440.29 145.54C437.77 145.54 435.51 145.12 433.51 144.28C431.51 143.4 429.93 142.2 428.77 140.68C427.61 139.12 426.97 137.34 426.85 135.34H432.49C432.65 136.98 433.41 138.32 434.77 139.36C436.17 140.4 437.99 140.92 440.23 140.92C442.31 140.92 443.95 140.46 445.15 139.54C446.35 138.62 446.95 137.46 446.95 136.06C446.95 134.62 446.31 133.56 445.03 132.88C443.75 132.16 441.77 131.46 439.09 130.78C436.65 130.14 434.65 129.5 433.09 128.86C431.57 128.18 430.25 127.2 429.13 125.92C428.05 124.6 427.51 122.88 427.51 120.76C427.51 119.08 428.01 117.54 429.01 116.14C430.01 114.74 431.43 113.64 433.27 112.84C435.11 112 437.21 111.58 439.57 111.58C443.21 111.58 446.15 112.5 448.39 114.34C450.63 116.18 451.83 118.7 451.99 121.9H446.53C446.41 120.18 445.71 118.8 444.43 117.76C443.19 116.72 441.51 116.2 439.39 116.2C437.43 116.2 435.87 116.62 434.71 117.46C433.55 118.3 432.97 119.4 432.97 120.76C432.97 121.84 433.31 122.74 433.99 123.46C434.71 124.14 435.59 124.7 436.63 125.14C437.71 125.54 439.19 126 441.07 126.52C443.43 127.16 445.35 127.8 446.83 128.44C448.31 129.04 449.57 129.96 450.61 131.2C451.69 132.44 452.25 134.06 452.29 136.06C452.29 137.86 451.79 139.48 450.79 140.92C449.79 142.36 448.37 143.5 446.53 144.34C444.73 145.14 442.65 145.54 440.29 145.54ZM475.957 145L463.057 130.48V145H457.597V100.6H463.057V126.7L475.717 112.12H483.337L467.857 128.5L483.397 145H475.957ZM516.076 127.3C516.076 128.34 516.016 129.44 515.896 130.6H489.616C489.816 133.84 490.916 136.38 492.916 138.22C494.956 140.02 497.416 140.92 500.296 140.92C502.656 140.92 504.616 140.38 506.176 139.3C507.776 138.18 508.896 136.7 509.536 134.86H515.416C514.536 138.02 512.776 140.6 510.136 142.6C507.496 144.56 504.216 145.54 500.296 145.54C497.176 145.54 494.376 144.84 491.896 143.44C489.456 142.04 487.536 140.06 486.136 137.5C484.736 134.9 484.036 131.9 484.036 128.5C484.036 125.1 484.716 122.12 486.076 119.56C487.436 117 489.336 115.04 491.776 113.68C494.256 112.28 497.096 111.58 500.296 111.58C503.416 111.58 506.176 112.26 508.576 113.62C510.976 114.98 512.816 116.86 514.096 119.26C515.416 121.62 516.076 124.3 516.076 127.3ZM510.436 126.16C510.436 124.08 509.976 122.3 509.056 120.82C508.136 119.3 506.876 118.16 505.276 117.4C503.716 116.6 501.976 116.2 500.056 116.2C497.296 116.2 494.936 117.08 492.976 118.84C491.056 120.6 489.956 123.04 489.676 126.16H510.436ZM518.843 128.44C518.843 125.08 519.523 122.14 520.883 119.62C522.243 117.06 524.103 115.08 526.463 113.68C528.863 112.28 531.543 111.58 534.503 111.58C537.063 111.58 539.443 112.18 541.643 113.38C543.843 114.54 545.523 116.08 546.683 118V100.6H552.203V145H546.683V138.82C545.603 140.78 544.003 142.4 541.883 143.68C539.763 144.92 537.283 145.54 534.443 145.54C531.523 145.54 528.863 144.82 526.463 143.38C524.103 141.94 522.243 139.92 520.883 137.32C519.523 134.72 518.843 131.76 518.843 128.44ZM546.683 128.5C546.683 126.02 546.183 123.86 545.183 122.02C544.183 120.18 542.823 118.78 541.103 117.82C539.423 116.82 537.563 116.32 535.523 116.32C533.483 116.32 531.623 116.8 529.943 117.76C528.263 118.72 526.923 120.12 525.923 121.96C524.923 123.8 524.423 125.96 524.423 128.44C524.423 130.96 524.923 133.16 525.923 135.04C526.923 136.88 528.263 138.3 529.943 139.3C531.623 140.26 533.483 140.74 535.523 140.74C537.563 140.74 539.423 140.26 541.103 139.3C542.823 138.3 544.183 136.88 545.183 135.04C546.183 133.16 546.683 130.98 546.683 128.5Z" fill="black"/>
<path d="M718.06 173.54V164.42H709.06V157.58H718.06V148.46H725.14V157.58H734.14V164.42H725.14V173.54H718.06ZM753.287 182V145.64H752.207L746.567 158.96H738.527L747.107 140H760.967V182H753.287ZM778.016 182V145.64H776.936L771.296 158.96H763.256L771.836 140H785.696V182H778.016ZM796.145 182.78L791.585 179.12L823.865 139.22L828.425 142.88L796.145 182.78ZM821.465 182.6C818.425 182.6 816.045 181.8 814.325 180.2C812.605 178.56 811.745 176.34 811.745 173.54V173.12C811.745 170.28 812.605 168.06 814.325 166.46C816.045 164.82 818.425 164 821.465 164C824.425 164 826.785 164.82 828.545 166.46C830.305 168.06 831.185 170.28 831.185 173.12V173.54C831.185 176.34 830.325 178.56 828.605 180.2C826.885 181.8 824.505 182.6 821.465 182.6ZM821.465 177.68C822.625 177.68 823.525 177.32 824.165 176.6C824.845 175.88 825.185 174.94 825.185 173.78V172.82C825.185 171.66 824.845 170.72 824.165 170C823.525 169.28 822.625 168.92 821.465 168.92C820.305 168.92 819.385 169.28 818.705 170C818.065 170.72 817.745 171.66 817.745 172.82V173.78C817.745 174.94 818.065 175.88 818.705 176.6C819.385 177.32 820.305 177.68 821.465 177.68ZM798.545 158C795.505 158 793.125 157.2 791.405 155.6C789.685 153.96 788.825 151.74 788.825 148.94V148.52C788.825 145.68 789.685 143.46 791.405 141.86C793.125 140.22 795.505 139.4 798.545 139.4C801.505 139.4 803.865 140.22 805.625 141.86C807.385 143.46 808.265 145.68 808.265 148.52V148.94C808.265 151.74 807.405 153.96 805.685 155.6C803.965 157.2 801.585 158 798.545 158ZM798.545 153.08C799.705 153.08 800.605 152.72 801.245 152C801.925 151.28 802.265 150.34 802.265 149.18V148.22C802.265 147.06 801.925 146.12 801.245 145.4C800.605 144.68 799.705 144.32 798.545 144.32C797.385 144.32 796.465 144.68 795.785 145.4C795.145 146.12 794.825 147.06 794.825 148.22V149.18C794.825 150.34 795.145 151.28 795.785 152C796.465 152.72 797.385 153.08 798.545 153.08Z" fill="black"/>
<path d="M726.938 80.25L756.75 50.1563L775.681 69.2654C784.671 62.3428 791.545 52.4747 794.698 40.597L798.127 27.6777M798.127 27.6777L812.181 52.2492M798.127 27.6777L773.785 41.8641" stroke="#09D410" stroke-width="7.57088" stroke-linecap="round" stroke-linejoin="round"/>
</svg>
