<svg width="849" height="474" viewBox="0 0 849 474" fill="none" xmlns="http://www.w3.org/2000/svg">
<path d="M74.2 450.8C64.0667 450.8 55.1333 448.867 47.4 445C39.6667 441 33.6667 435.467 29.4 428.4C25.1333 421.333 23 413.133 23 403.8V355.4C23 344.467 25.1333 335.267 29.4 327.8C33.8 320.333 39.9333 314.733 47.8 311C55.6667 307.133 64.8 305.2 75.2 305.2C85.4667 305.2 94.3333 307 101.8 310.6C109.267 314.067 115 319.067 119 325.6C123 332 125 339.533 125 348.2H103.8C103.8 341.267 101.467 335.533 96.8 331C92.2667 326.333 85.0667 324 75.2 324C65.2 324 57.4667 326.667 52 332C46.6667 337.2 44 344.467 44 353.8V370.6H47.2C49.4667 367.4 53.1333 364.333 58.2 361.4C63.4 358.467 70.7333 357 80.2 357C88.4667 357 96.0667 358.8 103 362.4C109.933 366 115.467 371.133 119.6 377.8C123.867 384.467 126 392.533 126 402V404.4C126 413.6 123.8 421.733 119.4 428.8C115 435.733 108.867 441.133 101 445C93.2667 448.867 84.3333 450.8 74.2 450.8ZM74.4 432C83.7333 432 91.1333 429.467 96.6 424.4C102.2 419.333 105 412.533 105 404V402.4C105 396.667 103.733 391.733 101.2 387.6C98.6667 383.333 95.0667 380 90.4 377.6C85.8667 375.2 80.5333 374 74.4 374C68.4 374 63.0667 375.2 58.4 377.6C53.8667 380 50.3333 383.333 47.8 387.6C45.2667 391.733 44 396.667 44 402.4V404C44 412.533 46.7333 419.333 52.2 424.4C57.8 429.467 65.2 432 74.4 432ZM189.247 450.8C179.114 450.8 170.18 448.867 162.447 445C154.714 441 148.714 435.467 144.447 428.4C140.18 421.333 138.047 413.133 138.047 403.8V355.4C138.047 344.467 140.18 335.267 144.447 327.8C148.847 320.333 154.98 314.733 162.847 311C170.714 307.133 179.847 305.2 190.247 305.2C200.514 305.2 209.38 307 216.847 310.6C224.314 314.067 230.047 319.067 234.047 325.6C238.047 332 240.047 339.533 240.047 348.2H218.847C218.847 341.267 216.514 335.533 211.847 331C207.314 326.333 200.114 324 190.247 324C180.247 324 172.514 326.667 167.047 332C161.714 337.2 159.047 344.467 159.047 353.8V370.6H162.247C164.514 367.4 168.18 364.333 173.247 361.4C178.447 358.467 185.78 357 195.247 357C203.514 357 211.114 358.8 218.047 362.4C224.98 366 230.514 371.133 234.647 377.8C238.914 384.467 241.047 392.533 241.047 402V404.4C241.047 413.6 238.847 421.733 234.447 428.8C230.047 435.733 223.914 441.133 216.047 445C208.314 448.867 199.38 450.8 189.247 450.8ZM189.447 432C198.78 432 206.18 429.467 211.647 424.4C217.247 419.333 220.047 412.533 220.047 404V402.4C220.047 396.667 218.78 391.733 216.247 387.6C213.714 383.333 210.114 380 205.447 377.6C200.914 375.2 195.58 374 189.447 374C183.447 374 178.114 375.2 173.447 377.6C168.914 380 165.38 383.333 162.847 387.6C160.314 391.733 159.047 396.667 159.047 402.4V404C159.047 412.533 161.78 419.333 167.247 424.4C172.847 429.467 180.247 432 189.447 432Z" fill="black"/>
<path d="M279.8 371V329H289.4L300.56 367.82H301.34L312.5 329H322.1V371H317.24V332.3H316.4L305.3 371H296.6L285.5 332.3H284.66V371H279.8ZM329.494 371V341.66H334.234V371H329.494ZM331.894 337.1C330.854 337.1 329.974 336.76 329.254 336.08C328.574 335.4 328.234 334.54 328.234 333.5C328.234 332.42 328.574 331.54 329.254 330.86C329.974 330.18 330.854 329.84 331.894 329.84C332.934 329.84 333.794 330.18 334.474 330.86C335.154 331.54 335.494 332.42 335.494 333.5C335.494 334.54 335.154 335.4 334.474 336.08C333.794 336.76 332.934 337.1 331.894 337.1ZM341.801 371V341.66H346.421V345.26H347.261C347.781 343.98 348.581 343.04 349.661 342.44C350.741 341.84 352.161 341.54 353.921 341.54H357.401V345.86H353.621C351.501 345.86 349.781 346.46 348.461 347.66C347.181 348.82 346.541 350.64 346.541 353.12V371H341.801ZM370.022 371.84C367.982 371.84 366.122 371.48 364.442 370.76C362.762 370.04 361.442 369 360.482 367.64C359.522 366.28 359.042 364.62 359.042 362.66C359.042 360.66 359.522 359.02 360.482 357.74C361.442 356.42 362.762 355.44 364.442 354.8C366.122 354.12 368.002 353.78 370.082 353.78H379.982V351.62C379.982 349.54 379.362 347.9 378.122 346.7C376.922 345.5 375.122 344.9 372.722 344.9C370.362 344.9 368.522 345.48 367.202 346.64C365.882 347.76 364.982 349.28 364.502 351.2L360.062 349.76C360.542 348.12 361.302 346.64 362.342 345.32C363.382 343.96 364.762 342.88 366.482 342.08C368.242 341.24 370.342 340.82 372.782 340.82C376.542 340.82 379.462 341.8 381.542 343.76C383.622 345.68 384.662 348.4 384.662 351.92V365.18C384.662 366.38 385.222 366.98 386.342 366.98H389.042V371H384.902C383.582 371 382.522 370.64 381.722 369.92C380.922 369.16 380.522 368.16 380.522 366.92V366.62H379.802C379.362 367.38 378.762 368.18 378.002 369.02C377.282 369.82 376.282 370.48 375.002 371C373.722 371.56 372.062 371.84 370.022 371.84ZM370.562 367.76C373.362 367.76 375.622 366.94 377.342 365.3C379.102 363.62 379.982 361.28 379.982 358.28V357.62H370.262C368.382 357.62 366.822 358.04 365.582 358.88C364.382 359.68 363.782 360.9 363.782 362.54C363.782 364.18 364.402 365.46 365.642 366.38C366.922 367.3 368.562 367.76 370.562 367.76ZM393.134 371V341.66H397.754V346.64H398.594C399.234 345.24 400.314 343.98 401.834 342.86C403.394 341.7 405.674 341.12 408.674 341.12C410.874 341.12 412.834 341.58 414.554 342.5C416.314 343.42 417.714 344.78 418.754 346.58C419.794 348.38 420.314 350.6 420.314 353.24V371H415.574V353.6C415.574 350.68 414.834 348.56 413.354 347.24C411.914 345.92 409.954 345.26 407.474 345.26C404.634 345.26 402.314 346.18 400.514 348.02C398.754 349.86 397.874 352.6 397.874 356.24V371H393.134ZM439.951 371.84C437.431 371.84 435.111 371.24 432.991 370.04C430.871 368.84 429.191 367.1 427.951 364.82C426.711 362.54 426.091 359.84 426.091 356.72V355.94C426.091 352.82 426.711 350.14 427.951 347.9C429.191 345.62 430.851 343.88 432.931 342.68C435.051 341.44 437.391 340.82 439.951 340.82C441.991 340.82 443.711 341.1 445.111 341.66C446.551 342.18 447.711 342.86 448.591 343.7C449.471 344.5 450.151 345.36 450.631 346.28H451.471V329H456.211V371H451.591V366.14H450.751C449.951 367.62 448.711 368.94 447.031 370.1C445.351 371.26 442.991 371.84 439.951 371.84ZM441.211 367.64C444.251 367.64 446.711 366.68 448.591 364.76C450.511 362.8 451.471 360.08 451.471 356.6V356.06C451.471 352.58 450.511 349.88 448.591 347.96C446.711 346 444.251 345.02 441.211 345.02C438.211 345.02 435.731 346 433.771 347.96C431.851 349.88 430.891 352.58 430.891 356.06V356.6C430.891 360.08 431.851 362.8 433.771 364.76C435.731 366.68 438.211 367.64 441.211 367.64ZM472.744 371.84C470.704 371.84 468.844 371.48 467.164 370.76C465.484 370.04 464.164 369 463.204 367.64C462.244 366.28 461.764 364.62 461.764 362.66C461.764 360.66 462.244 359.02 463.204 357.74C464.164 356.42 465.484 355.44 467.164 354.8C468.844 354.12 470.724 353.78 472.804 353.78H482.704V351.62C482.704 349.54 482.084 347.9 480.844 346.7C479.644 345.5 477.844 344.9 475.444 344.9C473.084 344.9 471.244 345.48 469.924 346.64C468.604 347.76 467.704 349.28 467.224 351.2L462.784 349.76C463.264 348.12 464.024 346.64 465.064 345.32C466.104 343.96 467.484 342.88 469.204 342.08C470.964 341.24 473.064 340.82 475.504 340.82C479.264 340.82 482.184 341.8 484.264 343.76C486.344 345.68 487.384 348.4 487.384 351.92V365.18C487.384 366.38 487.944 366.98 489.064 366.98H491.764V371H487.624C486.304 371 485.244 370.64 484.444 369.92C483.644 369.16 483.244 368.16 483.244 366.92V366.62H482.524C482.084 367.38 481.484 368.18 480.724 369.02C480.004 369.82 479.004 370.48 477.724 371C476.444 371.56 474.784 371.84 472.744 371.84ZM473.284 367.76C476.084 367.76 478.344 366.94 480.064 365.3C481.824 363.62 482.704 361.28 482.704 358.28V357.62H472.984C471.104 357.62 469.544 358.04 468.304 358.88C467.104 359.68 466.504 360.9 466.504 362.54C466.504 364.18 467.124 365.46 468.364 366.38C469.644 367.3 471.284 367.76 473.284 367.76ZM504.624 371L517.584 329H526.464L539.424 371H534.204L530.964 360.38H513.084L509.844 371H504.624ZM514.344 355.82H529.644L522.444 332.06H521.604L514.344 355.82ZM543.317 371V329H548.357V371H543.317ZM294.98 428.84C291.86 428.84 289.14 428.28 286.82 427.16C284.5 426.04 282.7 424.38 281.42 422.18C280.14 419.94 279.5 417.2 279.5 413.96V386H284.48V414.02C284.48 417.46 285.4 420.04 287.24 421.76C289.08 423.48 291.66 424.34 294.98 424.34C298.3 424.34 300.88 423.48 302.72 421.76C304.56 420.04 305.48 417.46 305.48 414.02V386H310.52V413.96C310.52 417.2 309.88 419.94 308.6 422.18C307.32 424.38 305.5 426.04 303.14 427.16C300.82 428.28 298.1 428.84 294.98 428.84ZM329.361 428.84C325.721 428.84 322.641 428 320.121 426.32C317.641 424.64 316.141 421.98 315.621 418.34L320.121 417.32C320.441 419.24 321.041 420.76 321.921 421.88C322.801 422.96 323.881 423.74 325.161 424.22C326.481 424.66 327.881 424.88 329.361 424.88C331.561 424.88 333.301 424.44 334.581 423.56C335.861 422.68 336.501 421.5 336.501 420.02C336.501 418.5 335.881 417.44 334.641 416.84C333.441 416.2 331.781 415.68 329.661 415.28L327.201 414.86C325.321 414.54 323.601 414.04 322.041 413.36C320.481 412.68 319.241 411.76 318.321 410.6C317.401 409.44 316.941 407.98 316.941 406.22C316.941 403.58 317.961 401.52 320.001 400.04C322.041 398.56 324.741 397.82 328.101 397.82C331.421 397.82 334.101 398.58 336.141 400.1C338.221 401.58 339.561 403.68 340.161 406.4L335.721 407.54C335.361 405.42 334.501 403.94 333.141 403.1C331.781 402.22 330.101 401.78 328.101 401.78C326.101 401.78 324.521 402.16 323.361 402.92C322.201 403.64 321.621 404.72 321.621 406.16C321.621 407.56 322.161 408.6 323.241 409.28C324.361 409.92 325.841 410.4 327.681 410.72L330.141 411.14C332.221 411.5 334.081 412 335.721 412.64C337.401 413.24 338.721 414.12 339.681 415.28C340.681 416.44 341.181 417.96 341.181 419.84C341.181 422.72 340.101 424.94 337.941 426.5C335.821 428.06 332.961 428.84 329.361 428.84ZM360.222 428.84C357.262 428.84 354.662 428.22 352.422 426.98C350.182 425.7 348.442 423.92 347.202 421.64C345.962 419.36 345.342 416.72 345.342 413.72V413C345.342 409.96 345.962 407.3 347.202 405.02C348.442 402.74 350.162 400.98 352.362 399.74C354.562 398.46 357.082 397.82 359.922 397.82C362.682 397.82 365.122 398.42 367.242 399.62C369.362 400.78 371.022 402.46 372.222 404.66C373.422 406.86 374.022 409.44 374.022 412.4V414.56H350.082C350.202 417.72 351.222 420.2 353.142 422C355.062 423.76 357.462 424.64 360.342 424.64C362.862 424.64 364.802 424.06 366.162 422.9C367.522 421.74 368.562 420.36 369.282 418.76L373.362 420.74C372.762 421.98 371.922 423.22 370.842 424.46C369.802 425.7 368.422 426.74 366.702 427.58C365.022 428.42 362.862 428.84 360.222 428.84ZM350.142 410.66H369.222C369.062 407.94 368.122 405.82 366.402 404.3C364.722 402.78 362.562 402.02 359.922 402.02C357.242 402.02 355.042 402.78 353.322 404.3C351.602 405.82 350.542 407.94 350.142 410.66ZM379.889 428V398.66H384.509V402.26H385.349C385.869 400.98 386.669 400.04 387.749 399.44C388.829 398.84 390.249 398.54 392.009 398.54H395.489V402.86H391.709C389.589 402.86 387.869 403.46 386.549 404.66C385.269 405.82 384.629 407.64 384.629 410.12V428H379.889ZM411.341 428.84C407.701 428.84 404.621 428 402.101 426.32C399.621 424.64 398.121 421.98 397.601 418.34L402.101 417.32C402.421 419.24 403.021 420.76 403.901 421.88C404.781 422.96 405.861 423.74 407.141 424.22C408.461 424.66 409.861 424.88 411.341 424.88C413.541 424.88 415.281 424.44 416.561 423.56C417.841 422.68 418.481 421.5 418.481 420.02C418.481 418.5 417.861 417.44 416.621 416.84C415.421 416.2 413.761 415.68 411.641 415.28L409.181 414.86C407.301 414.54 405.581 414.04 404.021 413.36C402.461 412.68 401.221 411.76 400.301 410.6C399.381 409.44 398.921 407.98 398.921 406.22C398.921 403.58 399.941 401.52 401.981 400.04C404.021 398.56 406.721 397.82 410.081 397.82C413.401 397.82 416.081 398.58 418.121 400.1C420.201 401.58 421.541 403.68 422.141 406.4L417.701 407.54C417.341 405.42 416.481 403.94 415.121 403.1C413.761 402.22 412.081 401.78 410.081 401.78C408.081 401.78 406.501 402.16 405.341 402.92C404.181 403.64 403.601 404.72 403.601 406.16C403.601 407.56 404.141 408.6 405.221 409.28C406.341 409.92 407.821 410.4 409.661 410.72L412.121 411.14C414.201 411.5 416.061 412 417.701 412.64C419.381 413.24 420.701 414.12 421.661 415.28C422.661 416.44 423.161 417.96 423.161 419.84C423.161 422.72 422.081 424.94 419.921 426.5C417.801 428.06 414.941 428.84 411.341 428.84Z" fill="black"/>
<path d="M607.06 457.54V448.42H598.06V441.58H607.06V432.46H614.14V441.58H623.14V448.42H614.14V457.54H607.06ZM642.287 466V429.64H641.207L635.567 442.96H627.527L636.107 424H649.967V466H642.287ZM669.716 466.84C666.436 466.84 663.596 466.26 661.196 465.1C658.836 463.94 657.016 462.3 655.736 460.18C654.456 458.06 653.816 455.6 653.816 452.8V452.2H661.616V452.74C661.616 454.74 662.276 456.46 663.596 457.9C664.956 459.3 666.956 460 669.596 460C672.236 460 674.256 459.3 675.656 457.9C677.096 456.46 677.816 454.6 677.816 452.32V451.72C677.816 449.48 677.096 447.7 675.656 446.38C674.256 445.06 672.496 444.4 670.376 444.4C669.216 444.4 668.256 444.56 667.496 444.88C666.736 445.2 666.116 445.6 665.636 446.08C665.156 446.56 664.756 447.04 664.436 447.52H655.136V424H683.816V430.96H662.816V441.22H663.896C664.296 440.7 664.836 440.2 665.516 439.72C666.196 439.24 667.076 438.84 668.156 438.52C669.236 438.2 670.516 438.04 671.996 438.04C674.476 438.04 676.736 438.56 678.776 439.6C680.816 440.64 682.436 442.18 683.636 444.22C684.876 446.22 685.496 448.7 685.496 451.66V452.38C685.496 455.34 684.856 457.9 683.576 460.06C682.336 462.22 680.536 463.9 678.176 465.1C675.816 466.26 672.996 466.84 669.716 466.84ZM693.993 466.78L689.433 463.12L721.713 423.22L726.273 426.88L693.993 466.78ZM719.313 466.6C716.273 466.6 713.893 465.8 712.173 464.2C710.453 462.56 709.593 460.34 709.593 457.54V457.12C709.593 454.28 710.453 452.06 712.173 450.46C713.893 448.82 716.273 448 719.313 448C722.273 448 724.633 448.82 726.393 450.46C728.153 452.06 729.033 454.28 729.033 457.12V457.54C729.033 460.34 728.173 462.56 726.453 464.2C724.733 465.8 722.353 466.6 719.313 466.6ZM719.313 461.68C720.473 461.68 721.373 461.32 722.013 460.6C722.693 459.88 723.033 458.94 723.033 457.78V456.82C723.033 455.66 722.693 454.72 722.013 454C721.373 453.28 720.473 452.92 719.313 452.92C718.153 452.92 717.233 453.28 716.553 454C715.913 454.72 715.593 455.66 715.593 456.82V457.78C715.593 458.94 715.913 459.88 716.553 460.6C717.233 461.32 718.153 461.68 719.313 461.68ZM696.393 442C693.353 442 690.973 441.2 689.253 439.6C687.533 437.96 686.673 435.74 686.673 432.94V432.52C686.673 429.68 687.533 427.46 689.253 425.86C690.973 424.22 693.353 423.4 696.393 423.4C699.353 423.4 701.713 424.22 703.473 425.86C705.233 427.46 706.113 429.68 706.113 432.52V432.94C706.113 435.74 705.253 437.96 703.533 439.6C701.813 441.2 699.433 442 696.393 442ZM696.393 437.08C697.553 437.08 698.453 436.72 699.093 436C699.773 435.28 700.113 434.34 700.113 433.18V432.22C700.113 431.06 699.773 430.12 699.093 429.4C698.453 428.68 697.553 428.32 696.393 428.32C695.233 428.32 694.313 428.68 693.633 429.4C692.993 430.12 692.673 431.06 692.673 432.22V433.18C692.673 434.34 692.993 435.28 693.633 436C694.313 436.72 695.233 437.08 696.393 437.08Z" fill="black"/>
<path d="M615.938 364.25L645.75 334.156L664.681 353.265C673.671 346.343 680.545 336.475 683.698 324.597L687.127 311.678M687.127 311.678L701.181 336.249M687.127 311.678L662.785 325.864" stroke="#09D410" stroke-width="7.57088" stroke-linecap="round" stroke-linejoin="round"/>
<path d="M60 166.8C49.6 166.8 40.6667 165.067 33.2 161.6C25.7333 158 20 153 16 146.6C12 140.067 10 132.467 10 123.8H31.4C31.4 130.733 33.6667 136.533 38.2 141.2C42.8667 145.733 50.1333 148 60 148C70 148 77.6667 145.333 83 140C88.3333 134.667 91 127.4 91 118.2V101.4H87.8C85.5333 104.6 81.8667 107.667 76.8 110.6C71.7333 113.533 64.4 115 54.8 115C46.6667 115 39.1333 113.2 32.2 109.6C25.2667 106 19.6667 100.867 15.4 94.2C11.2667 87.4 9.2 79.3333 9.2 70V67.6C9.2 58.2667 11.3333 50.1333 15.6 43.2C20 36.2667 26.0667 30.8667 33.8 27C41.6667 23.1333 50.6667 21.2 60.8 21.2C71.0667 21.2 80 23.2 87.6 27.2C95.3333 31.0667 101.333 36.5333 105.6 43.6C109.867 50.5333 112 58.7333 112 68.2V116.6C112 127.533 109.8 136.733 105.4 144.2C101.133 151.667 95.0667 157.333 87.2 161.2C79.4667 164.933 70.4 166.8 60 166.8ZM60.6 98C66.7333 98 72.0667 96.8 76.6 94.4C81.1333 92 84.6667 88.7333 87.2 84.6C89.7333 80.3333 91 75.3333 91 69.6V68C91 59.3333 88.2 52.5333 82.6 47.6C77.1333 42.5333 69.8 40 60.6 40C51.4 40 44 42.5333 38.4 47.6C32.9333 52.5333 30.2 59.3333 30.2 68V69.6C30.2 75.3333 31.4 80.3333 33.8 84.6C36.3333 88.7333 39.8667 92 44.4 94.4C49.0667 96.8 54.4667 98 60.6 98ZM191.647 164V135.4H120.847V111L174.447 24H212.647V116.8H236.247V135.4H212.647V164H191.647ZM141.247 116.8H191.647V37.2H188.447L141.247 114V116.8ZM297.423 166.8C281.157 166.8 268.157 162.2 258.423 153C248.823 143.667 244.023 129.667 244.023 111V77C244.023 58.7333 248.823 44.8667 258.423 35.4C268.157 25.9333 281.157 21.2 297.423 21.2C313.823 21.2 326.823 25.9333 336.423 35.4C346.157 44.8667 351.023 58.7333 351.023 77V111C351.023 129.667 346.157 143.667 336.423 153C326.823 162.2 313.823 166.8 297.423 166.8ZM297.423 148C308.49 148 316.69 144.867 322.023 138.6C327.357 132.2 330.023 123.267 330.023 111.8V75.8C330.023 64.3333 327.157 55.5333 321.423 49.4C315.69 43.1333 307.69 40 297.423 40C287.023 40 279.023 43.2 273.423 49.6C267.823 55.8667 265.023 64.6 265.023 75.8V111.8C265.023 123.533 267.69 132.533 273.023 138.8C278.49 144.933 286.623 148 297.423 148Z" fill="black"/>
<path d="M406.04 87.84C401.04 87.84 397.04 86.4 394.04 83.52C391.08 80.6 389.6 76.36 389.6 70.8V61.2C389.6 55.64 391.08 51.42 394.04 48.54C397.04 45.62 401.04 44.16 406.04 44.16C411.08 44.16 415.08 45.62 418.04 48.54C421.04 51.42 422.54 55.64 422.54 61.2V70.8C422.54 76.36 421.04 80.6 418.04 83.52C415.08 86.4 411.08 87.84 406.04 87.84ZM406.04 83.34C409.68 83.34 412.5 82.26 414.5 80.1C416.5 77.9 417.5 74.86 417.5 70.98V61.02C417.5 57.14 416.5 54.12 414.5 51.96C412.5 49.76 409.68 48.66 406.04 48.66C402.44 48.66 399.64 49.76 397.64 51.96C395.64 54.12 394.64 57.14 394.64 61.02V70.98C394.64 74.86 395.64 77.9 397.64 80.1C399.64 82.26 402.44 83.34 406.04 83.34ZM408.5 96.72C407.02 96.72 405.82 96.26 404.9 95.34C404.02 94.46 403.58 93.24 403.58 91.68V87H408.5V90.78C408.5 91.98 409.06 92.58 410.18 92.58H414.14V96.72H408.5ZM439.937 87.54C437.817 87.54 435.857 87.08 434.057 86.16C432.297 85.24 430.897 83.88 429.857 82.08C428.857 80.24 428.357 78.02 428.357 75.42V57.66H433.097V75.06C433.097 77.98 433.817 80.1 435.257 81.42C436.737 82.74 438.717 83.4 441.197 83.4C443.997 83.4 446.297 82.48 448.097 80.64C449.897 78.8 450.797 76.06 450.797 72.42V57.66H455.537V87H450.917V82.02H450.077C449.437 83.42 448.337 84.7 446.777 85.86C445.217 86.98 442.937 87.54 439.937 87.54ZM476.495 87.84C473.535 87.84 470.935 87.22 468.695 85.98C466.455 84.7 464.715 82.92 463.475 80.64C462.235 78.36 461.615 75.72 461.615 72.72V72C461.615 68.96 462.235 66.3 463.475 64.02C464.715 61.74 466.435 59.98 468.635 58.74C470.835 57.46 473.355 56.82 476.195 56.82C478.955 56.82 481.395 57.42 483.515 58.62C485.635 59.78 487.295 61.46 488.495 63.66C489.695 65.86 490.295 68.44 490.295 71.4V73.56H466.355C466.475 76.72 467.495 79.2 469.415 81C471.335 82.76 473.735 83.64 476.615 83.64C479.135 83.64 481.075 83.06 482.435 81.9C483.795 80.74 484.835 79.36 485.555 77.76L489.635 79.74C489.035 80.98 488.195 82.22 487.115 83.46C486.075 84.7 484.695 85.74 482.975 86.58C481.295 87.42 479.135 87.84 476.495 87.84ZM466.415 69.66H485.495C485.335 66.94 484.395 64.82 482.675 63.3C480.995 61.78 478.835 61.02 476.195 61.02C473.515 61.02 471.315 61.78 469.595 63.3C467.875 64.82 466.815 66.94 466.415 69.66ZM507.983 87.84C504.343 87.84 501.263 87 498.743 85.32C496.263 83.64 494.763 80.98 494.243 77.34L498.743 76.32C499.063 78.24 499.663 79.76 500.543 80.88C501.423 81.96 502.503 82.74 503.783 83.22C505.103 83.66 506.503 83.88 507.983 83.88C510.183 83.88 511.923 83.44 513.203 82.56C514.483 81.68 515.123 80.5 515.123 79.02C515.123 77.5 514.503 76.44 513.263 75.84C512.063 75.2 510.403 74.68 508.283 74.28L505.823 73.86C503.943 73.54 502.223 73.04 500.663 72.36C499.103 71.68 497.863 70.76 496.943 69.6C496.023 68.44 495.563 66.98 495.563 65.22C495.563 62.58 496.583 60.52 498.623 59.04C500.663 57.56 503.363 56.82 506.723 56.82C510.043 56.82 512.723 57.58 514.763 59.1C516.843 60.58 518.183 62.68 518.783 65.4L514.343 66.54C513.983 64.42 513.123 62.94 511.763 62.1C510.403 61.22 508.723 60.78 506.723 60.78C504.723 60.78 503.143 61.16 501.983 61.92C500.823 62.64 500.243 63.72 500.243 65.16C500.243 66.56 500.783 67.6 501.863 68.28C502.983 68.92 504.463 69.4 506.303 69.72L508.763 70.14C510.843 70.5 512.703 71 514.343 71.64C516.023 72.24 517.343 73.12 518.303 74.28C519.303 75.44 519.803 76.96 519.803 78.84C519.803 81.72 518.723 83.94 516.563 85.5C514.443 87.06 511.583 87.84 507.983 87.84ZM535.559 87C533.879 87 532.579 86.54 531.659 85.62C530.779 84.7 530.339 83.44 530.339 81.84V61.8H521.519V57.66H530.339V47.22H535.079V57.66H544.679V61.8H535.079V81.12C535.079 82.32 535.659 82.92 536.819 82.92H543.359V87H535.559ZM549.957 87V57.66H554.697V87H549.957ZM552.357 53.1C551.317 53.1 550.437 52.76 549.717 52.08C549.037 51.4 548.697 50.54 548.697 49.5C548.697 48.42 549.037 47.54 549.717 46.86C550.437 46.18 551.317 45.84 552.357 45.84C553.397 45.84 554.257 46.18 554.937 46.86C555.617 47.54 555.957 48.42 555.957 49.5C555.957 50.54 555.617 51.4 554.937 52.08C554.257 52.76 553.397 53.1 552.357 53.1ZM575.824 87.84C572.864 87.84 570.244 87.22 567.964 85.98C565.724 84.74 563.964 83 562.684 80.76C561.444 78.48 560.824 75.8 560.824 72.72V71.94C560.824 68.9 561.444 66.24 562.684 63.96C563.964 61.68 565.724 59.92 567.964 58.68C570.244 57.44 572.864 56.82 575.824 56.82C578.784 56.82 581.384 57.44 583.624 58.68C585.904 59.92 587.664 61.68 588.904 63.96C590.184 66.24 590.824 68.9 590.824 71.94V72.72C590.824 75.8 590.184 78.48 588.904 80.76C587.664 83 585.904 84.74 583.624 85.98C581.384 87.22 578.784 87.84 575.824 87.84ZM575.824 83.58C578.944 83.58 581.424 82.6 583.264 80.64C585.144 78.64 586.084 75.96 586.084 72.6V72.06C586.084 68.7 585.144 66.04 583.264 64.08C581.424 62.08 578.944 61.08 575.824 61.08C572.744 61.08 570.264 62.08 568.384 64.08C566.504 66.04 565.564 68.7 565.564 72.06V72.6C565.564 75.96 566.504 78.64 568.384 80.64C570.264 82.6 572.744 83.58 575.824 83.58ZM596.953 87V57.66H601.573V62.64H602.413C603.053 61.24 604.133 59.98 605.653 58.86C607.213 57.7 609.493 57.12 612.493 57.12C614.693 57.12 616.653 57.58 618.373 58.5C620.133 59.42 621.533 60.78 622.573 62.58C623.613 64.38 624.133 66.6 624.133 69.24V87H619.393V69.6C619.393 66.68 618.653 64.56 617.173 63.24C615.733 61.92 613.773 61.26 611.293 61.26C608.453 61.26 606.133 62.18 604.333 64.02C602.573 65.86 601.693 68.6 601.693 72.24V87H596.953ZM643.17 87.84C639.53 87.84 636.45 87 633.93 85.32C631.45 83.64 629.95 80.98 629.43 77.34L633.93 76.32C634.25 78.24 634.85 79.76 635.73 80.88C636.61 81.96 637.69 82.74 638.97 83.22C640.29 83.66 641.69 83.88 643.17 83.88C645.37 83.88 647.11 83.44 648.39 82.56C649.67 81.68 650.31 80.5 650.31 79.02C650.31 77.5 649.69 76.44 648.45 75.84C647.25 75.2 645.59 74.68 643.47 74.28L641.01 73.86C639.13 73.54 637.41 73.04 635.85 72.36C634.29 71.68 633.05 70.76 632.13 69.6C631.21 68.44 630.75 66.98 630.75 65.22C630.75 62.58 631.77 60.52 633.81 59.04C635.85 57.56 638.55 56.82 641.91 56.82C645.23 56.82 647.91 57.58 649.95 59.1C652.03 60.58 653.37 62.68 653.97 65.4L649.53 66.54C649.17 64.42 648.31 62.94 646.95 62.1C645.59 61.22 643.91 60.78 641.91 60.78C639.91 60.78 638.33 61.16 637.17 61.92C636.01 62.64 635.43 63.72 635.43 65.16C635.43 66.56 635.97 67.6 637.05 68.28C638.17 68.92 639.65 69.4 641.49 69.72L643.95 70.14C646.03 70.5 647.89 71 649.53 71.64C651.21 72.24 652.53 73.12 653.49 74.28C654.49 75.44 654.99 76.96 654.99 78.84C654.99 81.72 653.91 83.94 651.75 85.5C649.63 87.06 646.77 87.84 643.17 87.84ZM387.5 144L400.46 102H409.34L422.3 144H417.08L413.84 133.38H395.96L392.72 144H387.5ZM397.22 128.82H412.52L405.32 105.06H404.48L397.22 128.82ZM438.193 144.84C434.553 144.84 431.473 144 428.953 142.32C426.473 140.64 424.973 137.98 424.453 134.34L428.953 133.32C429.273 135.24 429.873 136.76 430.753 137.88C431.633 138.96 432.713 139.74 433.993 140.22C435.313 140.66 436.713 140.88 438.193 140.88C440.393 140.88 442.133 140.44 443.413 139.56C444.693 138.68 445.333 137.5 445.333 136.02C445.333 134.5 444.713 133.44 443.473 132.84C442.273 132.2 440.613 131.68 438.493 131.28L436.033 130.86C434.153 130.54 432.433 130.04 430.873 129.36C429.313 128.68 428.073 127.76 427.153 126.6C426.233 125.44 425.773 123.98 425.773 122.22C425.773 119.58 426.793 117.52 428.833 116.04C430.873 114.56 433.573 113.82 436.933 113.82C440.253 113.82 442.933 114.58 444.973 116.1C447.053 117.58 448.393 119.68 448.993 122.4L444.553 123.54C444.193 121.42 443.333 119.94 441.973 119.1C440.613 118.22 438.933 117.78 436.933 117.78C434.933 117.78 433.353 118.16 432.193 118.92C431.033 119.64 430.453 120.72 430.453 122.16C430.453 123.56 430.993 124.6 432.073 125.28C433.193 125.92 434.673 126.4 436.513 126.72L438.973 127.14C441.053 127.5 442.913 128 444.553 128.64C446.233 129.24 447.553 130.12 448.513 131.28C449.513 132.44 450.013 133.96 450.013 135.84C450.013 138.72 448.933 140.94 446.773 142.5C444.653 144.06 441.793 144.84 438.193 144.84ZM455.614 144V102H460.354V126.72H461.194L474.634 114.66H481.234L464.974 128.94L481.714 144H475.174L461.194 131.22H460.354V144H455.614ZM497.357 144.84C494.397 144.84 491.797 144.22 489.557 142.98C487.317 141.7 485.577 139.92 484.337 137.64C483.097 135.36 482.477 132.72 482.477 129.72V129C482.477 125.96 483.097 123.3 484.337 121.02C485.577 118.74 487.297 116.98 489.497 115.74C491.697 114.46 494.217 113.82 497.057 113.82C499.817 113.82 502.257 114.42 504.377 115.62C506.497 116.78 508.157 118.46 509.357 120.66C510.557 122.86 511.157 125.44 511.157 128.4V130.56H487.217C487.337 133.72 488.357 136.2 490.277 138C492.197 139.76 494.597 140.64 497.477 140.64C499.997 140.64 501.937 140.06 503.297 138.9C504.657 137.74 505.697 136.36 506.417 134.76L510.497 136.74C509.897 137.98 509.057 139.22 507.977 140.46C506.937 141.7 505.557 142.74 503.837 143.58C502.157 144.42 499.997 144.84 497.357 144.84ZM487.277 126.66H506.357C506.197 123.94 505.257 121.82 503.537 120.3C501.857 118.78 499.697 118.02 497.057 118.02C494.377 118.02 492.177 118.78 490.457 120.3C488.737 121.82 487.677 123.94 487.277 126.66ZM529.445 144.84C526.925 144.84 524.605 144.24 522.485 143.04C520.365 141.84 518.685 140.1 517.445 137.82C516.205 135.54 515.585 132.84 515.585 129.72V128.94C515.585 125.82 516.205 123.14 517.445 120.9C518.685 118.62 520.345 116.88 522.425 115.68C524.545 114.44 526.885 113.82 529.445 113.82C531.485 113.82 533.205 114.1 534.605 114.66C536.045 115.18 537.205 115.86 538.085 116.7C538.965 117.5 539.645 118.36 540.125 119.28H540.965V102H545.705V144H541.085V139.14H540.245C539.445 140.62 538.205 141.94 536.525 143.1C534.845 144.26 532.485 144.84 529.445 144.84ZM530.705 140.64C533.745 140.64 536.205 139.68 538.085 137.76C540.005 135.8 540.965 133.08 540.965 129.6V129.06C540.965 125.58 540.005 122.88 538.085 120.96C536.205 119 533.745 118.02 530.705 118.02C527.705 118.02 525.225 119 523.265 120.96C521.345 122.88 520.385 125.58 520.385 129.06V129.6C520.385 133.08 521.345 135.8 523.265 137.76C525.225 139.68 527.705 140.64 530.705 140.64Z" fill="black"/>
<path d="M718.06 173.54V164.42H709.06V157.58H718.06V148.46H725.14V157.58H734.14V164.42H725.14V173.54H718.06ZM753.287 182V145.64H752.207L746.567 158.96H738.527L747.107 140H760.967V182H753.287ZM778.016 182V145.64H776.936L771.296 158.96H763.256L771.836 140H785.696V182H778.016ZM796.145 182.78L791.585 179.12L823.865 139.22L828.425 142.88L796.145 182.78ZM821.465 182.6C818.425 182.6 816.045 181.8 814.325 180.2C812.605 178.56 811.745 176.34 811.745 173.54V173.12C811.745 170.28 812.605 168.06 814.325 166.46C816.045 164.82 818.425 164 821.465 164C824.425 164 826.785 164.82 828.545 166.46C830.305 168.06 831.185 170.28 831.185 173.12V173.54C831.185 176.34 830.325 178.56 828.605 180.2C826.885 181.8 824.505 182.6 821.465 182.6ZM821.465 177.68C822.625 177.68 823.525 177.32 824.165 176.6C824.845 175.88 825.185 174.94 825.185 173.78V172.82C825.185 171.66 824.845 170.72 824.165 170C823.525 169.28 822.625 168.92 821.465 168.92C820.305 168.92 819.385 169.28 818.705 170C818.065 170.72 817.745 171.66 817.745 172.82V173.78C817.745 174.94 818.065 175.88 818.705 176.6C819.385 177.32 820.305 177.68 821.465 177.68ZM798.545 158C795.505 158 793.125 157.2 791.405 155.6C789.685 153.96 788.825 151.74 788.825 148.94V148.52C788.825 145.68 789.685 143.46 791.405 141.86C793.125 140.22 795.505 139.4 798.545 139.4C801.505 139.4 803.865 140.22 805.625 141.86C807.385 143.46 808.265 145.68 808.265 148.52V148.94C808.265 151.74 807.405 153.96 805.685 155.6C803.965 157.2 801.585 158 798.545 158ZM798.545 153.08C799.705 153.08 800.605 152.72 801.245 152C801.925 151.28 802.265 150.34 802.265 149.18V148.22C802.265 147.06 801.925 146.12 801.245 145.4C800.605 144.68 799.705 144.32 798.545 144.32C797.385 144.32 796.465 144.68 795.785 145.4C795.145 146.12 794.825 147.06 794.825 148.22V149.18C794.825 150.34 795.145 151.28 795.785 152C796.465 152.72 797.385 153.08 798.545 153.08Z" fill="black"/>
<path d="M726.938 80.25L756.75 50.1563L775.681 69.2654C784.671 62.3428 791.545 52.4747 794.698 40.597L798.127 27.6777M798.127 27.6777L812.181 52.2492M798.127 27.6777L773.785 41.8641" stroke="#09D410" stroke-width="7.57088" stroke-linecap="round" stroke-linejoin="round"/>
</svg>
